<svg width="48" height="48" viewBox="0 0 48 48" fill="none" xmlns="http://www.w3.org/2000/svg">
<rect x="0.5" y="0.5" width="47" height="47" rx="23.5" fill="#F9F9F9" stroke="#3D3D3D"/>
<path fill-rule="evenodd" clip-rule="evenodd" d="M24 8C23.6318 8 23.3333 8.29848 23.3333 8.66667V18.9361L20.6755 9.01688C20.5802 8.66123 20.2146 8.45018 19.859 8.54547C19.5033 8.64077 19.2923 9.00633 19.3876 9.36197L22.0455 19.2816L16.9108 10.388C16.7267 10.0691 16.319 9.95986 16.0001 10.144C15.6813 10.3281 15.572 10.7358 15.7561 11.0546L20.8907 19.948L13.6291 12.6864C13.3688 12.4261 12.9467 12.4261 12.6863 12.6864C12.426 12.9468 12.426 13.3689 12.6863 13.6292L19.9491 20.892L11.0542 15.7565C10.7353 15.5724 10.3276 15.6817 10.1435 16.0005C9.95937 16.3194 10.0686 16.7271 10.3875 16.9112L19.2802 22.0454L9.3616 19.3877C9.00596 19.2924 8.6404 19.5035 8.54511 19.8591C8.44981 20.2148 8.66087 20.5803 9.01651 20.6756L18.9352 23.3333H8.66667C8.29848 23.3333 8 23.6318 8 24C8 24.3682 8.29848 24.6667 8.66667 24.6667H18.9366L9.01663 27.3247C8.66099 27.42 8.44993 27.7856 8.54523 28.1412C8.64052 28.4968 9.00608 28.7079 9.36172 28.6126L19.2812 25.9547L10.3876 31.0894C10.0687 31.2735 9.95946 31.6813 10.1436 32.0001C10.3276 32.319 10.7354 32.4282 11.0542 32.2441L19.9478 27.1094L12.6863 34.3709C12.426 34.6313 12.426 35.0534 12.6863 35.3138C12.9467 35.5741 13.3688 35.5741 13.6291 35.3138L20.8902 28.0526L15.756 36.9454C15.5719 37.2642 15.6812 37.6719 16 37.856C16.3189 38.0401 16.7266 37.9309 16.9107 37.612L22.0456 28.7182L19.3876 38.6381C19.2923 38.9937 19.5033 39.3593 19.859 39.4546C20.2146 39.5499 20.5802 39.3388 20.6755 38.9832L23.3333 29.0639V39.3333C23.3333 39.7015 23.6318 40 24 40C24.3682 40 24.6667 39.7015 24.6667 39.3333V29.0637L27.3247 38.9837C27.42 39.3393 27.7856 39.5504 28.1412 39.4551C28.4968 39.3598 28.7079 38.9942 28.6126 38.6386L25.9547 28.7191L31.0894 37.6128C31.2735 37.9316 31.6813 38.0409 32.0001 37.8568C32.319 37.6727 32.4282 37.2649 32.2441 36.9461L27.1092 28.0521L34.3709 35.3139C34.6313 35.5742 35.0534 35.5742 35.3138 35.3139C35.5741 35.0535 35.5741 34.6314 35.3138 34.371L28.0533 27.1105L36.9456 32.2445C37.2645 32.4286 37.6722 32.3194 37.8563 32.0005C38.0404 31.6817 37.9311 31.2739 37.6123 31.0898L28.7177 25.9545L38.6382 28.6128C38.9939 28.708 39.3594 28.497 39.4547 28.1413C39.55 27.7857 39.339 27.4201 38.9833 27.3249L29.0629 24.6667H39.3333C39.7015 24.6667 40 24.3682 40 24C40 23.6318 39.7015 23.3333 39.3333 23.3333H29.0643L38.9835 20.6755C39.3391 20.5802 39.5501 20.2146 39.4549 19.859C39.3596 19.5034 38.994 19.2923 38.6384 19.3876L28.7187 22.0456L37.6124 16.9108C37.9312 16.7267 38.0405 16.319 37.8564 16.0001C37.6723 15.6813 37.2645 15.572 36.9457 15.7561L28.052 20.8909L35.3137 13.6291C35.5741 13.3688 35.5741 12.9467 35.3137 12.6863C35.0534 12.426 34.6313 12.426 34.3709 12.6863L27.1088 19.9485L32.2441 11.0539C32.4282 10.7351 32.3189 10.3273 32 10.1432C31.6812 9.95913 31.2735 10.0684 31.0894 10.3872L25.9547 19.2807L28.6126 9.36144C28.7079 9.00579 28.4968 8.64024 28.1412 8.54494C27.7855 8.44965 27.42 8.6607 27.3247 9.01635L24.6667 18.9362V8.66667C24.6667 8.29848 24.3682 8 24 8Z" fill="#3D3D3D"/>
</svg>
