<svg width="240" height="689" viewBox="0 0 240 689" fill="none" xmlns="http://www.w3.org/2000/svg">
<path d="M120.5 24L117 18L124 18L120.5 24Z" fill="url(#paint0_linear_477_213)"/>
<rect x="145.5" y="17.5" width="50" height="17" rx="1.5" transform="rotate(-180 145.5 17.5)" fill="url(#paint1_linear_477_213)"/>
<path d="M104.332 12.782V14H111.192V12.516H106.614L108.616 10.78C109.582 9.954 110.814 8.834 110.814 7.336C110.814 5.824 109.47 4.76 107.734 4.76C105.97 4.76 104.808 5.852 104.276 7.168L105.508 7.714C105.844 6.888 106.586 6.16 107.566 6.16C108.378 6.16 109.064 6.664 109.064 7.504C109.064 8.33 108.42 8.96 107.342 9.968L104.332 12.782ZM120.116 9.464C120.116 6.664 118.548 4.76 116.252 4.76C113.942 4.76 112.374 6.664 112.374 9.464C112.374 12.278 113.942 14.182 116.252 14.182C118.548 14.182 120.116 12.278 120.116 9.464ZM114.138 9.464C114.138 7.49 114.978 6.188 116.252 6.188C117.512 6.188 118.366 7.49 118.366 9.464C118.366 11.452 117.512 12.754 116.252 12.754C114.978 12.754 114.138 11.452 114.138 9.464ZM128.382 11.032C128.382 9.268 126.912 7.994 125.036 7.994C124.126 7.994 123.398 8.302 122.936 8.624L123.076 6.468H127.99V4.942H121.816L121.48 10.052L122.558 10.29C123.006 9.744 123.818 9.366 124.658 9.366C125.834 9.366 126.632 10.094 126.632 11.102C126.632 12.138 125.806 12.782 124.602 12.782C123.538 12.782 122.74 12.278 122.25 11.382L120.99 12.026C121.718 13.384 123.034 14.196 124.686 14.196C126.828 14.196 128.382 12.824 128.382 11.032ZM137.124 9.464C137.124 6.664 135.556 4.76 133.26 4.76C130.95 4.76 129.382 6.664 129.382 9.464C129.382 12.278 130.95 14.182 133.26 14.182C135.556 14.182 137.124 12.278 137.124 9.464ZM131.146 9.464C131.146 7.49 131.986 6.188 133.26 6.188C134.52 6.188 135.374 7.49 135.374 9.464C135.374 11.452 134.52 12.754 133.26 12.754C131.986 12.754 131.146 11.452 131.146 9.464Z" fill="#F9F9F9"/>
<rect x="145.5" y="17.5" width="50" height="17" rx="1.5" transform="rotate(-180 145.5 17.5)" stroke="url(#paint2_linear_477_213)"/>
<path d="M195.648 580.89L44.7708 580.89L5.61266e-05 152.881L239.971 152.881L195.648 580.89Z" fill="url(#paint3_linear_477_213)"/>
<path d="M120.244 507.07C161.507 507.07 194.958 540.521 194.958 581.785C194.958 623.049 161.507 656.5 120.244 656.5C78.9797 656.5 45.5287 623.049 45.5287 581.785C45.5287 540.521 78.9797 507.07 120.244 507.07Z" fill="#F9F9F9" stroke="url(#paint4_linear_477_213)"/>
<path d="M120.014 32.5C186.005 32.5 239.5 85.9955 239.5 151.986C239.5 217.976 186.005 271.471 120.014 271.471C54.0243 271.471 0.528755 217.976 0.528763 151.986C0.528772 85.9955 54.0243 32.5 120.014 32.5Z" fill="url(#paint5_linear_477_213)" stroke="#F9F9F9"/>
<path d="M119.5 665L123 671L116 671L119.5 665Z" fill="url(#paint6_linear_477_213)"/>
<rect x="144.5" y="688.5" width="50" height="17" rx="1.5" transform="rotate(-180 144.5 688.5)" fill="#F9F9F9"/>
<path d="M103.332 683.782V685H110.192V683.516H105.614L107.616 681.78C108.582 680.954 109.814 679.834 109.814 678.336C109.814 676.824 108.47 675.76 106.734 675.76C104.97 675.76 103.808 676.852 103.276 678.168L104.508 678.714C104.844 677.888 105.586 677.16 106.566 677.16C107.378 677.16 108.064 677.664 108.064 678.504C108.064 679.33 107.42 679.96 106.342 680.968L103.332 683.782ZM119.116 680.464C119.116 677.664 117.548 675.76 115.252 675.76C112.942 675.76 111.374 677.664 111.374 680.464C111.374 683.278 112.942 685.182 115.252 685.182C117.548 685.182 119.116 683.278 119.116 680.464ZM113.138 680.464C113.138 678.49 113.978 677.188 115.252 677.188C116.512 677.188 117.366 678.49 117.366 680.464C117.366 682.452 116.512 683.754 115.252 683.754C113.978 683.754 113.138 682.452 113.138 680.464ZM120.34 683.782V685H127.2V683.516H122.622L124.624 681.78C125.59 680.954 126.822 679.834 126.822 678.336C126.822 676.824 125.478 675.76 123.742 675.76C121.978 675.76 120.816 676.852 120.284 678.168L121.516 678.714C121.852 677.888 122.594 677.16 123.574 677.16C124.386 677.16 125.072 677.664 125.072 678.504C125.072 679.33 124.428 679.96 123.35 680.968L120.34 683.782ZM128.844 683.782V685H135.704V683.516H131.126L133.128 681.78C134.094 680.954 135.326 679.834 135.326 678.336C135.326 676.824 133.982 675.76 132.246 675.76C130.482 675.76 129.32 676.852 128.788 678.168L130.02 678.714C130.356 677.888 131.098 677.16 132.078 677.16C132.89 677.16 133.576 677.664 133.576 678.504C133.576 679.33 132.932 679.96 131.854 680.968L128.844 683.782Z" fill="url(#paint7_linear_477_213)"/>
<rect x="144.5" y="688.5" width="50" height="17" rx="1.5" transform="rotate(-180 144.5 688.5)" stroke="url(#paint8_linear_477_213)"/>
<path d="M85.7201 592.375C90.9519 579.487 94.3607 571.603 95.9467 568.723C96.9857 566.736 98.6081 565.751 100.814 565.77C102.345 565.77 103.803 565.897 105.189 566.152C106.574 566.389 107.431 566.69 107.759 567.055C107.504 567.656 106.857 568.458 105.818 569.461C98.4714 576.406 92.3099 583.889 87.3334 591.91H99.7748V582.176C103.165 581.027 105.645 580.371 107.212 580.207L108.333 580.371V591.91H112.244V593.332H108.333V593.934C108.333 596.54 108.379 598.208 108.47 598.938C108.561 599.667 108.762 600.186 109.072 600.496L111.97 600.988C112.043 601.207 112.079 601.544 112.079 602H94.7162L94.8256 600.988L99.0365 600.441C99.3282 600.259 99.5196 599.803 99.6107 599.074C99.7201 598.345 99.7748 596.65 99.7748 593.988V593.332H86.0482L85.7201 592.375ZM115.443 598.254C115.443 596.759 115.908 595.565 116.837 594.672C117.767 593.779 118.943 593.332 120.365 593.332C121.823 593.332 123.035 593.797 124.001 594.727C124.967 595.656 125.451 596.832 125.451 598.254C125.451 599.603 124.949 600.724 123.947 601.617C122.944 602.51 121.75 602.957 120.365 602.957C118.979 602.957 117.813 602.51 116.865 601.617C115.917 600.724 115.443 599.603 115.443 598.254ZM128.704 601.316C133.043 597.014 136.507 592.585 139.095 588.027C141.702 583.452 143.005 579.04 143.005 574.793C143.005 572.478 142.741 570.6 142.212 569.16C141.684 567.72 140.973 567 140.079 567C139.934 567 139.77 567.009 139.587 567.027C139.423 567.046 139.286 567.055 139.177 567.055L139.013 567.109C138.648 567.638 138.001 569.534 137.072 572.797C136.16 576.06 135.431 577.846 134.884 578.156C133.244 578.047 131.849 577.6 130.701 576.816C129.57 576.014 129.005 574.984 129.005 573.727C129.005 571.74 130.217 569.917 132.642 568.258C135.066 566.599 137.755 565.77 140.708 565.77C143.99 565.77 146.715 566.59 148.884 568.23C151.072 569.871 152.165 572.186 152.165 575.176C152.165 578.02 151.245 580.553 149.404 582.777C147.563 584.983 143.953 588.201 138.576 592.43L135.322 595.109C137.491 594.471 139.186 594.152 140.408 594.152C141.119 594.152 142.486 594.234 144.509 594.398C146.551 594.544 147.964 594.617 148.747 594.617C149.823 594.617 150.689 594.271 151.345 593.578C152.02 592.867 152.731 591.582 153.478 589.723L154.408 589.969C152.512 598.372 150.552 602.565 148.529 602.547C147.38 602.547 145.074 602.355 141.611 601.973C138.165 601.572 136.014 601.371 135.158 601.371C134.447 601.371 133.59 601.444 132.587 601.59C131.603 601.717 130.773 601.854 130.099 602L129.169 602.219L128.704 601.316Z" fill="url(#paint9_linear_477_213)"/>
<path d="M106.089 630V624.784C106.089 623.04 104.921 621.824 103.433 621.824C102.409 621.824 101.497 622.416 100.921 623.28C100.489 622.384 99.6571 621.824 98.6971 621.824C97.6891 621.824 96.8251 622.448 96.3291 623.216V622.032H94.6331V630H96.3931V624.288C96.7931 623.728 97.4651 623.28 98.1531 623.28C98.9211 623.28 99.4811 623.936 99.4811 624.928V630H101.241V624.784C101.241 624.576 101.225 624.368 101.193 624.176C101.609 623.664 102.265 623.28 102.937 623.28C103.737 623.28 104.329 623.936 104.329 624.928V630H106.089ZM109.987 622.032H108.227V630H109.987V622.032ZM109.987 618.928H108.227V620.672H109.987V618.928ZM114.002 618.784H112.242V630H114.002V618.784ZM118.018 622.032H116.258V630H118.018V622.032ZM118.018 618.928H116.258V620.672H118.018V618.928ZM127.138 630.112L127.218 628.832C127.122 628.848 126.946 628.864 126.85 628.864C126.418 628.864 126.194 628.56 126.194 628.128V624.752C126.194 622.848 125.042 621.824 123.186 621.824C121.682 621.824 120.466 622.624 119.906 623.904L121.218 624.464C121.586 623.76 122.162 623.232 123.026 623.232C123.89 623.232 124.45 623.808 124.45 624.704V625.216L122.674 625.456C120.882 625.712 119.666 626.592 119.666 628.048C119.666 629.312 120.674 630.224 122.082 630.224C123.186 630.224 124.066 629.68 124.562 628.864C124.834 629.792 125.49 630.224 126.418 630.224C126.69 630.224 126.914 630.176 127.138 630.112ZM122.658 628.864C121.97 628.864 121.474 628.448 121.474 627.856C121.474 627.136 122.13 626.704 123.042 626.592L124.45 626.4V627.824C124.066 628.432 123.41 628.864 122.658 628.864ZM130.315 630V625.52C130.459 624.432 131.067 623.52 132.283 623.52C132.539 623.52 132.907 623.568 133.131 623.632L133.147 621.952C132.971 621.872 132.603 621.824 132.331 621.824C131.403 621.824 130.555 622.688 130.251 623.728V622.032H128.555V630H130.315ZM137.743 628.784C136.559 628.784 135.711 627.648 135.711 626.048C135.711 624.432 136.607 623.264 137.839 623.264C138.559 623.264 139.247 623.584 139.631 624.064V627.824C139.199 628.4 138.479 628.784 137.743 628.784ZM141.391 630V618.784H139.631V622.864C139.103 622.24 138.223 621.824 137.375 621.824C135.327 621.824 133.855 623.6 133.855 626.08C133.855 628.48 135.279 630.224 137.263 630.224C138.143 630.224 139.151 629.664 139.727 628.896V630H141.391ZM145.409 622.032H143.649V630H145.409V622.032ZM145.409 618.928H143.649V620.672H145.409V618.928Z" fill="url(#paint10_linear_477_213)"/>
<path d="M104.029 547.75C104.029 544.989 106.267 542.75 109.029 542.75H116.529C119.29 542.75 121.529 544.989 121.529 547.75H104.029Z" fill="url(#paint11_linear_477_213)"/>
<path d="M120.528 552.5C120.528 549.739 122.767 547.5 125.528 547.5H133.028C135.79 547.5 138.028 549.739 138.028 552.5H120.528Z" fill="#3D3D3D"/>
<circle cx="112.778" cy="537.75" r="3.74998" fill="#3D3D3D"/>
<circle cx="129.278" cy="542.5" r="3.74998" fill="url(#paint12_linear_477_213)"/>
<path d="M101.362 192V184.828C101.362 182.43 99.7557 180.758 97.7097 180.758C96.3017 180.758 95.0477 181.572 94.2557 182.76C93.6617 181.528 92.5177 180.758 91.1977 180.758C89.8117 180.758 88.6237 181.616 87.9417 182.672V181.044H85.6097V192H88.0297V184.146C88.5797 183.376 89.5037 182.76 90.4497 182.76C91.5057 182.76 92.2757 183.662 92.2757 185.026V192H94.6957V184.828C94.6957 184.542 94.6737 184.256 94.6297 183.992C95.2017 183.288 96.1037 182.76 97.0277 182.76C98.1277 182.76 98.9417 183.662 98.9417 185.026V192H101.362ZM106.721 181.044H104.301V192H106.721V181.044ZM106.721 176.776H104.301V179.174H106.721V176.776ZM112.243 176.578H109.823V192H112.243V176.578ZM117.764 181.044H115.344V192H117.764V181.044ZM117.764 176.776H115.344V179.174H117.764V176.776ZM130.304 192.154L130.414 190.394C130.282 190.416 130.04 190.438 129.908 190.438C129.314 190.438 129.006 190.02 129.006 189.426V184.784C129.006 182.166 127.422 180.758 124.87 180.758C122.802 180.758 121.13 181.858 120.36 183.618L122.164 184.388C122.67 183.42 123.462 182.694 124.65 182.694C125.838 182.694 126.608 183.486 126.608 184.718V185.422L124.166 185.752C121.702 186.104 120.03 187.314 120.03 189.316C120.03 191.054 121.416 192.308 123.352 192.308C124.87 192.308 126.08 191.56 126.762 190.438C127.136 191.714 128.038 192.308 129.314 192.308C129.688 192.308 129.996 192.242 130.304 192.154ZM124.144 190.438C123.198 190.438 122.516 189.866 122.516 189.052C122.516 188.062 123.418 187.468 124.672 187.314L126.608 187.05V189.008C126.08 189.844 125.178 190.438 124.144 190.438ZM134.672 192V185.84C134.87 184.344 135.706 183.09 137.378 183.09C137.73 183.09 138.236 183.156 138.544 183.244L138.566 180.934C138.324 180.824 137.818 180.758 137.444 180.758C136.168 180.758 135.002 181.946 134.584 183.376V181.044H132.252V192H134.672ZM144.886 190.328C143.258 190.328 142.092 188.766 142.092 186.566C142.092 184.344 143.324 182.738 145.018 182.738C146.008 182.738 146.954 183.178 147.482 183.838V189.008C146.888 189.8 145.898 190.328 144.886 190.328ZM149.902 192V176.578H147.482V182.188C146.756 181.33 145.546 180.758 144.38 180.758C141.564 180.758 139.54 183.2 139.54 186.61C139.54 189.91 141.498 192.308 144.226 192.308C145.436 192.308 146.822 191.538 147.614 190.482V192H149.902ZM155.426 181.044H153.006V192H155.426V181.044ZM155.426 176.776H153.006V179.174H155.426V176.776Z" fill="#F9F9F9"/>
<path d="M86.2971 216V213.214H87.7531C89.8531 213.214 91.2811 211.912 91.2811 210.064C91.2811 208.23 89.8531 206.942 87.7251 206.942H84.6451V216H86.2971ZM86.2971 208.328H87.6131C88.7751 208.328 89.5731 209.028 89.5731 210.064C89.5731 211.114 88.7751 211.828 87.6131 211.828H86.2971V208.328ZM98.4492 214.39L97.2732 213.928C96.9372 214.586 96.3212 214.978 95.6492 214.978C94.6132 214.978 93.8712 214.138 93.7732 212.85H98.4632C98.5052 212.668 98.5332 212.262 98.5332 211.926C98.5332 210.106 97.2872 208.846 95.5232 208.846C93.5912 208.846 92.1772 210.428 92.1772 212.598C92.1772 214.698 93.5912 216.196 95.5372 216.196C96.8392 216.196 97.9592 215.51 98.4492 214.39ZM95.5232 210.022C96.3912 210.022 96.9792 210.708 97.0352 211.772H93.8292C94.0392 210.694 94.6972 210.022 95.5232 210.022ZM101.59 216V212.08C101.716 211.128 102.248 210.33 103.312 210.33C103.536 210.33 103.858 210.372 104.054 210.428L104.068 208.958C103.914 208.888 103.592 208.846 103.354 208.846C102.542 208.846 101.8 209.602 101.534 210.512V209.028H100.05V216H101.59ZM110.789 214.04C110.789 212.738 109.683 212.178 108.087 211.814C106.981 211.562 106.351 211.394 106.351 210.848C106.351 210.344 106.911 210.008 107.737 210.008C108.647 210.008 109.263 210.386 109.599 211.002L110.747 210.526C110.299 209.658 109.403 208.846 107.751 208.846C106.057 208.846 104.895 209.728 104.895 210.974C104.895 212.206 106.071 212.78 107.513 213.102C108.633 213.34 109.333 213.55 109.333 214.138C109.333 214.684 108.815 215.034 107.933 215.034C106.869 215.034 106.127 214.558 105.763 213.928L104.587 214.404C105.063 215.468 106.239 216.196 107.877 216.196C109.683 216.196 110.789 215.328 110.789 214.04ZM118.727 212.514C118.727 210.386 117.271 208.846 115.255 208.846C113.225 208.846 111.755 210.386 111.755 212.514C111.755 214.642 113.225 216.182 115.255 216.182C117.271 216.182 118.727 214.642 118.727 212.514ZM113.379 212.514C113.379 211.114 114.163 210.092 115.255 210.092C116.333 210.092 117.103 211.114 117.103 212.514C117.103 213.914 116.333 214.922 115.255 214.922C114.163 214.922 113.379 213.914 113.379 212.514ZM126.306 216V211.436C126.306 209.924 125.27 208.846 123.926 208.846C122.96 208.846 122.148 209.392 121.686 210.05V209.028H120.202V216H121.742V211.002C122.12 210.512 122.778 210.12 123.464 210.12C124.22 210.12 124.766 210.68 124.766 211.548V216H126.306ZM133.982 214.39L132.806 213.928C132.47 214.586 131.854 214.978 131.182 214.978C130.146 214.978 129.404 214.138 129.306 212.85H133.996C134.038 212.668 134.066 212.262 134.066 211.926C134.066 210.106 132.82 208.846 131.056 208.846C129.124 208.846 127.71 210.428 127.71 212.598C127.71 214.698 129.124 216.196 131.07 216.196C132.372 216.196 133.492 215.51 133.982 214.39ZM131.056 210.022C131.924 210.022 132.512 210.708 132.568 211.772H129.362C129.572 210.694 130.23 210.022 131.056 210.022ZM144.736 216V211.436C144.736 209.924 143.7 208.846 142.356 208.846C141.39 208.846 140.578 209.392 140.116 210.05V209.028H138.632V216H140.172V211.002C140.55 210.512 141.208 210.12 141.894 210.12C142.65 210.12 143.196 210.68 143.196 211.548V216H144.736ZM152.412 214.39L151.236 213.928C150.9 214.586 150.284 214.978 149.612 214.978C148.576 214.978 147.834 214.138 147.736 212.85H152.426C152.468 212.668 152.496 212.262 152.496 211.926C152.496 210.106 151.25 208.846 149.486 208.846C147.554 208.846 146.14 210.428 146.14 212.598C146.14 214.698 147.554 216.196 149.5 216.196C150.802 216.196 151.922 215.51 152.412 214.39ZM149.486 210.022C150.354 210.022 150.942 210.708 150.998 211.772H147.792C148.002 210.694 148.66 210.022 149.486 210.022ZM155.553 209.028H154.013V216H155.553V209.028ZM155.553 206.312H154.013V207.838H155.553V206.312ZM86.942 228.222L85.626 227.732C85.332 228.432 84.828 228.894 84.128 228.894C83.12 228.894 82.406 227.914 82.406 226.556C82.406 225.142 83.106 224.134 84.086 224.134C84.73 224.134 85.262 224.526 85.556 225.268L86.886 224.75C86.382 223.588 85.402 222.846 84.016 222.846C82.126 222.846 80.768 224.4 80.768 226.57C80.768 228.67 82.14 230.196 84.03 230.196C85.416 230.196 86.466 229.356 86.942 228.222ZM94.0127 228.39L92.8367 227.928C92.5007 228.586 91.8847 228.978 91.2127 228.978C90.1767 228.978 89.4347 228.138 89.3367 226.85H94.0267C94.0687 226.668 94.0967 226.262 94.0967 225.926C94.0967 224.106 92.8507 222.846 91.0867 222.846C89.1547 222.846 87.7407 224.428 87.7407 226.598C87.7407 228.698 89.1547 230.196 91.1007 230.196C92.4027 230.196 93.5227 229.51 94.0127 228.39ZM91.0867 224.022C91.9547 224.022 92.5427 224.708 92.5987 225.772H89.3927C89.6027 224.694 90.2607 224.022 91.0867 224.022ZM101.717 230V225.436C101.717 223.924 100.681 222.846 99.3372 222.846C98.3712 222.846 97.5592 223.392 97.0972 224.05V223.028H95.6132V230H97.1532V225.002C97.5312 224.512 98.1892 224.12 98.8752 224.12C99.6312 224.12 100.177 224.68 100.177 225.548V230H101.717ZM107.744 229.972V228.726C107.478 228.81 107.03 228.894 106.61 228.894C105.784 228.894 105.448 228.502 105.448 227.858V224.274H107.716V223.028H105.448V221.334H103.908V223.028H102.858V224.274H103.908V228.18C103.908 229.454 104.762 230.196 106.302 230.196C106.82 230.196 107.422 230.084 107.744 229.972ZM110.538 230V226.08C110.664 225.128 111.196 224.33 112.26 224.33C112.484 224.33 112.806 224.372 113.002 224.428L113.016 222.958C112.862 222.888 112.54 222.846 112.302 222.846C111.49 222.846 110.748 223.602 110.482 224.512V223.028H108.998V230H110.538ZM115.788 223.028H114.248V230H115.788V223.028ZM115.788 220.312H114.248V221.838H115.788V220.312ZM126.704 230V223.028H125.164V227.802C124.842 228.432 124.254 228.908 123.554 228.908C122.798 228.908 122.266 228.306 122.266 227.466V223.028H120.726V227.592C120.726 229.09 121.706 230.182 123.036 230.182C124.016 230.182 124.8 229.622 125.22 228.866V230H126.704ZM130.198 230V226.08C130.324 225.128 130.856 224.33 131.92 224.33C132.144 224.33 132.466 224.372 132.662 224.428L132.676 222.958C132.522 222.888 132.2 222.846 131.962 222.846C131.15 222.846 130.408 223.602 130.142 224.512V223.028H128.658V230H130.198ZM140.53 226.5C140.53 224.372 139.298 222.846 137.59 222.846C136.806 222.846 135.966 223.28 135.448 223.924V220.186H133.908V230H135.364V229.146C135.854 229.748 136.722 230.196 137.492 230.196C139.256 230.196 140.53 228.642 140.53 226.5ZM137.044 228.936C136.4 228.936 135.798 228.628 135.448 228.166V224.904C135.798 224.428 136.428 224.106 137.1 224.106C138.15 224.106 138.906 225.086 138.906 226.472C138.906 227.9 138.122 228.936 137.044 228.936ZM148.035 230.098L148.105 228.978C148.021 228.992 147.867 229.006 147.783 229.006C147.405 229.006 147.209 228.74 147.209 228.362V225.408C147.209 223.742 146.201 222.846 144.577 222.846C143.261 222.846 142.197 223.546 141.707 224.666L142.855 225.156C143.177 224.54 143.681 224.078 144.437 224.078C145.193 224.078 145.683 224.582 145.683 225.366V225.814L144.129 226.024C142.561 226.248 141.497 227.018 141.497 228.292C141.497 229.398 142.379 230.196 143.611 230.196C144.577 230.196 145.347 229.72 145.781 229.006C146.019 229.818 146.593 230.196 147.405 230.196C147.643 230.196 147.839 230.154 148.035 230.098ZM144.115 229.006C143.513 229.006 143.079 228.642 143.079 228.124C143.079 227.494 143.653 227.116 144.451 227.018L145.683 226.85V228.096C145.347 228.628 144.773 229.006 144.115 229.006ZM155.379 230V225.436C155.379 223.924 154.343 222.846 152.999 222.846C152.033 222.846 151.221 223.392 150.759 224.05V223.028H149.275V230H150.815V225.002C151.193 224.512 151.851 224.12 152.537 224.12C153.293 224.12 153.839 224.68 153.839 225.548V230H155.379ZM158.8 223.028H157.26V230H158.8V223.028ZM158.8 220.312H157.26V221.838H158.8V220.312Z" fill="#F9F9F9"/>
<path d="M64.4349 132.656C64.4349 122.156 67.8412 113.422 74.6537 106.453C81.4974 99.4844 90.4818 95.2344 101.607 93.7031C101.982 94.0781 102.232 94.5625 102.357 95.1562C89.9506 100.906 82.6693 109.828 80.5131 121.922C83.7006 119.297 87.3099 117.984 91.3412 117.984C96.6537 117.984 100.919 119.672 104.138 123.047C107.388 126.391 109.013 130.781 109.013 136.219C109.013 142.375 106.904 147.375 102.685 151.219C98.4974 155.031 93.4037 156.938 87.4037 156.938C80.8099 156.938 75.3256 154.797 70.9506 150.516C66.6068 146.234 64.4349 140.281 64.4349 132.656ZM79.7162 130.547C79.7162 137.266 80.3724 143.047 81.6849 147.891C82.9974 152.734 84.9974 155.156 87.6849 155.156C89.7474 155.156 91.2943 153.625 92.3256 150.562C93.3881 147.469 93.9193 143.719 93.9193 139.312C93.9193 134.438 93.1224 130.375 91.5287 127.125C89.9349 123.844 87.9506 122.203 85.5756 122.203C83.9193 122.203 82.1849 122.688 80.3724 123.656C79.9349 125.906 79.7162 128.203 79.7162 130.547ZM114.732 149.578C114.732 147.016 115.529 144.969 117.122 143.438C118.716 141.906 120.732 141.141 123.169 141.141C125.669 141.141 127.747 141.938 129.404 143.531C131.06 145.125 131.888 147.141 131.888 149.578C131.888 151.891 131.029 153.812 129.31 155.344C127.591 156.875 125.544 157.641 123.169 157.641C120.794 157.641 118.794 156.875 117.169 155.344C115.544 153.812 114.732 151.891 114.732 149.578ZM136.435 116.719C137.654 108.906 139.06 103.281 140.654 99.8437C142.247 96.375 144.201 94.6406 146.513 94.6406C148.357 94.6406 152.294 94.9687 158.326 95.625C164.388 96.25 169.06 96.5625 172.341 96.5625C172.966 96.5625 173.826 96.2969 174.919 95.7656C176.013 95.2031 176.935 94.6406 177.685 94.0781L178.857 93.2344L179.794 94.0781C164.232 119.047 156.404 133.922 156.31 138.703C156.56 140.172 157.685 142.578 159.685 145.922C161.716 149.234 162.826 151.828 163.013 153.703C161.107 156.141 158.107 157.359 154.013 157.359C152.294 157.359 150.904 156.859 149.841 155.859C148.779 154.859 148.247 153.531 148.247 151.875C148.247 145.719 154.841 131.672 168.029 109.734C158.06 108.891 151.404 108.469 148.06 108.469C145.122 108.469 143.06 108.969 141.872 109.969C140.685 110.969 139.419 113.281 138.076 116.906L136.435 116.719Z" fill="#F9F9F9"/>
<path d="M112.083 74C112.083 71.6068 114.023 69.6667 116.417 69.6667H122.917C125.31 69.6667 127.25 71.6068 127.25 74H112.083Z" fill="#F9F9F9"/>
<path d="M112.083 59.9162C112.083 57.523 114.023 55.5829 116.417 55.5829H122.917C125.31 55.5829 127.25 57.523 127.25 59.9162H112.083Z" fill="#F9F9F9"/>
<path d="M126.166 67.5C126.166 65.1068 128.107 63.1667 130.5 63.1667H137C139.393 63.1667 141.333 65.1068 141.333 67.5H126.166Z" fill="#3D3D3D"/>
<path d="M98 67.5C98 65.1068 99.9401 63.1667 102.333 63.1667H108.833C111.227 63.1667 113.167 65.1068 113.167 67.5H98Z" fill="#3D3D3D"/>
<circle cx="119.666" cy="65.3329" r="3.24998" fill="#3D3D3D"/>
<circle cx="119.666" cy="51.25" r="3.24998" fill="#3D3D3D"/>
<circle cx="133.75" cy="58.8329" r="3.24998" fill="#F9F9F9"/>
<circle cx="105.584" cy="58.8329" r="3.24998" fill="#F9F9F9"/>
<path d="M121.052 419.666L122.004 419.666L122.004 416.894L124.706 416.894L124.706 415.886L122.004 415.886L122.004 413.114L121.052 413.114L121.052 415.886L118.196 415.886L118.196 416.894L121.052 416.894L121.052 419.666ZM119.022 421.411L118 421.411L118 428.159L119.176 428.159L119.176 423.245L121.206 425.541C121.976 426.395 123.166 427.739 124.706 427.739C126.19 427.739 127.24 426.437 127.24 424.757C127.24 423.063 126.162 421.943 124.874 421.411L124.412 422.405C125.308 422.783 126.106 423.581 126.106 424.687C126.106 425.597 125.546 426.381 124.58 426.381C123.642 426.381 122.914 425.611 121.906 424.533L119.022 421.411ZM120.968 436.666C122.704 436.666 124.006 435.196 124.006 433.348C124.006 432.396 123.656 431.64 123.306 431.164L125.826 431.346L125.826 436.26L127.058 436.26L127.058 430.31L121.99 429.96L121.808 430.828C122.452 431.276 122.886 432.172 122.886 433.11C122.886 434.398 122.046 435.308 120.884 435.308C119.708 435.308 118.952 434.384 118.952 433.026C118.952 431.864 119.512 431.024 120.506 430.506L119.988 429.498C118.644 430.184 117.818 431.458 117.818 433.068C117.818 435.14 119.19 436.666 120.968 436.666ZM117.888 447.364L118.798 447.42C118.784 447.336 118.77 447.196 118.77 447.112C118.77 446.692 119.064 446.482 119.442 446.482L122.634 446.482C124.244 446.482 125.126 445.502 125.126 443.99C125.126 442.786 124.454 441.736 123.362 441.232L122.984 442.156C123.642 442.506 124.132 443.052 124.132 443.878C124.132 444.732 123.544 445.292 122.676 445.292L122.13 445.292L121.934 443.668C121.738 442.128 120.996 441.036 119.708 441.036C118.602 441.036 117.818 441.918 117.818 443.15C117.818 444.13 118.294 444.9 119.036 445.348C118.238 445.516 117.818 446.034 117.818 446.818C117.818 447.028 117.846 447.196 117.888 447.364ZM118.784 443.472C118.784 442.772 119.204 442.282 119.792 442.282C120.506 442.282 120.926 442.954 121.038 443.878L121.206 445.292L119.932 445.292C119.26 444.928 118.784 444.242 118.784 443.472ZM118 454.53L122.592 454.53C124.076 454.53 125.126 453.494 125.126 452.136C125.126 451.142 124.538 450.302 123.88 449.84L124.944 449.84L124.944 448.692L118 448.692L118 449.882L123.04 449.882C123.656 450.316 124.118 451.072 124.118 451.856C124.118 452.724 123.474 453.34 122.508 453.34L118 453.34L118 454.53ZM118 462.446L122.592 462.446C124.076 462.446 125.126 461.41 125.126 460.052C125.126 459.058 124.538 458.218 123.88 457.756L124.944 457.756L124.944 456.608L118 456.608L118 457.798L123.04 457.798C123.656 458.232 124.118 458.988 124.118 459.772C124.118 460.64 123.474 461.256 122.508 461.256L118 461.256L118 462.446ZM124.944 465.714L124.944 464.524L118 464.524L118 465.714L124.944 465.714ZM127.702 465.714L127.702 464.524L126.316 464.524L126.316 465.714L127.702 465.714Z" fill="#F9F9F9"/>
<path d="M108.646 491.354C108.842 491.549 109.158 491.549 109.354 491.354L112.536 488.172C112.731 487.976 112.731 487.66 112.536 487.464C112.34 487.269 112.024 487.269 111.828 487.464L109 490.293L106.172 487.464C105.976 487.269 105.66 487.269 105.464 487.464C105.269 487.66 105.269 487.976 105.464 488.172L108.646 491.354ZM108.5 288L108.5 491L109.5 491L109.5 288L108.5 288Z" fill="#F9F9F9"/>
<defs>
<linearGradient id="paint0_linear_477_213" x1="115.599" y1="16.5468" x2="125.821" y2="16.6019" gradientUnits="userSpaceOnUse">
<stop stop-color="#07A76F"/>
<stop offset="1" stop-color="#8ECA45"/>
</linearGradient>
<linearGradient id="paint1_linear_477_213" x1="135.789" y1="13.6405" x2="210.255" y2="14.6153" gradientUnits="userSpaceOnUse">
<stop stop-color="#07A76F"/>
<stop offset="1" stop-color="#8ECA45"/>
</linearGradient>
<linearGradient id="paint2_linear_477_213" x1="135.789" y1="13.6405" x2="210.255" y2="14.6153" gradientUnits="userSpaceOnUse">
<stop stop-color="#07A76F"/>
<stop offset="1" stop-color="#8ECA45"/>
</linearGradient>
<linearGradient id="paint3_linear_477_213" x1="-58.1199" y1="666.58" x2="-52.9694" y2="41.5767" gradientUnits="userSpaceOnUse">
<stop stop-color="#07A76F"/>
<stop offset="1" stop-color="#8ECA45"/>
</linearGradient>
<linearGradient id="paint4_linear_477_213" x1="8.59531" y1="687.117" x2="9.61031" y2="467.44" gradientUnits="userSpaceOnUse">
<stop stop-color="#07A76F"/>
<stop offset="1" stop-color="#8ECA45"/>
</linearGradient>
<linearGradient id="paint5_linear_477_213" x1="-58.0912" y1="320.015" x2="-56.472" y2="-30.4213" gradientUnits="userSpaceOnUse">
<stop stop-color="#07A76F"/>
<stop offset="1" stop-color="#8ECA45"/>
</linearGradient>
<linearGradient id="paint6_linear_477_213" x1="124.401" y1="672.453" x2="114.179" y2="672.398" gradientUnits="userSpaceOnUse">
<stop stop-color="#07A76F"/>
<stop offset="1" stop-color="#8ECA45"/>
</linearGradient>
<linearGradient id="paint7_linear_477_213" x1="94.9927" y1="669.609" x2="146.098" y2="670.2" gradientUnits="userSpaceOnUse">
<stop stop-color="#07A76F"/>
<stop offset="1" stop-color="#8ECA45"/>
</linearGradient>
<linearGradient id="paint8_linear_477_213" x1="134.789" y1="684.64" x2="209.255" y2="685.615" gradientUnits="userSpaceOnUse">
<stop stop-color="#07A76F"/>
<stop offset="1" stop-color="#8ECA45"/>
</linearGradient>
<linearGradient id="paint9_linear_477_213" x1="70.814" y1="543.437" x2="174.496" y2="544.044" gradientUnits="userSpaceOnUse">
<stop stop-color="#07A76F"/>
<stop offset="1" stop-color="#8ECA45"/>
</linearGradient>
<linearGradient id="paint10_linear_477_213" x1="82.2175" y1="613.125" x2="161.058" y2="614.354" gradientUnits="userSpaceOnUse">
<stop stop-color="#07A76F"/>
<stop offset="1" stop-color="#8ECA45"/>
</linearGradient>
<linearGradient id="paint11_linear_477_213" x1="100.525" y1="541.54" x2="126.075" y2="541.953" gradientUnits="userSpaceOnUse">
<stop stop-color="#07A76F"/>
<stop offset="1" stop-color="#8ECA45"/>
</linearGradient>
<linearGradient id="paint12_linear_477_213" x1="124.027" y1="536.934" x2="134.979" y2="536.984" gradientUnits="userSpaceOnUse">
<stop stop-color="#07A76F"/>
<stop offset="1" stop-color="#8ECA45"/>
</linearGradient>
</defs>
</svg>
