<svg width="26" height="158" viewBox="0 0 26 158" fill="none" xmlns="http://www.w3.org/2000/svg">
<path d="M19.77 151.21C17.83 151.21 16.42 152.54 16.42 154.39C16.42 156.24 17.82 157.58 19.76 157.58C21.71 157.58 23.13 156.24 23.13 154.39C23.13 152.54 21.72 151.21 19.77 151.21ZM19.76 156.33C18.42 156.33 17.45 155.52 17.45 154.39C17.45 153.27 18.42 152.46 19.76 152.46C21.12 152.46 22.1 153.27 22.1 154.39C22.1 155.52 21.12 156.33 19.76 156.33ZM23 148.873L18.6 148.873L23 145.613L23 144.593L16.53 144.593L16.53 145.703L20.97 145.703L16.53 148.963L16.53 149.983L23 149.983L23 148.873ZM20.57 137.821L16.53 137.821L16.53 138.941L20.57 138.941C21.54 138.941 22.09 139.471 22.09 140.401C22.09 141.331 21.54 141.861 20.57 141.861L16.53 141.861L16.53 143.041L20.57 143.041C22.12 143.041 23.12 142.061 23.12 140.421C23.12 138.781 22.12 137.821 20.57 137.821ZM20.84 134.294L20.84 125.294L20.08 125.294L20.08 134.294L20.84 134.294ZM23 119.437L20.35 118.467L20.37 118.457L23 117.497L22.99 116.347L16.53 114.327L16.53 115.417L21.59 116.957L19.16 117.877L16.53 116.877L16.53 117.867L18.14 118.377L16.53 118.897L16.53 119.967L19.25 118.947L21.59 119.857L16.53 121.387L16.53 122.547L23 120.537L23 119.437ZM20.51 109.184C18.99 109.184 17.89 110.224 17.89 111.664C17.89 113.114 18.99 114.164 20.51 114.164C22.03 114.164 23.13 113.114 23.13 111.664C23.13 110.224 22.03 109.184 20.51 109.184ZM20.51 113.004C19.51 113.004 18.78 112.444 18.78 111.664C18.78 110.894 19.51 110.344 20.51 110.344C21.51 110.344 22.23 110.894 22.23 111.664C22.23 112.444 21.51 113.004 20.51 113.004ZM23 107.03L20.2 107.03C19.52 106.94 18.95 106.56 18.95 105.8C18.95 105.64 18.98 105.41 19.02 105.27L17.97 105.26C17.92 105.37 17.89 105.6 17.89 105.77C17.89 106.35 18.43 106.88 19.08 107.07L18.02 107.07L18.02 108.13L23 108.13L23 107.03ZM15.99 103.28L15.99 104.38L23 104.38L23 103.28L15.99 103.28ZM20.57 94.4326L16.53 94.4326L16.53 95.5526L20.57 95.5526C21.54 95.5526 22.09 96.0826 22.09 97.0126C22.09 97.9426 21.54 98.4726 20.57 98.4726L16.53 98.4726L16.53 99.6526L20.57 99.6526C22.12 99.6526 23.12 98.6726 23.12 97.0326C23.12 95.3926 22.12 94.4326 20.57 94.4326ZM23 91.952L20.2 91.952C19.52 91.862 18.95 91.482 18.95 90.722C18.95 90.562 18.98 90.332 19.02 90.192L17.97 90.182C17.92 90.292 17.89 90.522 17.89 90.692C17.89 91.272 18.43 91.802 19.08 91.992L18.02 91.992L18.02 93.052L23 93.052L23 91.952ZM20.5 84.572C18.98 84.572 17.89 85.452 17.89 86.672C17.89 87.232 18.2 87.832 18.66 88.202L15.99 88.202L15.99 89.302L23 89.302L23 88.262L22.39 88.262C22.82 87.912 23.14 87.292 23.14 86.742C23.14 85.482 22.03 84.572 20.5 84.572ZM22.24 87.062C22.24 87.522 22.02 87.952 21.69 88.202L19.36 88.202C19.02 87.952 18.79 87.502 18.79 87.022C18.79 86.272 19.49 85.732 20.48 85.732C21.5 85.732 22.24 86.292 22.24 87.062ZM23.07 79.2112L22.27 79.1612C22.28 79.2212 22.29 79.3312 22.29 79.3912C22.29 79.6612 22.1 79.8012 21.83 79.8012L19.72 79.8012C18.53 79.8012 17.89 80.5212 17.89 81.6812C17.89 82.6212 18.39 83.3812 19.19 83.7312L19.54 82.9112C19.1 82.6812 18.77 82.3212 18.77 81.7812C18.77 81.2412 19.13 80.8912 19.69 80.8912L20.01 80.8912L20.16 82.0012C20.32 83.1212 20.87 83.8812 21.78 83.8812C22.57 83.8812 23.14 83.2512 23.14 82.3712C23.14 81.6812 22.8 81.1312 22.29 80.8212C22.87 80.6512 23.14 80.2412 23.14 79.6612C23.14 79.4912 23.11 79.3512 23.07 79.2112ZM22.29 82.0112C22.29 82.4412 22.03 82.7512 21.66 82.7512C21.21 82.7512 20.94 82.3412 20.87 81.7712L20.75 80.8912L21.64 80.8912C22.02 81.1312 22.29 81.5412 22.29 82.0112ZM23 73.9654L19.74 73.9654C18.66 73.9654 17.89 74.7054 17.89 75.6654C17.89 76.3554 18.28 76.9354 18.75 77.2654L18.02 77.2654L18.02 78.3254L23 78.3254L23 77.2254L19.43 77.2254C19.08 76.9554 18.8 76.4854 18.8 75.9954C18.8 75.4554 19.2 75.0654 19.82 75.0654L23 75.0654L23 73.9654ZM18.02 71.5223L18.02 72.6223L23 72.6223L23 71.5223L18.02 71.5223ZM16.08 71.5223L16.08 72.6223L17.17 72.6223L17.17 71.5223L16.08 71.5223ZM18.94 70.4025L18.94 67.8925L22.18 70.4625L23 70.4625L23 66.4525L22.08 66.4525L22.08 69.1225L18.84 66.4925L18.02 66.4925L18.02 70.4025L18.94 70.4025ZM23.07 61.1155L22.27 61.0655C22.28 61.1255 22.29 61.2355 22.29 61.2955C22.29 61.5655 22.1 61.7055 21.83 61.7055L19.72 61.7055C18.53 61.7055 17.89 62.4255 17.89 63.5855C17.89 64.5255 18.39 65.2855 19.19 65.6355L19.54 64.8155C19.1 64.5855 18.77 64.2255 18.77 63.6855C18.77 63.1455 19.13 62.7955 19.69 62.7955L20.01 62.7955L20.16 63.9055C20.32 65.0255 20.87 65.7855 21.78 65.7855C22.57 65.7855 23.14 65.1555 23.14 64.2755C23.14 63.5855 22.8 63.0355 22.29 62.7255C22.87 62.5555 23.14 62.1455 23.14 61.5655C23.14 61.3955 23.11 61.2555 23.07 61.1155ZM22.29 63.9155C22.29 64.3455 22.03 64.6555 21.66 64.6555C21.21 64.6555 20.94 64.2455 20.87 63.6755L20.75 62.7955L21.64 62.7955C22.02 63.0355 22.29 63.4455 22.29 63.9155ZM22.98 57.2097L22.09 57.2097C22.15 57.3997 22.21 57.7197 22.21 58.0197C22.21 58.6097 21.93 58.8497 21.47 58.8497L18.91 58.8497L18.91 57.2297L18.02 57.2297L18.02 58.8497L16.81 58.8497L16.81 59.9497L18.02 59.9497L18.02 60.6997L18.91 60.6997L18.91 59.9497L21.7 59.9497C22.61 59.9497 23.14 59.3397 23.14 58.2397C23.14 57.8697 23.06 57.4397 22.98 57.2097ZM18.02 55.2137L18.02 56.3137L23 56.3137L23 55.2137L18.02 55.2137ZM16.08 55.2137L16.08 56.3137L17.17 56.3137L17.17 55.2137L16.08 55.2137ZM20.51 49.1739C18.99 49.1739 17.89 50.2139 17.89 51.6539C17.89 53.1039 18.99 54.1539 20.51 54.1539C22.03 54.1539 23.13 53.1039 23.13 51.6539C23.13 50.2139 22.03 49.1739 20.51 49.1739ZM20.51 52.9939C19.51 52.9939 18.78 52.4339 18.78 51.6539C18.78 50.8839 19.51 50.3339 20.51 50.3339C21.51 50.3339 22.23 50.8839 22.23 51.6539C22.23 52.4339 21.51 52.9939 20.51 52.9939ZM23 43.7603L19.74 43.7603C18.66 43.7603 17.89 44.5003 17.89 45.4603C17.89 46.1503 18.28 46.7303 18.75 47.0603L18.02 47.0603L18.02 48.1203L23 48.1203L23 47.0203L19.43 47.0203C19.08 46.7503 18.8 46.2803 18.8 45.7903C18.8 45.2503 19.2 44.8603 19.82 44.8603L23 44.8603L23 43.7603ZM23 38.9495L21.01 38.9495L21.01 37.9095C21.01 36.4095 20.08 35.3895 18.76 35.3895C17.45 35.3895 16.53 36.4095 16.53 37.9295L16.53 40.1295L23 40.1295L23 38.9495ZM17.52 38.9495L17.52 38.0095C17.52 37.1795 18.02 36.6095 18.76 36.6095C19.51 36.6095 20.02 37.1795 20.02 38.0095L20.02 38.9495L17.52 38.9495ZM23 33.3094L20.2 33.3094C19.52 33.2194 18.95 32.8394 18.95 32.0794C18.95 31.9194 18.98 31.6894 19.02 31.5494L17.97 31.5394C17.92 31.6494 17.89 31.8794 17.89 32.0494C17.89 32.6294 18.43 33.1594 19.08 33.3494L18.02 33.3494L18.02 34.4094L23 34.4094L23 33.3094ZM20.51 26.1563C18.99 26.1563 17.89 27.1963 17.89 28.6363C17.89 30.0863 18.99 31.1363 20.51 31.1363C22.03 31.1363 23.13 30.0863 23.13 28.6363C23.13 27.1963 22.03 26.1563 20.51 26.1563ZM20.51 29.9763C19.51 29.9763 18.78 29.4163 18.78 28.6363C18.78 27.8663 19.51 27.3163 20.51 27.3163C21.51 27.3163 22.23 27.8663 22.23 28.6363C22.23 29.4163 21.51 29.9763 20.51 29.9763ZM21.6 21.1327C20.67 21.1327 20.27 21.9227 20.01 23.0627C19.83 23.8527 19.71 24.3027 19.32 24.3027C18.96 24.3027 18.72 23.9027 18.72 23.3127C18.72 22.6627 18.99 22.2227 19.43 21.9827L19.09 21.1627C18.47 21.4827 17.89 22.1227 17.89 23.3027C17.89 24.5127 18.52 25.3427 19.41 25.3427C20.29 25.3427 20.7 24.5027 20.93 23.4727C21.1 22.6727 21.25 22.1727 21.67 22.1727C22.06 22.1727 22.31 22.5427 22.31 23.1727C22.31 23.9327 21.97 24.4627 21.52 24.7227L21.86 25.5627C22.62 25.2227 23.14 24.3827 23.14 23.2127C23.14 21.9227 22.52 21.1327 21.6 21.1327ZM22.24 17.863C22.24 18.273 22.04 18.713 21.73 18.993L19.43 18.993C19.09 18.753 18.77 18.323 18.77 17.823C18.77 17.073 19.46 16.523 20.49 16.523C21.52 16.523 22.24 17.073 22.24 17.863ZM20.49 15.363C18.97 15.363 17.89 16.313 17.89 17.483C17.89 18.213 18.31 18.763 18.74 19.023L18.02 19.023L18.02 20.093L24.78 20.093L24.78 18.993L22.49 18.993C22.88 18.683 23.13 18.143 23.13 17.553C23.13 16.323 22.02 15.363 20.49 15.363ZM21.85 10.162L21.52 11.002C21.99 11.242 22.27 11.682 22.27 12.162C22.27 12.902 21.67 13.432 20.75 13.502L20.75 10.152C20.62 10.122 20.33 10.102 20.09 10.102C18.79 10.102 17.89 10.992 17.89 12.252C17.89 13.632 19.02 14.642 20.57 14.642C22.07 14.642 23.14 13.632 23.14 12.242C23.14 11.312 22.65 10.512 21.85 10.162ZM18.73 12.252C18.73 11.632 19.22 11.212 19.98 11.172L19.98 13.462C19.21 13.312 18.73 12.842 18.73 12.252ZM21.73 4.94875L21.38 5.88875C21.88 6.09875 22.21 6.45875 22.21 6.95875C22.21 7.67875 21.51 8.18875 20.54 8.18875C19.53 8.18875 18.81 7.68875 18.81 6.98875C18.81 6.52875 19.09 6.14875 19.62 5.93875L19.25 4.98875C18.42 5.34875 17.89 6.04875 17.89 7.03875C17.89 8.38875 19 9.35875 20.55 9.35875C22.05 9.35875 23.14 8.37875 23.14 7.02875C23.14 6.03875 22.54 5.28875 21.73 4.94875ZM22.98 1.01828L22.09 1.01828C22.15 1.20828 22.21 1.52828 22.21 1.82828C22.21 2.41828 21.93 2.65828 21.47 2.65828L18.91 2.65828L18.91 1.03828L18.02 1.03828L18.02 2.65828L16.81 2.65828L16.81 3.75828L18.02 3.75828L18.02 4.50828L18.91 4.50828L18.91 3.75828L21.7 3.75828C22.61 3.75828 23.14 3.14828 23.14 2.04828C23.14 1.67828 23.06 1.24828 22.98 1.01828Z" fill="#C5C5C5"/>
<path d="M24 158L24 0.818283L24.5 0.818283L24.5 158L24 158Z" fill="#C5C5C5"/>
<path d="M6.4 141.46L5.43 141.46L5.43 144.01L3.52 144.01L3.52 140.77L2.53 140.77L2.53 145.19L9 145.19L9 144.01L6.4 144.01L6.4 141.46ZM6.51 135.475C4.99 135.475 3.89 136.515 3.89 137.955C3.89 139.405 4.99 140.455 6.51 140.455C8.03 140.455 9.13 139.405 9.13 137.955C9.13 136.515 8.03 135.475 6.51 135.475ZM6.51 139.295C5.51 139.295 4.78 138.735 4.78 137.955C4.78 137.185 5.51 136.635 6.51 136.635C7.51 136.635 8.23 137.185 8.23 137.955C8.23 138.735 7.51 139.295 6.51 139.295ZM9 130.061L5.74 130.061C4.66 130.061 3.89 130.801 3.89 131.761C3.89 132.451 4.28 133.031 4.75 133.361L4.02 133.361L4.02 134.421L9 134.421L9 133.321L5.43 133.321C5.08 133.051 4.8 132.581 4.8 132.091C4.8 131.551 5.2 131.161 5.82 131.161L9 131.161L9 130.061ZM8.98 125.757L8.09 125.757C8.15 125.947 8.21 126.267 8.21 126.567C8.21 127.157 7.93 127.397 7.47 127.397L4.91 127.397L4.91 125.777L4.02 125.777L4.02 127.397L2.81 127.397L2.81 128.497L4.02 128.497L4.02 129.247L4.91 129.247L4.91 128.497L7.7 128.497C8.61 128.497 9.14 127.887 9.14 126.787C9.14 126.417 9.06 125.987 8.98 125.757ZM7.85 120.769L7.52 121.609C7.99 121.849 8.27 122.289 8.27 122.769C8.27 123.509 7.67 124.039 6.75 124.109L6.75 120.759C6.62 120.729 6.33 120.709 6.09 120.709C4.79 120.709 3.89 121.599 3.89 122.859C3.89 124.239 5.02 125.249 6.57 125.249C8.07 125.249 9.14 124.239 9.14 122.849C9.14 121.919 8.65 121.119 7.85 120.769ZM4.73 122.859C4.73 122.239 5.22 121.819 5.98 121.779L5.98 124.069C5.21 123.919 4.73 123.449 4.73 122.859Z" fill="#1E2528"/>
<circle cx="6" cy="154" r="4" transform="rotate(-90 6 154)" fill="url(#paint0_linear_293_1442)"/>
<defs>
<linearGradient id="paint0_linear_293_1442" x1="0.398341" y1="148.062" x2="12.081" y2="148.116" gradientUnits="userSpaceOnUse">
<stop stop-color="#07A76F"/>
<stop offset="1" stop-color="#8ECA45"/>
</linearGradient>
</defs>
</svg>
