<svg width="527" height="527" viewBox="0 0 527 527" fill="none" xmlns="http://www.w3.org/2000/svg">
<path d="M394.566 131.522C377.294 114.25 356.789 100.55 334.223 91.2024C311.656 81.855 287.47 77.0439 263.044 77.0439C238.618 77.0439 214.431 81.855 191.865 91.2024C169.298 100.55 148.794 114.25 131.522 131.522C114.25 148.794 100.549 169.298 91.2021 191.865C81.8548 214.431 77.0437 238.618 77.0437 263.044C77.0437 287.47 81.8548 311.657 91.2021 334.223C100.55 356.79 114.25 377.294 131.522 394.566L263.044 263.044L394.566 131.522Z" fill="url(#paint0_linear_400_142)"/>
<path d="M181.27 231.198C179.628 229.557 177.134 229.811 175.53 231.517C174.665 232.459 174.206 233.782 174.334 234.902C172.692 233.082 172.424 231.186 173.685 229.926C174.461 229.149 175.556 228.869 176.637 229.06L176.994 227.329C175.314 226.947 173.659 227.456 172.424 228.691C170.197 230.918 170.592 234.317 173.086 236.812C175.594 239.319 178.776 239.497 180.927 237.346C182.798 235.475 182.925 232.853 181.27 231.198ZM179.628 236.099C178.623 237.104 177.223 237.155 175.734 236.15C175.416 235.119 175.746 233.871 176.472 233.095C177.452 232.064 178.814 231.924 179.743 232.853C180.634 233.744 180.621 235.106 179.628 236.099ZM189.002 223.467C187.36 221.825 184.865 222.08 183.261 223.785C182.396 224.727 181.938 226.051 182.065 227.171C180.423 225.351 180.156 223.455 181.416 222.194C182.192 221.418 183.287 221.138 184.369 221.329L184.725 219.598C183.045 219.216 181.39 219.725 180.156 220.96C177.928 223.187 178.323 226.586 180.818 229.08C183.325 231.588 186.507 231.766 188.658 229.615C190.529 227.744 190.656 225.122 189.002 223.467ZM187.36 228.368C186.354 229.373 184.954 229.424 183.465 228.418C183.147 227.387 183.478 226.14 184.203 225.364C185.183 224.333 186.545 224.193 187.474 225.122C188.365 226.013 188.352 227.375 187.36 228.368ZM195.384 214.285C192.838 211.739 189.682 211.434 187.594 213.521C185.494 215.622 185.799 218.778 188.345 221.324C190.903 223.882 194.06 224.187 196.16 222.087C198.247 220 197.942 216.843 195.384 214.285ZM189.949 219.72C188.154 217.925 187.734 215.978 188.892 214.82C190.038 213.674 191.998 214.081 193.793 215.876C195.6 217.683 196.007 219.644 194.862 220.789C193.704 221.947 191.756 221.527 189.949 219.72ZM203.115 206.554C200.569 204.008 197.413 203.703 195.325 205.79C193.225 207.89 193.531 211.047 196.076 213.592C198.635 216.151 201.791 216.456 203.891 214.356C205.979 212.269 205.673 209.112 203.115 206.554ZM197.68 211.989C195.885 210.194 195.465 208.247 196.624 207.088C197.769 205.943 199.729 206.35 201.524 208.145C203.331 209.952 203.739 211.912 202.593 213.058C201.435 214.216 199.487 213.796 197.68 211.989ZM215.056 199.933L213.567 200.582C213.86 201.486 213.656 202.402 213.045 203.013C212.103 203.955 210.665 203.866 209.405 202.784L213.669 198.52C213.541 198.316 213.198 197.922 212.892 197.616C211.238 195.962 208.959 195.949 207.356 197.553C205.599 199.309 205.752 202.033 207.725 204.006C209.634 205.915 212.281 205.991 214.051 204.222C215.234 203.038 215.629 201.397 215.056 199.933ZM208.425 198.622C209.214 197.833 210.372 197.922 211.39 198.838L208.476 201.753C207.687 200.582 207.674 199.373 208.425 198.622ZM221.731 196.134L220.598 195.002C220.433 195.32 220.102 195.803 219.72 196.185C218.969 196.936 218.307 196.885 217.722 196.3L214.463 193.041L216.525 190.98L215.393 189.847L213.331 191.909L211.791 190.369L210.391 191.769L211.931 193.309L210.976 194.263L212.109 195.396L213.063 194.442L216.614 197.993C217.773 199.151 219.224 199.049 220.624 197.649C221.095 197.178 221.54 196.529 221.731 196.134ZM226.715 191.15L225.583 190.017C225.417 190.335 225.086 190.819 224.704 191.201C223.953 191.952 223.292 191.901 222.706 191.316L219.448 188.057L221.51 185.995L220.377 184.862L218.315 186.924L216.775 185.384L215.375 186.784L216.915 188.324L215.96 189.279L217.093 190.412L218.048 189.457L221.599 193.008C222.757 194.167 224.208 194.065 225.608 192.665C226.079 192.194 226.524 191.545 226.715 191.15ZM233.431 184.664L232.476 183.582C232.412 183.671 232.285 183.824 232.209 183.9C231.865 184.244 231.445 184.18 231.101 183.837L228.416 181.151C226.901 179.636 225.17 179.738 223.694 181.215C222.497 182.411 222.166 184.015 222.739 185.479L224.228 184.88C223.961 184.028 223.999 183.149 224.687 182.462C225.374 181.775 226.278 181.787 226.99 182.5L227.398 182.907L226.176 184.511C224.954 186.14 224.687 187.808 225.845 188.966C226.85 189.971 228.378 189.895 229.498 188.775C230.376 187.897 230.643 186.764 230.389 185.72C231.343 186.242 232.209 186.064 232.947 185.326C233.163 185.109 233.303 184.893 233.431 184.664ZM228.874 187.235C228.327 187.782 227.601 187.846 227.13 187.375C226.558 186.802 226.736 185.937 227.372 185.122L228.339 183.849L229.472 184.982C229.65 185.771 229.472 186.637 228.874 187.235ZM235.869 182.047L232.305 178.484C231.554 177.503 231.312 176.294 232.28 175.327C232.483 175.123 232.814 174.869 233.043 174.742L231.72 173.392C231.516 173.469 231.185 173.723 230.969 173.94C230.231 174.678 230.243 176.04 230.829 177.109L229.48 175.76L228.13 177.109L234.469 183.447L235.869 182.047ZM234.304 170.936L232.903 172.336L239.242 178.674L240.642 177.274L234.304 170.936ZM231.834 168.467L230.434 169.867L231.822 171.254L233.222 169.854L231.834 168.467Z" fill="#F9F9F9"/>
<path d="M346.323 287.354L342.867 288.722L343.497 290.414L345.927 289.568L345.927 297.182L343.173 297.182L343.173 299L350.535 299L350.535 297.182L348.051 297.182L348.051 287.354L346.323 287.354ZM357.257 287.354L353.801 288.722L354.431 290.414L356.861 289.568L356.861 297.182L354.107 297.182L354.107 299L361.469 299L361.469 297.182L358.985 297.182L358.985 287.354L357.257 287.354ZM373.428 293.168C373.428 289.568 371.412 287.12 368.46 287.12C365.49 287.12 363.474 289.568 363.474 293.168C363.474 296.786 365.49 299.234 368.46 299.234C371.412 299.234 373.428 296.786 373.428 293.168ZM365.742 293.168C365.742 290.63 366.822 288.956 368.46 288.956C370.08 288.956 371.178 290.63 371.178 293.168C371.178 295.724 370.08 297.398 368.46 297.398C366.822 297.398 365.742 295.724 365.742 293.168ZM384.362 293.168C384.362 289.568 382.346 287.12 379.394 287.12C376.424 287.12 374.408 289.568 374.408 293.168C374.408 296.786 376.424 299.234 379.394 299.234C382.346 299.234 384.362 296.786 384.362 293.168ZM376.676 293.168C376.676 290.63 377.756 288.956 379.394 288.956C381.014 288.956 382.112 290.63 382.112 293.168C382.112 295.724 381.014 297.398 379.394 297.398C377.756 297.398 376.676 295.724 376.676 293.168ZM397.487 296.93L395.975 296.336C395.543 297.182 394.751 297.686 393.887 297.686C392.555 297.686 391.601 296.606 391.475 294.95L397.505 294.95C397.559 294.716 397.595 294.194 397.595 293.762C397.595 291.422 395.993 289.802 393.725 289.802C391.241 289.802 389.423 291.836 389.423 294.626C389.423 297.326 391.241 299.252 393.743 299.252C395.417 299.252 396.857 298.37 397.487 296.93ZM393.725 291.314C394.841 291.314 395.597 292.196 395.669 293.564L391.547 293.564C391.817 292.178 392.663 291.314 393.725 291.314ZM404.893 298.964L404.893 297.362C404.551 297.47 403.975 297.578 403.435 297.578C402.373 297.578 401.941 297.074 401.941 296.246L401.941 291.638L404.857 291.638L404.857 290.036L401.941 290.036L401.941 287.858L399.961 287.858L399.961 290.036L398.611 290.036L398.611 291.638L399.961 291.638L399.961 296.66C399.961 298.298 401.059 299.252 403.039 299.252C403.705 299.252 404.479 299.108 404.893 298.964ZM411.942 298.964L411.942 297.362C411.6 297.47 411.024 297.578 410.484 297.578C409.422 297.578 408.99 297.074 408.99 296.246L408.99 291.638L411.906 291.638L411.906 290.036L408.99 290.036L408.99 287.858L407.01 287.858L407.01 290.036L405.66 290.036L405.66 291.638L407.01 291.638L407.01 296.66C407.01 298.298 408.108 299.252 410.088 299.252C410.754 299.252 411.528 299.108 411.942 298.964ZM421.277 299.126L421.367 297.686C421.259 297.704 421.061 297.722 420.953 297.722C420.467 297.722 420.215 297.38 420.215 296.894L420.215 293.096C420.215 290.954 418.919 289.802 416.831 289.802C415.139 289.802 413.771 290.702 413.141 292.142L414.617 292.772C415.031 291.98 415.679 291.386 416.651 291.386C417.623 291.386 418.253 292.034 418.253 293.042L418.253 293.618L416.255 293.888C414.239 294.176 412.871 295.166 412.871 296.804C412.871 298.226 414.005 299.252 415.589 299.252C416.831 299.252 417.821 298.64 418.379 297.722C418.685 298.766 419.423 299.252 420.467 299.252C420.773 299.252 421.025 299.198 421.277 299.126ZM416.237 297.722C415.463 297.722 414.905 297.254 414.905 296.588C414.905 295.778 415.643 295.292 416.669 295.166L418.253 294.95L418.253 296.552C417.821 297.236 417.083 297.722 416.237 297.722ZM424.851 299L424.851 293.96C425.013 292.736 425.697 291.71 427.065 291.71C427.353 291.71 427.767 291.764 428.019 291.836L428.037 289.946C427.839 289.856 427.425 289.802 427.119 289.802C426.075 289.802 425.121 290.774 424.779 291.944L424.779 290.036L422.871 290.036L422.871 299L424.851 299ZM431.601 290.036L429.621 290.036L429.621 299L431.601 299L431.601 290.036ZM431.601 286.544L429.621 286.544L429.621 288.506L431.601 288.506L431.601 286.544Z" fill="#1E2528"/>
<path d="M341.281 256.236L341.281 264L346.525 264L346.525 262.788L342.697 262.788L342.697 256.236L341.281 256.236ZM352.445 262.62L351.437 262.224C351.149 262.788 350.621 263.124 350.045 263.124C349.157 263.124 348.521 262.404 348.437 261.3L352.457 261.3C352.493 261.144 352.517 260.796 352.517 260.508C352.517 258.948 351.449 257.868 349.937 257.868C348.281 257.868 347.069 259.224 347.069 261.084C347.069 262.884 348.281 264.168 349.949 264.168C351.065 264.168 352.025 263.58 352.445 262.62ZM349.937 258.876C350.681 258.876 351.185 259.464 351.233 260.376L348.485 260.376C348.665 259.452 349.229 258.876 349.937 258.876ZM360.198 259.092L360.198 258.024L358.122 258.024L358.122 257.832C358.122 256.992 358.566 256.5 359.274 256.5C359.61 256.5 360.006 256.56 360.27 256.656L360.282 255.6C359.994 255.516 359.478 255.432 359.094 255.432C357.666 255.432 356.802 256.332 356.802 257.856L356.802 258.024L355.998 258.024L355.998 259.092L356.802 259.092L356.802 264L358.122 264L358.122 259.092L360.198 259.092ZM366.439 261.012C366.439 259.188 365.191 257.868 363.463 257.868C361.723 257.868 360.463 259.188 360.463 261.012C360.463 262.836 361.723 264.156 363.463 264.156C365.191 264.156 366.439 262.836 366.439 261.012ZM361.855 261.012C361.855 259.812 362.527 258.936 363.463 258.936C364.387 258.936 365.047 259.812 365.047 261.012C365.047 262.212 364.387 263.076 363.463 263.076C362.527 263.076 361.855 262.212 361.855 261.012ZM369.023 264L369.023 260.64C369.131 259.824 369.587 259.14 370.499 259.14C370.691 259.14 370.967 259.176 371.135 259.224L371.147 257.964C371.015 257.904 370.739 257.868 370.535 257.868C369.839 257.868 369.203 258.516 368.975 259.296L368.975 258.024L367.703 258.024L367.703 264L369.023 264ZM377.019 262.62L376.011 262.224C375.723 262.788 375.195 263.124 374.619 263.124C373.731 263.124 373.095 262.404 373.011 261.3L377.031 261.3C377.067 261.144 377.091 260.796 377.091 260.508C377.091 258.948 376.023 257.868 374.511 257.868C372.855 257.868 371.643 259.224 371.643 261.084C371.643 262.884 372.855 264.168 374.523 264.168C375.639 264.168 376.599 263.58 377.019 262.62ZM374.511 258.876C375.255 258.876 375.759 259.464 375.807 260.376L373.059 260.376C373.239 259.452 373.803 258.876 374.511 258.876ZM383.155 262.32C383.155 261.204 382.207 260.724 380.839 260.412C379.891 260.196 379.351 260.052 379.351 259.584C379.351 259.152 379.831 258.864 380.539 258.864C381.319 258.864 381.847 259.188 382.135 259.716L383.119 259.308C382.735 258.564 381.967 257.868 380.551 257.868C379.099 257.868 378.103 258.624 378.103 259.692C378.103 260.748 379.111 261.24 380.347 261.516C381.307 261.72 381.907 261.9 381.907 262.404C381.907 262.872 381.463 263.172 380.707 263.172C379.795 263.172 379.159 262.764 378.847 262.224L377.839 262.632C378.247 263.544 379.255 264.168 380.659 264.168C382.207 264.168 383.155 263.424 383.155 262.32ZM387.98 263.976L387.98 262.908C387.752 262.98 387.368 263.052 387.008 263.052C386.3 263.052 386.012 262.716 386.012 262.164L386.012 259.092L387.956 259.092L387.956 258.024L386.012 258.024L386.012 256.572L384.692 256.572L384.692 258.024L383.792 258.024L383.792 259.092L384.692 259.092L384.692 262.44C384.692 263.532 385.424 264.168 386.744 264.168C387.188 264.168 387.704 264.072 387.98 263.976ZM393.964 262.62L392.956 262.224C392.668 262.788 392.14 263.124 391.564 263.124C390.676 263.124 390.04 262.404 389.956 261.3L393.976 261.3C394.012 261.144 394.036 260.796 394.036 260.508C394.036 258.948 392.968 257.868 391.456 257.868C389.8 257.868 388.588 259.224 388.588 261.084C388.588 262.884 389.8 264.168 391.468 264.168C392.584 264.168 393.544 263.58 393.964 262.62ZM391.456 258.876C392.2 258.876 392.704 259.464 392.752 260.376L390.004 260.376C390.184 259.452 390.748 258.876 391.456 258.876ZM403.001 264L403.001 258.024L401.681 258.024L401.681 262.116C401.405 262.656 400.901 263.064 400.301 263.064C399.653 263.064 399.197 262.548 399.197 261.828L399.197 258.024L397.877 258.024L397.877 261.936C397.877 263.22 398.717 264.156 399.857 264.156C400.697 264.156 401.369 263.676 401.729 263.028L401.729 264L403.001 264ZM405.996 264L405.996 260.64C406.104 259.824 406.56 259.14 407.472 259.14C407.664 259.14 407.94 259.176 408.108 259.224L408.12 257.964C407.988 257.904 407.712 257.868 407.508 257.868C406.812 257.868 406.176 258.516 405.948 259.296L405.948 258.024L404.676 258.024L404.676 264L405.996 264ZM414.852 261C414.852 259.176 413.796 257.868 412.332 257.868C411.66 257.868 410.94 258.24 410.496 258.792L410.496 255.588L409.176 255.588L409.176 264L410.424 264L410.424 263.268C410.844 263.784 411.588 264.168 412.248 264.168C413.76 264.168 414.852 262.836 414.852 261ZM411.864 263.088C411.312 263.088 410.796 262.824 410.496 262.428L410.496 259.632C410.796 259.224 411.336 258.948 411.912 258.948C412.812 258.948 413.46 259.788 413.46 260.976C413.46 262.2 412.788 263.088 411.864 263.088ZM421.285 264.084L421.345 263.124C421.273 263.136 421.141 263.148 421.069 263.148C420.745 263.148 420.577 262.92 420.577 262.596L420.577 260.064C420.577 258.636 419.713 257.868 418.321 257.868C417.193 257.868 416.281 258.468 415.861 259.428L416.845 259.848C417.121 259.32 417.553 258.924 418.201 258.924C418.849 258.924 419.269 259.356 419.269 260.028L419.269 260.412L417.937 260.592C416.593 260.784 415.681 261.444 415.681 262.536C415.681 263.484 416.437 264.168 417.493 264.168C418.321 264.168 418.981 263.76 419.353 263.148C419.557 263.844 420.049 264.168 420.745 264.168C420.949 264.168 421.117 264.132 421.285 264.084ZM417.925 263.148C417.409 263.148 417.037 262.836 417.037 262.392C417.037 261.852 417.529 261.528 418.213 261.444L419.269 261.3L419.269 262.368C418.981 262.824 418.489 263.148 417.925 263.148ZM427.58 264L427.58 260.088C427.58 258.792 426.692 257.868 425.54 257.868C424.712 257.868 424.016 258.336 423.62 258.9L423.62 258.024L422.348 258.024L422.348 264L423.668 264L423.668 259.716C423.992 259.296 424.556 258.96 425.144 258.96C425.792 258.96 426.26 259.44 426.26 260.184L426.26 264L427.58 264ZM434.16 262.62L433.152 262.224C432.864 262.788 432.336 263.124 431.76 263.124C430.872 263.124 430.236 262.404 430.152 261.3L434.172 261.3C434.208 261.144 434.232 260.796 434.232 260.508C434.232 258.948 433.164 257.868 431.652 257.868C429.996 257.868 428.784 259.224 428.784 261.084C428.784 262.884 429.996 264.168 431.664 264.168C432.78 264.168 433.74 263.58 434.16 262.62ZM431.652 258.876C432.396 258.876 432.9 259.464 432.948 260.376L430.2 260.376C430.38 259.452 430.944 258.876 431.652 258.876ZM352.487 273.092L352.487 272.024L350.411 272.024L350.411 271.832C350.411 270.992 350.855 270.5 351.563 270.5C351.899 270.5 352.295 270.56 352.559 270.656L352.571 269.6C352.283 269.516 351.767 269.432 351.383 269.432C349.955 269.432 349.091 270.332 349.091 271.856L349.091 272.024L348.287 272.024L348.287 273.092L349.091 273.092L349.091 278L350.411 278L350.411 273.092L352.487 273.092ZM354.575 272.024L353.255 272.024L353.255 278L354.575 278L354.575 272.024ZM354.575 269.696L353.255 269.696L353.255 271.004L354.575 271.004L354.575 269.696ZM361.498 278L361.498 274.088C361.498 272.792 360.61 271.868 359.458 271.868C358.63 271.868 357.934 272.336 357.538 272.9L357.538 272.024L356.266 272.024L356.266 278L357.586 278L357.586 273.716C357.91 273.296 358.474 272.96 359.062 272.96C359.71 272.96 360.178 273.44 360.178 274.184L360.178 278L361.498 278ZM368.666 275.012C368.666 273.188 367.418 271.868 365.69 271.868C363.95 271.868 362.69 273.188 362.69 275.012C362.69 276.836 363.95 278.156 365.69 278.156C367.418 278.156 368.666 276.836 368.666 275.012ZM364.082 275.012C364.082 273.812 364.754 272.936 365.69 272.936C366.614 272.936 367.274 273.812 367.274 275.012C367.274 276.212 366.614 277.076 365.69 277.076C364.754 277.076 364.082 276.212 364.082 275.012ZM371.25 278L371.25 274.64C371.358 273.824 371.814 273.14 372.726 273.14C372.918 273.14 373.194 273.176 373.362 273.224L373.374 271.964C373.242 271.904 372.966 271.868 372.762 271.868C372.066 271.868 371.43 272.516 371.202 273.296L371.202 272.024L369.93 272.024L369.93 278L371.25 278ZM379.449 278.084L379.509 277.124C379.437 277.136 379.305 277.148 379.233 277.148C378.909 277.148 378.741 276.92 378.741 276.596L378.741 274.064C378.741 272.636 377.877 271.868 376.485 271.868C375.357 271.868 374.445 272.468 374.025 273.428L375.009 273.848C375.285 273.32 375.717 272.924 376.365 272.924C377.013 272.924 377.433 273.356 377.433 274.028L377.433 274.412L376.101 274.592C374.757 274.784 373.845 275.444 373.845 276.536C373.845 277.484 374.601 278.168 375.657 278.168C376.485 278.168 377.145 277.76 377.517 277.148C377.721 277.844 378.213 278.168 378.909 278.168C379.113 278.168 379.281 278.132 379.449 278.084ZM376.089 277.148C375.573 277.148 375.201 276.836 375.201 276.392C375.201 275.852 375.693 275.528 376.377 275.444L377.433 275.3L377.433 276.368C377.145 276.824 376.653 277.148 376.089 277.148ZM385.801 277.088C385.309 277.088 384.781 276.848 384.445 276.476L384.445 273.716C384.733 273.308 385.249 272.924 385.849 272.924C386.749 272.924 387.409 273.752 387.409 274.988C387.409 276.224 386.749 277.088 385.801 277.088ZM388.801 274.988C388.801 273.164 387.661 271.868 386.257 271.868C385.381 271.868 384.721 272.372 384.409 272.888L384.409 272.024L383.125 272.024L383.125 280.136L384.445 280.136L384.445 277.388C384.817 277.856 385.465 278.156 386.173 278.156C387.649 278.156 388.801 276.824 388.801 274.988ZM391.394 272.024L390.074 272.024L390.074 278L391.394 278L391.394 272.024ZM391.394 269.696L390.074 269.696L390.074 271.004L391.394 271.004L391.394 269.696ZM398.234 278.084L398.294 277.124C398.222 277.136 398.09 277.148 398.018 277.148C397.694 277.148 397.526 276.92 397.526 276.596L397.526 274.064C397.526 272.636 396.662 271.868 395.27 271.868C394.142 271.868 393.23 272.468 392.81 273.428L393.794 273.848C394.07 273.32 394.502 272.924 395.15 272.924C395.798 272.924 396.218 273.356 396.218 274.028L396.218 274.412L394.886 274.592C393.542 274.784 392.63 275.444 392.63 276.536C392.63 277.484 393.386 278.168 394.442 278.168C395.27 278.168 395.93 277.76 396.302 277.148C396.506 277.844 396.998 278.168 397.694 278.168C397.898 278.168 398.066 278.132 398.234 278.084ZM394.874 277.148C394.358 277.148 393.986 276.836 393.986 276.392C393.986 275.852 394.478 275.528 395.162 275.444L396.218 275.3L396.218 276.368C395.93 276.824 395.438 277.148 394.874 277.148ZM404.529 278L404.529 274.088C404.529 272.792 403.641 271.868 402.489 271.868C401.661 271.868 400.965 272.336 400.569 272.9L400.569 272.024L399.297 272.024L399.297 278L400.617 278L400.617 273.716C400.941 273.296 401.505 272.96 402.093 272.96C402.741 272.96 403.209 273.44 403.209 274.184L403.209 278L404.529 278ZM409.694 277.976L409.694 276.908C409.466 276.98 409.082 277.052 408.722 277.052C408.014 277.052 407.726 276.716 407.726 276.164L407.726 273.092L409.67 273.092L409.67 272.024L407.726 272.024L407.726 270.572L406.406 270.572L406.406 272.024L405.506 272.024L405.506 273.092L406.406 273.092L406.406 276.44C406.406 277.532 407.138 278.168 408.458 278.168C408.902 278.168 409.418 278.072 409.694 277.976ZM415.918 278.084L415.978 277.124C415.906 277.136 415.774 277.148 415.702 277.148C415.378 277.148 415.21 276.92 415.21 276.596L415.21 274.064C415.21 272.636 414.346 271.868 412.954 271.868C411.826 271.868 410.914 272.468 410.494 273.428L411.478 273.848C411.754 273.32 412.186 272.924 412.834 272.924C413.482 272.924 413.902 273.356 413.902 274.028L413.902 274.412L412.57 274.592C411.226 274.784 410.314 275.444 410.314 276.536C410.314 277.484 411.07 278.168 412.126 278.168C412.954 278.168 413.614 277.76 413.986 277.148C414.19 277.844 414.682 278.168 415.378 278.168C415.582 278.168 415.75 278.132 415.918 278.084ZM412.558 277.148C412.042 277.148 411.67 276.836 411.67 276.392C411.67 275.852 412.162 275.528 412.846 275.444L413.902 275.3L413.902 276.368C413.614 276.824 413.122 277.148 412.558 277.148ZM420.605 277.976L420.605 276.908C420.377 276.98 419.993 277.052 419.633 277.052C418.925 277.052 418.637 276.716 418.637 276.164L418.637 273.092L420.581 273.092L420.581 272.024L418.637 272.024L418.637 270.572L417.317 270.572L417.317 272.024L416.417 272.024L416.417 273.092L417.317 273.092L417.317 276.44C417.317 277.532 418.049 278.168 419.369 278.168C419.813 278.168 420.329 278.072 420.605 277.976ZM426.589 276.62L425.581 276.224C425.293 276.788 424.765 277.124 424.189 277.124C423.301 277.124 422.665 276.404 422.581 275.3L426.601 275.3C426.637 275.144 426.661 274.796 426.661 274.508C426.661 272.948 425.593 271.868 424.081 271.868C422.425 271.868 421.213 273.224 421.213 275.084C421.213 276.884 422.425 278.168 424.093 278.168C425.209 278.168 426.169 277.58 426.589 276.62ZM424.081 272.876C424.825 272.876 425.329 273.464 425.377 274.376L422.629 274.376C422.809 273.452 423.373 272.876 424.081 272.876Z" fill="#1E2528"/>
<path d="M208.916 273.573L214.406 279.063L218.114 275.355L217.257 274.498L214.55 277.204L209.917 272.571L208.916 273.573ZM221.324 270.193L220.331 270.625C220.526 271.228 220.391 271.839 219.983 272.246C219.355 272.874 218.397 272.815 217.557 272.093L220.399 269.251C220.314 269.115 220.085 268.852 219.882 268.648C218.778 267.545 217.26 267.537 216.19 268.606C215.019 269.777 215.121 271.593 216.436 272.908C217.709 274.181 219.474 274.232 220.654 273.052C221.443 272.263 221.706 271.168 221.324 270.193ZM216.903 269.319C217.429 268.793 218.201 268.852 218.88 269.463L216.937 271.406C216.411 270.625 216.403 269.819 216.903 269.319ZM224.312 262.216L223.556 261.46L222.088 262.928L221.953 262.793C221.359 262.199 221.325 261.537 221.825 261.036C222.063 260.799 222.385 260.561 222.64 260.442L221.902 259.687C221.639 259.831 221.214 260.137 220.943 260.408C219.933 261.418 219.959 262.665 221.036 263.743L221.155 263.862L220.587 264.43L221.342 265.185L221.91 264.617L225.381 268.087L226.314 267.154L222.844 263.684L224.312 262.216ZM230.082 259.16C228.793 257.87 226.977 257.819 225.755 259.041C224.525 260.272 224.567 262.096 225.857 263.386C227.146 264.676 228.971 264.718 230.201 263.488C231.423 262.266 231.372 260.45 230.082 259.16ZM226.841 262.402C225.993 261.553 225.848 260.458 226.51 259.797C227.163 259.143 228.25 259.296 229.098 260.144C229.947 260.993 230.091 262.071 229.438 262.724C228.776 263.386 227.69 263.25 226.841 262.402ZM234.023 259.446L231.647 257.07C231.146 256.416 230.985 255.61 231.63 254.965C231.766 254.83 231.986 254.66 232.139 254.575L231.256 253.676C231.121 253.727 230.9 253.896 230.756 254.04C230.264 254.533 230.272 255.441 230.662 256.153L229.763 255.254L228.864 256.153L233.089 260.379L234.023 259.446ZM238.701 252.816L237.708 253.249C237.903 253.851 237.767 254.462 237.36 254.869C236.732 255.497 235.773 255.438 234.933 254.717L237.776 251.874C237.691 251.738 237.462 251.475 237.258 251.272C236.155 250.169 234.636 250.16 233.567 251.229C232.396 252.4 232.498 254.216 233.813 255.531C235.086 256.804 236.851 256.855 238.03 255.676C238.819 254.886 239.082 253.792 238.701 252.816ZM234.28 251.942C234.806 251.416 235.578 251.475 236.257 252.086L234.314 254.029C233.788 253.249 233.779 252.443 234.28 251.942ZM242.827 248.265C242.038 247.476 241.028 247.807 239.84 248.554C239.017 249.071 238.534 249.351 238.203 249.02C237.897 248.715 238.033 248.172 238.534 247.671C239.085 247.12 239.688 246.975 240.265 247.145L240.672 246.161C239.874 245.906 238.839 245.957 237.838 246.958C236.811 247.985 236.641 249.224 237.397 249.979C238.143 250.726 239.204 250.361 240.273 249.682C241.096 249.148 241.648 248.851 242.004 249.207C242.335 249.538 242.233 250.064 241.699 250.599C241.054 251.244 240.316 251.405 239.713 251.244L239.289 252.245C240.222 252.601 241.376 252.33 242.369 251.337C243.464 250.242 243.608 249.046 242.827 248.265ZM247.41 246.024L246.655 245.269C246.544 245.481 246.324 245.804 246.069 246.058C245.569 246.559 245.127 246.525 244.737 246.135L242.565 243.963L243.939 242.588L243.184 241.833L241.81 243.207L240.783 242.181L239.849 243.114L240.876 244.141L240.24 244.777L240.995 245.532L241.631 244.896L243.999 247.263C244.771 248.035 245.738 247.968 246.672 247.034C246.986 246.72 247.283 246.288 247.41 246.024ZM250.683 240.834L249.69 241.267C249.885 241.869 249.749 242.48 249.342 242.887C248.714 243.515 247.755 243.456 246.915 242.735L249.758 239.892C249.673 239.756 249.444 239.493 249.24 239.29C248.137 238.186 246.618 238.178 245.549 239.247C244.378 240.418 244.48 242.234 245.795 243.549C247.068 244.822 248.833 244.873 250.012 243.693C250.802 242.904 251.065 241.81 250.683 240.834ZM246.262 239.96C246.788 239.434 247.56 239.493 248.239 240.104L246.296 242.047C245.77 241.267 245.761 240.46 246.262 239.96ZM258.049 235.419L253.823 231.194L252.89 232.127L255.783 235.021C255.97 235.598 255.902 236.243 255.478 236.667C255.02 237.125 254.332 237.083 253.823 236.573L251.133 233.884L250.2 234.817L252.966 237.583C253.874 238.491 255.13 238.559 255.936 237.753C256.53 237.159 256.666 236.344 256.462 235.632L257.149 236.319L258.049 235.419ZM260.166 233.302L257.79 230.926C257.29 230.273 257.129 229.467 257.773 228.822C257.909 228.686 258.13 228.516 258.283 228.431L257.4 227.532C257.264 227.583 257.044 227.753 256.899 227.897C256.407 228.389 256.416 229.297 256.806 230.01L255.907 229.11L255.007 230.01L259.233 234.235L260.166 233.302ZM264.307 224.919C263.017 223.629 261.346 223.451 260.31 224.486C259.835 224.961 259.589 225.733 259.666 226.437L257.4 224.172L256.467 225.105L262.415 231.053L263.297 230.171L262.78 229.653C263.442 229.721 264.239 229.467 264.706 229C265.775 227.931 265.605 226.217 264.307 224.919ZM263.671 228.508C263.28 228.898 262.729 229.076 262.237 229.008L260.26 227.031C260.183 226.531 260.37 225.954 260.777 225.546C261.414 224.91 262.466 225.046 263.306 225.886C264.171 226.751 264.324 227.854 263.671 228.508ZM271.037 222.55L270.4 221.829C270.358 221.889 270.273 221.99 270.222 222.041C269.993 222.27 269.713 222.228 269.484 221.999L267.693 220.209C266.684 219.199 265.53 219.267 264.545 220.251C263.748 221.049 263.527 222.118 263.909 223.094L264.902 222.695C264.724 222.126 264.749 221.541 265.207 221.083C265.665 220.624 266.268 220.633 266.743 221.108L267.015 221.379L266.2 222.449C265.385 223.535 265.207 224.646 265.979 225.418C266.65 226.089 267.668 226.038 268.415 225.291C269 224.706 269.178 223.951 269.009 223.255C269.645 223.603 270.222 223.484 270.714 222.992C270.858 222.847 270.952 222.703 271.037 222.55ZM267.999 224.264C267.634 224.629 267.15 224.672 266.836 224.358C266.454 223.976 266.573 223.399 266.998 222.856L267.642 222.007L268.398 222.763C268.516 223.289 268.398 223.866 267.999 224.264ZM275.428 218.04L272.662 215.274C271.746 214.357 270.464 214.332 269.65 215.146C269.064 215.732 268.903 216.555 269.022 217.234L268.403 216.614L267.503 217.514L271.729 221.739L272.662 220.806L269.633 217.777C269.565 217.251 269.726 216.614 270.142 216.199C270.6 215.74 271.271 215.749 271.797 216.275L274.495 218.973L275.428 218.04ZM279.105 212.411L278.112 212.844C278.308 213.447 278.172 214.058 277.764 214.465C277.137 215.093 276.178 215.033 275.338 214.312L278.18 211.47C278.095 211.334 277.866 211.071 277.663 210.867C276.56 209.764 275.041 209.756 273.972 210.825C272.801 211.996 272.902 213.812 274.218 215.127C275.49 216.4 277.255 216.45 278.435 215.271C279.224 214.482 279.487 213.387 279.105 212.411ZM274.684 211.537C275.21 211.011 275.983 211.071 276.661 211.682L274.718 213.625C274.192 212.844 274.184 212.038 274.684 211.537ZM211.937 300.04C211.309 300.668 210.257 300.515 209.409 299.667C208.552 298.81 208.407 297.715 209.061 297.062C209.443 296.68 209.977 296.485 210.435 296.536L212.429 298.53C212.506 299.064 212.328 299.65 211.937 300.04ZM214.517 298.75L208.569 292.802L207.635 293.736L209.799 295.899C209.188 295.848 208.501 296.095 208.051 296.544C206.965 297.63 207.126 299.353 208.441 300.668C209.714 301.941 211.394 302.111 212.446 301.058C212.913 300.592 213.151 299.76 213.049 299.047L213.634 299.633L214.517 298.75ZM219.414 293.972L218.777 293.251C218.735 293.311 218.65 293.412 218.599 293.463C218.37 293.692 218.09 293.65 217.861 293.421L216.07 291.63C215.061 290.621 213.907 290.689 212.922 291.673C212.125 292.47 211.904 293.54 212.286 294.515L213.279 294.117C213.101 293.548 213.126 292.963 213.584 292.504C214.042 292.046 214.645 292.055 215.12 292.53L215.392 292.801L214.577 293.871C213.762 294.957 213.584 296.068 214.356 296.84C215.027 297.511 216.045 297.46 216.792 296.713C217.377 296.128 217.555 295.372 217.386 294.677C218.022 295.025 218.599 294.906 219.091 294.414C219.235 294.269 219.329 294.125 219.414 293.972ZM216.376 295.686C216.011 296.051 215.527 296.094 215.213 295.78C214.832 295.398 214.95 294.821 215.375 294.278L216.02 293.429L216.775 294.185C216.893 294.711 216.775 295.288 216.376 295.686ZM223.201 288.776C222.853 289.124 222.31 289.328 221.809 289.302L219.858 287.351C219.773 286.859 219.866 286.222 220.291 285.798C220.927 285.162 221.979 285.28 222.853 286.154C223.727 287.028 223.871 288.106 223.201 288.776ZM223.837 285.17C222.548 283.88 220.825 283.77 219.832 284.763C219.213 285.382 219.103 286.205 219.247 286.791L218.636 286.18L217.728 287.088L223.464 292.824L224.397 291.891L222.454 289.947C223.048 290.015 223.719 289.769 224.219 289.269C225.263 288.225 225.136 286.468 223.837 285.17ZM223.575 281.241L222.642 282.174L226.868 286.4L227.801 285.466L223.575 281.241ZM221.929 279.594L220.996 280.528L221.921 281.453L222.854 280.519L221.929 279.594ZM232.697 280.689L232.06 279.968C232.018 280.027 231.933 280.129 231.882 280.18C231.653 280.409 231.373 280.367 231.144 280.138L229.354 278.347C228.344 277.338 227.19 277.405 226.205 278.39C225.408 279.187 225.187 280.257 225.569 281.232L226.562 280.834C226.384 280.265 226.409 279.68 226.867 279.221C227.326 278.763 227.928 278.772 228.403 279.247L228.675 279.518L227.86 280.587C227.046 281.674 226.867 282.785 227.639 283.557C228.31 284.228 229.328 284.177 230.075 283.43C230.66 282.845 230.838 282.089 230.669 281.394C231.305 281.741 231.882 281.623 232.374 281.131C232.519 280.986 232.612 280.842 232.697 280.689ZM229.659 282.403C229.294 282.768 228.81 282.811 228.497 282.497C228.115 282.115 228.233 281.538 228.658 280.995L229.303 280.146L230.058 280.901C230.177 281.427 230.058 282.004 229.659 282.403ZM237.089 276.179L234.322 273.412C233.406 272.496 232.125 272.471 231.31 273.285C230.725 273.871 230.563 274.694 230.682 275.373L230.063 274.753L229.163 275.653L233.389 279.878L234.322 278.945L231.293 275.916C231.225 275.39 231.386 274.753 231.802 274.337C232.26 273.879 232.931 273.888 233.457 274.414L236.155 277.112L237.089 276.179ZM240.724 272.509L239.969 271.754C239.859 271.966 239.638 272.289 239.383 272.543C238.883 273.044 238.442 273.01 238.051 272.62L235.879 270.447L237.254 269.073L236.498 268.317L235.124 269.692L234.097 268.665L233.164 269.599L234.19 270.625L233.554 271.262L234.309 272.017L234.946 271.381L237.313 273.748C238.085 274.52 239.052 274.452 239.986 273.519C240.3 273.205 240.597 272.772 240.724 272.509ZM245.201 268.185L244.565 267.464C244.522 267.523 244.437 267.625 244.386 267.676C244.157 267.905 243.877 267.863 243.648 267.634L241.858 265.843C240.848 264.833 239.694 264.901 238.71 265.886C237.912 266.683 237.691 267.752 238.073 268.728L239.066 268.329C238.888 267.761 238.913 267.175 239.372 266.717C239.83 266.259 240.432 266.267 240.907 266.743L241.179 267.014L240.364 268.083C239.55 269.169 239.372 270.281 240.144 271.053C240.814 271.723 241.832 271.673 242.579 270.926C243.164 270.34 243.343 269.585 243.173 268.889C243.809 269.237 244.386 269.118 244.878 268.626C245.023 268.482 245.116 268.338 245.201 268.185ZM242.163 269.899C241.798 270.264 241.315 270.306 241.001 269.992C240.619 269.611 240.738 269.034 241.162 268.491L241.807 267.642L242.562 268.397C242.681 268.923 242.562 269.5 242.163 269.899ZM246.827 266.441L244.451 264.065C243.95 263.411 243.789 262.605 244.434 261.96C244.569 261.825 244.79 261.655 244.943 261.57L244.06 260.671C243.925 260.722 243.704 260.891 243.56 261.036C243.068 261.528 243.076 262.436 243.466 263.148L242.567 262.249L241.667 263.148L245.893 267.374L246.827 266.441ZM251.504 259.811L250.512 260.244C250.707 260.846 250.571 261.457 250.164 261.865C249.536 262.492 248.577 262.433 247.737 261.712L250.58 258.869C250.495 258.733 250.266 258.47 250.062 258.267C248.959 257.164 247.44 257.155 246.371 258.224C245.2 259.395 245.302 261.211 246.617 262.526C247.89 263.799 249.655 263.85 250.834 262.671C251.623 261.882 251.886 260.787 251.504 259.811ZM247.084 258.937C247.61 258.411 248.382 258.47 249.061 259.081L247.118 261.025C246.592 260.244 246.583 259.438 247.084 258.937ZM257.835 253.48L256.843 253.913C257.038 254.515 256.902 255.126 256.495 255.534C255.867 256.162 254.908 256.102 254.068 255.381L256.91 252.538C256.826 252.403 256.596 252.14 256.393 251.936C255.29 250.833 253.771 250.824 252.702 251.894C251.531 253.065 251.633 254.88 252.948 256.196C254.221 257.468 255.986 257.519 257.165 256.34C257.954 255.551 258.217 254.456 257.835 253.48ZM253.414 252.606C253.941 252.08 254.713 252.14 255.392 252.751L253.448 254.694C252.922 253.913 252.914 253.107 253.414 252.606ZM263.481 249.786L260.715 247.02C259.798 246.104 258.517 246.078 257.702 246.893C257.117 247.478 256.956 248.302 257.074 248.98L256.455 248.361L255.555 249.26L259.781 253.486L260.715 252.553L257.685 249.523C257.617 248.997 257.779 248.361 258.194 247.945C258.653 247.487 259.323 247.495 259.849 248.022L262.547 250.72L263.481 249.786ZM267.116 246.117L266.361 245.362C266.251 245.574 266.03 245.896 265.776 246.151C265.275 246.652 264.834 246.618 264.443 246.227L262.271 244.055L263.646 242.68L262.891 241.925L261.516 243.3L260.489 242.273L259.556 243.207L260.583 244.233L259.946 244.87L260.701 245.625L261.338 244.988L263.705 247.356C264.477 248.128 265.445 248.06 266.378 247.127C266.692 246.813 266.989 246.38 267.116 246.117ZM268.827 244.44L266.451 242.064C265.95 241.411 265.789 240.605 266.434 239.96C266.57 239.824 266.79 239.655 266.943 239.57L266.061 238.67C265.925 238.721 265.704 238.891 265.56 239.035C265.068 239.527 265.076 240.435 265.467 241.148L264.567 240.249L263.668 241.148L267.894 245.374L268.827 244.44ZM272.784 236.258C271.494 234.968 269.678 234.917 268.456 236.139C267.226 237.369 267.268 239.194 268.558 240.484C269.848 241.773 271.672 241.816 272.902 240.585C274.124 239.364 274.073 237.548 272.784 236.258ZM269.542 239.499C268.694 238.651 268.549 237.556 269.211 236.894C269.865 236.241 270.951 236.394 271.799 237.242C272.648 238.091 272.792 239.168 272.139 239.822C271.477 240.484 270.391 240.348 269.542 239.499ZM274.346 230.47L273.413 231.403L277.638 235.629L278.572 234.695L274.346 230.47ZM272.7 228.824L271.767 229.757L272.691 230.682L273.625 229.749L272.7 228.824ZM274.753 226.618L273.82 227.551L279.768 233.499L280.701 232.566L274.753 226.618ZM282.922 228.868L283.661 229.607L287.818 225.449L286.919 224.549L284.144 227.324L284.305 225.059C284.39 223.972 284.458 222.547 283.55 221.639C282.634 220.723 281.174 220.892 280.122 221.944C279.053 223.014 279.011 224.38 279.486 225.5L280.563 225.084C280.266 224.38 280.275 223.489 280.869 222.895C281.361 222.403 282.082 222.292 282.591 222.801C283.092 223.302 283.084 224.074 283.041 225.339L282.922 228.868ZM290.478 217.291C288.781 215.594 286.676 215.39 285.285 216.782C283.885 218.182 284.088 220.286 285.785 221.983C287.491 223.689 289.595 223.892 290.995 222.492C292.387 221.101 292.183 218.996 290.478 217.291ZM286.855 220.914C285.658 219.718 285.378 218.419 286.15 217.647C286.914 216.884 288.221 217.155 289.417 218.352C290.622 219.556 290.894 220.863 290.13 221.627C289.358 222.399 288.06 222.119 286.855 220.914ZM293.231 218.56L293.969 219.298L298.127 215.141L297.227 214.241L294.453 217.016L294.614 214.75C294.699 213.664 294.766 212.239 293.859 211.331C292.942 210.414 291.483 210.584 290.431 211.636C289.361 212.705 289.319 214.071 289.794 215.191L290.872 214.776C290.575 214.071 290.583 213.18 291.177 212.586C291.669 212.094 292.391 211.984 292.9 212.493C293.4 212.994 293.392 213.766 293.349 215.03L293.231 218.56ZM302.577 210.691L301.414 209.528L302.288 208.654L301.44 207.806L300.566 208.68L297.087 205.201L296.187 206.1L296.985 212.515L297.706 213.236L300.421 210.521L301.584 211.683L302.577 210.691ZM299.581 209.664L297.867 211.378L297.384 207.466L299.581 209.664Z" fill="#F9F9F9"/>
<path fill-rule="evenodd" clip-rule="evenodd" d="M245.573 302.383C240.497 300.28 235.885 297.198 232 293.313L261.583 263.73L291.167 234.147C295.052 238.032 298.133 242.644 300.236 247.72C302.338 252.796 303.42 258.236 303.42 263.73C303.42 269.224 302.338 274.665 300.236 279.741C298.133 284.816 295.052 289.429 291.167 293.313C288.399 296.081 285.263 298.441 281.853 300.329C278.363 296.846 275.681 293.291 273.728 290.303C272.317 288.144 271.289 286.284 270.615 284.965C270.278 284.306 270.03 283.782 269.866 283.425C269.784 283.246 269.723 283.109 269.683 283.017C269.664 282.971 269.649 282.937 269.639 282.914L269.628 282.889L269.626 282.883L269.626 282.882L269.618 282.885L269.626 282.882C269.52 282.627 269.228 282.505 268.972 282.611C268.717 282.716 268.596 283.008 268.701 283.264L269.163 283.073C268.701 283.264 268.701 283.264 268.702 283.265L268.703 283.267L268.706 283.275L268.718 283.304C268.729 283.33 268.745 283.367 268.766 283.416C268.809 283.514 268.872 283.657 268.957 283.841C269.126 284.211 269.381 284.747 269.725 285.42C270.413 286.766 271.458 288.657 272.891 290.85C274.832 293.821 277.488 297.349 280.934 300.823C279.846 301.391 278.731 301.911 277.594 302.383C272.518 304.485 267.077 305.567 261.583 305.567C256.089 305.567 250.649 304.485 245.573 302.383ZM280.934 300.823C282.574 302.477 284.393 304.118 286.399 305.681C292.625 310.529 300.654 314.625 310.724 315.991C320.533 317.322 332.25 316.058 346.085 310.419L344.839 313.478C344.735 313.734 344.858 314.025 345.114 314.13C345.369 314.234 345.661 314.111 345.765 313.855L347.463 309.688C347.567 309.432 347.444 309.14 347.189 309.036L343.021 307.338C342.765 307.234 342.474 307.357 342.37 307.613C342.265 307.868 342.388 308.16 342.644 308.264L345.684 309.503C331.997 315.078 320.465 316.303 310.858 315C300.99 313.661 293.123 309.65 287.014 304.892C285.128 303.423 283.41 301.883 281.853 300.329C281.549 300.498 281.242 300.662 280.934 300.823Z" fill="#1E2528"/>
<path d="M415.279 84V79.45L417.039 81.73H417.529L419.249 79.39V84H420.399V77.53H419.299L417.299 80.31L415.189 77.53H414.169V84H415.279ZM423.011 79.02H421.911V84H423.011V79.02ZM423.011 77.08H421.911V78.17H423.011V77.08ZM429.072 78.54V77.53H423.822V78.54H425.852V84H427.032V78.54H429.072ZM434.599 84V83.01H431.219V81.25H433.909V80.29H431.219V78.52H434.529V77.53H430.039V84H434.599Z" fill="#C5C5C5"/>
<path d="M413.359 85H434.999V85.5H413.359V85Z" fill="#C5C5C5"/>
<path d="M387.54 81.4V80.43H384.99V78.52H388.23V77.53H383.81V84H384.99V81.4H387.54ZM393.525 81.51C393.525 79.99 392.485 78.89 391.045 78.89C389.595 78.89 388.545 79.99 388.545 81.51C388.545 83.03 389.595 84.13 391.045 84.13C392.485 84.13 393.525 83.03 393.525 81.51ZM389.705 81.51C389.705 80.51 390.265 79.78 391.045 79.78C391.815 79.78 392.365 80.51 392.365 81.51C392.365 82.51 391.815 83.23 391.045 83.23C390.265 83.23 389.705 82.51 389.705 81.51ZM398.939 84V80.74C398.939 79.66 398.199 78.89 397.239 78.89C396.549 78.89 395.969 79.28 395.639 79.75V79.02H394.579V84H395.679V80.43C395.949 80.08 396.419 79.8 396.909 79.8C397.449 79.8 397.839 80.2 397.839 80.82V84H398.939ZM403.243 83.98V83.09C403.053 83.15 402.733 83.21 402.433 83.21C401.843 83.21 401.603 82.93 401.603 82.47V79.91H403.223V79.02H401.603V77.81H400.503V79.02H399.753V79.91H400.503V82.7C400.503 83.61 401.113 84.14 402.213 84.14C402.583 84.14 403.013 84.06 403.243 83.98ZM408.231 82.85L407.391 82.52C407.151 82.99 406.711 83.27 406.231 83.27C405.491 83.27 404.961 82.67 404.891 81.75H408.241C408.271 81.62 408.291 81.33 408.291 81.09C408.291 79.79 407.401 78.89 406.141 78.89C404.761 78.89 403.751 80.02 403.751 81.57C403.751 83.07 404.761 84.14 406.151 84.14C407.081 84.14 407.881 83.65 408.231 82.85ZM406.141 79.73C406.761 79.73 407.181 80.22 407.221 80.98H404.931C405.081 80.21 405.551 79.73 406.141 79.73Z" fill="#1E2528"/>
<circle cx="375" cy="81" r="4" fill="url(#paint1_linear_400_142)"/>
<defs>
<linearGradient id="paint0_linear_400_142" x1="-116.371" y1="251.999" x2="269.533" y2="-130.356" gradientUnits="userSpaceOnUse">
<stop stop-color="#07A76F"/>
<stop offset="1" stop-color="#8ECA45"/>
</linearGradient>
<linearGradient id="paint1_linear_400_142" x1="369.398" y1="75.0624" x2="381.081" y2="75.1164" gradientUnits="userSpaceOnUse">
<stop stop-color="#07A76F"/>
<stop offset="1" stop-color="#8ECA45"/>
</linearGradient>
</defs>
</svg>
