<svg width="340" height="521" viewBox="0 0 340 521" fill="none" xmlns="http://www.w3.org/2000/svg">
<path d="M293.13 7.29L292.11 6.91C291.83 7.61 291.16 8.1 290.52 8.1C289.45 8.1 288.68 7.16 288.68 5.83C288.68 4.44 289.45 3.44 290.52 3.44C291.13 3.44 291.76 3.93 292.03 4.59L293.1 4.2C292.68 3.16 291.62 2.42 290.46 2.42C288.7 2.42 287.43 3.86 287.43 5.84C287.43 7.76 288.69 9.13 290.46 9.13C291.63 9.13 292.75 8.36 293.13 7.29ZM295.297 9V4.6L298.557 9H299.577V2.53H298.467V6.97L295.207 2.53H294.187V9H295.297ZM302.379 3.52H303.449C304.209 3.52 304.719 3.95 304.719 4.59C304.719 5.28 304.199 5.73 303.449 5.73H302.379V3.52ZM302.379 9V6.72H303.429C303.569 6.72 303.709 6.71 303.849 6.7L305.029 9H306.339L304.919 6.36C305.559 5.99 305.939 5.36 305.939 4.58C305.939 3.36 304.959 2.53 303.509 2.53H301.199V9H302.379ZM308.576 10.89L309.276 11.19L313.346 1.9L312.646 1.61L308.576 10.89ZM315.93 8.13V9H320.83V7.94H317.56L318.99 6.7C319.68 6.11 320.56 5.31 320.56 4.24C320.56 3.16 319.6 2.4 318.36 2.4C317.1 2.4 316.27 3.18 315.89 4.12L316.77 4.51C317.01 3.92 317.54 3.4 318.24 3.4C318.82 3.4 319.31 3.76 319.31 4.36C319.31 4.95 318.85 5.4 318.08 6.12L315.93 8.13ZM327.204 5.76C327.204 3.76 326.084 2.4 324.444 2.4C322.794 2.4 321.674 3.76 321.674 5.76C321.674 7.77 322.794 9.13 324.444 9.13C326.084 9.13 327.204 7.77 327.204 5.76ZM322.934 5.76C322.934 4.35 323.534 3.42 324.444 3.42C325.344 3.42 325.954 4.35 325.954 5.76C325.954 7.18 325.344 8.11 324.444 8.11C323.534 8.11 322.934 7.18 322.934 5.76ZM330.369 2.53L328.449 3.29L328.799 4.23L330.149 3.76V7.99H328.619V9H332.709V7.99H331.329V2.53H330.369ZM336.233 9L338.883 3.39V2.53H334.273V3.63H337.583L334.983 9H336.233Z" fill="#C5C5C5"/>
<path d="M287 10H339.623V10.5H287V10Z" fill="#C5C5C5"/>
<path d="M261.54 6.4V5.43H258.99V3.52H262.23V2.53H257.81V9H258.99V6.4H261.54ZM267.525 6.51C267.525 4.99 266.485 3.89 265.045 3.89C263.595 3.89 262.545 4.99 262.545 6.51C262.545 8.03 263.595 9.13 265.045 9.13C266.485 9.13 267.525 8.03 267.525 6.51ZM263.705 6.51C263.705 5.51 264.265 4.78 265.045 4.78C265.815 4.78 266.365 5.51 266.365 6.51C266.365 7.51 265.815 8.23 265.045 8.23C264.265 8.23 263.705 7.51 263.705 6.51ZM272.939 9V5.74C272.939 4.66 272.199 3.89 271.239 3.89C270.549 3.89 269.969 4.28 269.639 4.75V4.02H268.579V9H269.679V5.43C269.949 5.08 270.419 4.8 270.909 4.8C271.449 4.8 271.839 5.2 271.839 5.82V9H272.939ZM277.243 8.98V8.09C277.053 8.15 276.733 8.21 276.433 8.21C275.843 8.21 275.603 7.93 275.603 7.47V4.91H277.223V4.02H275.603V2.81H274.503V4.02H273.753V4.91H274.503V7.7C274.503 8.61 275.113 9.14 276.213 9.14C276.583 9.14 277.013 9.06 277.243 8.98ZM282.231 7.85L281.391 7.52C281.151 7.99 280.711 8.27 280.231 8.27C279.491 8.27 278.961 7.67 278.891 6.75H282.241C282.271 6.62 282.291 6.33 282.291 6.09C282.291 4.79 281.401 3.89 280.141 3.89C278.761 3.89 277.751 5.02 277.751 6.57C277.751 8.07 278.761 9.14 280.151 9.14C281.081 9.14 281.881 8.65 282.231 7.85ZM280.141 4.73C280.761 4.73 281.181 5.22 281.221 5.98H278.931C279.081 5.21 279.551 4.73 280.141 4.73Z" fill="#1E2528"/>
<circle cx="249" cy="6" r="4" fill="url(#paint0_linear_395_113)"/>
<path d="M0 521L5.86802e-05 33C5.93443e-05 27.4771 4.47721 23 10.0001 23C15.5229 23 20.0001 27.4771 20.0001 33L20 521L0 521Z" fill="url(#paint1_linear_395_113)"/>
<path d="M8 521L8.00004 195.863C8.00004 190.341 12.4772 185.863 18 185.863C23.5229 185.863 28 190.341 28 195.863L28 521L8 521Z" fill="#1E2528"/>
<path d="M44 521L44 117.689C44 112.166 48.4772 107.689 54 107.689C59.5229 107.689 64 112.166 64 117.689L64 521L44 521Z" fill="url(#paint2_linear_395_113)"/>
<path d="M53 521L53 239.294C53 233.771 57.4772 229.294 63 229.294C68.5229 229.294 73 233.771 73 239.294L73 521L53 521Z" fill="#1E2528"/>
<path d="M88.9999 521L88.9999 117.689C88.9999 112.166 93.4771 107.689 98.9999 107.689C104.523 107.689 109 112.166 109 117.689L109 521L88.9999 521Z" fill="url(#paint3_linear_395_113)"/>
<path d="M97.9998 521L97.9999 239.294C97.9999 233.771 102.477 229.294 108 229.294C113.523 229.294 118 233.771 118 239.294L118 521L97.9998 521Z" fill="#1E2528"/>
<path d="M134 521L134 154.605C134 149.082 138.477 144.605 144 144.605C149.523 144.605 154 149.082 154 154.605L154 521L134 521Z" fill="url(#paint4_linear_395_113)"/>
<path d="M141.999 521L141.999 280.552C141.999 275.029 146.477 270.552 151.999 270.552C157.522 270.552 161.999 275.029 161.999 280.552L161.999 521L141.999 521Z" fill="#1E2528"/>
<path d="M177.999 521L177.999 154.605C177.999 149.082 182.477 144.605 187.999 144.605C193.522 144.605 197.999 149.082 197.999 154.605L197.999 521L177.999 521Z" fill="url(#paint5_linear_395_113)"/>
<path d="M185.999 521L185.999 280.552C185.999 275.029 190.477 270.552 195.999 270.552C201.522 270.552 205.999 275.029 205.999 280.552L205.999 521L185.999 521Z" fill="#1E2528"/>
<path d="M221.999 521L221.999 154.605C221.999 149.082 226.477 144.605 231.999 144.605C237.522 144.605 241.999 149.082 241.999 154.605L241.999 521L221.999 521Z" fill="url(#paint6_linear_395_113)"/>
<path d="M229.999 521L229.999 280.552C229.999 275.029 234.477 270.552 239.999 270.552C245.522 270.552 249.999 275.029 249.999 280.552L249.999 521L229.999 521Z" fill="#1E2528"/>
<path d="M265.999 521L265.999 154.605C265.999 149.082 270.477 144.605 275.999 144.605C281.522 144.605 285.999 149.082 285.999 154.605L285.999 521L265.999 521Z" fill="url(#paint7_linear_395_113)"/>
<path d="M273.999 521L273.999 280.552C273.999 275.029 278.477 270.552 283.999 270.552C289.522 270.552 293.999 275.029 293.999 280.552L293.999 521L273.999 521Z" fill="#1E2528"/>
<path d="M309.999 521L309.999 154.605C309.999 149.082 314.477 144.605 319.999 144.605C325.522 144.605 329.999 149.082 329.999 154.605L329.999 521L309.999 521Z" fill="url(#paint8_linear_395_113)"/>
<path d="M318 521L318 280.552C318 275.029 322.477 270.552 328 270.552C333.523 270.552 338 275.029 338 280.552L338 521L318 521Z" fill="#1E2528"/>
<path d="M7.292 160.981L7.292 160.955L10.62 159.759L10.62 162.177L7.292 160.981ZM14 163.399L11.855 162.632L11.855 159.304L14 158.537L14 156.951L5.589 160.11L5.589 161.735L14 164.894L14 163.399ZM10.75 149.752C8.774 149.752 7.357 150.896 7.357 152.482C7.357 153.21 7.76 153.99 8.358 154.471L4.887 154.471L4.887 155.901L14 155.901L14 154.549L13.207 154.549C13.766 154.094 14.182 153.288 14.182 152.573C14.182 150.935 12.739 149.752 10.75 149.752ZM13.012 152.989C13.012 153.587 12.726 154.146 12.297 154.471L9.268 154.471C8.826 154.146 8.527 153.561 8.527 152.937C8.527 151.962 9.437 151.26 10.724 151.26C12.05 151.26 13.012 151.988 13.012 152.989ZM12.505 142.978L12.076 144.07C12.687 144.382 13.051 144.954 13.051 145.578C13.051 146.54 12.271 147.229 11.075 147.32L11.075 142.965C10.906 142.926 10.529 142.9 10.217 142.9C8.527 142.9 7.357 144.057 7.357 145.695C7.357 147.489 8.826 148.802 10.841 148.802C12.791 148.802 14.182 147.489 14.182 145.682C14.182 144.473 13.545 143.433 12.505 142.978ZM8.449 145.695C8.449 144.889 9.086 144.343 10.074 144.291L10.074 147.268C9.073 147.073 8.449 146.462 8.449 145.695ZM13.974 137.629L12.817 137.629C12.895 137.876 12.973 138.292 12.973 138.682C12.973 139.449 12.609 139.761 12.011 139.761L8.683 139.761L8.683 137.655L7.526 137.655L7.526 139.761L5.953 139.761L5.953 141.191L7.526 141.191L7.526 142.166L8.683 142.166L8.683 141.191L12.31 141.191C13.493 141.191 14.182 140.398 14.182 138.968C14.182 138.487 14.078 137.928 13.974 137.629ZM12.505 131.146L12.076 132.238C12.687 132.55 13.051 133.122 13.051 133.746C13.051 134.708 12.271 135.397 11.075 135.488L11.075 131.133C10.906 131.094 10.529 131.068 10.217 131.068C8.527 131.068 7.357 132.225 7.357 133.863C7.357 135.657 8.826 136.97 10.841 136.97C12.791 136.97 14.182 135.657 14.182 133.85C14.182 132.641 13.545 131.601 12.505 131.146ZM8.449 133.863C8.449 133.057 9.086 132.511 10.074 132.459L10.074 135.436C9.073 135.241 8.449 134.63 8.449 133.863ZM14 125.398L10.36 125.398C9.47601 125.281 8.73501 124.787 8.73501 123.799C8.73501 123.591 8.77401 123.292 8.82601 123.11L7.46101 123.097C7.39601 123.24 7.35701 123.539 7.35701 123.76C7.357 124.514 8.05901 125.203 8.90401 125.45L7.526 125.45L7.526 126.828L14 126.828L14 125.398ZM7.52601 120.523L7.52601 121.953L14 121.953L14 120.523L7.52601 120.523ZM5.00401 120.523L5.00401 121.953L6.42101 121.953L6.42101 120.523L5.00401 120.523ZM12.349 113.4L11.894 114.622C12.544 114.895 12.973 115.363 12.973 116.013C12.973 116.949 12.063 117.612 10.802 117.612C9.48901 117.612 8.55301 116.962 8.55301 116.052C8.55301 115.454 8.91701 114.96 9.60601 114.687L9.12501 113.452C8.04601 113.92 7.35701 114.83 7.35701 116.117C7.35701 117.872 8.80001 119.133 10.815 119.133C12.765 119.133 14.182 117.859 14.182 116.104C14.182 114.817 13.402 113.842 12.349 113.4ZM12.349 106.925L11.894 108.147C12.544 108.42 12.973 108.888 12.973 109.538C12.973 110.474 12.063 111.137 10.802 111.137C9.48901 111.137 8.55301 110.487 8.55301 109.577C8.55301 108.979 8.91701 108.485 9.60601 108.212L9.12501 106.977C8.04601 107.445 7.35701 108.355 7.35701 109.642C7.35701 111.397 8.80001 112.658 10.815 112.658C12.765 112.658 14.182 111.384 14.182 109.629C14.182 108.342 13.402 107.367 12.349 106.925ZM7.52601 104.311L7.52601 105.741L14 105.741L14 104.311L7.52601 104.311ZM5.00401 104.311L5.00401 105.741L6.42101 105.741L6.42101 104.311L5.00401 104.311ZM10.763 96.4597C8.78701 96.4597 7.35701 97.8117 7.35701 99.6837C7.35701 101.569 8.78701 102.934 10.763 102.934C12.739 102.934 14.169 101.569 14.169 99.6837C14.169 97.8117 12.739 96.4597 10.763 96.4597ZM10.763 101.426C9.46301 101.426 8.51401 100.698 8.51401 99.6837C8.51401 98.6827 9.46301 97.9677 10.763 97.9677C12.063 97.9677 12.999 98.6827 12.999 99.6837C12.999 100.698 12.063 101.426 10.763 101.426Z" fill="#F9F9F9"/>
<path d="M12.492 88.7593L14 88.7593L14 82.0643L12.037 82.0643L12.037 85.7693L10.958 84.4303C9.983 83.1823 9.151 82.3763 7.89 82.3763C6.421 82.3763 5.407 83.7153 5.407 85.4573C5.407 87.2383 6.46 88.3953 7.721 88.9153L8.423 87.2773C7.773 87.0303 7.279 86.4843 7.279 85.8343C7.279 85.2493 7.63 84.7813 8.163 84.7813C8.683 84.7813 9.06 85.1323 10.061 86.1853L12.492 88.7593ZM9.775 73.4453C7.214 73.4453 5.407 75.0443 5.407 77.2933C5.407 79.5553 7.214 81.1543 9.775 81.1543C12.362 81.1543 14.182 79.5553 14.182 77.2933C14.182 75.0443 12.362 73.4453 9.775 73.4453ZM9.801 78.7363C8.319 78.7363 7.344 78.1643 7.344 77.2933C7.344 76.4353 8.319 75.8503 9.801 75.8503C11.27 75.8503 12.245 76.4353 12.245 77.2933C12.245 78.1643 11.27 78.7363 9.801 78.7363ZM11.231 65.5933C9.58 65.5933 8.449 66.9453 8.449 68.7263C8.449 69.5063 8.67 70.1563 8.943 70.5853L7.565 70.5073L7.565 65.9703L5.589 65.9703L5.589 72.1323L10.412 72.3793L10.75 70.9753C10.438 70.5463 10.256 70.0003 10.256 69.4283C10.256 68.5183 10.672 68.0113 11.283 68.0113C11.933 68.0113 12.323 68.5833 12.323 69.4023C12.323 70.1823 11.972 70.8843 11.374 71.2483L12.219 72.9123C13.506 72.1583 14.195 70.8063 14.195 69.2203C14.195 67.1013 12.96 65.5933 11.231 65.5933ZM14 57.0541L12.245 57.0541L10.971 56.1181L14 54.2201L14 51.5291L9.229 54.6491L5.589 51.7501L5.589 54.3501L9.424 57.0541L5.589 57.0541L5.589 59.3291L14 59.3291L14 57.0541ZM14.221 44.4917C13.246 44.4917 12.661 45.2457 12.557 46.8187L12.492 47.8977C12.44 48.7167 12.349 49.1327 12.18 49.1327C12.089 49.1327 11.946 49.0547 11.829 48.9897C11.881 48.7297 11.907 48.4567 11.907 48.1837C11.907 46.5457 11.062 45.2717 9.68401 45.2717C9.38501 45.2717 9.08601 45.3367 8.81301 45.4797C8.70901 45.1157 8.61801 44.6217 8.61801 44.2187L7.03201 44.2187C7.03201 45.0507 7.46101 45.7007 8.05901 46.0517C7.60401 46.5847 7.30501 47.3517 7.305 48.3007C7.305 49.9647 8.267 51.2647 9.593 51.2647C10.477 51.2647 11.14 50.7057 11.53 49.8997C11.868 50.4067 12.349 50.8097 12.687 50.8097C13.012 50.8097 13.298 50.5757 13.532 50.1987C13.805 51.0307 14.247 51.6027 14.871 51.6027C15.859 51.6027 16.444 50.2377 16.444 48.3007C16.444 45.9217 15.56 44.4917 14.221 44.4917ZM15.196 48.0667C15.196 49.0287 14.897 49.6267 14.52 49.6267C14.299 49.6267 14.078 49.4577 13.935 49.2107C14.013 48.9507 14.052 48.6777 14.078 48.3917L14.156 47.4167C14.208 46.7537 14.312 46.5067 14.611 46.5067C14.988 46.5067 15.196 47.1437 15.196 48.0667ZM9.61901 49.2497C9.02101 49.2497 8.63101 48.7687 8.63101 48.2617C8.63101 47.7547 8.99501 47.2607 9.61901 47.2607C10.243 47.2607 10.594 47.7417 10.594 48.2487C10.594 48.7557 10.243 49.2497 9.61901 49.2497ZM16.47 43.9196L16.912 42.8796L4.77001 37.6536L4.34101 38.6936L16.47 43.9196ZM14.065 31.22L12.622 31.129C12.635 31.233 12.648 31.389 12.648 31.48C12.648 31.766 12.453 31.883 12.076 31.883L9.86601 31.883C8.17601 31.883 7.30501 32.897 7.30501 34.613C7.30501 36.121 8.05901 37.109 9.13801 37.564L9.77501 36.043C9.29401 35.796 8.91701 35.393 8.91701 34.847C8.91701 34.327 9.26801 33.989 9.78801 33.989L10.061 33.989L10.282 35.341C10.555 36.901 11.322 37.798 12.427 37.798C13.467 37.798 14.195 36.992 14.195 35.861C14.195 34.964 13.74 34.249 13.116 33.807C13.896 33.469 14.195 32.806 14.195 32.026C14.195 31.727 14.143 31.441 14.065 31.22ZM12.7 34.964C12.7 35.38 12.44 35.653 12.089 35.653C11.673 35.653 11.413 35.302 11.322 34.769L11.192 33.989L12.232 33.989C12.505 34.236 12.7 34.587 12.7 34.964Z" fill="#1E2528"/>
<path d="M13.589 214.774L14.629 217.452L16.332 216.828L15.747 215.125L20.089 215.125L20.089 217.153L22 217.153L22 211.095L20.089 211.095L20.089 212.85L13.589 212.85L13.589 214.774ZM17.541 204.478L17.476 204.478C17.216 203.451 16.488 202.853 15.643 202.853C14.343 202.853 13.407 204.27 13.407 206.142C13.407 207.962 14.343 209.223 15.552 209.821L16.28 208.196C15.656 207.845 15.266 207.299 15.266 206.493C15.266 205.752 15.63 205.271 16.111 205.271C16.592 205.271 16.956 205.778 16.969 206.597L16.969 207.754L18.542 207.754L18.529 206.441C18.529 205.583 18.815 205.024 19.387 205.024C19.959 205.024 20.323 205.583 20.323 206.441C20.323 207.338 19.933 208.014 19.296 208.339L20.089 209.99C21.428 209.236 22.182 207.897 22.182 206.194C22.182 204.153 21.09 202.606 19.595 202.606C18.555 202.606 17.775 203.347 17.541 204.478ZM19.686 194.273C18.789 194.273 18.165 194.754 17.684 195.781C17.268 194.988 16.657 194.429 15.799 194.442C14.395 194.455 13.407 195.963 13.407 198.03C13.407 200.162 14.473 201.657 15.929 201.657C16.748 201.657 17.372 201.163 17.814 200.37C18.204 201.267 18.932 201.891 19.803 201.891C21.207 201.891 22.182 200.266 22.182 198.043C22.182 195.846 21.181 194.273 19.686 194.273ZM17.06 197.653C16.774 198.875 16.514 199.356 16.072 199.356C15.591 199.356 15.24 198.836 15.24 198.03C15.24 197.289 15.552 196.756 16.059 196.756C16.449 196.756 16.8 197.042 17.099 197.497C17.086 197.549 17.073 197.601 17.06 197.653ZM20.349 198.056C20.349 198.875 19.972 199.473 19.491 199.473C19.127 199.473 18.724 199.187 18.438 198.667C18.464 198.563 18.477 198.459 18.503 198.355C18.724 197.198 19.088 196.717 19.556 196.717C19.985 196.717 20.349 197.276 20.349 198.056Z" fill="#F9F9F9"/>
<path d="M59 222.018C59 220.185 58.051 218.976 56.647 218.976C55.568 218.976 54.866 219.574 54.567 220.497C54.242 219.756 53.631 219.21 52.76 219.21C51.46 219.21 50.589 220.315 50.589 222.005L50.589 225.502L59 225.502L59 222.018ZM51.785 223.968L51.785 222.109C51.785 221.316 52.227 220.796 52.877 220.796C53.618 220.796 54.151 221.42 54.151 222.187L54.151 223.968L51.785 223.968ZM57.804 223.968L55.334 223.968L55.334 222.174C55.334 221.251 55.698 220.562 56.569 220.562C57.297 220.562 57.804 221.186 57.804 222.096L57.804 223.968ZM57.505 212.125L57.076 213.217C57.687 213.529 58.051 214.101 58.051 214.725C58.051 215.687 57.271 216.376 56.075 216.467L56.075 212.112C55.906 212.073 55.529 212.047 55.217 212.047C53.527 212.047 52.357 213.204 52.357 214.842C52.357 216.636 53.826 217.949 55.841 217.949C57.791 217.949 59.182 216.636 59.182 214.829C59.182 213.62 58.545 212.58 57.505 212.125ZM53.449 214.842C53.449 214.036 54.086 213.49 55.074 213.438L55.074 216.415C54.073 216.22 53.449 215.609 53.449 214.842ZM58.974 206.776L57.817 206.776C57.895 207.023 57.973 207.439 57.973 207.829C57.973 208.596 57.609 208.908 57.011 208.908L53.683 208.908L53.683 206.802L52.526 206.802L52.526 208.908L50.953 208.908L50.953 210.338L52.526 210.338L52.526 211.313L53.683 211.313L53.683 210.338L57.31 210.338C58.493 210.338 59.182 209.545 59.182 208.115C59.182 207.634 59.078 207.075 58.974 206.776ZM59 200.138L52.526 200.138L52.526 201.568L56.959 201.568C57.544 201.867 57.986 202.413 57.986 203.063C57.986 203.765 57.427 204.259 56.647 204.259L52.526 204.259L52.526 205.689L56.764 205.689C58.155 205.689 59.169 204.779 59.169 203.544C59.169 202.634 58.649 201.906 57.947 201.516L59 201.516L59 200.138ZM49.887 196.894L49.887 198.324L59 198.324L59 196.894L49.887 196.894ZM49.887 193.632L49.887 195.062L59 195.062L59 193.632L49.887 193.632ZM59.091 186.222L58.051 186.157C58.064 186.235 58.077 186.378 58.077 186.456C58.077 186.807 57.83 186.989 57.479 186.989L54.736 186.989C53.189 186.989 52.357 187.925 52.357 189.433C52.357 190.655 53.007 191.643 54.047 192.098L54.502 191.032C53.93 190.733 53.501 190.265 53.501 189.563C53.501 188.861 53.969 188.406 54.697 188.406L55.113 188.406L55.308 189.849C55.516 191.305 56.231 192.293 57.414 192.293C58.441 192.293 59.182 191.474 59.182 190.33C59.182 189.433 58.74 188.718 58.077 188.315C58.831 188.094 59.182 187.561 59.182 186.807C59.182 186.586 59.143 186.404 59.091 186.222ZM58.077 189.862C58.077 190.421 57.739 190.824 57.258 190.824C56.673 190.824 56.322 190.291 56.231 189.55L56.075 188.406L57.232 188.406C57.726 188.718 58.077 189.251 58.077 189.862ZM55.75 176.09C53.774 176.09 52.357 177.234 52.357 178.82C52.357 179.548 52.76 180.328 53.358 180.809L49.887 180.809L49.887 182.239L59 182.239L59 180.887L58.207 180.887C58.766 180.432 59.182 179.626 59.182 178.911C59.182 177.273 57.739 176.09 55.75 176.09ZM58.012 179.327C58.012 179.925 57.726 180.484 57.297 180.809L54.268 180.809C53.826 180.484 53.527 179.899 53.527 179.275C53.527 178.3 54.437 177.598 55.724 177.598C57.05 177.598 58.012 178.326 58.012 179.327ZM52.526 173.268L52.526 174.698L59 174.698L59 173.268L52.526 173.268ZM50.004 173.268L50.004 174.698L51.421 174.698L51.421 173.268L50.004 173.268ZM59.091 165.859L58.051 165.794C58.064 165.872 58.077 166.015 58.077 166.093C58.077 166.444 57.83 166.626 57.479 166.626L54.736 166.626C53.189 166.626 52.357 167.562 52.357 169.07C52.357 170.292 53.007 171.28 54.047 171.735L54.502 170.669C53.93 170.37 53.501 169.902 53.501 169.2C53.501 168.498 53.969 168.043 54.697 168.043L55.113 168.043L55.308 169.486C55.516 170.942 56.231 171.93 57.414 171.93C58.441 171.93 59.182 171.111 59.182 169.967C59.182 169.07 58.74 168.355 58.077 167.952C58.831 167.731 59.182 167.198 59.182 166.444C59.182 166.223 59.143 166.041 59.091 165.859ZM58.077 169.499C58.077 170.058 57.739 170.461 57.258 170.461C56.673 170.461 56.322 169.928 56.231 169.187L56.075 168.043L57.232 168.043C57.726 168.355 58.077 168.888 58.077 169.499ZM59 159.039L54.762 159.039C53.358 159.039 52.357 160.001 52.357 161.249C52.357 162.146 52.864 162.9 53.475 163.329L52.526 163.329L52.526 164.707L59 164.707L59 163.277L54.359 163.277C53.904 162.926 53.54 162.315 53.54 161.678C53.54 160.976 54.06 160.469 54.866 160.469L59 160.469L59 159.039ZM57.349 152.002L56.894 153.224C57.544 153.497 57.973 153.965 57.973 154.615C57.973 155.551 57.063 156.214 55.802 156.214C54.489 156.214 53.553 155.564 53.553 154.654C53.553 154.056 53.917 153.562 54.606 153.289L54.125 152.054C53.046 152.522 52.357 153.432 52.357 154.719C52.357 156.474 53.8 157.735 55.815 157.735C57.765 157.735 59.182 156.461 59.182 154.706C59.182 153.419 58.402 152.444 57.349 152.002ZM59.091 145.242L58.051 145.177C58.064 145.255 58.077 145.398 58.077 145.476C58.077 145.827 57.83 146.009 57.479 146.009L54.736 146.009C53.189 146.009 52.357 146.945 52.357 148.453C52.357 149.675 53.007 150.663 54.047 151.118L54.502 150.052C53.93 149.753 53.501 149.285 53.501 148.583C53.501 147.881 53.969 147.426 54.697 147.426L55.113 147.426L55.308 148.869C55.516 150.325 56.231 151.313 57.414 151.313C58.441 151.313 59.182 150.494 59.182 149.35C59.182 148.453 58.74 147.738 58.077 147.335C58.831 147.114 59.182 146.581 59.182 145.827C59.182 145.606 59.143 145.424 59.091 145.242ZM58.077 148.882C58.077 149.441 57.739 149.844 57.258 149.844C56.673 149.844 56.322 149.311 56.231 148.57L56.075 147.426L57.232 147.426C57.726 147.738 58.077 148.271 58.077 148.882Z" fill="#F9F9F9"/>
<path d="M50.589 136.774L51.629 139.452L53.332 138.828L52.747 137.125L57.089 137.125L57.089 139.153L59 139.153L59 133.095L57.089 133.095L57.089 134.85L50.589 134.85L50.589 136.774ZM59.013 128.142L52.279 124.983L50.589 124.983L50.589 131.431L52.604 131.431L52.604 127.401L59 130.547L59.013 128.142ZM54.775 116.208C52.214 116.208 50.407 117.807 50.407 120.056C50.407 122.318 52.214 123.917 54.775 123.917C57.362 123.917 59.182 122.318 59.182 120.056C59.182 117.807 57.362 116.208 54.775 116.208ZM54.801 121.499C53.319 121.499 52.344 120.927 52.344 120.056C52.344 119.198 53.319 118.613 54.801 118.613C56.27 118.613 57.245 119.198 57.245 120.056C57.245 120.927 56.27 121.499 54.801 121.499Z" fill="#1E2528"/>
<path d="M59.589 258.774L60.629 261.452L62.332 260.828L61.747 259.125L66.089 259.125L66.089 261.153L68 261.153L68 255.095L66.089 255.095L66.089 256.85L59.589 256.85L59.589 258.774ZM66.492 253.522L68 253.522L68 246.827L66.037 246.827L66.037 250.532L64.958 249.193C63.983 247.945 63.151 247.139 61.89 247.139C60.421 247.139 59.407 248.478 59.407 250.22C59.407 252.001 60.46 253.158 61.721 253.678L62.423 252.04C61.773 251.793 61.279 251.247 61.279 250.597C61.279 250.012 61.63 249.544 62.163 249.544C62.683 249.544 63.06 249.895 64.061 250.948L66.492 253.522ZM63.775 238.208C61.214 238.208 59.407 239.807 59.407 242.056C59.407 244.318 61.214 245.917 63.775 245.917C66.362 245.917 68.182 244.318 68.182 242.056C68.182 239.807 66.362 238.208 63.775 238.208ZM63.801 243.499C62.319 243.499 61.344 242.927 61.344 242.056C61.344 241.198 62.319 240.613 63.801 240.613C65.27 240.613 66.245 241.198 66.245 242.056C66.245 242.927 65.27 243.499 63.801 243.499Z" fill="#F9F9F9"/>
<path d="M104.589 258.774L105.629 261.452L107.332 260.828L106.747 259.125L111.089 259.125L111.089 261.153L113 261.153L113 255.095L111.089 255.095L111.089 256.85L104.589 256.85L104.589 258.774ZM111.492 253.522L113 253.522L113 246.827L111.037 246.827L111.037 250.532L109.958 249.193C108.983 247.945 108.151 247.139 106.89 247.139C105.421 247.139 104.407 248.478 104.407 250.22C104.407 252.001 105.46 253.158 106.721 253.678L107.423 252.04C106.773 251.793 106.279 251.247 106.279 250.597C106.279 250.012 106.63 249.544 107.163 249.544C107.683 249.544 108.06 249.895 109.061 250.948L111.492 253.522ZM108.775 238.208C106.214 238.208 104.407 239.807 104.407 242.056C104.407 244.318 106.214 245.917 108.775 245.917C111.362 245.917 113.182 244.318 113.182 242.056C113.182 239.807 111.362 238.208 108.775 238.208ZM108.801 243.499C107.319 243.499 106.344 242.927 106.344 242.056C106.344 241.198 107.319 240.613 108.801 240.613C110.27 240.613 111.245 241.198 111.245 242.056C111.245 242.927 110.27 243.499 108.801 243.499Z" fill="#F9F9F9"/>
<path d="M101.777 169.163L101.283 170.489C102.193 170.853 102.83 171.724 102.83 172.556C102.83 173.947 101.608 174.948 99.879 174.948C98.072 174.948 96.772 173.947 96.772 172.556C96.772 171.763 97.409 170.944 98.267 170.593L97.76 169.202C96.408 169.748 95.446 171.126 95.446 172.634C95.446 174.922 97.318 176.573 99.892 176.573C102.388 176.573 104.169 174.935 104.169 172.634C104.169 171.113 103.168 169.657 101.777 169.163ZM102.505 162.55L102.076 163.642C102.687 163.954 103.051 164.526 103.051 165.15C103.051 166.112 102.271 166.801 101.075 166.892L101.075 162.537C100.906 162.498 100.529 162.472 100.217 162.472C98.527 162.472 97.357 163.629 97.357 165.267C97.357 167.061 98.826 168.374 100.841 168.374C102.791 168.374 104.182 167.061 104.182 165.254C104.182 164.045 103.545 163.005 102.505 162.55ZM98.449 165.267C98.449 164.461 99.086 163.915 100.074 163.863L100.074 166.84C99.073 166.645 98.449 166.034 98.449 165.267ZM104 159.634L100.36 159.634C99.476 159.517 98.735 159.023 98.735 158.035C98.735 157.827 98.774 157.528 98.826 157.346L97.461 157.333C97.396 157.476 97.357 157.775 97.357 157.996C97.357 158.75 98.059 159.439 98.904 159.686L97.526 159.686L97.526 161.064L104 161.064L104 159.634ZM104 154.759L100.36 154.759C99.476 154.642 98.735 154.148 98.735 153.16C98.735 152.952 98.774 152.653 98.826 152.471L97.461 152.458C97.396 152.601 97.357 152.9 97.357 153.121C97.357 153.875 98.059 154.564 98.904 154.811L97.526 154.811L97.526 156.189L104 156.189L104 154.759ZM100.763 145.46C98.787 145.46 97.357 146.812 97.357 148.684C97.357 150.569 98.787 151.934 100.763 151.934C102.739 151.934 104.169 150.569 104.169 148.684C104.169 146.812 102.739 145.46 100.763 145.46ZM100.763 150.426C99.463 150.426 98.514 149.698 98.514 148.684C98.514 147.683 99.463 146.968 100.763 146.968C102.063 146.968 102.999 147.683 102.999 148.684C102.999 149.698 102.063 150.426 100.763 150.426Z" fill="#F9F9F9"/>
<path d="M95.589 136.774L96.629 139.452L98.332 138.828L97.747 137.125L102.089 137.125L102.089 139.153L104 139.153L104 133.095L102.089 133.095L102.089 134.85L95.589 134.85L95.589 136.774ZM104.013 128.142L97.279 124.983L95.589 124.983L95.589 131.431L97.604 131.431L97.604 127.401L104 130.547L104.013 128.142ZM99.775 116.208C97.214 116.208 95.407 117.807 95.407 120.056C95.407 122.318 97.214 123.917 99.775 123.917C102.362 123.917 104.182 122.318 104.182 120.056C104.182 117.807 102.362 116.208 99.775 116.208ZM99.801 121.499C98.319 121.499 97.344 120.927 97.344 120.056C97.344 119.198 98.319 118.613 99.801 118.613C101.27 118.613 102.245 119.198 102.245 120.056C102.245 120.927 101.27 121.499 99.801 121.499Z" fill="#1E2528"/>
<path d="M149 228.841C149 227.008 148.051 225.799 146.647 225.799C145.568 225.799 144.866 226.397 144.567 227.32C144.242 226.579 143.631 226.033 142.76 226.033C141.46 226.033 140.589 227.138 140.589 228.828L140.589 232.325L149 232.325L149 228.841ZM141.785 230.791L141.785 228.932C141.785 228.139 142.227 227.619 142.877 227.619C143.618 227.619 144.151 228.243 144.151 229.01L144.151 230.791L141.785 230.791ZM147.804 230.791L145.334 230.791L145.334 228.997C145.334 228.074 145.698 227.385 146.569 227.385C147.297 227.385 147.804 228.009 147.804 228.919L147.804 230.791ZM149.091 218.753L148.051 218.688C148.064 218.766 148.077 218.909 148.077 218.987C148.077 219.338 147.83 219.52 147.479 219.52L144.736 219.52C143.189 219.52 142.357 220.456 142.357 221.964C142.357 223.186 143.007 224.174 144.047 224.629L144.502 223.563C143.93 223.264 143.501 222.796 143.501 222.094C143.501 221.392 143.969 220.937 144.697 220.937L145.113 220.937L145.308 222.38C145.516 223.836 146.231 224.824 147.414 224.824C148.441 224.824 149.182 224.005 149.182 222.861C149.182 221.964 148.74 221.249 148.077 220.846C148.831 220.625 149.182 220.092 149.182 219.338C149.182 219.117 149.143 218.935 149.091 218.753ZM148.077 222.393C148.077 222.952 147.739 223.355 147.258 223.355C146.673 223.355 146.322 222.822 146.231 222.081L146.075 220.937L147.232 220.937C147.726 221.249 148.077 221.782 148.077 222.393ZM149.351 211.739C148.402 211.739 147.882 212.454 147.752 213.949L147.687 214.898C147.609 215.782 147.479 216.12 147.297 216.12C147.167 216.12 146.972 216.016 146.829 215.899C146.881 215.665 146.907 215.418 146.907 215.171C146.907 213.689 146.023 212.519 144.723 212.519C144.307 212.519 143.917 212.636 143.579 212.857C143.423 212.506 143.28 211.973 143.28 211.492L142.097 211.492C142.097 212.298 142.5 212.922 143.059 213.299C142.63 213.78 142.357 214.469 142.357 215.262C142.357 216.783 143.332 217.966 144.645 217.966C145.555 217.966 146.244 217.394 146.608 216.588C146.92 217.03 147.375 217.407 147.687 217.407C147.96 217.407 148.207 217.212 148.389 216.874C148.714 217.667 149.26 218.252 149.845 218.252C150.885 218.252 151.496 217.017 151.496 215.171C151.496 213.039 150.612 211.739 149.351 211.739ZM150.508 215.093C150.508 216.224 150.118 216.874 149.611 216.874C149.234 216.874 148.883 216.536 148.675 216.081C148.74 215.821 148.792 215.522 148.818 215.21L148.896 214.287C148.974 213.364 149.182 213.117 149.585 213.117C150.118 213.117 150.508 213.884 150.508 215.093ZM144.658 216.562C143.917 216.562 143.358 215.99 143.358 215.249C143.358 214.495 143.904 213.897 144.658 213.897C145.399 213.897 145.906 214.482 145.906 215.236C145.906 215.99 145.399 216.562 144.658 216.562ZM145.763 204.55C143.787 204.55 142.357 205.902 142.357 207.774C142.357 209.659 143.787 211.024 145.763 211.024C147.739 211.024 149.169 209.659 149.169 207.774C149.169 205.902 147.739 204.55 145.763 204.55ZM145.763 209.516C144.463 209.516 143.514 208.788 143.514 207.774C143.514 206.773 144.463 206.058 145.763 206.058C147.063 206.058 147.999 206.773 147.999 207.774C147.999 208.788 147.063 209.516 145.763 209.516ZM139.887 201.75L139.887 203.18L149 203.18L149 201.75L139.887 201.75ZM149.091 194.34L148.051 194.275C148.064 194.353 148.077 194.496 148.077 194.574C148.077 194.925 147.83 195.107 147.479 195.107L144.736 195.107C143.189 195.107 142.357 196.043 142.357 197.551C142.357 198.773 143.007 199.761 144.047 200.216L144.502 199.15C143.93 198.851 143.501 198.383 143.501 197.681C143.501 196.979 143.969 196.524 144.697 196.524L145.113 196.524L145.308 197.967C145.516 199.423 146.231 200.411 147.414 200.411C148.441 200.411 149.182 199.592 149.182 198.448C149.182 197.551 148.74 196.836 148.077 196.433C148.831 196.212 149.182 195.679 149.182 194.925C149.182 194.704 149.143 194.522 149.091 194.34ZM148.077 197.98C148.077 198.539 147.739 198.942 147.258 198.942C146.673 198.942 146.322 198.409 146.231 197.668L146.075 196.524L147.232 196.524C147.726 196.836 148.077 197.369 148.077 197.98ZM149 191.759L145.36 191.759C144.476 191.642 143.735 191.148 143.735 190.16C143.735 189.952 143.774 189.653 143.826 189.471L142.461 189.458C142.396 189.601 142.357 189.9 142.357 190.121C142.357 190.875 143.059 191.564 143.904 191.811L142.526 191.811L142.526 193.189L149 193.189L149 191.759ZM145.763 182.46C143.787 182.46 142.357 183.812 142.357 185.684C142.357 187.569 143.787 188.934 145.763 188.934C147.739 188.934 149.169 187.569 149.169 185.684C149.169 183.812 147.739 182.46 145.763 182.46ZM145.763 187.426C144.463 187.426 143.514 186.698 143.514 185.684C143.514 184.683 144.463 183.968 145.763 183.968C147.063 183.968 147.999 184.683 147.999 185.684C147.999 186.698 147.063 187.426 145.763 187.426Z" fill="#F9F9F9"/>
<path d="M140.589 173.774L141.629 176.452L143.332 175.828L142.747 174.125L147.089 174.125L147.089 176.153L149 176.153L149 170.095L147.089 170.095L147.089 171.85L140.589 171.85L140.589 173.774ZM146.231 161.606C144.58 161.606 143.449 162.958 143.449 164.739C143.449 165.519 143.67 166.169 143.943 166.598L142.565 166.52L142.565 161.983L140.589 161.983L140.589 168.145L145.412 168.392L145.75 166.988C145.438 166.559 145.256 166.013 145.256 165.441C145.256 164.531 145.672 164.024 146.283 164.024C146.933 164.024 147.323 164.596 147.323 165.415C147.323 166.195 146.972 166.897 146.374 167.261L147.219 168.925C148.506 168.171 149.195 166.819 149.195 165.233C149.195 163.114 147.96 161.606 146.231 161.606ZM146.231 153.481C144.58 153.481 143.449 154.833 143.449 156.614C143.449 157.394 143.67 158.044 143.943 158.473L142.565 158.395L142.565 153.858L140.589 153.858L140.589 160.02L145.412 160.267L145.75 158.863C145.438 158.434 145.256 157.888 145.256 157.316C145.256 156.406 145.672 155.899 146.283 155.899C146.933 155.899 147.323 156.471 147.323 157.29C147.323 158.07 146.972 158.772 146.374 159.136L147.219 160.8C148.506 160.046 149.195 158.694 149.195 157.108C149.195 154.989 147.96 153.481 146.231 153.481Z" fill="#1E2528"/>
<path d="M190.777 261.159L190.283 262.485C191.193 262.849 191.83 263.72 191.83 264.552C191.83 265.943 190.608 266.944 188.879 266.944C187.072 266.944 185.772 265.943 185.772 264.552C185.772 263.759 186.409 262.94 187.267 262.589L186.76 261.198C185.408 261.744 184.446 263.122 184.446 264.63C184.446 266.918 186.318 268.569 188.892 268.569C191.388 268.569 193.169 266.931 193.169 264.63C193.169 263.109 192.168 261.653 190.777 261.159ZM193.091 254.351L192.051 254.286C192.064 254.364 192.077 254.507 192.077 254.585C192.077 254.936 191.83 255.118 191.479 255.118L188.736 255.118C187.189 255.118 186.357 256.054 186.357 257.562C186.357 258.784 187.007 259.772 188.047 260.227L188.502 259.161C187.93 258.862 187.501 258.394 187.501 257.692C187.501 256.99 187.969 256.535 188.697 256.535L189.113 256.535L189.308 257.978C189.516 259.434 190.231 260.422 191.414 260.422C192.441 260.422 193.182 259.603 193.182 258.459C193.182 257.562 192.74 256.847 192.077 256.444C192.831 256.223 193.182 255.69 193.182 254.936C193.182 254.715 193.143 254.533 193.091 254.351ZM192.077 257.991C192.077 258.55 191.739 258.953 191.258 258.953C190.673 258.953 190.322 258.42 190.231 257.679L190.075 256.535L191.232 256.535C191.726 256.847 192.077 257.38 192.077 257.991ZM193 251.769L189.36 251.769C188.476 251.652 187.735 251.158 187.735 250.17C187.735 249.962 187.774 249.663 187.826 249.481L186.461 249.468C186.396 249.611 186.357 249.91 186.357 250.131C186.357 250.885 187.059 251.574 187.904 251.821L186.526 251.821L186.526 253.199L193 253.199L193 251.769ZM192.012 245.425C192.012 245.958 191.752 246.53 191.349 246.894L188.359 246.894C187.917 246.582 187.501 246.023 187.501 245.373C187.501 244.398 188.398 243.683 189.737 243.683C191.076 243.683 192.012 244.398 192.012 245.425ZM189.737 242.175C187.761 242.175 186.357 243.41 186.357 244.931C186.357 245.88 186.903 246.595 187.462 246.933L186.526 246.933L186.526 248.324L195.314 248.324L195.314 246.894L192.337 246.894C192.844 246.491 193.169 245.789 193.169 245.022C193.169 243.423 191.726 242.175 189.737 242.175ZM186.526 239.366L186.526 240.796L193 240.796L193 239.366L186.526 239.366ZM184.004 239.366L184.004 240.796L185.421 240.796L185.421 239.366L184.004 239.366ZM193 231.865L188.762 231.865C187.358 231.865 186.357 232.827 186.357 234.075C186.357 234.972 186.864 235.726 187.475 236.155L186.526 236.155L186.526 237.533L193 237.533L193 236.103L188.359 236.103C187.904 235.752 187.54 235.141 187.54 234.504C187.54 233.802 188.06 233.295 188.866 233.295L193 233.295L193 231.865ZM189.763 224.1C187.787 224.1 186.357 225.452 186.357 227.324C186.357 229.209 187.787 230.574 189.763 230.574C191.739 230.574 193.169 229.209 193.169 227.324C193.169 225.452 191.739 224.1 189.763 224.1ZM189.763 229.066C188.463 229.066 187.514 228.338 187.514 227.324C187.514 226.323 188.463 225.608 189.763 225.608C191.063 225.608 191.999 226.323 191.999 227.324C191.999 228.338 191.063 229.066 189.763 229.066ZM189.75 213.751C187.774 213.751 186.357 214.895 186.357 216.481C186.357 217.209 186.76 217.989 187.358 218.47L183.887 218.47L183.887 219.9L193 219.9L193 218.548L192.207 218.548C192.766 218.093 193.182 217.287 193.182 216.572C193.182 214.934 191.739 213.751 189.75 213.751ZM192.012 216.988C192.012 217.586 191.726 218.145 191.297 218.47L188.268 218.47C187.826 218.145 187.527 217.56 187.527 216.936C187.527 215.961 188.437 215.259 189.724 215.259C191.05 215.259 192.012 215.987 192.012 216.988ZM186.526 210.929L186.526 212.359L193 212.359L193 210.929L186.526 210.929ZM184.004 210.929L184.004 212.359L185.421 212.359L185.421 210.929L184.004 210.929ZM193.091 203.519L192.051 203.454C192.064 203.532 192.077 203.675 192.077 203.753C192.077 204.104 191.83 204.286 191.479 204.286L188.736 204.286C187.189 204.286 186.357 205.222 186.357 206.73C186.357 207.952 187.007 208.94 188.047 209.395L188.502 208.329C187.93 208.03 187.501 207.562 187.501 206.86C187.501 206.158 187.969 205.703 188.697 205.703L189.113 205.703L189.308 207.146C189.516 208.602 190.231 209.59 191.414 209.59C192.441 209.59 193.182 208.771 193.182 207.627C193.182 206.73 192.74 206.015 192.077 205.612C192.831 205.391 193.182 204.858 193.182 204.104C193.182 203.883 193.143 203.701 193.091 203.519ZM192.077 207.159C192.077 207.718 191.739 208.121 191.258 208.121C190.673 208.121 190.322 207.588 190.231 206.847L190.075 205.703L191.232 205.703C191.726 206.015 192.077 206.548 192.077 207.159ZM193 196.699L188.762 196.699C187.358 196.699 186.357 197.661 186.357 198.909C186.357 199.806 186.864 200.56 187.475 200.989L186.526 200.989L186.526 202.367L193 202.367L193 200.937L188.359 200.937C187.904 200.586 187.54 199.975 187.54 199.338C187.54 198.636 188.06 198.129 188.866 198.129L193 198.129L193 196.699ZM191.349 189.662L190.894 190.884C191.544 191.157 191.973 191.625 191.973 192.275C191.973 193.211 191.063 193.874 189.802 193.874C188.489 193.874 187.553 193.224 187.553 192.314C187.553 191.716 187.917 191.222 188.606 190.949L188.125 189.714C187.046 190.182 186.357 191.092 186.357 192.379C186.357 194.134 187.8 195.395 189.815 195.395C191.765 195.395 193.182 194.121 193.182 192.366C193.182 191.079 192.402 190.104 191.349 189.662ZM189.763 182.46C187.787 182.46 186.357 183.812 186.357 185.684C186.357 187.569 187.787 188.934 189.763 188.934C191.739 188.934 193.169 187.569 193.169 185.684C193.169 183.812 191.739 182.46 189.763 182.46ZM189.763 187.426C188.463 187.426 187.514 186.698 187.514 185.684C187.514 184.683 188.463 183.968 189.763 183.968C191.063 183.968 191.999 184.683 191.999 185.684C191.999 186.698 191.063 187.426 189.763 187.426Z" fill="#F9F9F9"/>
<path d="M184.589 173.774L185.629 176.452L187.332 175.828L186.747 174.125L191.089 174.125L191.089 176.153L193 176.153L193 170.095L191.089 170.095L191.089 171.85L184.589 171.85L184.589 173.774ZM190.231 161.606C188.58 161.606 187.449 162.958 187.449 164.739C187.449 165.519 187.67 166.169 187.943 166.598L186.565 166.52L186.565 161.983L184.589 161.983L184.589 168.145L189.412 168.392L189.75 166.988C189.438 166.559 189.256 166.013 189.256 165.441C189.256 164.531 189.672 164.024 190.283 164.024C190.933 164.024 191.323 164.596 191.323 165.415C191.323 166.195 190.972 166.897 190.374 167.261L191.219 168.925C192.506 168.171 193.195 166.819 193.195 165.233C193.195 163.114 191.96 161.606 190.231 161.606ZM190.231 153.481C188.58 153.481 187.449 154.833 187.449 156.614C187.449 157.394 187.67 158.044 187.943 158.473L186.565 158.395L186.565 153.858L184.589 153.858L184.589 160.02L189.412 160.267L189.75 158.863C189.438 158.434 189.256 157.888 189.256 157.316C189.256 156.406 189.672 155.899 190.283 155.899C190.933 155.899 191.323 156.471 191.323 157.29C191.323 158.07 190.972 158.772 190.374 159.136L191.219 160.8C192.506 160.046 193.195 158.694 193.195 157.108C193.195 154.989 191.96 153.481 190.231 153.481Z" fill="#1E2528"/>
<path d="M233.62 225.445L232.359 225.445L232.359 228.76L229.876 228.76L229.876 224.548L228.589 224.548L228.589 230.294L237 230.294L237 228.76L233.62 228.76L233.62 225.445ZM237 222.215L233.36 222.215C232.476 222.098 231.735 221.604 231.735 220.616C231.735 220.408 231.774 220.109 231.826 219.927L230.461 219.914C230.396 220.057 230.357 220.356 230.357 220.577C230.357 221.331 231.059 222.02 231.904 222.267L230.526 222.267L230.526 223.645L237 223.645L237 222.215ZM237.091 213.332L236.051 213.267C236.064 213.345 236.077 213.488 236.077 213.566C236.077 213.917 235.83 214.099 235.479 214.099L232.736 214.099C231.189 214.099 230.357 215.035 230.357 216.543C230.357 217.765 231.007 218.753 232.047 219.208L232.502 218.142C231.93 217.843 231.501 217.375 231.501 216.673C231.501 215.971 231.969 215.516 232.697 215.516L233.113 215.516L233.308 216.959C233.516 218.415 234.231 219.403 235.414 219.403C236.441 219.403 237.182 218.584 237.182 217.44C237.182 216.543 236.74 215.828 236.077 215.425C236.831 215.204 237.182 214.671 237.182 213.917C237.182 213.696 237.143 213.514 237.091 213.332ZM236.077 216.972C236.077 217.531 235.739 217.934 235.258 217.934C234.673 217.934 234.322 217.401 234.231 216.66L234.075 215.516L235.232 215.516C235.726 215.828 236.077 216.361 236.077 216.972ZM235.18 207.02C233.971 207.02 233.451 208.047 233.113 209.529C232.879 210.556 232.723 211.141 232.216 211.141C231.748 211.141 231.436 210.621 231.436 209.854C231.436 209.009 231.787 208.437 232.359 208.125L231.917 207.059C231.111 207.475 230.357 208.307 230.357 209.841C230.357 211.414 231.176 212.493 232.333 212.493C233.477 212.493 234.01 211.401 234.309 210.062C234.53 209.022 234.725 208.372 235.271 208.372C235.778 208.372 236.103 208.853 236.103 209.672C236.103 210.66 235.661 211.349 235.076 211.687L235.518 212.779C236.506 212.337 237.182 211.245 237.182 209.724C237.182 208.047 236.376 207.02 235.18 207.02ZM235.18 200.507C233.971 200.507 233.451 201.534 233.113 203.016C232.879 204.043 232.723 204.628 232.216 204.628C231.748 204.628 231.436 204.108 231.436 203.341C231.436 202.496 231.787 201.924 232.359 201.612L231.917 200.546C231.111 200.962 230.357 201.794 230.357 203.328C230.357 204.901 231.176 205.98 232.333 205.98C233.477 205.98 234.01 204.888 234.309 203.549C234.53 202.509 234.725 201.859 235.271 201.859C235.778 201.859 236.103 202.34 236.103 203.159C236.103 204.147 235.661 204.836 235.076 205.174L235.518 206.266C236.506 205.824 237.182 204.732 237.182 203.211C237.182 201.534 236.376 200.507 235.18 200.507ZM230.526 197.725L230.526 199.155L237 199.155L237 197.725L230.526 197.725ZM228.004 197.725L228.004 199.155L229.421 199.155L229.421 197.725L228.004 197.725ZM237 190.225L232.762 190.225C231.358 190.225 230.357 191.187 230.357 192.435C230.357 193.332 230.864 194.086 231.475 194.515L230.526 194.515L230.526 195.893L237 195.893L237 194.463L232.359 194.463C231.904 194.112 231.54 193.501 231.54 192.864C231.54 192.162 232.06 191.655 232.866 191.655L237 191.655L237 190.225ZM233.763 182.46C231.787 182.46 230.357 183.812 230.357 185.684C230.357 187.569 231.787 188.934 233.763 188.934C235.739 188.934 237.169 187.569 237.169 185.684C237.169 183.812 235.739 182.46 233.763 182.46ZM233.763 187.426C232.463 187.426 231.514 186.698 231.514 185.684C231.514 184.683 232.463 183.968 233.763 183.968C235.063 183.968 235.999 184.683 235.999 185.684C235.999 186.698 235.063 187.426 233.763 187.426Z" fill="#F9F9F9"/>
<path d="M228.589 173.774L229.629 176.452L231.332 175.828L230.747 174.125L235.089 174.125L235.089 176.153L237 176.153L237 170.095L235.089 170.095L235.089 171.85L228.589 171.85L228.589 173.774ZM234.231 161.606C232.58 161.606 231.449 162.958 231.449 164.739C231.449 165.519 231.67 166.169 231.943 166.598L230.565 166.52L230.565 161.983L228.589 161.983L228.589 168.145L233.412 168.392L233.75 166.988C233.438 166.559 233.256 166.013 233.256 165.441C233.256 164.531 233.672 164.024 234.283 164.024C234.933 164.024 235.323 164.596 235.323 165.415C235.323 166.195 234.972 166.897 234.374 167.261L235.219 168.925C236.506 168.171 237.195 166.819 237.195 165.233C237.195 163.114 235.96 161.606 234.231 161.606ZM234.231 153.481C232.58 153.481 231.449 154.833 231.449 156.614C231.449 157.394 231.67 158.044 231.943 158.473L230.565 158.395L230.565 153.858L228.589 153.858L228.589 160.02L233.412 160.267L233.75 158.863C233.438 158.434 233.256 157.888 233.256 157.316C233.256 156.406 233.672 155.899 234.283 155.899C234.933 155.899 235.323 156.471 235.323 157.29C235.323 158.07 234.972 158.772 234.374 159.136L235.219 160.8C236.506 160.046 237.195 158.694 237.195 157.108C237.195 154.989 235.96 153.481 234.231 153.481Z" fill="#1E2528"/>
<path d="M281 214.456L276.606 214.456L276.606 217.511L277.815 217.511L277.815 215.899L278.66 215.899C279.232 216.094 279.856 217.017 279.856 218.096C279.856 219.578 278.621 220.657 276.892 220.657C275.072 220.657 273.772 219.578 273.772 218.096C273.772 217.186 274.396 216.276 275.267 215.912L274.773 214.573C273.421 215.08 272.446 216.588 272.446 218.135C272.446 220.553 274.318 222.295 276.905 222.282C279.375 222.269 281.169 220.592 281.169 218.291C281.169 217.108 280.662 216.172 279.999 215.73L281 215.652L281 214.456ZM274.526 211.424L274.526 212.854L281 212.854L281 211.424L274.526 211.424ZM272.004 211.424L272.004 212.854L273.421 212.854L273.421 211.424L272.004 211.424ZM281 203.923L276.762 203.923C275.358 203.923 274.357 204.885 274.357 206.133C274.357 207.03 274.864 207.784 275.475 208.213L274.526 208.213L274.526 209.591L281 209.591L281 208.161L276.359 208.161C275.904 207.81 275.54 207.199 275.54 206.562C275.54 205.86 276.06 205.353 276.866 205.353L281 205.353L281 203.923ZM281.351 196.314C280.402 196.314 279.882 197.029 279.752 198.524L279.687 199.473C279.609 200.357 279.479 200.695 279.297 200.695C279.167 200.695 278.972 200.591 278.829 200.474C278.881 200.24 278.907 199.993 278.907 199.746C278.907 198.264 278.023 197.094 276.723 197.094C276.307 197.094 275.917 197.211 275.579 197.432C275.423 197.081 275.28 196.548 275.28 196.067L274.097 196.067C274.097 196.873 274.5 197.497 275.059 197.874C274.63 198.355 274.357 199.044 274.357 199.837C274.357 201.358 275.332 202.541 276.645 202.541C277.555 202.541 278.244 201.969 278.608 201.163C278.92 201.605 279.375 201.982 279.687 201.982C279.96 201.982 280.207 201.787 280.389 201.449C280.714 202.242 281.26 202.827 281.845 202.827C282.885 202.827 283.496 201.592 283.496 199.746C283.496 197.614 282.612 196.314 281.351 196.314ZM282.508 199.668C282.508 200.799 282.118 201.449 281.611 201.449C281.234 201.449 280.883 201.111 280.675 200.656C280.74 200.396 280.792 200.097 280.818 199.785L280.896 198.862C280.974 197.939 281.182 197.692 281.585 197.692C282.118 197.692 282.508 198.459 282.508 199.668ZM276.658 201.137C275.917 201.137 275.358 200.565 275.358 199.824C275.358 199.07 275.904 198.472 276.658 198.472C277.399 198.472 277.906 199.057 277.906 199.811C277.906 200.565 277.399 201.137 276.658 201.137ZM281 193.536L279.18 193.536L278.296 192.73L281 190.845L281 189.129L277.321 191.82L274.526 189.272L274.526 191.001L277.425 193.536L271.887 193.536L271.887 194.966L281 194.966L281 193.536ZM277.763 182.46C275.787 182.46 274.357 183.812 274.357 185.684C274.357 187.569 275.787 188.934 277.763 188.934C279.739 188.934 281.169 187.569 281.169 185.684C281.169 183.812 279.739 182.46 277.763 182.46ZM277.763 187.426C276.463 187.426 275.514 186.698 275.514 185.684C275.514 184.683 276.463 183.968 277.763 183.968C279.063 183.968 279.999 184.683 279.999 185.684C279.999 186.698 279.063 187.426 277.763 187.426Z" fill="#F9F9F9"/>
<path d="M272.589 173.774L273.629 176.452L275.332 175.828L274.747 174.125L279.089 174.125L279.089 176.153L281 176.153L281 170.095L279.089 170.095L279.089 171.85L272.589 171.85L272.589 173.774ZM278.231 161.606C276.58 161.606 275.449 162.958 275.449 164.739C275.449 165.519 275.67 166.169 275.943 166.598L274.565 166.52L274.565 161.983L272.589 161.983L272.589 168.145L277.412 168.392L277.75 166.988C277.438 166.559 277.256 166.013 277.256 165.441C277.256 164.531 277.672 164.024 278.283 164.024C278.933 164.024 279.323 164.596 279.323 165.415C279.323 166.195 278.972 166.897 278.374 167.261L279.219 168.925C280.506 168.171 281.195 166.819 281.195 165.233C281.195 163.114 279.96 161.606 278.231 161.606ZM278.231 153.481C276.58 153.481 275.449 154.833 275.449 156.614C275.449 157.394 275.67 158.044 275.943 158.473L274.565 158.395L274.565 153.858L272.589 153.858L272.589 160.02L277.412 160.267L277.75 158.863C277.438 158.434 277.256 157.888 277.256 157.316C277.256 156.406 277.672 155.899 278.283 155.899C278.933 155.899 279.323 156.471 279.323 157.29C279.323 158.07 278.972 158.772 278.374 159.136L279.219 160.8C280.506 160.046 281.195 158.694 281.195 157.108C281.195 154.989 279.96 153.481 278.231 153.481Z" fill="#1E2528"/>
<path d="M316.589 269.421L325 269.421L325 263.74L323.687 263.74L323.687 267.887L316.589 267.887L316.589 269.421ZM318.526 261.164L318.526 262.594L325 262.594L325 261.164L318.526 261.164ZM316.004 261.164L316.004 262.594L317.421 262.594L317.421 261.164L316.004 261.164ZM325 257.901L321.36 257.901C320.476 257.784 319.735 257.29 319.735 256.302C319.735 256.094 319.774 255.795 319.826 255.613L318.461 255.6C318.396 255.743 318.357 256.042 318.357 256.263C318.357 257.017 319.059 257.706 319.904 257.953L318.526 257.953L318.526 259.331L325 259.331L325 257.901ZM318.526 253.026L318.526 254.456L325 254.456L325 253.026L318.526 253.026ZM316.004 253.026L316.004 254.456L317.421 254.456L317.421 253.026L316.004 253.026ZM321.763 245.175C319.787 245.175 318.357 246.527 318.357 248.399C318.357 250.284 319.787 251.649 321.763 251.649C323.739 251.649 325.169 250.284 325.169 248.399C325.169 246.527 323.739 245.175 321.763 245.175ZM321.763 250.141C320.463 250.141 319.514 249.413 319.514 248.399C319.514 247.398 320.463 246.683 321.763 246.683C323.063 246.683 323.999 247.398 323.999 248.399C323.999 249.413 323.063 250.141 321.763 250.141ZM324.012 241.075C324.012 242.037 323.089 242.726 321.789 242.726C320.476 242.726 319.527 241.998 319.527 240.997C319.527 240.412 319.787 239.853 320.177 239.541L323.232 239.541C323.7 239.892 324.012 240.477 324.012 241.075ZM325 238.111L315.887 238.111L315.887 239.541L319.202 239.541C318.695 239.97 318.357 240.685 318.357 241.374C318.357 243.038 319.8 244.234 321.815 244.234C323.765 244.234 325.182 243.077 325.182 241.465C325.182 240.75 324.727 239.931 324.103 239.463L325 239.463L325 238.111ZM323.505 230.895L323.076 231.987C323.687 232.299 324.051 232.871 324.051 233.495C324.051 234.457 323.271 235.146 322.075 235.237L322.075 230.882C321.906 230.843 321.529 230.817 321.217 230.817C319.527 230.817 318.357 231.974 318.357 233.612C318.357 235.406 319.826 236.719 321.841 236.719C323.791 236.719 325.182 235.406 325.182 233.599C325.182 232.39 324.545 231.35 323.505 230.895ZM319.449 233.612C319.449 232.806 320.086 232.26 321.074 232.208L321.074 235.185C320.073 234.99 319.449 234.379 319.449 233.612ZM325 223.74L320.762 223.74C319.358 223.74 318.357 224.702 318.357 225.95C318.357 226.847 318.864 227.601 319.475 228.03L318.526 228.03L318.526 229.408L325 229.408L325 227.978L320.359 227.978C319.904 227.627 319.54 227.016 319.54 226.379C319.54 225.677 320.06 225.17 320.866 225.17L325 225.17L325 223.74ZM324.012 219.264C324.012 220.226 323.089 220.915 321.789 220.915C320.476 220.915 319.527 220.187 319.527 219.186C319.527 218.601 319.787 218.042 320.177 217.73L323.232 217.73C323.7 218.081 324.012 218.666 324.012 219.264ZM325 216.3L315.887 216.3L315.887 217.73L319.202 217.73C318.695 218.159 318.357 218.874 318.357 219.563C318.357 221.227 319.8 222.423 321.815 222.423C323.765 222.423 325.182 221.266 325.182 219.654C325.182 218.939 324.727 218.12 324.103 217.652L325 217.652L325 216.3ZM325 213.036L321.36 213.036C320.476 212.919 319.735 212.425 319.735 211.437C319.735 211.229 319.774 210.93 319.826 210.748L318.461 210.735C318.396 210.878 318.357 211.177 318.357 211.398C318.357 212.152 319.059 212.841 319.904 213.088L318.526 213.088L318.526 214.466L325 214.466L325 213.036ZM321.763 203.737C319.787 203.737 318.357 205.089 318.357 206.961C318.357 208.846 319.787 210.211 321.763 210.211C323.739 210.211 325.169 208.846 325.169 206.961C325.169 205.089 323.739 203.737 321.763 203.737ZM321.763 208.703C320.463 208.703 319.514 207.975 319.514 206.961C319.514 205.96 320.463 205.245 321.763 205.245C323.063 205.245 323.999 205.96 323.999 206.961C323.999 207.975 323.063 208.703 321.763 208.703ZM325 196.699L320.762 196.699C319.358 196.699 318.357 197.661 318.357 198.909C318.357 199.806 318.864 200.56 319.475 200.989L318.526 200.989L318.526 202.367L325 202.367L325 200.937L320.359 200.937C319.904 200.586 319.54 199.975 319.54 199.338C319.54 198.636 320.06 198.129 320.866 198.129L325 198.129L325 196.699ZM323.349 189.662L322.894 190.884C323.544 191.157 323.973 191.625 323.973 192.275C323.973 193.211 323.063 193.874 321.802 193.874C320.489 193.874 319.553 193.224 319.553 192.314C319.553 191.716 319.917 191.222 320.606 190.949L320.125 189.714C319.046 190.182 318.357 191.092 318.357 192.379C318.357 194.134 319.8 195.395 321.815 195.395C323.765 195.395 325.182 194.121 325.182 192.366C325.182 191.079 324.402 190.104 323.349 189.662ZM321.763 182.46C319.787 182.46 318.357 183.812 318.357 185.684C318.357 187.569 319.787 188.934 321.763 188.934C323.739 188.934 325.169 187.569 325.169 185.684C325.169 183.812 323.739 182.46 321.763 182.46ZM321.763 187.426C320.463 187.426 319.514 186.698 319.514 185.684C319.514 184.683 320.463 183.968 321.763 183.968C323.063 183.968 323.999 184.683 323.999 185.684C323.999 186.698 323.063 187.426 321.763 187.426Z" fill="#F9F9F9"/>
<path d="M316.589 173.774L317.629 176.452L319.332 175.828L318.747 174.125L323.089 174.125L323.089 176.153L325 176.153L325 170.095L323.089 170.095L323.089 171.85L316.589 171.85L316.589 173.774ZM322.231 161.606C320.58 161.606 319.449 162.958 319.449 164.739C319.449 165.519 319.67 166.169 319.943 166.598L318.565 166.52L318.565 161.983L316.589 161.983L316.589 168.145L321.412 168.392L321.75 166.988C321.438 166.559 321.256 166.013 321.256 165.441C321.256 164.531 321.672 164.024 322.283 164.024C322.933 164.024 323.323 164.596 323.323 165.415C323.323 166.195 322.972 166.897 322.374 167.261L323.219 168.925C324.506 168.171 325.195 166.819 325.195 165.233C325.195 163.114 323.96 161.606 322.231 161.606ZM322.231 153.481C320.58 153.481 319.449 154.833 319.449 156.614C319.449 157.394 319.67 158.044 319.943 158.473L318.565 158.395L318.565 153.858L316.589 153.858L316.589 160.02L321.412 160.267L321.75 158.863C321.438 158.434 321.256 157.888 321.256 157.316C321.256 156.406 321.672 155.899 322.283 155.899C322.933 155.899 323.323 156.471 323.323 157.29C323.323 158.07 322.972 158.772 322.374 159.136L323.219 160.8C324.506 160.046 325.195 158.694 325.195 157.108C325.195 154.989 323.96 153.481 322.231 153.481Z" fill="#1E2528"/>
<path d="M148.589 299.774L149.629 302.452L151.332 301.828L150.747 300.125L155.089 300.125L155.089 302.153L157 302.153L157 296.095L155.089 296.095L155.089 297.85L148.589 297.85L148.589 299.774ZM152.775 287.333C150.214 287.333 148.407 288.932 148.407 291.181C148.407 293.443 150.214 295.042 152.775 295.042C155.362 295.042 157.182 293.443 157.182 291.181C157.182 288.932 155.362 287.333 152.775 287.333ZM152.801 292.624C151.319 292.624 150.344 292.052 150.344 291.181C150.344 290.323 151.319 289.738 152.801 289.738C154.27 289.738 155.245 290.323 155.245 291.181C155.245 292.052 154.27 292.624 152.801 292.624ZM152.541 281.353L152.476 281.353C152.216 280.326 151.488 279.728 150.643 279.728C149.343 279.728 148.407 281.145 148.407 283.017C148.407 284.837 149.343 286.098 150.552 286.696L151.28 285.071C150.656 284.72 150.266 284.174 150.266 283.368C150.266 282.627 150.63 282.146 151.111 282.146C151.592 282.146 151.956 282.653 151.969 283.472L151.969 284.629L153.542 284.629L153.529 283.316C153.529 282.458 153.815 281.899 154.387 281.899C154.959 281.899 155.323 282.458 155.323 283.316C155.323 284.213 154.933 284.889 154.296 285.214L155.089 286.865C156.428 286.111 157.182 284.772 157.182 283.069C157.182 281.028 156.09 279.481 154.595 279.481C153.555 279.481 152.775 280.222 152.541 281.353Z" fill="#F9F9F9"/>
<path d="M192.589 299.774L193.629 302.452L195.332 301.828L194.747 300.125L199.089 300.125L199.089 302.153L201 302.153L201 296.095L199.089 296.095L199.089 297.85L192.589 297.85L192.589 299.774ZM196.775 287.333C194.214 287.333 192.407 288.932 192.407 291.181C192.407 293.443 194.214 295.042 196.775 295.042C199.362 295.042 201.182 293.443 201.182 291.181C201.182 288.932 199.362 287.333 196.775 287.333ZM196.801 292.624C195.319 292.624 194.344 292.052 194.344 291.181C194.344 290.323 195.319 289.738 196.801 289.738C198.27 289.738 199.245 290.323 199.245 291.181C199.245 292.052 198.27 292.624 196.801 292.624ZM196.541 281.353L196.476 281.353C196.216 280.326 195.488 279.728 194.643 279.728C193.343 279.728 192.407 281.145 192.407 283.017C192.407 284.837 193.343 286.098 194.552 286.696L195.28 285.071C194.656 284.72 194.266 284.174 194.266 283.368C194.266 282.627 194.63 282.146 195.111 282.146C195.592 282.146 195.956 282.653 195.969 283.472L195.969 284.629L197.542 284.629L197.529 283.316C197.529 282.458 197.815 281.899 198.387 281.899C198.959 281.899 199.323 282.458 199.323 283.316C199.323 284.213 198.933 284.889 198.296 285.214L199.089 286.865C200.428 286.111 201.182 284.772 201.182 283.069C201.182 281.028 200.09 279.481 198.595 279.481C197.555 279.481 196.775 280.222 196.541 281.353Z" fill="#F9F9F9"/>
<path d="M236.589 299.774L237.629 302.452L239.332 301.828L238.747 300.125L243.089 300.125L243.089 302.153L245 302.153L245 296.095L243.089 296.095L243.089 297.85L236.589 297.85L236.589 299.774ZM240.775 287.333C238.214 287.333 236.407 288.932 236.407 291.181C236.407 293.443 238.214 295.042 240.775 295.042C243.362 295.042 245.182 293.443 245.182 291.181C245.182 288.932 243.362 287.333 240.775 287.333ZM240.801 292.624C239.319 292.624 238.344 292.052 238.344 291.181C238.344 290.323 239.319 289.738 240.801 289.738C242.27 289.738 243.245 290.323 243.245 291.181C243.245 292.052 242.27 292.624 240.801 292.624ZM240.541 281.353L240.476 281.353C240.216 280.326 239.488 279.728 238.643 279.728C237.343 279.728 236.407 281.145 236.407 283.017C236.407 284.837 237.343 286.098 238.552 286.696L239.28 285.071C238.656 284.72 238.266 284.174 238.266 283.368C238.266 282.627 238.63 282.146 239.111 282.146C239.592 282.146 239.956 282.653 239.969 283.472L239.969 284.629L241.542 284.629L241.529 283.316C241.529 282.458 241.815 281.899 242.387 281.899C242.959 281.899 243.323 282.458 243.323 283.316C243.323 284.213 242.933 284.889 242.296 285.214L243.089 286.865C244.428 286.111 245.182 284.772 245.182 283.069C245.182 281.028 244.09 279.481 242.595 279.481C241.555 279.481 240.775 280.222 240.541 281.353Z" fill="#F9F9F9"/>
<path d="M280.589 299.774L281.629 302.452L283.332 301.828L282.747 300.125L287.089 300.125L287.089 302.153L289 302.153L289 296.095L287.089 296.095L287.089 297.85L280.589 297.85L280.589 299.774ZM284.775 287.333C282.214 287.333 280.407 288.932 280.407 291.181C280.407 293.443 282.214 295.042 284.775 295.042C287.362 295.042 289.182 293.443 289.182 291.181C289.182 288.932 287.362 287.333 284.775 287.333ZM284.801 292.624C283.319 292.624 282.344 292.052 282.344 291.181C282.344 290.323 283.319 289.738 284.801 289.738C286.27 289.738 287.245 290.323 287.245 291.181C287.245 292.052 286.27 292.624 284.801 292.624ZM284.541 281.353L284.476 281.353C284.216 280.326 283.488 279.728 282.643 279.728C281.343 279.728 280.407 281.145 280.407 283.017C280.407 284.837 281.343 286.098 282.552 286.696L283.28 285.071C282.656 284.72 282.266 284.174 282.266 283.368C282.266 282.627 282.63 282.146 283.111 282.146C283.592 282.146 283.956 282.653 283.969 283.472L283.969 284.629L285.542 284.629L285.529 283.316C285.529 282.458 285.815 281.899 286.387 281.899C286.959 281.899 287.323 282.458 287.323 283.316C287.323 284.213 286.933 284.889 286.296 285.214L287.089 286.865C288.428 286.111 289.182 284.772 289.182 283.069C289.182 281.028 288.09 279.481 286.595 279.481C285.555 279.481 284.775 280.222 284.541 281.353Z" fill="#F9F9F9"/>
<path d="M324.589 299.774L325.629 302.452L327.332 301.828L326.747 300.125L331.089 300.125L331.089 302.153L333 302.153L333 296.095L331.089 296.095L331.089 297.85L324.589 297.85L324.589 299.774ZM328.775 287.333C326.214 287.333 324.407 288.932 324.407 291.181C324.407 293.443 326.214 295.042 328.775 295.042C331.362 295.042 333.182 293.443 333.182 291.181C333.182 288.932 331.362 287.333 328.775 287.333ZM328.801 292.624C327.319 292.624 326.344 292.052 326.344 291.181C326.344 290.323 327.319 289.738 328.801 289.738C330.27 289.738 331.245 290.323 331.245 291.181C331.245 292.052 330.27 292.624 328.801 292.624ZM328.541 281.353L328.476 281.353C328.216 280.326 327.488 279.728 326.643 279.728C325.343 279.728 324.407 281.145 324.407 283.017C324.407 284.837 325.343 286.098 326.552 286.696L327.28 285.071C326.656 284.72 326.266 284.174 326.266 283.368C326.266 282.627 326.63 282.146 327.111 282.146C327.592 282.146 327.956 282.653 327.969 283.472L327.969 284.629L329.542 284.629L329.529 283.316C329.529 282.458 329.815 281.899 330.387 281.899C330.959 281.899 331.323 282.458 331.323 283.316C331.323 284.213 330.933 284.889 330.296 285.214L331.089 286.865C332.428 286.111 333.182 284.772 333.182 283.069C333.182 281.028 332.09 279.481 330.595 279.481C329.555 279.481 328.775 280.222 328.541 281.353Z" fill="#F9F9F9"/>
<path d="M51 26L57.0622 29.5V36.5L51 40L44.9378 36.5V29.5L51 26Z" fill="url(#paint9_linear_395_113)"/>
<path d="M67.2186 31.972L71.7306 33.844L67.2186 35.704V36.64L72.8346 34.324V33.364L67.2186 31.048V31.972ZM82.8681 34.456C82.8681 32.968 81.6081 31.852 80.0241 31.852C79.2081 31.852 78.5601 32.152 78.1521 32.452L78.3081 30.292H82.5201V29.236H77.4201L77.1201 33.58L77.8641 33.736C78.2481 33.184 79.0161 32.812 79.8201 32.812C80.9241 32.812 81.7041 33.532 81.7041 34.528C81.7041 35.536 80.9121 36.184 79.7481 36.184C78.7521 36.184 78.0321 35.704 77.5881 34.852L76.7241 35.296C77.3121 36.448 78.4041 37.156 79.7841 37.156C81.5601 37.156 82.8681 35.98 82.8681 34.456ZM92.0376 37.096L92.0856 36.316C92.0136 36.328 91.8936 36.34 91.8216 36.34C91.4616 36.34 91.2816 36.088 91.2816 35.764V33.028C91.2816 31.648 90.4416 30.892 89.1456 30.892C88.1136 30.892 87.2136 31.468 86.7816 32.404L87.5736 32.728C87.8736 32.164 88.3416 31.744 89.0496 31.744C89.7816 31.744 90.2616 32.248 90.2616 32.992V33.46L88.8696 33.628C87.5496 33.796 86.6136 34.432 86.6136 35.536C86.6136 36.484 87.3696 37.156 88.4256 37.156C89.2656 37.156 89.9256 36.748 90.3096 36.112C90.4536 36.796 90.8976 37.156 91.5696 37.156C91.7496 37.156 91.8936 37.132 92.0376 37.096ZM88.7016 36.328C88.1016 36.328 87.6816 35.968 87.6816 35.464C87.6816 34.852 88.2576 34.492 89.0496 34.396L90.2616 34.252V35.344C89.9496 35.92 89.3616 36.328 88.7016 36.328ZM98.18 37V33.064C98.18 31.792 97.292 30.892 96.128 30.892C95.276 30.892 94.556 31.396 94.16 31.96V31.048H93.176V37H94.196V32.68C94.568 32.152 95.216 31.756 95.888 31.756C96.632 31.756 97.16 32.308 97.16 33.136V37H98.18ZM104.965 37V33.064C104.965 31.792 104.077 30.892 102.913 30.892C102.061 30.892 101.341 31.396 100.945 31.96V31.048H99.9611V37H100.981V32.68C101.353 32.152 102.001 31.756 102.673 31.756C103.417 31.756 103.945 32.308 103.945 33.136V37H104.965ZM107.766 31.048H106.746V37H107.766V31.048ZM107.766 28.684H106.746V29.872H107.766V28.684Z" fill="#1E2528"/>
<path d="M51 48L57.0622 51.5L57.0622 58.5L51 62L44.9378 58.5L44.9378 51.5L51 48Z" fill="#1E2528"/>
<path d="M66.9546 56.364V57.324L72.5706 59.64V58.704L68.0586 56.844L72.5706 54.972V54.048L66.9546 56.364ZM82.8681 57.456C82.8681 55.968 81.6081 54.852 80.0241 54.852C79.2081 54.852 78.5601 55.152 78.1521 55.452L78.3081 53.292L82.5201 53.292L82.5201 52.236L77.4201 52.236L77.1201 56.58L77.8641 56.736C78.2481 56.184 79.0161 55.812 79.8201 55.812C80.9241 55.812 81.7041 56.532 81.7041 57.528C81.7041 58.536 80.9121 59.184 79.7481 59.184C78.7521 59.184 78.0321 58.704 77.5881 57.852L76.7241 58.296C77.3121 59.448 78.4041 60.156 79.7841 60.156C81.5601 60.156 82.8681 58.98 82.8681 57.456ZM92.0376 60.096L92.0856 59.316C92.0136 59.328 91.8936 59.34 91.8216 59.34C91.4616 59.34 91.2816 59.088 91.2816 58.764V56.028C91.2816 54.648 90.4416 53.892 89.1456 53.892C88.1136 53.892 87.2136 54.468 86.7816 55.404L87.5736 55.728C87.8736 55.164 88.3416 54.744 89.0496 54.744C89.7816 54.744 90.2616 55.248 90.2616 55.992V56.46L88.8696 56.628C87.5496 56.796 86.6136 57.432 86.6136 58.536C86.6136 59.484 87.3696 60.156 88.4256 60.156C89.2656 60.156 89.9256 59.748 90.3096 59.112C90.4536 59.796 90.8976 60.156 91.5696 60.156C91.7496 60.156 91.8936 60.132 92.0376 60.096ZM88.7016 59.328C88.1016 59.328 87.6816 58.968 87.6816 58.464C87.6816 57.852 88.2576 57.492 89.0496 57.396L90.2616 57.252V58.344C89.9496 58.92 89.3616 59.328 88.7016 59.328ZM98.18 60L98.18 56.064C98.18 54.792 97.292 53.892 96.128 53.892C95.276 53.892 94.556 54.396 94.16 54.96V54.048L93.176 54.048L93.176 60L94.196 60L94.196 55.68C94.568 55.152 95.216 54.756 95.888 54.756C96.632 54.756 97.16 55.308 97.16 56.136L97.16 60H98.18ZM104.965 60L104.965 56.064C104.965 54.792 104.077 53.892 102.913 53.892C102.061 53.892 101.341 54.396 100.945 54.96L100.945 54.048H99.9611L99.9611 60H100.981L100.981 55.68C101.353 55.152 102.001 54.756 102.673 54.756C103.417 54.756 103.945 55.308 103.945 56.136L103.945 60L104.965 60ZM107.766 54.048H106.746L106.746 60H107.766L107.766 54.048ZM107.766 51.684H106.746V52.872H107.766V51.684Z" fill="#1E2528"/>
<defs>
<linearGradient id="paint0_linear_395_113" x1="243.398" y1="0.0624385" x2="255.081" y2="0.116416" gradientUnits="userSpaceOnUse">
<stop stop-color="#07A76F"/>
<stop offset="1" stop-color="#8ECA45"/>
</linearGradient>
<linearGradient id="paint1_linear_395_113" x1="-4.84392" y1="620.703" x2="77.731" y2="-97.0552" gradientUnits="userSpaceOnUse">
<stop stop-color="#07A76F"/>
<stop offset="1" stop-color="#8ECA45"/>
</linearGradient>
<linearGradient id="paint2_linear_395_113" x1="39.1561" y1="603.748" x2="96.2661" y2="5.61873" gradientUnits="userSpaceOnUse">
<stop stop-color="#07A76F"/>
<stop offset="1" stop-color="#8ECA45"/>
</linearGradient>
<linearGradient id="paint3_linear_395_113" x1="84.156" y1="603.748" x2="141.266" y2="5.61873" gradientUnits="userSpaceOnUse">
<stop stop-color="#07A76F"/>
<stop offset="1" stop-color="#8ECA45"/>
</linearGradient>
<linearGradient id="paint4_linear_395_113" x1="129.156" y1="596.357" x2="176.593" y2="50.8099" gradientUnits="userSpaceOnUse">
<stop stop-color="#07A76F"/>
<stop offset="1" stop-color="#8ECA45"/>
</linearGradient>
<linearGradient id="paint5_linear_395_113" x1="173.155" y1="596.357" x2="220.592" y2="50.8099" gradientUnits="userSpaceOnUse">
<stop stop-color="#07A76F"/>
<stop offset="1" stop-color="#8ECA45"/>
</linearGradient>
<linearGradient id="paint6_linear_395_113" x1="217.155" y1="596.357" x2="264.592" y2="50.8099" gradientUnits="userSpaceOnUse">
<stop stop-color="#07A76F"/>
<stop offset="1" stop-color="#8ECA45"/>
</linearGradient>
<linearGradient id="paint7_linear_395_113" x1="261.155" y1="596.357" x2="308.592" y2="50.8099" gradientUnits="userSpaceOnUse">
<stop stop-color="#07A76F"/>
<stop offset="1" stop-color="#8ECA45"/>
</linearGradient>
<linearGradient id="paint8_linear_395_113" x1="305.155" y1="596.357" x2="352.592" y2="50.8099" gradientUnits="userSpaceOnUse">
<stop stop-color="#07A76F"/>
<stop offset="1" stop-color="#8ECA45"/>
</linearGradient>
<linearGradient id="paint9_linear_395_113" x1="41.1971" y1="22.6093" x2="61.6417" y2="22.7037" gradientUnits="userSpaceOnUse">
<stop stop-color="#07A76F"/>
<stop offset="1" stop-color="#8ECA45"/>
</linearGradient>
</defs>
</svg>
