<svg width="104" height="168" viewBox="0 0 104 168" fill="none" xmlns="http://www.w3.org/2000/svg">
<path d="M21.3218 155.144L28 151.289L34.6782 155.144V162.856L28 166.711L21.3218 162.856V155.144Z" fill="#FF0000" stroke="#1E2528" stroke-width="0.5"/>
<path d="M44.756 158.758V159.878L51.308 162.58V161.488L46.044 159.318L51.308 157.134V156.056L44.756 158.758ZM61.9218 163V160.914H63.4758V159.808H61.9218V153.942H60.7598L56.0278 160.018V160.914H60.6478V163H61.9218ZM60.6478 159.808H57.4838L60.6478 155.748V159.808ZM66.2149 163V161.138H64.8149V163H66.2149ZM74.7925 160.032C74.7925 158.296 73.3225 156.994 71.4745 156.994C70.5225 156.994 69.7665 157.344 69.2905 157.694L69.4725 155.174H74.3865V153.942H68.4365L68.0865 159.01L68.9545 159.192C69.4025 158.548 70.2985 158.114 71.2365 158.114C72.5245 158.114 73.4345 158.954 73.4345 160.116C73.4345 161.292 72.5105 162.048 71.1525 162.048C69.9905 162.048 69.1505 161.488 68.6325 160.494L67.6245 161.012C68.3105 162.356 69.5845 163.182 71.1945 163.182C73.2665 163.182 74.7925 161.81 74.7925 160.032Z" fill="#1E2528"/>
<path d="M21.3218 130.144L28 126.289L34.6782 130.144V137.856L28 141.711L21.3218 137.856V130.144Z" fill="#FFA8A8" stroke="#1E2528" stroke-width="0.5"/>
<path d="M45.064 132.134L50.328 134.318L45.064 136.488V137.58L51.616 134.878V133.758L45.064 131.056V132.134ZM61.9218 138V135.914H63.4758V134.808H61.9218V128.942H60.7598L56.0278 135.018V135.914H60.6478V138H61.9218ZM60.6478 134.808H57.4838L60.6478 130.748V134.808ZM66.2149 138V136.138H64.8149V138H66.2149ZM74.7925 135.032C74.7925 133.296 73.3225 131.994 71.4745 131.994C70.5225 131.994 69.7665 132.344 69.2905 132.694L69.4725 130.174H74.3865V128.942H68.4365L68.0865 134.01L68.9545 134.192C69.4025 133.548 70.2985 133.114 71.2365 133.114C72.5245 133.114 73.4345 133.954 73.4345 135.116C73.4345 136.292 72.5105 137.048 71.1525 137.048C69.9905 137.048 69.1505 136.488 68.6325 135.494L67.6245 136.012C68.3105 137.356 69.5845 138.182 71.1945 138.182C73.2665 138.182 74.7925 136.81 74.7925 135.032ZM79.5822 134.836H86.1342V133.954H79.5822V134.836ZM92.1836 131.854C92.1836 130.72 93.0376 129.894 94.2276 129.894C95.4456 129.894 96.3556 130.72 96.6496 132.218C96.2436 133.1 95.3476 133.716 94.3256 133.744C93.1216 133.772 92.1836 133.016 92.1836 131.854ZM98.0916 133.366C98.0916 130.636 96.4956 128.76 94.1996 128.76C92.2816 128.76 90.8256 130.104 90.8256 131.896C90.8256 133.688 92.3376 134.878 94.1296 134.836C95.2356 134.794 96.2296 134.262 96.7616 133.478C96.7336 135.732 95.7396 137.104 94.1576 137.104C93.1776 137.104 92.2816 136.586 91.7216 135.732L90.8116 136.362C91.5816 137.552 92.7856 138.182 94.1436 138.182C96.5516 138.182 98.0916 136.166 98.0916 133.366Z" fill="#1E2528"/>
<path d="M21.3218 105.144L28 101.289L34.6782 105.144V112.856L28 116.711L21.3218 112.856V105.144Z" fill="#FFC754" stroke="#1E2528" stroke-width="0.5"/>
<path d="M45.064 107.134L50.328 109.318L45.064 111.488V112.58L51.616 109.878V108.758L45.064 106.056V107.134ZM57.5118 106.854C57.5118 105.72 58.3658 104.894 59.5558 104.894C60.7738 104.894 61.6838 105.72 61.9778 107.218C61.5718 108.1 60.6758 108.716 59.6538 108.744C58.4498 108.772 57.5118 108.016 57.5118 106.854ZM63.4198 108.366C63.4198 105.636 61.8238 103.76 59.5278 103.76C57.6098 103.76 56.1538 105.104 56.1538 106.896C56.1538 108.688 57.6658 109.878 59.4578 109.836C60.5638 109.794 61.5578 109.262 62.0898 108.478C62.0618 110.732 61.0678 112.104 59.4858 112.104C58.5058 112.104 57.6098 111.586 57.0498 110.732L56.1398 111.362C56.9098 112.552 58.1138 113.182 59.4718 113.182C61.8798 113.182 63.4198 111.166 63.4198 108.366ZM68.1115 109.836H74.6635V108.954H68.1115V109.836ZM82.9249 103.942L80.2789 105.006L80.6849 106.056L82.6449 105.37V111.894H80.4749V113H85.9209V111.894H83.9329V103.942H82.9249ZM94.8901 110.032C94.8901 108.296 93.4201 106.994 91.5721 106.994C90.6201 106.994 89.8641 107.344 89.3881 107.694L89.5701 105.174H94.4841V103.942H88.5341L88.1841 109.01L89.0521 109.192C89.5001 108.548 90.3961 108.114 91.3341 108.114C92.6221 108.114 93.5321 108.954 93.5321 110.116C93.5321 111.292 92.6081 112.048 91.2501 112.048C90.0881 112.048 89.2481 111.488 88.7301 110.494L87.7221 111.012C88.4081 112.356 89.6821 113.182 91.2921 113.182C93.3641 113.182 94.8901 111.81 94.8901 110.032Z" fill="#1E2528"/>
<path d="M21.3218 80.1443L28 76.2887L34.6782 80.1443V87.8557L28 91.7113L21.3218 87.8557V80.1443Z" fill="#FFFF00" stroke="#1E2528" stroke-width="0.5"/>
<path d="M45.064 82.134L50.328 84.318L45.064 86.488V87.58L51.616 84.878V83.758L45.064 81.056V82.134ZM59.7238 78.942L57.0778 80.006L57.4838 81.056L59.4438 80.37V86.894H57.2738V88H62.7198V86.894H60.7318V78.942H59.7238ZM71.6889 85.032C71.6889 83.296 70.2189 81.994 68.3709 81.994C67.4189 81.994 66.6629 82.344 66.1869 82.694L66.3689 80.174H71.2829V78.942H65.3329L64.9829 84.01L65.8509 84.192C66.2989 83.548 67.1949 83.114 68.1329 83.114C69.4209 83.114 70.3309 83.954 70.3309 85.116C70.3309 86.292 69.4069 87.048 68.0489 87.048C66.8869 87.048 66.0469 86.488 65.5289 85.494L64.5209 86.012C65.2069 87.356 66.4809 88.182 68.0909 88.182C70.1629 88.182 71.6889 86.81 71.6889 85.032ZM76.4787 84.836H83.0307V83.954H76.4787V84.836ZM88.0021 86.978V88H94.7501V86.824H89.8361L92.1321 84.794C92.9861 84.024 94.3301 82.834 94.3301 81.294C94.3301 79.81 93.0281 78.76 91.3481 78.76C89.6541 78.76 88.5341 79.838 88.0021 81.126L88.9961 81.588C89.3741 80.692 90.1721 79.894 91.2781 79.894C92.1881 79.894 92.9721 80.454 92.9721 81.42C92.9721 82.358 92.2021 83.086 91.1241 84.094L88.0021 86.978ZM103.453 83.464C103.453 80.664 101.969 78.76 99.7293 78.76C97.4893 78.76 95.9773 80.664 95.9773 83.464C95.9773 86.278 97.4893 88.182 99.7293 88.182C101.969 88.182 103.453 86.278 103.453 83.464ZM97.3493 83.464C97.3493 81.322 98.3013 79.894 99.7293 79.894C101.143 79.894 102.095 81.322 102.095 83.464C102.095 85.62 101.143 87.048 99.7293 87.048C98.3013 87.048 97.3493 85.62 97.3493 83.464Z" fill="#1E2528"/>
<path d="M21.3218 55.1443L28 51.2887L34.6782 55.1443V62.8557L28 66.7113L21.3218 62.8557V55.1443Z" fill="#D1FF54" stroke="#1E2528" stroke-width="0.5"/>
<path d="M45.064 57.134L50.328 59.318L45.064 61.488V62.58L51.616 59.878V58.758L45.064 56.056V57.134ZM56.4338 61.978V63H63.1818V61.824H58.2678L60.5638 59.794C61.4178 59.024 62.7618 57.834 62.7618 56.294C62.7618 54.81 61.4598 53.76 59.7798 53.76C58.0858 53.76 56.9658 54.838 56.4338 56.126L57.4278 56.588C57.8058 55.692 58.6038 54.894 59.7097 54.894C60.6198 54.894 61.4038 55.454 61.4038 56.42C61.4038 57.358 60.6338 58.086 59.5558 59.094L56.4338 61.978ZM71.8849 58.464C71.8849 55.664 70.4009 53.76 68.1609 53.76C65.9209 53.76 64.4089 55.664 64.4089 58.464C64.4089 61.278 65.9209 63.182 68.1609 63.182C70.4009 63.182 71.8849 61.278 71.8849 58.464ZM65.7809 58.464C65.7809 56.322 66.7329 54.894 68.1609 54.894C69.5749 54.894 70.5269 56.322 70.5269 58.464C70.5269 60.62 69.5749 62.048 68.1609 62.048C66.7329 62.048 65.7809 60.62 65.7809 58.464ZM76.4787 59.836H83.0307V58.954H76.4787V59.836ZM94.8901 60.032C94.8901 58.296 93.4201 56.994 91.5721 56.994C90.6201 56.994 89.8641 57.344 89.3881 57.694L89.5701 55.174H94.4841V53.942H88.5341L88.1841 59.01L89.0521 59.192C89.5001 58.548 90.3961 58.114 91.3341 58.114C92.6221 58.114 93.5321 58.954 93.5321 60.116C93.5321 61.292 92.6081 62.048 91.2501 62.048C90.0881 62.048 89.2481 61.488 88.7301 60.494L87.7221 61.012C88.4081 62.356 89.6821 63.182 91.2921 63.182C93.3641 63.182 94.8901 61.81 94.8901 60.032ZM103.453 58.464C103.453 55.664 101.969 53.76 99.7293 53.76C97.4893 53.76 95.9773 55.664 95.9773 58.464C95.9773 61.278 97.4893 63.182 99.7293 63.182C101.969 63.182 103.453 61.278 103.453 58.464ZM97.3493 58.464C97.3493 56.322 98.3013 54.894 99.7293 54.894C101.143 54.894 102.095 56.322 102.095 58.464C102.095 60.62 101.143 62.048 99.7293 62.048C98.3013 62.048 97.3493 60.62 97.3493 58.464Z" fill="#1E2528"/>
<path d="M21.3218 30.1443L28 26.2887L34.6782 30.1443V37.8557L28 41.7113L21.3218 37.8557V30.1443Z" fill="#64BC00" stroke="#1E2528" stroke-width="0.5"/>
<path d="M45.064 32.134L50.328 34.318L45.064 36.488V37.58L51.616 34.878V33.758L45.064 31.056V32.134ZM63.3218 35.032C63.3218 33.296 61.8518 31.994 60.0038 31.994C59.0518 31.994 58.2958 32.344 57.8198 32.694L58.0018 30.174H62.9158V28.942H56.9658L56.6158 34.01L57.4838 34.192C57.9318 33.548 58.8278 33.114 59.7658 33.114C61.0538 33.114 61.9638 33.954 61.9638 35.116C61.9638 36.292 61.0398 37.048 59.6818 37.048C58.5198 37.048 57.6798 36.488 57.1618 35.494L56.1538 36.012C56.8398 37.356 58.1138 38.182 59.7238 38.182C61.7958 38.182 63.3218 36.81 63.3218 35.032ZM71.8849 33.464C71.8849 30.664 70.4009 28.76 68.1609 28.76C65.9209 28.76 64.4089 30.664 64.4089 33.464C64.4089 36.278 65.9209 38.182 68.1609 38.182C70.4009 38.182 71.8849 36.278 71.8849 33.464ZM65.7809 33.464C65.7809 31.322 66.7329 29.894 68.1609 29.894C69.5749 29.894 70.5269 31.322 70.5269 33.464C70.5269 35.62 69.5749 37.048 68.1609 37.048C66.7329 37.048 65.7809 35.62 65.7809 33.464ZM76.4787 34.836H83.0307V33.954H76.4787V34.836ZM90.6061 38L94.4701 29.866V28.942H88.2121V30.174H93.0281L89.2481 38H90.6061ZM103.257 35.032C103.257 33.296 101.787 31.994 99.9393 31.994C98.9873 31.994 98.2313 32.344 97.7553 32.694L97.9373 30.174H102.851V28.942H96.9013L96.5513 34.01L97.4193 34.192C97.8673 33.548 98.7633 33.114 99.7013 33.114C100.989 33.114 101.899 33.954 101.899 35.116C101.899 36.292 100.975 37.048 99.6173 37.048C98.4553 37.048 97.6153 36.488 97.0973 35.494L96.0893 36.012C96.7753 37.356 98.0493 38.182 99.6593 38.182C101.731 38.182 103.257 36.81 103.257 35.032Z" fill="#1E2528"/>
<path d="M21.3218 5.14434L28 1.28868L34.6782 5.14434V12.8557L28 16.7113L21.3218 12.8557V5.14434Z" fill="#056B47" stroke="#1E2528" stroke-width="0.5"/>
<path d="M45.064 7.134L50.328 9.318L45.064 11.488V12.58L51.616 9.878V8.758L45.064 6.056V7.134ZM59.0378 13L62.9018 4.866V3.942H56.6438V5.174H61.4598L57.6798 13H59.0378ZM71.6889 10.032C71.6889 8.296 70.2189 6.994 68.3709 6.994C67.4189 6.994 66.6629 7.344 66.1869 7.694L66.3689 5.174H71.2829V3.942H65.3329L64.9829 9.01L65.8509 9.192C66.2989 8.548 67.1949 8.114 68.1329 8.114C69.4209 8.114 70.3309 8.954 70.3309 10.116C70.3309 11.292 69.4069 12.048 68.0489 12.048C66.8869 12.048 66.0469 11.488 65.5289 10.494L64.5209 11.012C65.2069 12.356 66.4809 13.182 68.0909 13.182C70.1629 13.182 71.6889 11.81 71.6889 10.032ZM86.3767 13V8.408C86.3767 6.924 85.3687 5.874 84.0667 5.874C83.1427 5.874 82.3307 6.434 81.8407 7.176C81.4627 6.378 80.7347 5.874 79.8807 5.874C78.9567 5.874 78.1867 6.462 77.7807 7.12V6.056H76.6327V13H77.8227V7.932C78.2147 7.344 78.8867 6.882 79.5727 6.882C80.3427 6.882 80.9027 7.526 80.9027 8.492V13H82.0927V8.408C82.0927 8.198 82.0787 8.002 82.0367 7.806C82.4567 7.274 83.1287 6.882 83.8007 6.882C84.5987 6.882 85.1867 7.526 85.1867 8.492V13H86.3767ZM92.5195 9.472V8.492H89.4255L90.7555 7.442C91.8195 6.616 92.2255 6.126 92.2255 5.384C92.2255 4.46 91.3435 3.802 90.1815 3.802C89.0335 3.802 88.2635 4.474 87.8995 5.3L88.7395 5.678C88.9635 5.132 89.4675 4.74 90.0555 4.74C90.6155 4.74 91.0355 5.062 91.0355 5.51C91.0355 5.944 90.7275 6.266 89.8735 7.008L87.9275 8.688V9.472H92.5195Z" fill="#1E2528"/>
<path d="M3.64645 167.354C3.84172 167.549 4.1583 167.549 4.35356 167.354L7.53554 164.172C7.7308 163.976 7.7308 163.66 7.53554 163.464C7.34028 163.269 7.0237 163.269 6.82843 163.464L4.00001 166.293L1.17158 163.464C0.976318 163.269 0.659735 163.269 0.464473 163.464C0.269211 163.66 0.269211 163.976 0.464473 164.172L3.64645 167.354ZM3.5 2.18557e-08L3.50001 167L4.50001 167L4.5 -2.18557e-08L3.5 2.18557e-08Z" fill="black"/>
</svg>
