<svg width="40" height="40" viewBox="0 0 40 40" fill="none" xmlns="http://www.w3.org/2000/svg">
<rect width="40" height="40" fill="url(#paint0_linear_153_815)"/>
<path d="M32 18C32 14.8174 30.7357 11.7652 28.4853 9.51472C26.2348 7.26428 23.1826 6 20 6C16.8174 6 13.7652 7.26428 11.5147 9.51472C9.26428 11.7652 8 14.8174 8 18L20 18H32Z" fill="#F9F9F9"/>
<path d="M10 35L10 22M10 22L6 26.4032M10 22L14 26.4032" stroke="#F9F9F9"/>
<path d="M31.5 35L31.5 22M31.5 22L27 26.4032M31.5 22L36 26.4032" stroke="#F9F9F9"/>
<path d="M20.5 22L20.5 35M20.5 35L25 30.5968M20.5 35L16 30.5968" stroke="#F9F9F9"/>
<defs>
<linearGradient id="paint0_linear_153_815" x1="-8.0083" y1="-9.68781" x2="50.4048" y2="-9.41792" gradientUnits="userSpaceOnUse">
<stop stop-color="#07A76F"/>
<stop offset="1" stop-color="#8ECA45"/>
</linearGradient>
</defs>
</svg>
