<svg width="20" height="20" viewBox="0 0 20 20" fill="none" xmlns="http://www.w3.org/2000/svg">
<rect x="0.5" y="0.5" width="19" height="19" rx="9.5" fill="#F9F9F9"/>
<path d="M12.864 11.4C13.024 11.0587 13.1787 10.76 13.328 10.504C13.488 10.248 13.6427 10.0347 13.792 9.864L4.464 9.864V9.192L13.792 9.192C13.6427 9.01067 13.488 8.792 13.328 8.536C13.1787 8.28 13.024 7.98667 12.864 7.656H13.424C14.096 8.43467 14.8 9.01067 15.536 9.384V9.672C14.8 10.0347 14.096 10.6107 13.424 11.4H12.864Z" fill="#1E2528"/>
<rect x="0.5" y="0.5" width="19" height="19" rx="9.5" stroke="url(#paint0_linear_214_160)"/>
<defs>
<linearGradient id="paint0_linear_214_160" x1="-4.00415" y1="-4.8439" x2="25.2024" y2="-4.70896" gradientUnits="userSpaceOnUse">
<stop stop-color="#07A76F"/>
<stop offset="1" stop-color="#8ECA45"/>
</linearGradient>
</defs>
</svg>
