<svg width="224" height="16" viewBox="0 0 224 16" fill="none" xmlns="http://www.w3.org/2000/svg">
  <path
    d="M59.969 9.777L58.643 9.283C58.279 10.193 57.408 10.83 56.576 10.83C55.185 10.83 54.184 9.608 54.184 7.879C54.184 6.072 55.185 4.772 56.576 4.772C57.369 4.772 58.188 5.409 58.539 6.267L59.93 5.76C59.384 4.408 58.006 3.446 56.498 3.446C54.21 3.446 52.559 5.318 52.559 7.892C52.559 10.388 54.197 12.169 56.498 12.169C58.019 12.169 59.475 11.168 59.969 9.777ZM62.786 12V6.28L67.024 12H68.35V3.589H66.907V9.361L62.669 3.589H61.343V12H62.786ZM71.9923 4.876H73.3833C74.3713 4.876 75.0343 5.435 75.0343 6.267C75.0343 7.164 74.3583 7.749 73.3833 7.749H71.9923V4.876ZM71.9923 12V9.036H73.3573C73.5393 9.036 73.7213 9.023 73.9033 9.01L75.4373 12H77.1403L75.2943 8.568C76.1263 8.087 76.6203 7.268 76.6203 6.254C76.6203 4.668 75.3463 3.589 73.4613 3.589H70.4583V12H71.9923ZM77.917 9.192H84.027V8.204H77.917V9.192ZM87.3917 3.589H85.8577V12H87.3917V3.589ZM95.5072 8.75C95.5072 6.774 94.3632 5.357 92.7772 5.357C92.0492 5.357 91.2692 5.76 90.7882 6.358V2.887H89.3582V12H90.7102V11.207C91.1652 11.766 91.9712 12.182 92.6862 12.182C94.3242 12.182 95.5072 10.739 95.5072 8.75ZM92.2702 11.012C91.6722 11.012 91.1132 10.726 90.7882 10.297V7.268C91.1132 6.826 91.6982 6.527 92.3222 6.527C93.2972 6.527 93.9992 7.437 93.9992 8.724C93.9992 10.05 93.2712 11.012 92.2702 11.012ZM102.281 10.505L101.189 10.076C100.877 10.687 100.305 11.051 99.6813 11.051C98.7193 11.051 98.0303 10.271 97.9393 9.075H102.294C102.333 8.906 102.359 8.529 102.359 8.217C102.359 6.527 101.202 5.357 99.5643 5.357C97.7703 5.357 96.4573 6.826 96.4573 8.841C96.4573 10.791 97.7703 12.182 99.5773 12.182C100.786 12.182 101.826 11.545 102.281 10.505ZM99.5643 6.449C100.37 6.449 100.916 7.086 100.968 8.074H97.9913C98.1863 7.073 98.7973 6.449 99.5643 6.449ZM107.482 12L108.834 9.686L110.225 12H111.902L109.731 8.75L111.759 5.526H110.134L108.873 7.879L107.521 5.526H105.883L107.937 8.75L105.818 12H107.482ZM115.882 3.589V12H121.563V10.687H117.416V3.589H115.882ZM128.286 12.091L128.351 11.051C128.273 11.064 128.13 11.077 128.052 11.077C127.701 11.077 127.519 10.83 127.519 10.479V7.736C127.519 6.189 126.583 5.357 125.075 5.357C123.853 5.357 122.865 6.007 122.41 7.047L123.476 7.502C123.775 6.93 124.243 6.501 124.945 6.501C125.647 6.501 126.102 6.969 126.102 7.697V8.113L124.659 8.308C123.203 8.516 122.215 9.231 122.215 10.414C122.215 11.441 123.034 12.182 124.178 12.182C125.075 12.182 125.79 11.74 126.193 11.077C126.414 11.831 126.947 12.182 127.701 12.182C127.922 12.182 128.104 12.143 128.286 12.091ZM124.646 11.077C124.087 11.077 123.684 10.739 123.684 10.258C123.684 9.673 124.217 9.322 124.958 9.231L126.102 9.075V10.232C125.79 10.726 125.257 11.077 124.646 11.077ZM135.105 12V7.762C135.105 6.358 134.143 5.357 132.895 5.357C131.998 5.357 131.244 5.864 130.815 6.475V5.526H129.437V12H130.867V7.359C131.218 6.904 131.829 6.54 132.466 6.54C133.168 6.54 133.675 7.06 133.675 7.866V12H135.105ZM139.581 11.012C138.619 11.012 137.93 10.089 137.93 8.789C137.93 7.476 138.658 6.527 139.659 6.527C140.244 6.527 140.803 6.787 141.115 7.177V10.232C140.764 10.7 140.179 11.012 139.581 11.012ZM142.545 12V2.887H141.115V6.202C140.686 5.695 139.971 5.357 139.282 5.357C137.618 5.357 136.422 6.8 136.422 8.815C136.422 10.765 137.579 12.182 139.191 12.182C139.906 12.182 140.725 11.727 141.193 11.103V12H142.545ZM149.541 10.18C149.541 8.971 148.514 8.451 147.032 8.113C146.005 7.879 145.42 7.723 145.42 7.216C145.42 6.748 145.94 6.436 146.707 6.436C147.552 6.436 148.124 6.787 148.436 7.359L149.502 6.917C149.086 6.111 148.254 5.357 146.72 5.357C145.147 5.357 144.068 6.176 144.068 7.333C144.068 8.477 145.16 9.01 146.499 9.309C147.539 9.53 148.189 9.725 148.189 10.271C148.189 10.778 147.708 11.103 146.889 11.103C145.901 11.103 145.212 10.661 144.874 10.076L143.782 10.518C144.224 11.506 145.316 12.182 146.837 12.182C148.514 12.182 149.541 11.376 149.541 10.18ZM156.469 12.091L156.534 11.051C156.456 11.064 156.313 11.077 156.235 11.077C155.884 11.077 155.702 10.83 155.702 10.479V7.736C155.702 6.189 154.766 5.357 153.258 5.357C152.036 5.357 151.048 6.007 150.593 7.047L151.659 7.502C151.958 6.93 152.426 6.501 153.128 6.501C153.83 6.501 154.285 6.969 154.285 7.697V8.113L152.842 8.308C151.386 8.516 150.398 9.231 150.398 10.414C150.398 11.441 151.217 12.182 152.361 12.182C153.258 12.182 153.973 11.74 154.376 11.077C154.597 11.831 155.13 12.182 155.884 12.182C156.105 12.182 156.287 12.143 156.469 12.091ZM152.829 11.077C152.27 11.077 151.867 10.739 151.867 10.258C151.867 9.673 152.4 9.322 153.141 9.231L154.285 9.075V10.232C153.973 10.726 153.44 11.077 152.829 11.077ZM161.547 11.974V10.817C161.3 10.895 160.884 10.973 160.494 10.973C159.727 10.973 159.415 10.609 159.415 10.011V6.683H161.521V5.526H159.415V3.953H157.985V5.526H157.01V6.683H157.985V10.31C157.985 11.493 158.778 12.182 160.208 12.182C160.689 12.182 161.248 12.078 161.547 11.974ZM162.34 9.27H166.162V8.022H162.34V9.27ZM174.432 9.764C174.432 8.841 173.951 8.23 172.924 7.762C173.756 7.281 174.328 6.644 174.302 5.799C174.276 4.382 172.846 3.42 170.883 3.42C168.907 3.42 167.49 4.447 167.49 5.877C167.49 6.618 167.945 7.281 168.855 7.762C167.906 8.204 167.243 8.997 167.243 9.842C167.243 11.194 168.829 12.169 170.909 12.169C172.937 12.169 174.432 11.103 174.432 9.764ZM171.117 7.216C169.648 6.904 169.089 6.501 169.089 5.916C169.089 5.188 169.817 4.707 170.896 4.707C171.949 4.707 172.703 5.201 172.703 5.929C172.703 6.501 172.274 6.969 171.65 7.346C171.481 7.294 171.299 7.255 171.117 7.216ZM170.896 10.869C169.752 10.869 168.868 10.375 168.868 9.66C168.868 9.114 169.323 8.568 170.051 8.217C170.259 8.282 170.48 8.321 170.714 8.373C172.313 8.698 172.807 9.101 172.807 9.738C172.807 10.336 172.014 10.869 170.896 10.869ZM184.666 9.257V8.191H182.144V5.721H181.039V8.191H178.504V9.257H181.039V11.844H182.144V9.257H184.666ZM190.96 3.589H189.426V12H190.96V3.589ZM195.93 3.446C194.162 3.446 192.719 4.512 192.719 5.994C192.719 7.45 193.928 8.035 195.644 8.464C197.022 8.802 197.633 9.062 197.633 9.738C197.633 10.453 196.944 10.908 195.995 10.908C194.799 10.908 194.071 10.349 193.668 9.504L192.381 10.024C192.979 11.337 194.227 12.169 195.982 12.169C197.854 12.169 199.18 11.116 199.18 9.582C199.18 8.113 197.958 7.515 196.229 7.073C194.838 6.735 194.266 6.488 194.266 5.851C194.266 5.188 195.02 4.694 195.943 4.694C196.879 4.694 197.594 5.188 197.971 5.994L199.232 5.448C198.686 4.304 197.568 3.446 195.93 3.446ZM202.335 12V9.413H203.687C205.637 9.413 206.963 8.204 206.963 6.488C206.963 4.785 205.637 3.589 203.661 3.589H200.801V12H202.335ZM202.335 4.876H203.557C204.636 4.876 205.377 5.526 205.377 6.488C205.377 7.463 204.636 8.126 203.557 8.126H202.335V4.876ZM209.914 4.876H211.305C212.293 4.876 212.956 5.435 212.956 6.267C212.956 7.164 212.28 7.749 211.305 7.749H209.914V4.876ZM209.914 12V9.036H211.279C211.461 9.036 211.643 9.023 211.825 9.01L213.359 12H215.062L213.216 8.568C214.048 8.087 214.542 7.268 214.542 6.254C214.542 4.668 213.268 3.589 211.383 3.589H208.38V12H209.914ZM219.432 5.292H219.458L220.654 8.62H218.236L219.432 5.292ZM217.014 12L217.781 9.855H221.109L221.876 12H223.462L220.303 3.589H218.678L215.519 12H217.014Z"
    fill="#C5C5C5"/>
  <path d="M52 13.3H223.605V13.95H52V13.3Z" fill="#C5C5C5"/>
  <path
    d="M20.902 8.62V7.359H17.587V4.876H21.799V3.589H16.053V12H17.587V8.62H20.902ZM28.6829 8.763C28.6829 6.787 27.3309 5.357 25.4589 5.357C23.5739 5.357 22.2089 6.787 22.2089 8.763C22.2089 10.739 23.5739 12.169 25.4589 12.169C27.3309 12.169 28.6829 10.739 28.6829 8.763ZM23.7169 8.763C23.7169 7.463 24.4449 6.514 25.4589 6.514C26.4599 6.514 27.1749 7.463 27.1749 8.763C27.1749 10.063 26.4599 10.999 25.4589 10.999C24.4449 10.999 23.7169 10.063 23.7169 8.763ZM35.7206 12V7.762C35.7206 6.358 34.7586 5.357 33.5106 5.357C32.6136 5.357 31.8596 5.864 31.4306 6.475V5.526H30.0526V12H31.4826V7.359C31.8336 6.904 32.4446 6.54 33.0816 6.54C33.7836 6.54 34.2906 7.06 34.2906 7.866V12H35.7206ZM41.3165 11.974V10.817C41.0695 10.895 40.6535 10.973 40.2635 10.973C39.4965 10.973 39.1845 10.609 39.1845 10.011V6.683H41.2905V5.526H39.1845V3.953H37.7545V5.526H36.7795V6.683H37.7545V10.31C37.7545 11.493 38.5475 12.182 39.9775 12.182C40.4585 12.182 41.0175 12.078 41.3165 11.974ZM47.7998 10.505L46.7078 10.076C46.3958 10.687 45.8238 11.051 45.1998 11.051C44.2378 11.051 43.5488 10.271 43.4578 9.075H47.8128C47.8518 8.906 47.8778 8.529 47.8778 8.217C47.8778 6.527 46.7208 5.357 45.0828 5.357C43.2888 5.357 41.9758 6.826 41.9758 8.841C41.9758 10.791 43.2888 12.182 45.0958 12.182C46.3048 12.182 47.3448 11.545 47.7998 10.505ZM45.0828 6.449C45.8888 6.449 46.4348 7.086 46.4868 8.074H43.5098C43.7048 7.073 44.3158 6.449 45.0828 6.449Z"
    fill="#3D3D3D"/>
  <circle cx="5.5" cy="8.5" r="5.5" fill="url(#paint0_linear_457_116)"/>
  <defs>
    <linearGradient id="paint0_linear_457_116" x1="-2.20228" y1="0.335853" x2="13.8613" y2="0.410072" gradientUnits="userSpaceOnUse">
      <stop stop-color="#07A76F"/>
      <stop offset="1" stop-color="#8ECA45"/>
    </linearGradient>
  </defs>
</svg>
