<svg width="724" height="298" viewBox="0 0 724 298" fill="none" xmlns="http://www.w3.org/2000/svg">
<path d="M111 208.5V40.0001L589 0.00012207V268L111 208.5Z" fill="url(#paint0_linear_160_158)"/>
<path d="M193.97 121.745C193.983 122.244 193.992 122.745 193.997 123.247L193.497 123.251C193.499 123.501 193.5 123.75 193.5 124C193.5 124.25 193.499 124.5 193.497 124.749L193.997 124.753C193.992 125.255 193.983 125.756 193.97 126.255L193.47 126.242C193.457 126.739 193.44 127.234 193.418 127.729L193.918 127.751C193.896 128.251 193.869 128.751 193.839 129.249L193.34 129.218C193.309 129.716 193.274 130.212 193.235 130.707L193.733 130.747C193.693 131.245 193.65 131.741 193.601 132.237L193.104 132.188C193.055 132.684 193.003 133.179 192.946 133.673L193.443 133.73C193.385 134.228 193.323 134.724 193.257 135.219L192.762 135.153C192.696 135.645 192.626 136.135 192.552 136.624L193.046 136.699C192.971 137.195 192.892 137.69 192.808 138.183L192.315 138.099C192.231 138.59 192.144 139.079 192.052 139.566L192.543 139.659C192.45 140.15 192.354 140.64 192.253 141.127L191.763 141.026C191.662 141.514 191.556 142.001 191.447 142.486L191.935 142.596C191.824 143.084 191.71 143.57 191.591 144.055L191.105 143.936C190.987 144.418 190.865 144.9 190.738 145.379L191.222 145.507C191.094 145.991 190.961 146.474 190.825 146.955L190.344 146.818C190.209 147.296 190.069 147.773 189.925 148.247L190.404 148.392C190.259 148.871 190.109 149.348 189.956 149.824L189.48 149.67C189.327 150.144 189.17 150.615 189.009 151.085L189.482 151.247C189.32 151.72 189.154 152.191 188.984 152.66L188.514 152.489C188.344 152.957 188.17 153.423 187.992 153.887L188.459 154.066C188.28 154.533 188.097 154.998 187.91 155.461L187.446 155.274C187.26 155.734 187.07 156.193 186.876 156.649L187.336 156.845C187.14 157.306 186.94 157.764 186.736 158.221L186.28 158.017C186.077 158.471 185.87 158.923 185.66 159.372L186.113 159.584C185.901 160.037 185.685 160.488 185.465 160.936L185.016 160.716C184.797 161.162 184.574 161.607 184.347 162.049L184.792 162.277C184.564 162.722 184.332 163.164 184.096 163.604L183.656 163.368C183.421 163.807 183.182 164.243 182.94 164.676L183.376 164.92C183.132 165.357 182.885 165.791 182.633 166.223L182.201 165.971C181.951 166.4 181.697 166.827 181.44 167.252L181.867 167.511C181.608 167.939 181.344 168.364 181.077 168.787L180.655 168.52C180.389 168.94 180.12 169.358 179.848 169.773L180.266 170.047C179.991 170.465 179.713 170.88 179.432 171.293L179.019 171.011C178.738 171.422 178.454 171.83 178.167 172.235L178.575 172.524C178.286 172.932 177.993 173.337 177.697 173.74L177.294 173.443C177 173.844 176.702 174.241 176.4 174.636L176.798 174.94C176.494 175.337 176.187 175.732 175.877 176.123L175.485 175.813C175.176 176.202 174.864 176.589 174.549 176.973L174.935 177.29C174.618 177.676 174.297 178.06 173.973 178.44L173.592 178.116C173.27 178.494 172.945 178.87 172.616 179.242L172.991 179.573C172.66 179.948 172.326 180.32 171.988 180.688L171.619 180.351C171.284 180.717 170.945 181.081 170.603 181.442L170.966 181.786C170.622 182.148 170.275 182.508 169.925 182.865L169.568 182.514C169.22 182.869 168.868 183.22 168.514 183.568L168.864 183.925C168.508 184.275 168.148 184.622 167.785 184.966L167.441 184.603C167.081 184.945 166.717 185.284 166.351 185.619L166.688 185.988C166.319 186.326 165.948 186.66 165.573 186.991L165.242 186.616C164.87 186.945 164.494 187.27 164.116 187.593L164.44 187.973C164.06 188.297 163.676 188.618 163.29 188.936L162.972 188.549C162.589 188.864 162.202 189.176 161.813 189.485L162.123 189.877C161.731 190.187 161.337 190.494 160.939 190.798L160.636 190.4C160.241 190.702 159.844 191 159.443 191.295L159.74 191.697C159.337 191.993 158.932 192.286 158.524 192.575L158.235 192.167C157.83 192.455 157.422 192.738 157.011 193.019L157.293 193.432C156.88 193.713 156.465 193.991 156.047 194.266L155.773 193.848C155.358 194.12 154.94 194.389 154.52 194.655L154.787 195.078C154.364 195.344 153.939 195.608 153.511 195.867L153.251 195.44C152.827 195.697 152.4 195.951 151.971 196.201L152.223 196.633C151.791 196.885 151.357 197.132 150.92 197.376L150.676 196.94C150.243 197.182 149.807 197.421 149.368 197.656L149.604 198.096C149.164 198.332 148.722 198.564 148.277 198.792L148.049 198.347C147.607 198.574 147.162 198.797 146.716 199.016L146.936 199.465C146.487 199.685 146.037 199.901 145.584 200.113L145.372 199.66C144.922 199.87 144.471 200.077 144.017 200.28L144.221 200.736C143.764 200.94 143.306 201.14 142.845 201.336L142.649 200.876C142.193 201.07 141.734 201.26 141.274 201.446L141.461 201.91C140.998 202.097 140.533 202.28 140.066 202.459L139.887 201.993C139.423 202.17 138.957 202.344 138.489 202.514L138.66 202.984C138.191 203.154 137.72 203.32 137.247 203.482L137.085 203.009C136.615 203.17 136.144 203.327 135.67 203.48L135.824 203.956C135.348 204.109 134.871 204.259 134.392 204.404L134.247 203.925C133.773 204.069 133.296 204.209 132.818 204.344L132.955 204.825C132.474 204.962 131.991 205.094 131.507 205.222L131.379 204.738C130.9 204.865 130.418 204.987 129.936 205.106L130.054 205.591C129.57 205.71 129.084 205.824 128.596 205.935L128.486 205.447C128.001 205.557 127.514 205.662 127.026 205.763L127.127 206.253C126.639 206.354 126.15 206.451 125.659 206.543L125.566 206.052C125.079 206.144 124.59 206.231 124.099 206.315L124.183 206.808C123.69 206.892 123.195 206.971 122.699 207.046L122.624 206.552C122.135 206.626 121.645 206.696 121.153 206.762L121.219 207.257C120.724 207.324 120.228 207.385 119.73 207.443L119.673 206.946C119.179 207.003 118.684 207.055 118.188 207.104L118.237 207.601C117.741 207.65 117.244 207.694 116.746 207.733L116.707 207.235C116.212 207.274 115.716 207.309 115.218 207.34L115.249 207.839C114.751 207.87 114.251 207.896 113.751 207.918L113.729 207.418C113.234 207.44 112.739 207.458 112.242 207.471L112.255 207.97C111.756 207.984 111.255 207.992 110.753 207.997L110.749 207.497C110.5 207.499 110.25 207.5 110 207.5C109.75 207.5 109.5 207.499 109.251 207.497L109.247 207.997C108.745 207.992 108.244 207.984 107.745 207.97L107.758 207.471C107.261 207.458 106.766 207.44 106.271 207.418L106.249 207.918C105.749 207.896 105.249 207.87 104.751 207.839L104.782 207.34C104.284 207.309 103.788 207.274 103.293 207.235L103.254 207.733C102.756 207.694 102.259 207.65 101.763 207.601L101.812 207.104C101.316 207.055 100.821 207.003 100.327 206.946L100.27 207.443C99.7725 207.385 99.2762 207.324 98.7813 207.257L98.8474 206.762C98.3555 206.696 97.8649 206.626 97.3757 206.552L97.3007 207.046C96.8046 206.971 96.31 206.892 95.8168 206.808L95.9007 206.315C95.4102 206.231 94.9212 206.144 94.4336 206.052L94.341 206.543C93.85 206.451 93.3606 206.354 92.8727 206.253L92.9741 205.763C92.486 205.662 91.9995 205.557 91.5145 205.447L91.4043 205.935C90.9164 205.824 90.4302 205.71 89.9456 205.591L90.0645 205.106C89.5817 204.987 89.1005 204.865 88.6211 204.738L88.4934 205.222C88.009 205.094 87.5263 204.962 87.0453 204.825L87.1817 204.344C86.7036 204.209 86.2273 204.069 85.7528 203.925L85.6078 204.404C85.1289 204.259 84.6517 204.109 84.1764 203.956L84.3299 203.48C83.8564 203.327 83.3847 203.17 82.9148 203.009L82.7527 203.482C82.2801 203.32 81.8093 203.154 81.3405 202.984L81.5111 202.514C81.0432 202.344 80.5772 202.17 80.1132 201.993L79.9342 202.459C79.4671 202.28 79.002 202.097 78.5389 201.91L78.7263 201.446C78.2658 201.26 77.8073 201.07 77.3509 200.876L77.1553 201.336C76.6944 201.14 76.2357 200.94 75.7792 200.736L75.9831 200.28C75.5292 200.077 75.0775 199.87 74.628 199.66L74.416 200.113C73.9631 199.901 73.5125 199.685 73.0642 199.465L73.2843 199.016C72.8377 198.797 72.3933 198.574 71.9512 198.347L71.723 198.792C71.2782 198.564 70.8358 198.332 70.3956 198.096L70.6317 197.656C70.1934 197.421 69.7574 197.182 69.3238 196.94L69.0798 197.376C68.6432 197.132 68.209 196.885 67.7772 196.633L68.0289 196.201C67.5997 195.951 67.1729 195.697 66.7486 195.44L66.4892 195.867C66.0615 195.608 65.6362 195.344 65.2134 195.078L65.4804 194.655C65.0601 194.389 64.6424 194.12 64.2272 193.848L63.9528 194.266C63.535 193.991 63.1197 193.713 62.7071 193.432L62.989 193.019C62.5783 192.738 62.1702 192.455 61.7648 192.167L61.4757 192.575C61.0679 192.286 60.6627 191.993 60.2604 191.697L60.5567 191.295C60.1564 191 59.7589 190.702 59.3641 190.4L59.0606 190.798C58.6632 190.494 58.2686 190.187 57.8769 189.877L58.1874 189.485C57.7979 189.176 57.4113 188.864 57.0275 188.549L56.7101 188.935C56.3238 188.618 55.9403 188.297 55.5598 187.973L55.884 187.592C55.5057 187.27 55.1303 186.945 54.7579 186.616L54.4269 186.991C54.0522 186.66 53.6805 186.326 53.3118 185.988L53.6494 185.619C53.2827 185.284 52.9191 184.945 52.5585 184.603L52.2145 184.966C51.8517 184.622 51.4921 184.275 51.1355 183.925L51.4859 183.568C51.1315 183.22 50.7801 182.869 50.4319 182.514L50.0752 182.865C49.7249 182.508 49.3778 182.148 49.0339 181.786L49.3967 181.442C49.0548 181.081 48.7161 180.717 48.3806 180.351L48.0117 180.688C47.6744 180.32 47.3403 179.948 47.0094 179.573L47.3843 179.242C47.0554 178.87 46.7299 178.494 46.4076 178.116L46.027 178.44C45.7028 178.06 45.382 177.676 45.0646 177.29L45.4509 176.973C45.1356 176.589 44.8237 176.202 44.5152 175.813L44.1233 176.123C43.8129 175.731 43.5059 175.337 43.2024 174.94L43.5998 174.636C43.2982 174.241 43.0001 173.844 42.7055 173.443L42.3028 173.74C42.0067 173.337 41.7141 172.932 41.425 172.524L41.8329 172.235C41.5455 171.83 41.2616 171.422 40.9814 171.011L40.5684 171.293C40.2868 170.88 40.0088 170.465 39.7344 170.047L40.1524 169.773C39.8797 169.358 39.6107 168.94 39.3454 168.52L38.9226 168.787C38.6557 168.364 38.3924 167.939 38.1328 167.511L38.5603 167.252C38.3029 166.827 38.0491 166.4 37.7991 165.971L37.367 166.223C37.1155 165.791 36.8677 165.357 36.6237 164.92L37.0601 164.676C36.8178 164.243 36.5792 163.807 36.3444 163.368L35.9037 163.604C35.6679 163.164 35.436 162.722 35.2079 162.277L35.6528 162.049C35.4261 161.607 35.2032 161.162 34.9842 160.716L34.5353 160.936C34.3154 160.488 34.0994 160.037 33.8874 159.584L34.3402 159.372C34.1297 158.923 33.923 158.471 33.7203 158.017L33.2638 158.221C33.0599 157.764 32.8599 157.306 32.664 156.845L33.1241 156.649C32.93 156.193 32.7399 155.734 32.5538 155.274L32.0902 155.461C31.903 154.998 31.7199 154.533 31.5407 154.066L32.0076 153.887C31.8297 153.423 31.6558 152.957 31.486 152.489L31.016 152.66C30.8458 152.191 30.6798 151.72 30.5178 151.247L30.9907 151.085C30.8297 150.615 30.6728 150.144 30.5199 149.67L30.0441 149.824C29.8907 149.348 29.7414 148.871 29.5963 148.392L30.0748 148.247C29.9311 147.773 29.7914 147.297 29.6559 146.818L29.1749 146.955C29.0385 146.474 28.9064 145.991 28.7785 145.507L29.2619 145.379C29.1353 144.9 29.0128 144.418 28.8945 143.936L28.4089 144.055C28.2902 143.57 28.1757 143.084 28.0654 142.596L28.5531 142.486C28.4435 142.001 28.3382 141.514 28.237 141.026L27.7474 141.127C27.6464 140.64 27.5495 140.15 27.457 139.659L27.9483 139.567C27.8564 139.079 27.7687 138.59 27.6853 138.1L27.1924 138.183C27.1085 137.69 27.0289 137.196 26.9537 136.699L27.4481 136.625C27.3739 136.135 27.3039 135.645 27.2383 135.153L26.7427 135.219C26.6766 134.724 26.6149 134.228 26.5575 133.73L27.0542 133.673C26.9972 133.179 26.9446 132.684 26.8963 132.188L26.3987 132.237C26.3505 131.741 26.3066 131.245 26.267 130.747L26.7654 130.707C26.7261 130.212 26.6911 129.716 26.6604 129.218L26.1613 129.249C26.1306 128.751 26.1042 128.251 26.0822 127.751L26.5818 127.729C26.56 127.234 26.5426 126.739 26.5295 126.242L26.0297 126.255C26.0165 125.756 26.0077 125.255 26.0033 124.753L26.5033 124.749C26.5011 124.5 26.5 124.25 26.5 124C26.5 123.75 26.5011 123.501 26.5033 123.251L26.0033 123.247C26.0077 122.745 26.0165 122.244 26.0297 121.745L26.5295 121.758C26.5426 121.261 26.56 120.766 26.5818 120.272L26.0822 120.25C26.1042 119.749 26.1306 119.249 26.1613 118.751L26.6604 118.782C26.6911 118.285 26.7261 117.788 26.7654 117.293L26.267 117.254C26.3066 116.756 26.3505 116.259 26.3987 115.764L26.8963 115.812C26.9446 115.316 26.9972 114.821 27.0542 114.327L26.5575 114.27C26.6149 113.773 26.6766 113.276 26.7427 112.781L27.2383 112.848C27.3039 112.356 27.3739 111.865 27.4481 111.376L26.9537 111.301C27.0289 110.805 27.1085 110.31 27.1924 109.817L27.6853 109.901C27.7687 109.41 27.8564 108.921 27.9483 108.434L27.4569 108.341C27.5495 107.85 27.6464 107.361 27.7474 106.873L28.237 106.974C28.3381 106.486 28.4435 106 28.5531 105.515L28.0654 105.404C28.1757 104.917 28.2902 104.43 28.4089 103.946L28.8945 104.065C29.0128 103.582 29.1353 103.101 29.2619 102.621L28.7785 102.494C28.9064 102.009 29.0385 101.526 29.1749 101.045L29.6559 101.182C29.7914 100.704 29.9311 100.227 30.0748 99.7529L29.5963 99.608C29.7414 99.129 29.8907 98.6518 30.0441 98.1765L30.5199 98.3301C30.6728 97.8565 30.8297 97.3848 30.9907 96.915L30.5177 96.7529C30.6797 96.2802 30.8458 95.8094 31.016 95.3406L31.486 95.5112C31.6558 95.0433 31.8297 94.5773 32.0076 94.1134L31.5407 93.9344C31.7198 93.4672 31.903 93.0021 32.0902 92.539L32.5538 92.7264C32.7399 92.2659 32.93 91.8074 33.1241 91.3511L32.664 91.1554C32.8599 90.6946 33.0599 90.2358 33.2638 89.7793L33.7203 89.9832C33.923 89.5293 34.1297 89.0777 34.3402 88.6281L33.8874 88.4161C34.0994 87.9633 34.3154 87.5127 34.5353 87.0643L34.9842 87.2844C35.2032 86.8378 35.4261 86.3934 35.6528 85.9513L35.2079 85.7231C35.436 85.2784 35.6679 84.8359 35.9037 84.3958L36.3444 84.6318C36.5792 84.1935 36.8178 83.7575 37.0601 83.3239L36.6237 83.08C36.8677 82.6433 37.1155 82.2091 37.367 81.7773L37.7991 82.029C38.0491 81.5998 38.3029 81.173 38.5603 80.7487L38.1328 80.4894C38.3924 80.0616 38.6557 79.6363 38.9226 79.2135L39.3454 79.4805C39.6107 79.0602 39.8798 78.6425 40.1524 78.2274L39.7344 77.9529C40.0088 77.5351 40.2868 77.1198 40.5684 76.7072L40.9814 76.9891C41.2617 76.5784 41.5455 76.1703 41.8329 75.7649L41.425 75.4758C41.7141 75.068 42.0067 74.6629 42.3029 74.2605L42.7056 74.5568C43.0002 74.1566 43.2983 73.759 43.5998 73.3642L43.2024 73.0607C43.5059 72.6633 43.8129 72.2687 44.1233 71.877L44.5152 72.1875C44.8237 71.798 45.1357 71.4114 45.451 71.0277L45.0646 70.7102C45.3821 70.3239 45.7029 69.9405 46.027 69.5599L46.4076 69.8842C46.7299 69.5058 47.0555 69.1304 47.3843 68.758L47.0095 68.4271C47.3403 68.0524 47.6744 67.6807 48.0118 67.312L48.3807 67.6495C48.7161 67.2828 49.0549 66.9192 49.3967 66.5586L49.0339 66.2146C49.3778 65.8519 49.725 65.4922 50.0753 65.1356L50.4319 65.486C50.7802 65.1316 51.1315 64.7802 51.486 64.432L51.1356 64.0753C51.4921 63.725 51.8518 63.3779 52.2145 63.034L52.5585 63.3968C52.9191 63.0549 53.2828 62.7162 53.6494 62.3807L53.3119 62.0119C53.6806 61.6745 54.0523 61.3404 54.427 61.0096L54.7579 61.3844C55.1304 61.0555 55.5058 60.73 55.8841 60.4077L55.5598 60.0271C55.9404 59.703 56.3238 59.3822 56.7102 59.0647L57.0276 59.4511C57.4113 59.1358 57.7979 58.8238 58.1874 58.5153L57.8769 58.1234C58.2686 57.813 58.6632 57.506 59.0606 57.2025L59.3641 57.5999C59.7589 57.2984 60.1565 57.0003 60.5568 56.7057L60.2604 56.303C60.6628 56.0068 61.0679 55.7142 61.4757 55.4251L61.7648 55.833C62.1702 55.5456 62.5783 55.2618 62.989 54.9815L62.7071 54.5685C63.1197 54.2869 63.535 54.0089 63.9528 53.7345L64.2272 54.1525C64.6424 53.8799 65.0601 53.6109 65.4804 53.3455L65.2134 52.9227C65.6362 52.6558 66.0615 52.3925 66.4893 52.133L66.7486 52.5604C67.1729 52.303 67.5997 52.0492 68.0289 51.7992L67.7772 51.3672C68.209 51.1156 68.6432 50.8678 69.0798 50.6238L69.3238 51.0603C69.7574 50.8179 70.1934 50.5793 70.6317 50.3446L70.3956 49.9038C70.8358 49.6681 71.2782 49.4361 71.723 49.2081L71.9511 49.653C72.3933 49.4263 72.8377 49.2034 73.2843 48.9843L73.0642 48.5354C73.5125 48.3155 73.9631 48.0996 74.416 47.8875L74.628 48.3403C75.0775 48.1298 75.5292 47.9232 75.983 47.7205L75.7791 47.2639C76.2357 47.06 76.6944 46.8601 77.1553 46.6641L77.3509 47.1242C77.8073 46.9301 78.2658 46.74 78.7263 46.5539L78.5389 46.0903C79.002 45.9031 79.4671 45.72 79.9342 45.5409L80.1132 46.0077C80.5772 45.8298 81.0431 45.6559 81.5111 45.4861L81.3405 45.0161C81.8093 44.846 82.28 44.6799 82.7527 44.5179L82.9148 44.9909C83.3846 44.8298 83.8564 44.6729 84.3299 44.5201L84.1763 44.0442C84.6517 43.8908 85.1288 43.7416 85.6078 43.5964L85.7528 44.075C86.2273 43.9312 86.7036 43.7915 87.1817 43.656L87.0453 43.175C87.5262 43.0387 88.0089 42.9065 88.4934 42.7786L88.621 43.262C89.1005 43.1354 89.5817 43.0129 90.0645 42.8947L89.9455 42.409C90.4301 42.2903 90.9164 42.1758 91.4043 42.0655L91.5145 42.5532C91.9994 42.4437 92.486 42.3383 92.9741 42.2372L92.8727 41.7476C93.3605 41.6465 93.85 41.5496 94.3409 41.4571L94.4336 41.9484C94.9211 41.8565 95.4101 41.7688 95.9006 41.6854L95.8168 41.1925C96.31 41.1086 96.8046 41.0291 97.3007 40.9538L97.3756 41.4482C97.8648 41.374 98.3554 41.304 98.8474 41.2384L98.7812 40.7428C99.2762 40.6767 99.7724 40.615 100.27 40.5576L100.327 41.0543C100.821 40.9974 101.316 40.9447 101.812 40.8965L101.763 40.3988C102.259 40.3506 102.756 40.3067 103.254 40.2671L103.293 40.7655C103.788 40.7262 104.284 40.6912 104.782 40.6605L104.751 40.1615C105.249 40.1307 105.749 40.1044 106.249 40.0824L106.271 40.5819C106.766 40.5602 107.261 40.5427 107.758 40.5296L107.745 40.0298C108.244 40.0166 108.745 40.0078 109.247 40.0034L109.251 40.5034C109.5 40.5012 109.75 40.5001 110 40.5001C110.25 40.5001 110.5 40.5012 110.749 40.5034L110.753 40.0034C111.255 40.0078 111.756 40.0166 112.255 40.0298L112.242 40.5296C112.739 40.5427 113.234 40.5601 113.729 40.5819L113.751 40.0824C114.251 40.1044 114.751 40.1307 115.249 40.1615L115.218 40.6605C115.716 40.6912 116.212 40.7262 116.707 40.7655L116.746 40.2671C117.244 40.3067 117.741 40.3506 118.237 40.3988L118.188 40.8965C118.684 40.9447 119.179 40.9974 119.673 41.0543L119.73 40.5576C120.228 40.615 120.724 40.6767 121.219 40.7428L121.153 41.2384C121.645 41.304 122.135 41.374 122.624 41.4482L122.699 40.9538C123.195 41.0291 123.69 41.1086 124.183 41.1925L124.099 41.6854C124.59 41.7688 125.079 41.8565 125.566 41.9484L125.659 41.4571C126.15 41.5496 126.639 41.6465 127.127 41.7475L127.026 42.2372C127.514 42.3383 128.001 42.4436 128.485 42.5532L128.596 42.0655C129.084 42.1758 129.57 42.2903 130.054 42.409L129.935 42.8946C130.418 43.0129 130.899 43.1354 131.379 43.262L131.507 42.7786C131.991 42.9065 132.474 43.0387 132.955 43.175L132.818 43.656C133.296 43.7915 133.773 43.9312 134.247 44.0749L134.392 43.5964C134.871 43.7415 135.348 43.8908 135.824 44.0442L135.67 44.5201C136.144 44.6729 136.615 44.8298 137.085 44.9909L137.247 44.5179C137.72 44.6799 138.191 44.846 138.659 45.0161L138.489 45.4861C138.957 45.6559 139.423 45.8298 139.887 46.0077L140.066 45.5409C140.533 45.72 140.998 45.9031 141.461 46.0903L141.274 46.5539C141.734 46.74 142.193 46.9301 142.649 47.1242L142.845 46.6641C143.306 46.86 143.764 47.06 144.221 47.2639L144.017 47.7205C144.471 47.9232 144.922 48.1298 145.372 48.3403L145.584 47.8875C146.037 48.0996 146.487 48.3155 146.936 48.5354L146.716 48.9843C147.162 49.2034 147.607 49.4262 148.049 49.653L148.277 49.2081C148.722 49.4361 149.164 49.6681 149.604 49.9038L149.368 50.3446C149.807 50.5793 150.243 50.8179 150.676 51.0603L150.92 50.6238C151.357 50.8678 151.791 51.1156 152.223 51.3672L151.971 51.7992C152.4 52.0492 152.827 52.303 153.251 52.5604L153.511 52.133C153.939 52.3925 154.364 52.6558 154.787 52.9227L154.52 53.3455C154.94 53.6109 155.358 53.8799 155.773 54.1525L156.047 53.7345C156.465 54.0089 156.88 54.2869 157.293 54.5685L157.011 54.9815C157.422 55.2618 157.83 55.5456 158.235 55.833L158.524 55.4251C158.932 55.7142 159.337 56.0068 159.74 56.303L159.443 56.7057C159.844 57.0003 160.241 57.2984 160.636 57.5999L160.939 57.2025C161.337 57.506 161.731 57.813 162.123 58.1234L161.813 58.5153C162.202 58.8238 162.589 59.1358 162.972 59.4511L163.29 59.0648C163.676 59.3822 164.06 59.703 164.44 60.0271L164.116 60.4078C164.494 60.73 164.87 61.0556 165.242 61.3844L165.573 61.0096C165.948 61.3404 166.319 61.6745 166.688 62.0119L166.351 62.3808C166.717 62.7163 167.081 63.055 167.442 63.3969L167.786 63.034C168.148 63.378 168.508 63.7251 168.865 64.0754L168.514 64.4321C168.869 64.7803 169.22 65.1316 169.568 65.4861L169.925 65.1357C170.275 65.4922 170.622 65.8519 170.966 66.2146L170.603 66.5587C170.945 66.9192 171.284 67.2829 171.619 67.6495L171.988 67.312C172.326 67.6807 172.66 68.0524 172.991 68.4271L172.616 68.758C172.945 69.1305 173.27 69.5059 173.592 69.8842L173.973 69.56C174.297 69.9405 174.618 70.3239 174.935 70.7103L174.549 71.0277C174.864 71.4115 175.176 71.7981 175.485 72.1875L175.877 71.877C176.187 72.2688 176.494 72.6633 176.798 73.0607L176.4 73.3642C176.702 73.759 177 74.1566 177.294 74.5569L177.697 74.2605C177.993 74.6629 178.286 75.068 178.575 75.4758L178.167 75.765C178.454 76.1703 178.738 76.5784 179.019 76.9891L179.432 76.7072C179.713 77.1198 179.991 77.5351 180.266 77.9529L179.848 78.2274C180.12 78.6425 180.389 79.0603 180.655 79.4805L181.077 79.2136C181.344 79.6363 181.608 80.0616 181.867 80.4894L181.44 80.7487C181.697 81.173 181.951 81.5998 182.201 82.029L182.633 81.7773C182.885 82.2091 183.132 82.6433 183.376 83.08L182.94 83.3239C183.182 83.7575 183.421 84.1935 183.656 84.6318L184.096 84.3958C184.332 84.8359 184.564 85.2784 184.792 85.7231L184.347 85.9513C184.574 86.3934 184.797 86.8378 185.016 87.2844L185.465 87.0643C185.685 87.5126 185.901 87.9633 186.113 88.4161L185.66 88.6281C185.87 89.0776 186.077 89.5293 186.28 89.9832L186.736 89.7793C186.94 90.2358 187.14 90.6945 187.336 91.1554L186.876 91.351C187.07 91.8074 187.26 92.2659 187.446 92.7264L187.91 92.539C188.097 93.0021 188.28 93.4672 188.459 93.9343L187.992 94.1133C188.17 94.5773 188.344 95.0433 188.514 95.5112L188.984 95.3406C189.154 95.8094 189.32 96.2802 189.482 96.7528L189.009 96.9149C189.17 97.3848 189.327 97.8565 189.48 98.33L189.956 98.1765C190.109 98.6518 190.259 99.129 190.404 99.6079L189.925 99.7529C190.069 100.227 190.209 100.704 190.344 101.182L190.825 101.045C190.961 101.526 191.094 102.009 191.222 102.493L190.738 102.621C190.865 103.101 190.987 103.582 191.105 104.065L191.591 103.946C191.71 104.43 191.824 104.917 191.935 105.404L191.447 105.515C191.556 106 191.662 106.486 191.763 106.974L192.253 106.873C192.354 107.361 192.45 107.85 192.543 108.341L192.052 108.434C192.144 108.921 192.231 109.41 192.315 109.901L192.808 109.817C192.891 110.31 192.971 110.805 193.046 111.301L192.552 111.376C192.626 111.865 192.696 112.356 192.762 112.848L193.257 112.781C193.323 113.276 193.385 113.773 193.443 114.27L192.946 114.327C193.003 114.821 193.055 115.316 193.104 115.812L193.601 115.763C193.65 116.259 193.693 116.756 193.733 117.254L193.235 117.293C193.274 117.788 193.309 118.284 193.34 118.782L193.839 118.751C193.869 119.249 193.896 119.749 193.918 120.25L193.418 120.271C193.44 120.766 193.457 121.261 193.47 121.758L193.97 121.745Z" fill="#F9F9F9" stroke="url(#paint1_linear_160_158)" stroke-dasharray="1.5 1.5"/>
<path d="M723.5 134C723.5 207.73 663.73 267.5 590 267.5C516.27 267.5 456.5 207.73 456.5 134C456.5 60.2701 516.27 0.500122 590 0.500122C663.73 0.500122 723.5 60.2701 723.5 134Z" fill="url(#paint2_linear_160_158)" stroke="#F9F9F9"/>
<path d="M360.833 113.512V112.424H357.665V109.336H356.513V112.424H353.345V113.512H356.513V116.776H357.665V113.512H360.833ZM362.827 115.832V117H370.539V115.656H364.923L367.547 113.336C368.523 112.456 370.059 111.096 370.059 109.336C370.059 107.64 368.571 106.44 366.651 106.44C364.715 106.44 363.435 107.672 362.827 109.144L363.963 109.672C364.395 108.648 365.307 107.736 366.571 107.736C367.611 107.736 368.507 108.376 368.507 109.48C368.507 110.552 367.627 111.384 366.395 112.536L362.827 115.832ZM380.262 113.608C380.262 111.624 378.582 110.136 376.47 110.136C375.382 110.136 374.518 110.536 373.974 110.936L374.182 108.056H379.798V106.648H372.998L372.598 112.44L373.59 112.648C374.102 111.912 375.126 111.416 376.198 111.416C377.67 111.416 378.71 112.376 378.71 113.704C378.71 115.048 377.654 115.912 376.102 115.912C374.774 115.912 373.814 115.272 373.222 114.136L372.07 114.728C372.854 116.264 374.31 117.208 376.15 117.208C378.518 117.208 380.262 115.64 380.262 113.608ZM392.488 117.128L392.552 116.088C392.456 116.104 392.296 116.12 392.2 116.12C391.72 116.12 391.48 115.784 391.48 115.352V111.704C391.48 109.864 390.36 108.856 388.632 108.856C387.256 108.856 386.056 109.624 385.48 110.872L386.536 111.304C386.936 110.552 387.56 109.992 388.504 109.992C389.48 109.992 390.12 110.664 390.12 111.656V112.28L388.264 112.504C386.504 112.728 385.256 113.576 385.256 115.048C385.256 116.312 386.264 117.208 387.672 117.208C388.792 117.208 389.672 116.664 390.184 115.816C390.376 116.728 390.968 117.208 391.864 117.208C392.104 117.208 392.296 117.176 392.488 117.128ZM388.04 116.104C387.24 116.104 386.68 115.624 386.68 114.952C386.68 114.136 387.448 113.656 388.504 113.528L390.12 113.336V114.792C389.704 115.56 388.92 116.104 388.04 116.104ZM400.677 117V111.752C400.677 110.056 399.493 108.856 397.941 108.856C396.805 108.856 395.845 109.528 395.317 110.28V109.064H394.005V117H395.365V111.24C395.861 110.536 396.725 110.008 397.621 110.008C398.613 110.008 399.317 110.744 399.317 111.848V117H400.677ZM409.724 117V111.752C409.724 110.056 408.54 108.856 406.988 108.856C405.852 108.856 404.892 109.528 404.364 110.28V109.064H403.052V117H404.412V111.24C404.908 110.536 405.772 110.008 406.668 110.008C407.66 110.008 408.364 110.744 408.364 111.848V117H409.724ZM413.459 109.064H412.099V117H413.459V109.064ZM413.459 105.912H412.099V107.496H413.459V105.912Z" fill="#F9F9F9"/>
<path d="M59.8984 123.25C67.3724 104.839 72.2422 93.5756 74.5078 89.4611C75.9922 86.6225 78.3099 85.2163 81.4609 85.2423C83.6484 85.2423 85.7318 85.4246 87.7109 85.7892C89.6901 86.1277 90.9141 86.5574 91.3828 87.0782C91.0182 87.9376 90.0938 89.0835 88.6094 90.5157C78.1146 100.438 69.3125 111.128 62.2031 122.586H79.9766V108.68C84.8203 107.039 88.362 106.102 90.6016 105.867L92.2031 106.102V122.586H97.7891V124.617H92.2031V125.477C92.2031 129.201 92.2682 131.583 92.3984 132.625C92.5286 133.667 92.8151 134.409 93.2578 134.852L97.3984 135.555C97.5026 135.867 97.5547 136.349 97.5547 137H72.75L72.9062 135.555L78.9219 134.774C79.3385 134.513 79.612 133.862 79.7422 132.82C79.8984 131.779 79.9766 129.357 79.9766 125.555V124.617H60.3672L59.8984 123.25ZM102.359 131.649C102.359 129.513 103.023 127.807 104.352 126.531C105.68 125.255 107.359 124.617 109.391 124.617C111.474 124.617 113.206 125.281 114.586 126.609C115.966 127.938 116.656 129.617 116.656 131.649C116.656 133.576 115.94 135.177 114.508 136.453C113.076 137.729 111.37 138.367 109.391 138.367C107.411 138.367 105.745 137.729 104.391 136.453C103.036 135.177 102.359 133.576 102.359 131.649ZM121.305 136.024C127.503 129.878 132.451 123.55 136.148 117.039C139.872 110.503 141.734 104.201 141.734 98.1329C141.734 94.8256 141.357 92.1434 140.602 90.0861C139.846 88.0288 138.831 87.0001 137.555 87.0001C137.346 87.0001 137.112 87.0131 136.852 87.0392C136.617 87.0652 136.422 87.0782 136.266 87.0782L136.031 87.1564C135.51 87.9116 134.586 90.6199 133.258 95.2814C131.956 99.9428 130.914 102.495 130.133 102.938C127.789 102.781 125.797 102.143 124.156 101.024C122.542 99.8777 121.734 98.4064 121.734 96.6095C121.734 93.771 123.466 91.1668 126.93 88.797C130.393 86.4272 134.234 85.2423 138.453 85.2423C143.141 85.2423 147.034 86.4142 150.133 88.7579C153.258 91.1017 154.82 94.409 154.82 98.6798C154.82 102.742 153.505 106.362 150.875 109.539C148.245 112.69 143.089 117.287 135.406 123.328L130.758 127.156C133.857 126.245 136.279 125.789 138.023 125.789C139.039 125.789 140.992 125.906 143.883 126.141C146.799 126.349 148.818 126.453 149.938 126.453C151.474 126.453 152.711 125.958 153.648 124.969C154.612 123.953 155.628 122.117 156.695 119.461L158.023 119.813C155.315 131.818 152.516 137.807 149.625 137.781C147.984 137.781 144.69 137.508 139.742 136.961C134.82 136.388 131.747 136.102 130.523 136.102C129.508 136.102 128.284 136.206 126.852 136.414C125.445 136.596 124.26 136.792 123.297 137L121.969 137.313L121.305 136.024Z" fill="url(#paint3_linear_160_158)"/>
<path d="M96.0604 165V159.784C96.0604 158.04 94.8924 156.824 93.4044 156.824C92.3804 156.824 91.4684 157.416 90.8924 158.28C90.4604 157.384 89.6284 156.824 88.6684 156.824C87.6604 156.824 86.7964 157.448 86.3004 158.216V157.032H84.6044V165H86.3644V159.288C86.7644 158.728 87.4364 158.28 88.1244 158.28C88.8924 158.28 89.4524 158.936 89.4524 159.928V165H91.2124V159.784C91.2124 159.576 91.1964 159.368 91.1644 159.176C91.5804 158.664 92.2364 158.28 92.9084 158.28C93.7084 158.28 94.3004 158.936 94.3004 159.928V165H96.0604ZM99.9581 157.032H98.1981V165H99.9581V157.032ZM99.9581 153.928H98.1981V155.672H99.9581V153.928ZM103.974 153.784H102.214V165H103.974V153.784ZM107.989 157.032H106.229V165H107.989V157.032ZM107.989 153.928H106.229V155.672H107.989V153.928ZM117.109 165.112L117.189 163.832C117.093 163.848 116.917 163.864 116.821 163.864C116.389 163.864 116.165 163.56 116.165 163.128V159.752C116.165 157.848 115.013 156.824 113.157 156.824C111.653 156.824 110.437 157.624 109.877 158.904L111.189 159.464C111.557 158.76 112.133 158.232 112.997 158.232C113.861 158.232 114.421 158.808 114.421 159.704V160.216L112.645 160.456C110.853 160.712 109.637 161.592 109.637 163.048C109.637 164.312 110.645 165.224 112.053 165.224C113.157 165.224 114.037 164.68 114.533 163.864C114.805 164.792 115.461 165.224 116.389 165.224C116.661 165.224 116.885 165.176 117.109 165.112ZM112.629 163.864C111.941 163.864 111.445 163.448 111.445 162.856C111.445 162.136 112.101 161.704 113.013 161.592L114.421 161.4V162.824C114.037 163.432 113.381 163.864 112.629 163.864ZM120.286 165V160.52C120.43 159.432 121.038 158.52 122.254 158.52C122.51 158.52 122.878 158.568 123.102 158.632L123.118 156.952C122.942 156.872 122.574 156.824 122.302 156.824C121.374 156.824 120.526 157.688 120.222 158.728V157.032H118.526V165H120.286ZM127.714 163.784C126.53 163.784 125.682 162.648 125.682 161.048C125.682 159.432 126.578 158.264 127.81 158.264C128.53 158.264 129.218 158.584 129.602 159.064V162.824C129.17 163.4 128.45 163.784 127.714 163.784ZM131.362 165V153.784H129.602V157.864C129.074 157.24 128.194 156.824 127.346 156.824C125.298 156.824 123.826 158.6 123.826 161.08C123.826 163.48 125.25 165.224 127.234 165.224C128.114 165.224 129.122 164.664 129.698 163.896V165H131.362ZM135.38 157.032H133.62V165H135.38V157.032ZM135.38 153.928H133.62V155.672H135.38V153.928Z" fill="url(#paint4_linear_160_158)"/>
<path d="M566.848 190V181.524C566.848 178.69 564.95 176.714 562.532 176.714C560.868 176.714 559.386 177.676 558.45 179.08C557.748 177.624 556.396 176.714 554.836 176.714C553.198 176.714 551.794 177.728 550.988 178.976V177.052H548.232V190H551.092V180.718C551.742 179.808 552.834 179.08 553.952 179.08C555.2 179.08 556.11 180.146 556.11 181.758V190H558.97V181.524C558.97 181.186 558.944 180.848 558.892 180.536C559.568 179.704 560.634 179.08 561.726 179.08C563.026 179.08 563.988 180.146 563.988 181.758V190H566.848ZM573.182 177.052H570.322V190H573.182V177.052ZM573.182 172.008H570.322V174.842H573.182V172.008ZM579.707 171.774H576.847V190H579.707V171.774ZM586.233 177.052H583.373V190H586.233V177.052ZM586.233 172.008H583.373V174.842H586.233V172.008ZM601.052 190.182L601.182 188.102C601.026 188.128 600.74 188.154 600.584 188.154C599.882 188.154 599.518 187.66 599.518 186.958V181.472C599.518 178.378 597.646 176.714 594.63 176.714C592.186 176.714 590.21 178.014 589.3 180.094L591.432 181.004C592.03 179.86 592.966 179.002 594.37 179.002C595.774 179.002 596.684 179.938 596.684 181.394V182.226L593.798 182.616C590.886 183.032 588.91 184.462 588.91 186.828C588.91 188.882 590.548 190.364 592.836 190.364C594.63 190.364 596.06 189.48 596.866 188.154C597.308 189.662 598.374 190.364 599.882 190.364C600.324 190.364 600.688 190.286 601.052 190.182ZM593.772 188.154C592.654 188.154 591.848 187.478 591.848 186.516C591.848 185.346 592.914 184.644 594.396 184.462L596.684 184.15V186.464C596.06 187.452 594.994 188.154 593.772 188.154ZM606.215 190V182.72C606.449 180.952 607.437 179.47 609.413 179.47C609.829 179.47 610.427 179.548 610.791 179.652L610.817 176.922C610.531 176.792 609.933 176.714 609.491 176.714C607.983 176.714 606.605 178.118 606.111 179.808V177.052H603.355V190H606.215ZM618.286 188.024C616.362 188.024 614.984 186.178 614.984 183.578C614.984 180.952 616.44 179.054 618.442 179.054C619.612 179.054 620.73 179.574 621.354 180.354V186.464C620.652 187.4 619.482 188.024 618.286 188.024ZM624.214 190V171.774H621.354V178.404C620.496 177.39 619.066 176.714 617.688 176.714C614.36 176.714 611.968 179.6 611.968 183.63C611.968 187.53 614.282 190.364 617.506 190.364C618.936 190.364 620.574 189.454 621.51 188.206V190H624.214ZM630.743 177.052H627.883V190H630.743V177.052ZM630.743 172.008H627.883V174.842H630.743V172.008Z" fill="#F9F9F9"/>
<path d="M555.268 214V211.214H556.724C558.824 211.214 560.252 209.912 560.252 208.064C560.252 206.23 558.824 204.942 556.696 204.942H553.616V214H555.268ZM555.268 206.328H556.584C557.746 206.328 558.544 207.028 558.544 208.064C558.544 209.114 557.746 209.828 556.584 209.828H555.268V206.328ZM567.421 212.39L566.245 211.928C565.909 212.586 565.293 212.978 564.621 212.978C563.585 212.978 562.843 212.138 562.745 210.85H567.435C567.477 210.668 567.505 210.262 567.505 209.926C567.505 208.106 566.259 206.846 564.495 206.846C562.563 206.846 561.149 208.428 561.149 210.598C561.149 212.698 562.563 214.196 564.509 214.196C565.811 214.196 566.931 213.51 567.421 212.39ZM564.495 208.022C565.363 208.022 565.951 208.708 566.007 209.772H562.801C563.011 208.694 563.669 208.022 564.495 208.022ZM570.561 214V210.08C570.687 209.128 571.219 208.33 572.283 208.33C572.507 208.33 572.829 208.372 573.025 208.428L573.039 206.958C572.885 206.888 572.563 206.846 572.325 206.846C571.513 206.846 570.771 207.602 570.505 208.512V207.028H569.021V214H570.561ZM579.761 212.04C579.761 210.738 578.655 210.178 577.059 209.814C575.953 209.562 575.323 209.394 575.323 208.848C575.323 208.344 575.883 208.008 576.709 208.008C577.619 208.008 578.235 208.386 578.571 209.002L579.719 208.526C579.271 207.658 578.375 206.846 576.723 206.846C575.029 206.846 573.867 207.728 573.867 208.974C573.867 210.206 575.043 210.78 576.485 211.102C577.605 211.34 578.305 211.55 578.305 212.138C578.305 212.684 577.787 213.034 576.905 213.034C575.841 213.034 575.099 212.558 574.735 211.928L573.559 212.404C574.035 213.468 575.211 214.196 576.849 214.196C578.655 214.196 579.761 213.328 579.761 212.04ZM587.698 210.514C587.698 208.386 586.242 206.846 584.226 206.846C582.196 206.846 580.726 208.386 580.726 210.514C580.726 212.642 582.196 214.182 584.226 214.182C586.242 214.182 587.698 212.642 587.698 210.514ZM582.35 210.514C582.35 209.114 583.134 208.092 584.226 208.092C585.304 208.092 586.074 209.114 586.074 210.514C586.074 211.914 585.304 212.922 584.226 212.922C583.134 212.922 582.35 211.914 582.35 210.514ZM595.277 214V209.436C595.277 207.924 594.241 206.846 592.897 206.846C591.931 206.846 591.119 207.392 590.657 208.05V207.028H589.173V214H590.713V209.002C591.091 208.512 591.749 208.12 592.435 208.12C593.191 208.12 593.737 208.68 593.737 209.548V214H595.277ZM602.954 212.39L601.778 211.928C601.442 212.586 600.826 212.978 600.154 212.978C599.118 212.978 598.376 212.138 598.278 210.85H602.968C603.01 210.668 603.038 210.262 603.038 209.926C603.038 208.106 601.792 206.846 600.028 206.846C598.096 206.846 596.682 208.428 596.682 210.598C596.682 212.698 598.096 214.196 600.042 214.196C601.344 214.196 602.464 213.51 602.954 212.39ZM600.028 208.022C600.896 208.022 601.484 208.708 601.54 209.772H598.334C598.544 208.694 599.202 208.022 600.028 208.022ZM613.707 214V209.436C613.707 207.924 612.671 206.846 611.327 206.846C610.361 206.846 609.549 207.392 609.087 208.05V207.028H607.603V214H609.143V209.002C609.521 208.512 610.179 208.12 610.865 208.12C611.621 208.12 612.167 208.68 612.167 209.548V214H613.707ZM621.383 212.39L620.207 211.928C619.871 212.586 619.255 212.978 618.583 212.978C617.547 212.978 616.805 212.138 616.707 210.85H621.397C621.439 210.668 621.467 210.262 621.467 209.926C621.467 208.106 620.221 206.846 618.457 206.846C616.525 206.846 615.111 208.428 615.111 210.598C615.111 212.698 616.525 214.196 618.471 214.196C619.773 214.196 620.893 213.51 621.383 212.39ZM618.457 208.022C619.325 208.022 619.913 208.708 619.969 209.772H616.763C616.973 208.694 617.631 208.022 618.457 208.022ZM624.524 207.028H622.984V214H624.524V207.028ZM624.524 204.312H622.984V205.838H624.524V204.312ZM555.913 226.222L554.597 225.732C554.303 226.432 553.799 226.894 553.099 226.894C552.091 226.894 551.377 225.914 551.377 224.556C551.377 223.142 552.077 222.134 553.057 222.134C553.701 222.134 554.233 222.526 554.527 223.268L555.857 222.75C555.353 221.588 554.373 220.846 552.987 220.846C551.097 220.846 549.739 222.4 549.739 224.57C549.739 226.67 551.111 228.196 553.001 228.196C554.387 228.196 555.437 227.356 555.913 226.222ZM562.984 226.39L561.808 225.928C561.472 226.586 560.856 226.978 560.184 226.978C559.148 226.978 558.406 226.138 558.308 224.85H562.998C563.04 224.668 563.068 224.262 563.068 223.926C563.068 222.106 561.822 220.846 560.058 220.846C558.126 220.846 556.712 222.428 556.712 224.598C556.712 226.698 558.126 228.196 560.072 228.196C561.374 228.196 562.494 227.51 562.984 226.39ZM560.058 222.022C560.926 222.022 561.514 222.708 561.57 223.772H558.364C558.574 222.694 559.232 222.022 560.058 222.022ZM570.688 228V223.436C570.688 221.924 569.652 220.846 568.308 220.846C567.342 220.846 566.53 221.392 566.068 222.05V221.028H564.584V228H566.124V223.002C566.502 222.512 567.16 222.12 567.846 222.12C568.602 222.12 569.148 222.68 569.148 223.548V228H570.688ZM576.715 227.972V226.726C576.449 226.81 576.001 226.894 575.581 226.894C574.755 226.894 574.419 226.502 574.419 225.858V222.274H576.687V221.028H574.419V219.334H572.879V221.028H571.829V222.274H572.879V226.18C572.879 227.454 573.733 228.196 575.273 228.196C575.791 228.196 576.393 228.084 576.715 227.972ZM579.509 228V224.08C579.635 223.128 580.167 222.33 581.231 222.33C581.455 222.33 581.777 222.372 581.973 222.428L581.987 220.958C581.833 220.888 581.511 220.846 581.273 220.846C580.461 220.846 579.719 221.602 579.453 222.512V221.028H577.969V228H579.509ZM584.759 221.028H583.219V228H584.759V221.028ZM584.759 218.312H583.219V219.838H584.759V218.312ZM595.676 228V221.028H594.136V225.802C593.814 226.432 593.226 226.908 592.526 226.908C591.77 226.908 591.238 226.306 591.238 225.466V221.028H589.698V225.592C589.698 227.09 590.678 228.182 592.008 228.182C592.988 228.182 593.772 227.622 594.192 226.866V228H595.676ZM599.169 228V224.08C599.295 223.128 599.827 222.33 600.891 222.33C601.115 222.33 601.437 222.372 601.633 222.428L601.647 220.958C601.493 220.888 601.171 220.846 600.933 220.846C600.121 220.846 599.379 221.602 599.113 222.512V221.028H597.629V228H599.169ZM609.501 224.5C609.501 222.372 608.269 220.846 606.561 220.846C605.777 220.846 604.937 221.28 604.419 221.924V218.186H602.879V228H604.335V227.146C604.825 227.748 605.693 228.196 606.463 228.196C608.227 228.196 609.501 226.642 609.501 224.5ZM606.015 226.936C605.371 226.936 604.769 226.628 604.419 226.166V222.904C604.769 222.428 605.399 222.106 606.071 222.106C607.121 222.106 607.877 223.086 607.877 224.472C607.877 225.9 607.093 226.936 606.015 226.936ZM617.007 228.098L617.077 226.978C616.993 226.992 616.839 227.006 616.755 227.006C616.377 227.006 616.181 226.74 616.181 226.362V223.408C616.181 221.742 615.173 220.846 613.549 220.846C612.233 220.846 611.169 221.546 610.679 222.666L611.827 223.156C612.149 222.54 612.653 222.078 613.409 222.078C614.165 222.078 614.655 222.582 614.655 223.366V223.814L613.101 224.024C611.533 224.248 610.469 225.018 610.469 226.292C610.469 227.398 611.351 228.196 612.583 228.196C613.549 228.196 614.319 227.72 614.753 227.006C614.991 227.818 615.565 228.196 616.377 228.196C616.615 228.196 616.811 228.154 617.007 228.098ZM613.087 227.006C612.485 227.006 612.051 226.642 612.051 226.124C612.051 225.494 612.625 225.116 613.423 225.018L614.655 224.85V226.096C614.319 226.628 613.745 227.006 613.087 227.006ZM624.351 228V223.436C624.351 221.924 623.315 220.846 621.971 220.846C621.005 220.846 620.193 221.392 619.731 222.05V221.028H618.247V228H619.787V223.002C620.165 222.512 620.823 222.12 621.509 222.12C622.265 222.12 622.811 222.68 622.811 223.548V228H624.351ZM627.771 221.028H626.231V228H627.771V221.028ZM627.771 218.312H626.231V219.838H627.771V218.312Z" fill="#F9F9F9"/>
<path d="M515.375 112.875C515.375 98.8751 519.917 87.2293 529 77.9376C538.125 68.646 550.104 62.9793 564.938 60.9376C565.438 61.4376 565.771 62.0835 565.938 62.8751C549.396 70.5418 539.688 82.4376 536.812 98.5626C541.062 95.0626 545.875 93.3126 551.25 93.3126C558.333 93.3126 564.021 95.5626 568.312 100.063C572.646 104.521 574.812 110.375 574.812 117.625C574.812 125.833 572 132.5 566.375 137.625C560.792 142.708 554 145.25 546 145.25C537.208 145.25 529.896 142.396 524.062 136.688C518.271 130.979 515.375 123.042 515.375 112.875ZM535.75 110.063C535.75 119.021 536.625 126.729 538.375 133.188C540.125 139.646 542.792 142.875 546.375 142.875C549.125 142.875 551.188 140.833 552.562 136.75C553.979 132.625 554.688 127.625 554.688 121.75C554.688 115.25 553.625 109.833 551.5 105.5C549.375 101.125 546.729 98.9376 543.562 98.9376C541.354 98.9376 539.042 99.5835 536.625 100.875C536.042 103.875 535.75 106.938 535.75 110.063ZM582.438 135.438C582.438 132.021 583.5 129.292 585.625 127.25C587.75 125.208 590.438 124.188 593.688 124.188C597.021 124.188 599.792 125.25 602 127.375C604.208 129.5 605.312 132.188 605.312 135.438C605.312 138.521 604.167 141.083 601.875 143.125C599.583 145.167 596.854 146.188 593.688 146.188C590.521 146.188 587.854 145.167 585.688 143.125C583.521 141.083 582.438 138.521 582.438 135.438ZM611.375 91.6251C613 81.2085 614.875 73.7085 617 69.1251C619.125 64.5001 621.729 62.1876 624.812 62.1876C627.271 62.1876 632.521 62.6251 640.562 63.5001C648.646 64.3335 654.875 64.7501 659.25 64.7501C660.083 64.7501 661.229 64.396 662.688 63.6876C664.146 62.9376 665.375 62.1876 666.375 61.4376L667.938 60.3126L669.188 61.4376C648.438 94.7293 638 114.563 637.875 120.938C638.208 122.896 639.708 126.104 642.375 130.563C645.083 134.979 646.562 138.438 646.812 140.938C644.271 144.188 640.271 145.813 634.812 145.813C632.521 145.813 630.667 145.146 629.25 143.813C627.833 142.479 627.125 140.708 627.125 138.5C627.125 130.292 635.917 111.563 653.5 82.3126C640.208 81.1876 631.333 80.6251 626.875 80.6251C622.958 80.6251 620.208 81.2918 618.625 82.6251C617.042 83.9585 615.354 87.0418 613.562 91.8751L611.375 91.6251Z" fill="#F9F9F9"/>
<path d="M440.53 124.53C440.823 124.238 440.823 123.763 440.53 123.47L435.757 118.697C435.464 118.404 434.99 118.404 434.697 118.697C434.404 118.99 434.404 119.465 434.697 119.757L438.939 124L434.697 128.243C434.404 128.536 434.404 129.011 434.697 129.303C434.99 129.596 435.464 129.596 435.757 129.303L440.53 124.53ZM210 124.75L440 124.75V123.25L210 123.25V124.75Z" fill="#F9F9F9"/>
<path d="M589.5 272L593 278L586 278L589.5 272Z" fill="url(#paint5_linear_160_158)"/>
<rect x="564.5" y="278.5" width="50" height="17" rx="1.5" fill="url(#paint6_linear_160_158)"/>
<path d="M573.332 290.782V292H580.192V290.516H575.614L577.616 288.78C578.582 287.954 579.814 286.834 579.814 285.336C579.814 283.824 578.47 282.76 576.734 282.76C574.97 282.76 573.808 283.852 573.276 285.168L574.508 285.714C574.844 284.888 575.586 284.16 576.566 284.16C577.378 284.16 578.064 284.664 578.064 285.504C578.064 286.33 577.42 286.96 576.342 287.968L573.332 290.782ZM589.116 287.464C589.116 284.664 587.548 282.76 585.252 282.76C582.942 282.76 581.374 284.664 581.374 287.464C581.374 290.278 582.942 292.182 585.252 292.182C587.548 292.182 589.116 290.278 589.116 287.464ZM583.138 287.464C583.138 285.49 583.978 284.188 585.252 284.188C586.512 284.188 587.366 285.49 587.366 287.464C587.366 289.452 586.512 290.754 585.252 290.754C583.978 290.754 583.138 289.452 583.138 287.464ZM597.382 289.032C597.382 287.268 595.912 285.994 594.036 285.994C593.126 285.994 592.398 286.302 591.936 286.624L592.076 284.468H596.99V282.942H590.816L590.48 288.052L591.558 288.29C592.006 287.744 592.818 287.366 593.658 287.366C594.834 287.366 595.632 288.094 595.632 289.102C595.632 290.138 594.806 290.782 593.602 290.782C592.538 290.782 591.74 290.278 591.25 289.382L589.99 290.026C590.718 291.384 592.034 292.196 593.686 292.196C595.828 292.196 597.382 290.824 597.382 289.032ZM606.124 287.464C606.124 284.664 604.556 282.76 602.26 282.76C599.95 282.76 598.382 284.664 598.382 287.464C598.382 290.278 599.95 292.182 602.26 292.182C604.556 292.182 606.124 290.278 606.124 287.464ZM600.146 287.464C600.146 285.49 600.986 284.188 602.26 284.188C603.52 284.188 604.374 285.49 604.374 287.464C604.374 289.452 603.52 290.754 602.26 290.754C600.986 290.754 600.146 289.452 600.146 287.464Z" fill="#F9F9F9"/>
<rect x="564.5" y="278.5" width="50" height="17" rx="1.5" stroke="url(#paint7_linear_160_158)"/>
<path d="M109.5 36L106 30L113 30L109.5 36Z" fill="url(#paint8_linear_160_158)"/>
<rect x="84.5" y="12.5" width="50" height="17" rx="1.5" fill="#F9F9F9"/>
<path d="M93.3322 24.782V26H100.192V24.516H95.6142L97.6162 22.78C98.5822 21.954 99.8142 20.834 99.8142 19.336C99.8142 17.824 98.4702 16.76 96.7342 16.76C94.9702 16.76 93.8082 17.852 93.2762 19.168L94.5082 19.714C94.8442 18.888 95.5862 18.16 96.5662 18.16C97.3782 18.16 98.0642 18.664 98.0642 19.504C98.0642 20.33 97.4202 20.96 96.3422 21.968L93.3322 24.782ZM109.116 21.464C109.116 18.664 107.548 16.76 105.252 16.76C102.942 16.76 101.374 18.664 101.374 21.464C101.374 24.278 102.942 26.182 105.252 26.182C107.548 26.182 109.116 24.278 109.116 21.464ZM103.138 21.464C103.138 19.49 103.978 18.188 105.252 18.188C106.512 18.188 107.366 19.49 107.366 21.464C107.366 23.452 106.512 24.754 105.252 24.754C103.978 24.754 103.138 23.452 103.138 21.464ZM110.34 24.782V26H117.2V24.516H112.622L114.624 22.78C115.59 21.954 116.822 20.834 116.822 19.336C116.822 17.824 115.478 16.76 113.742 16.76C111.978 16.76 110.816 17.852 110.284 19.168L111.516 19.714C111.852 18.888 112.594 18.16 113.574 18.16C114.386 18.16 115.072 18.664 115.072 19.504C115.072 20.33 114.428 20.96 113.35 21.968L110.34 24.782ZM118.844 24.782V26H125.704V24.516H121.126L123.128 22.78C124.094 21.954 125.326 20.834 125.326 19.336C125.326 17.824 123.982 16.76 122.246 16.76C120.482 16.76 119.32 17.852 118.788 19.168L120.02 19.714C120.356 18.888 121.098 18.16 122.078 18.16C122.89 18.16 123.576 18.664 123.576 19.504C123.576 20.33 122.932 20.96 121.854 21.968L118.844 24.782Z" fill="url(#paint9_linear_160_158)"/>
<rect x="84.5" y="12.5" width="50" height="17" rx="1.5" stroke="url(#paint10_linear_160_158)"/>
<path d="M8.827 289.801C8.827 287.279 7.098 285.446 4.693 285.446C2.288 285.446 0.546 287.266 0.546 289.788C0.546 292.323 2.288 294.169 4.693 294.169C7.098 294.169 8.827 292.336 8.827 289.801ZM2.171 289.788C2.171 288.046 3.224 286.785 4.693 286.785C6.149 286.785 7.202 288.046 7.202 289.788C7.202 291.556 6.149 292.83 4.693 292.83C3.224 292.83 2.171 291.556 2.171 289.788ZM11.8651 294V288.28L16.1031 294H17.4291V285.589H15.9861V291.361L11.7481 285.589H10.4221V294H11.8651ZM26.2324 290.841V285.589H24.7764V290.841C24.7764 292.102 24.0874 292.817 22.8784 292.817C21.6694 292.817 20.9804 292.102 20.9804 290.841V285.589H19.4464V290.841C19.4464 292.856 20.7204 294.156 22.8524 294.156C24.9844 294.156 26.2324 292.856 26.2324 290.841ZM30.8174 291.192H42.5174V290.204H30.8174V291.192ZM50.1316 294L51.3926 290.555L51.4056 290.581L52.6536 294L54.1486 293.987L56.7746 285.589H55.3576L53.3556 292.167L52.1596 289.008L53.4596 285.589H52.1726L51.5096 287.682L50.8336 285.589H49.4426L50.7686 289.125L49.5856 292.167L47.5966 285.589H46.0886L48.7016 294H50.1316ZM63.4612 290.763C63.4612 288.787 62.1092 287.357 60.2372 287.357C58.3522 287.357 56.9872 288.787 56.9872 290.763C56.9872 292.739 58.3522 294.169 60.2372 294.169C62.1092 294.169 63.4612 292.739 63.4612 290.763ZM58.4952 290.763C58.4952 289.463 59.2232 288.514 60.2372 288.514C61.2382 288.514 61.9532 289.463 61.9532 290.763C61.9532 292.063 61.2382 292.999 60.2372 292.999C59.2232 292.999 58.4952 292.063 58.4952 290.763ZM66.2609 294V290.36C66.3779 289.476 66.8719 288.735 67.8599 288.735C68.0679 288.735 68.3669 288.774 68.5489 288.826L68.5619 287.461C68.4189 287.396 68.1199 287.357 67.8989 287.357C67.1449 287.357 66.4559 288.059 66.2089 288.904V287.526H64.8309V294H66.2609ZM71.1359 284.887H69.7059V294H71.1359V284.887ZM82.6376 290.841V285.589H81.1816V290.841C81.1816 292.102 80.4926 292.817 79.2836 292.817C78.0746 292.817 77.3856 292.102 77.3856 290.841V285.589H75.8516V290.841C75.8516 292.856 77.1256 294.156 79.2576 294.156C81.3896 294.156 82.6376 292.856 82.6376 290.841ZM85.8625 294V290.36C85.9795 289.476 86.4735 288.735 87.4615 288.735C87.6695 288.735 87.9685 288.774 88.1505 288.826L88.1635 287.461C88.0205 287.396 87.7215 287.357 87.5005 287.357C86.7465 287.357 86.0575 288.059 85.8105 288.904V287.526H84.4325V294H85.8625ZM95.4565 290.75C95.4565 288.774 94.3125 287.357 92.7265 287.357C91.9985 287.357 91.2185 287.76 90.7375 288.358V284.887H89.3075V294H90.6595V293.207C91.1145 293.766 91.9205 294.182 92.6355 294.182C94.2735 294.182 95.4565 292.739 95.4565 290.75ZM92.2195 293.012C91.6215 293.012 91.0625 292.726 90.7375 292.297V289.268C91.0625 288.826 91.6475 288.527 92.2715 288.527C93.2465 288.527 93.9485 289.437 93.9485 290.724C93.9485 292.05 93.2205 293.012 92.2195 293.012ZM102.425 294.091L102.49 293.051C102.412 293.064 102.269 293.077 102.191 293.077C101.84 293.077 101.658 292.83 101.658 292.479V289.736C101.658 288.189 100.722 287.357 99.2145 287.357C97.9925 287.357 97.0045 288.007 96.5495 289.047L97.6155 289.502C97.9145 288.93 98.3825 288.501 99.0845 288.501C99.7865 288.501 100.241 288.969 100.241 289.697V290.113L98.7985 290.308C97.3425 290.516 96.3545 291.231 96.3545 292.414C96.3545 293.441 97.1735 294.182 98.3175 294.182C99.2145 294.182 99.9295 293.74 100.332 293.077C100.553 293.831 101.086 294.182 101.84 294.182C102.061 294.182 102.243 294.143 102.425 294.091ZM98.7855 293.077C98.2265 293.077 97.8235 292.739 97.8235 292.258C97.8235 291.673 98.3565 291.322 99.0975 291.231L100.241 291.075V292.232C99.9295 292.726 99.3965 293.077 98.7855 293.077ZM109.245 294V289.762C109.245 288.358 108.283 287.357 107.035 287.357C106.138 287.357 105.384 287.864 104.955 288.475V287.526H103.577V294H105.007V289.359C105.358 288.904 105.969 288.54 106.606 288.54C107.308 288.54 107.815 289.06 107.815 289.866V294H109.245ZM112.421 287.526H110.991V294H112.421V287.526ZM112.421 285.004H110.991V286.421H112.421V285.004ZM113.877 288.722H117.14L113.799 292.934V294H119.012V292.804H115.541L118.96 288.592V287.526H113.877V288.722ZM125.95 294.091L126.015 293.051C125.937 293.064 125.794 293.077 125.716 293.077C125.365 293.077 125.183 292.83 125.183 292.479V289.736C125.183 288.189 124.247 287.357 122.739 287.357C121.517 287.357 120.529 288.007 120.074 289.047L121.14 289.502C121.439 288.93 121.907 288.501 122.609 288.501C123.311 288.501 123.766 288.969 123.766 289.697V290.113L122.323 290.308C120.867 290.516 119.879 291.231 119.879 292.414C119.879 293.441 120.698 294.182 121.842 294.182C122.739 294.182 123.454 293.74 123.857 293.077C124.078 293.831 124.611 294.182 125.365 294.182C125.586 294.182 125.768 294.143 125.95 294.091ZM122.31 293.077C121.751 293.077 121.348 292.739 121.348 292.258C121.348 291.673 121.881 291.322 122.622 291.231L123.766 291.075V292.232C123.454 292.726 122.921 293.077 122.31 293.077ZM131.027 293.974V292.817C130.78 292.895 130.364 292.973 129.974 292.973C129.207 292.973 128.895 292.609 128.895 292.011V288.683H131.001V287.526H128.895V285.953H127.465V287.526H126.49V288.683H127.465V292.31C127.465 293.493 128.258 294.182 129.688 294.182C130.169 294.182 130.728 294.078 131.027 293.974ZM133.622 287.526H132.192V294H133.622V287.526ZM133.622 285.004H132.192V286.421H133.622V285.004ZM141.474 290.763C141.474 288.787 140.122 287.357 138.25 287.357C136.365 287.357 135 288.787 135 290.763C135 292.739 136.365 294.169 138.25 294.169C140.122 294.169 141.474 292.739 141.474 290.763ZM136.508 290.763C136.508 289.463 137.236 288.514 138.25 288.514C139.251 288.514 139.966 289.463 139.966 290.763C139.966 292.063 139.251 292.999 138.25 292.999C137.236 292.999 136.508 292.063 136.508 290.763ZM148.512 294V289.762C148.512 288.358 147.55 287.357 146.302 287.357C145.405 287.357 144.651 287.864 144.222 288.475V287.526H142.844V294H144.274V289.359C144.625 288.904 145.236 288.54 145.873 288.54C146.575 288.54 147.082 289.06 147.082 289.866V294H148.512ZM154.766 294V291.413H156.118C158.068 291.413 159.394 290.204 159.394 288.488C159.394 286.785 158.068 285.589 156.092 285.589H153.232V294H154.766ZM154.766 286.876H155.988C157.067 286.876 157.808 287.526 157.808 288.488C157.808 289.463 157.067 290.126 155.988 290.126H154.766V286.876ZM162.098 294V290.36C162.215 289.476 162.709 288.735 163.697 288.735C163.905 288.735 164.204 288.774 164.386 288.826L164.399 287.461C164.256 287.396 163.957 287.357 163.736 287.357C162.982 287.357 162.293 288.059 162.046 288.904V287.526H160.668V294H162.098ZM171.397 290.763C171.397 288.787 170.045 287.357 168.173 287.357C166.288 287.357 164.923 288.787 164.923 290.763C164.923 292.739 166.288 294.169 168.173 294.169C170.045 294.169 171.397 292.739 171.397 290.763ZM166.431 290.763C166.431 289.463 167.159 288.514 168.173 288.514C169.174 288.514 169.889 289.463 169.889 290.763C169.889 292.063 169.174 292.999 168.173 292.999C167.159 292.999 166.431 292.063 166.431 290.763ZM177.927 292.18C177.927 290.971 176.9 290.451 175.418 290.113C174.391 289.879 173.806 289.723 173.806 289.216C173.806 288.748 174.326 288.436 175.093 288.436C175.938 288.436 176.51 288.787 176.822 289.359L177.888 288.917C177.472 288.111 176.64 287.357 175.106 287.357C173.533 287.357 172.454 288.176 172.454 289.333C172.454 290.477 173.546 291.01 174.885 291.309C175.925 291.53 176.575 291.725 176.575 292.271C176.575 292.778 176.094 293.103 175.275 293.103C174.287 293.103 173.598 292.661 173.26 292.076L172.168 292.518C172.61 293.506 173.702 294.182 175.223 294.182C176.9 294.182 177.927 293.376 177.927 292.18ZM182.178 293.012C181.645 293.012 181.073 292.752 180.709 292.349V289.359C181.021 288.917 181.58 288.501 182.23 288.501C183.205 288.501 183.92 289.398 183.92 290.737C183.92 292.076 183.205 293.012 182.178 293.012ZM185.428 290.737C185.428 288.761 184.193 287.357 182.672 287.357C181.723 287.357 181.008 287.903 180.67 288.462V287.526H179.279V296.314H180.709V293.337C181.112 293.844 181.814 294.169 182.581 294.169C184.18 294.169 185.428 292.726 185.428 290.737ZM192.189 292.505L191.097 292.076C190.785 292.687 190.213 293.051 189.589 293.051C188.627 293.051 187.938 292.271 187.847 291.075H192.202C192.241 290.906 192.267 290.529 192.267 290.217C192.267 288.527 191.11 287.357 189.472 287.357C187.678 287.357 186.365 288.826 186.365 290.841C186.365 292.791 187.678 294.182 189.485 294.182C190.694 294.182 191.734 293.545 192.189 292.505ZM189.472 288.449C190.278 288.449 190.824 289.086 190.876 290.074H187.899C188.094 289.073 188.705 288.449 189.472 288.449ZM198.967 292.349L197.745 291.894C197.472 292.544 197.004 292.973 196.354 292.973C195.418 292.973 194.755 292.063 194.755 290.802C194.755 289.489 195.405 288.553 196.315 288.553C196.913 288.553 197.407 288.917 197.68 289.606L198.915 289.125C198.447 288.046 197.537 287.357 196.25 287.357C194.495 287.357 193.234 288.8 193.234 290.815C193.234 292.765 194.508 294.182 196.263 294.182C197.55 294.182 198.525 293.402 198.967 292.349ZM204.076 293.974V292.817C203.829 292.895 203.413 292.973 203.023 292.973C202.256 292.973 201.944 292.609 201.944 292.011V288.683H204.05V287.526H201.944V285.953H200.514V287.526H199.539V288.683H200.514V292.31C200.514 293.493 201.307 294.182 202.737 294.182C203.218 294.182 203.777 294.078 204.076 293.974Z" fill="#C5C5C5"/>
<path d="M0 295.3H204.336V295.95H0V295.3Z" fill="#C5C5C5"/>
<path d="M20.902 272.62V271.359H17.587V268.876H21.799V267.589H16.053V276H17.587V272.62H20.902ZM28.6829 272.763C28.6829 270.787 27.3309 269.357 25.4589 269.357C23.5739 269.357 22.2089 270.787 22.2089 272.763C22.2089 274.739 23.5739 276.169 25.4589 276.169C27.3309 276.169 28.6829 274.739 28.6829 272.763ZM23.7169 272.763C23.7169 271.463 24.4449 270.514 25.4589 270.514C26.4599 270.514 27.1749 271.463 27.1749 272.763C27.1749 274.063 26.4599 274.999 25.4589 274.999C24.4449 274.999 23.7169 274.063 23.7169 272.763ZM35.7206 276V271.762C35.7206 270.358 34.7586 269.357 33.5106 269.357C32.6136 269.357 31.8596 269.864 31.4306 270.475V269.526H30.0526V276H31.4826V271.359C31.8336 270.904 32.4446 270.54 33.0816 270.54C33.7836 270.54 34.2906 271.06 34.2906 271.866V276H35.7206ZM41.3165 275.974V274.817C41.0695 274.895 40.6535 274.973 40.2635 274.973C39.4965 274.973 39.1845 274.609 39.1845 274.011V270.683H41.2905V269.526H39.1845V267.953H37.7545V269.526H36.7795V270.683H37.7545V274.31C37.7545 275.493 38.5475 276.182 39.9775 276.182C40.4585 276.182 41.0175 276.078 41.3165 275.974ZM47.7998 274.505L46.7078 274.076C46.3958 274.687 45.8238 275.051 45.1998 275.051C44.2378 275.051 43.5488 274.271 43.4578 273.075H47.8128C47.8518 272.906 47.8778 272.529 47.8778 272.217C47.8778 270.527 46.7208 269.357 45.0828 269.357C43.2888 269.357 41.9758 270.826 41.9758 272.841C41.9758 274.791 43.2888 276.182 45.0958 276.182C46.3048 276.182 47.3448 275.545 47.7998 274.505ZM45.0828 270.449C45.8888 270.449 46.4348 271.086 46.4868 272.074H43.5098C43.7048 271.073 44.3158 270.449 45.0828 270.449Z" fill="#1E2528"/>
<circle cx="5.5" cy="272.5" r="5.5" fill="url(#paint11_linear_160_158)"/>
<path d="M581.25 46C581.25 43.2386 583.489 41 586.25 41H593.75C596.512 41 598.75 43.2386 598.75 46V46H581.25V46Z" fill="#F9F9F9"/>
<path d="M581.25 29.7495C581.25 26.9881 583.489 24.7495 586.25 24.7495H593.75C596.512 24.7495 598.75 26.9881 598.75 29.7495V29.7495H581.25V29.7495Z" fill="#F9F9F9"/>
<path d="M597.5 38.5C597.5 35.7386 599.739 33.5 602.5 33.5H610C612.761 33.5 615 35.7386 615 38.5V38.5H597.5V38.5Z" fill="#1E2528"/>
<path d="M565 38.5C565 35.7386 567.239 33.5 570 33.5H577.5C580.262 33.5 582.5 35.7386 582.5 38.5V38.5H565V38.5Z" fill="#1E2528"/>
<circle cx="590" cy="35.9995" r="3.74998" fill="#1E2528"/>
<circle cx="590" cy="19.75" r="3.74998" fill="#1E2528"/>
<circle cx="606.25" cy="28.4995" r="3.74998" fill="#F9F9F9"/>
<circle cx="573.75" cy="28.4995" r="3.74998" fill="#F9F9F9"/>
<path d="M93 70.7505C93 67.9891 95.2386 65.7505 98 65.7505H105.5C108.261 65.7505 110.5 67.9891 110.5 70.7505V70.7505H93V70.7505Z" fill="url(#paint12_linear_160_158)"/>
<path d="M109.5 75.5005C109.5 72.7391 111.738 70.5005 114.499 70.5005H121.999C124.761 70.5005 126.999 72.7391 126.999 75.5005V75.5005H109.5V75.5005Z" fill="#1E2528"/>
<circle cx="101.75" cy="60.75" r="3.74998" fill="#1E2528"/>
<circle cx="118.25" cy="65.5" r="3.74998" fill="url(#paint13_linear_160_158)"/>
<defs>
<linearGradient id="paint0_linear_160_158" x1="15.3008" y1="-64.9082" x2="713.305" y2="-59.1562" gradientUnits="userSpaceOnUse">
<stop stop-color="#07A76F"/>
<stop offset="1" stop-color="#8ECA45"/>
</linearGradient>
<linearGradient id="paint1_linear_160_158" x1="-7.63485" y1="-0.688669" x2="237.7" y2="0.444851" gradientUnits="userSpaceOnUse">
<stop stop-color="#07A76F"/>
<stop offset="1" stop-color="#8ECA45"/>
</linearGradient>
<linearGradient id="paint2_linear_160_158" x1="402.344" y1="-64.9082" x2="793.712" y2="-63.1" gradientUnits="userSpaceOnUse">
<stop stop-color="#07A76F"/>
<stop offset="1" stop-color="#8ECA45"/>
</linearGradient>
<linearGradient id="paint3_linear_160_158" x1="38.5788" y1="52.6245" x2="187.53" y2="53.502" gradientUnits="userSpaceOnUse">
<stop stop-color="#07A76F"/>
<stop offset="1" stop-color="#8ECA45"/>
</linearGradient>
<linearGradient id="paint4_linear_160_158" x1="72.1888" y1="148.125" x2="151.029" y2="149.354" gradientUnits="userSpaceOnUse">
<stop stop-color="#07A76F"/>
<stop offset="1" stop-color="#8ECA45"/>
</linearGradient>
<linearGradient id="paint5_linear_160_158" x1="594.401" y1="279.453" x2="584.179" y2="279.398" gradientUnits="userSpaceOnUse">
<stop stop-color="#07A76F"/>
<stop offset="1" stop-color="#8ECA45"/>
</linearGradient>
<linearGradient id="paint6_linear_160_158" x1="553.789" y1="273.641" x2="628.255" y2="274.615" gradientUnits="userSpaceOnUse">
<stop stop-color="#07A76F"/>
<stop offset="1" stop-color="#8ECA45"/>
</linearGradient>
<linearGradient id="paint7_linear_160_158" x1="553.789" y1="273.641" x2="628.255" y2="274.615" gradientUnits="userSpaceOnUse">
<stop stop-color="#07A76F"/>
<stop offset="1" stop-color="#8ECA45"/>
</linearGradient>
<linearGradient id="paint8_linear_160_158" x1="104.599" y1="28.5468" x2="114.821" y2="28.6019" gradientUnits="userSpaceOnUse">
<stop stop-color="#07A76F"/>
<stop offset="1" stop-color="#8ECA45"/>
</linearGradient>
<linearGradient id="paint9_linear_160_158" x1="84.9927" y1="10.6093" x2="136.098" y2="11.1996" gradientUnits="userSpaceOnUse">
<stop stop-color="#07A76F"/>
<stop offset="1" stop-color="#8ECA45"/>
</linearGradient>
<linearGradient id="paint10_linear_160_158" x1="73.7894" y1="7.64049" x2="148.255" y2="8.6153" gradientUnits="userSpaceOnUse">
<stop stop-color="#07A76F"/>
<stop offset="1" stop-color="#8ECA45"/>
</linearGradient>
<linearGradient id="paint11_linear_160_158" x1="-2.20228" y1="264.336" x2="13.8613" y2="264.41" gradientUnits="userSpaceOnUse">
<stop stop-color="#07A76F"/>
<stop offset="1" stop-color="#8ECA45"/>
</linearGradient>
<linearGradient id="paint12_linear_160_158" x1="89.4964" y1="64.5395" x2="115.046" y2="64.9527" gradientUnits="userSpaceOnUse">
<stop stop-color="#07A76F"/>
<stop offset="1" stop-color="#8ECA45"/>
</linearGradient>
<linearGradient id="paint13_linear_160_158" x1="112.998" y1="59.9335" x2="123.951" y2="59.9842" gradientUnits="userSpaceOnUse">
<stop stop-color="#07A76F"/>
<stop offset="1" stop-color="#8ECA45"/>
</linearGradient>
</defs>
</svg>
