<svg width="713" height="358" viewBox="0 0 713 358" fill="none" xmlns="http://www.w3.org/2000/svg">
<path d="M0 14H676C682.627 14 688 19.3726 688 26C688 32.6274 682.627 38 676 38H0V14Z" fill="url(#paint0_linear_160_155)"/>
<path d="M0 22H451C457.627 22 463 27.3726 463 34C463 40.6274 457.627 46 451 46H0V22Z" fill="#1E2528"/>
<path d="M512.023 22.744H512.055L513.527 26.84H510.551L512.023 22.744ZM509.047 31L509.991 28.36H514.087L515.031 31H516.983L513.095 20.648H511.095L507.207 31H509.047ZM525.844 27C525.844 24.568 524.436 22.824 522.484 22.824C521.588 22.824 520.628 23.32 520.036 24.056V19.784H518.276V31H519.94V30.024C520.5 30.712 521.492 31.224 522.372 31.224C524.388 31.224 525.844 29.448 525.844 27ZM521.86 29.784C521.124 29.784 520.436 29.432 520.036 28.904V25.176C520.436 24.632 521.156 24.264 521.924 24.264C523.124 24.264 523.988 25.384 523.988 26.968C523.988 28.6 523.092 29.784 521.86 29.784ZM534.182 29.16L532.838 28.632C532.454 29.384 531.75 29.832 530.982 29.832C529.798 29.832 528.95 28.872 528.838 27.4H534.198C534.246 27.192 534.278 26.728 534.278 26.344C534.278 24.264 532.854 22.824 530.838 22.824C528.63 22.824 527.014 24.632 527.014 27.112C527.014 29.512 528.63 31.224 530.854 31.224C532.342 31.224 533.622 30.44 534.182 29.16ZM530.838 24.168C531.83 24.168 532.502 24.952 532.566 26.168H528.902C529.142 24.936 529.894 24.168 530.838 24.168ZM540.765 30.968V29.544C540.461 29.64 539.949 29.736 539.469 29.736C538.525 29.736 538.141 29.288 538.141 28.552V24.456H540.733V23.032H538.141V21.096H536.381V23.032H535.181V24.456H536.381V28.92C536.381 30.376 537.357 31.224 539.117 31.224C539.709 31.224 540.397 31.096 540.765 30.968ZM548.744 29.16L547.4 28.632C547.016 29.384 546.312 29.832 545.544 29.832C544.36 29.832 543.512 28.872 543.4 27.4H548.76C548.808 27.192 548.84 26.728 548.84 26.344C548.84 24.264 547.416 22.824 545.4 22.824C543.192 22.824 541.576 24.632 541.576 27.112C541.576 29.512 543.192 31.224 545.416 31.224C546.904 31.224 548.184 30.44 548.744 29.16ZM545.4 24.168C546.392 24.168 547.064 24.952 547.128 26.168H543.464C543.704 24.936 544.456 24.168 545.4 24.168ZM555.818 31V26.52C555.962 25.432 556.57 24.52 557.786 24.52C558.042 24.52 558.41 24.568 558.634 24.632L558.65 22.952C558.474 22.872 558.106 22.824 557.834 22.824C556.906 22.824 556.058 23.688 555.754 24.728V23.032H554.058V31H555.818ZM561.818 23.032H560.058V31H561.818V23.032ZM561.818 19.928H560.058V21.672H561.818V19.928ZM570.585 28.968L569.081 28.408C568.745 29.208 568.169 29.736 567.369 29.736C566.217 29.736 565.401 28.616 565.401 27.064C565.401 25.448 566.201 24.296 567.321 24.296C568.057 24.296 568.665 24.744 569.001 25.592L570.521 25C569.945 23.672 568.825 22.824 567.241 22.824C565.081 22.824 563.529 24.6 563.529 27.08C563.529 29.48 565.097 31.224 567.257 31.224C568.841 31.224 570.041 30.264 570.585 28.968ZM578.554 28.968L577.05 28.408C576.714 29.208 576.138 29.736 575.338 29.736C574.186 29.736 573.37 28.616 573.37 27.064C573.37 25.448 574.17 24.296 575.29 24.296C576.026 24.296 576.634 24.744 576.97 25.592L578.49 25C577.914 23.672 576.794 22.824 575.21 22.824C573.05 22.824 571.498 24.6 571.498 27.08C571.498 29.48 573.066 31.224 575.226 31.224C576.81 31.224 578.01 30.264 578.554 28.968ZM581.771 23.032H580.011V31H581.771V23.032ZM581.771 19.928H580.011V21.672H581.771V19.928ZM591.434 27.016C591.434 24.584 589.77 22.824 587.466 22.824C585.146 22.824 583.466 24.584 583.466 27.016C583.466 29.448 585.146 31.208 587.466 31.208C589.77 31.208 591.434 29.448 591.434 27.016ZM585.322 27.016C585.322 25.416 586.218 24.248 587.466 24.248C588.698 24.248 589.578 25.416 589.578 27.016C589.578 28.616 588.698 29.768 587.466 29.768C586.218 29.768 585.322 28.616 585.322 27.016Z" fill="#F9F9F9"/>
<path d="M600.912 29.144V31H609.152V28.584H604.592L606.24 27.256C607.776 26.056 608.768 25.032 608.768 23.48C608.768 21.672 607.12 20.424 604.976 20.424C602.784 20.424 601.36 21.72 600.72 23.272L602.736 24.136C603.04 23.336 603.712 22.728 604.512 22.728C605.232 22.728 605.808 23.16 605.808 23.816C605.808 24.456 605.376 24.92 604.08 26.152L600.912 29.144ZM619.76 25.8C619.76 22.648 617.792 20.424 615.024 20.424C612.24 20.424 610.272 22.648 610.272 25.8C610.272 28.984 612.24 31.224 615.024 31.224C617.792 31.224 619.76 28.984 619.76 25.8ZM613.248 25.832C613.248 24.008 613.952 22.808 615.024 22.808C616.08 22.808 616.8 24.008 616.8 25.832C616.8 27.64 616.08 28.84 615.024 28.84C613.952 28.84 613.248 27.64 613.248 25.832ZM629.424 27.592C629.424 25.56 627.76 24.168 625.568 24.168C624.608 24.168 623.808 24.44 623.28 24.776L623.376 23.08H628.96V20.648H621.376L621.072 26.584L622.8 27C623.328 26.616 624 26.392 624.704 26.392C625.824 26.392 626.448 26.904 626.448 27.656C626.448 28.456 625.744 28.936 624.736 28.936C623.776 28.936 622.912 28.504 622.464 27.768L620.416 28.808C621.344 30.392 623.008 31.24 624.96 31.24C627.568 31.24 629.424 29.72 629.424 27.592ZM639.933 31V28.84L641.085 27.272L643.421 31H646.733L642.893 25.128L646.461 20.648H643.261L639.933 25.368V20.648H637.133V31H639.933ZM655.395 31.272C655.395 30.072 654.467 29.352 652.531 29.224L651.203 29.144C650.195 29.08 649.683 28.968 649.683 28.76C649.683 28.648 649.779 28.472 649.859 28.328C650.179 28.392 650.515 28.424 650.851 28.424C652.867 28.424 654.435 27.384 654.435 25.688C654.435 25.32 654.355 24.952 654.179 24.616C654.627 24.488 655.235 24.376 655.731 24.376V22.424C654.707 22.424 653.907 22.952 653.475 23.688C652.819 23.128 651.875 22.76 650.707 22.76C648.659 22.76 647.059 23.944 647.059 25.576C647.059 26.664 647.747 27.48 648.739 27.96C648.115 28.376 647.619 28.968 647.619 29.384C647.619 29.784 647.907 30.136 648.371 30.424C647.347 30.76 646.643 31.304 646.643 32.072C646.643 33.288 648.323 34.008 650.707 34.008C653.635 34.008 655.395 32.92 655.395 31.272ZM650.995 32.472C649.811 32.472 649.075 32.104 649.075 31.64C649.075 31.368 649.283 31.096 649.587 30.92C649.907 31.016 650.243 31.064 650.595 31.096L651.795 31.192C652.611 31.256 652.915 31.384 652.915 31.752C652.915 32.216 652.131 32.472 650.995 32.472ZM649.539 25.608C649.539 24.872 650.131 24.392 650.755 24.392C651.379 24.392 651.987 24.84 651.987 25.608C651.987 26.376 651.395 26.808 650.771 26.808C650.147 26.808 649.539 26.376 649.539 25.608ZM656.099 34.04L657.379 34.584L663.811 19.64L662.531 19.112L656.099 34.04ZM671.729 31.08L671.841 29.304C671.713 29.32 671.521 29.336 671.409 29.336C671.057 29.336 670.913 29.096 670.913 28.632V25.912C670.913 23.832 669.665 22.76 667.553 22.76C665.697 22.76 664.481 23.688 663.921 25.016L665.793 25.8C666.097 25.208 666.593 24.744 667.265 24.744C667.905 24.744 668.321 25.176 668.321 25.816V26.152L666.657 26.424C664.737 26.76 663.633 27.704 663.633 29.064C663.633 30.344 664.625 31.24 666.017 31.24C667.121 31.24 668.001 30.68 668.545 29.912C668.961 30.872 669.777 31.24 670.737 31.24C671.105 31.24 671.457 31.176 671.729 31.08ZM667.121 29.4C666.609 29.4 666.273 29.08 666.273 28.648C666.273 28.136 666.705 27.816 667.361 27.704L668.321 27.544V28.824C668.017 29.16 667.585 29.4 667.121 29.4Z" fill="#1E2528"/>
<path d="M421.432 28.648L418.136 29.928L418.904 32.024L421 31.304V36.648H418.504V39H425.96V36.648H423.8V28.648H421.432ZM434.104 33.512V33.432C435.368 33.112 436.104 32.216 436.104 31.176C436.104 29.576 434.36 28.424 432.056 28.424C429.816 28.424 428.264 29.576 427.528 31.064L429.528 31.96C429.96 31.192 430.632 30.712 431.624 30.712C432.536 30.712 433.128 31.16 433.128 31.752C433.128 32.344 432.504 32.792 431.496 32.808H430.072V34.744L431.688 34.728C432.744 34.728 433.432 35.08 433.432 35.784C433.432 36.488 432.744 36.936 431.688 36.936C430.584 36.936 429.752 36.456 429.352 35.672L427.32 36.648C428.248 38.296 429.896 39.224 431.992 39.224C434.504 39.224 436.408 37.88 436.408 36.04C436.408 34.76 435.496 33.8 434.104 33.512ZM446.664 36.152C446.664 35.048 446.072 34.28 444.808 33.688C445.784 33.176 446.472 32.424 446.456 31.368C446.44 29.64 444.584 28.424 442.04 28.424C439.416 28.424 437.576 29.736 437.576 31.528C437.576 32.536 438.184 33.304 439.16 33.848C438.056 34.328 437.288 35.224 437.288 36.296C437.288 38.024 439.288 39.224 442.024 39.224C444.728 39.224 446.664 37.992 446.664 36.152ZM442.504 32.92C441 32.568 440.408 32.248 440.408 31.704C440.408 31.112 441.048 30.68 442.04 30.68C442.952 30.68 443.608 31.064 443.608 31.688C443.608 32.168 443.256 32.6 442.696 32.968C442.632 32.952 442.568 32.936 442.504 32.92ZM442.008 36.968C441 36.968 440.264 36.504 440.264 35.912C440.264 35.464 440.616 34.968 441.256 34.616C441.384 34.648 441.512 34.664 441.64 34.696C443.064 34.968 443.656 35.416 443.656 35.992C443.656 36.52 442.968 36.968 442.008 36.968Z" fill="#F9F9F9"/>
<path d="M0 58H559C565.627 58 571 63.3726 571 70C571 76.6274 565.627 82 559 82H0V58Z" fill="url(#paint1_linear_160_155)"/>
<path d="M422.209 75C424.465 75 425.953 73.832 425.953 72.104C425.953 70.776 425.217 69.912 424.081 69.544C424.993 69.144 425.665 68.392 425.665 67.32C425.665 65.72 424.305 64.648 422.225 64.648H417.921V75H422.209ZM419.809 66.12H422.097C423.073 66.12 423.713 66.664 423.713 67.464C423.713 68.376 422.945 69.032 422.001 69.032H419.809V66.12ZM419.809 73.528V70.488H422.017C423.153 70.488 424.001 70.936 424.001 72.008C424.001 72.904 423.233 73.528 422.113 73.528H419.809ZM434.385 73.16L433.041 72.632C432.657 73.384 431.953 73.832 431.185 73.832C430.001 73.832 429.153 72.872 429.041 71.4H434.401C434.449 71.192 434.481 70.728 434.481 70.344C434.481 68.264 433.057 66.824 431.041 66.824C428.833 66.824 427.217 68.632 427.217 71.112C427.217 73.512 428.833 75.224 431.057 75.224C432.545 75.224 433.825 74.44 434.385 73.16ZM431.041 68.168C432.033 68.168 432.705 68.952 432.769 70.168H429.105C429.345 68.936 430.097 68.168 431.041 68.168ZM440.968 74.968V73.544C440.664 73.64 440.152 73.736 439.672 73.736C438.728 73.736 438.344 73.288 438.344 72.552V68.456H440.936V67.032H438.344V65.096H436.584V67.032H435.384V68.456H436.584V72.92C436.584 74.376 437.56 75.224 439.32 75.224C439.912 75.224 440.6 75.096 440.968 74.968ZM449.137 75V67.032H447.377V72.488C447.009 73.208 446.337 73.752 445.537 73.752C444.673 73.752 444.065 73.064 444.065 72.104V67.032H442.305V72.248C442.305 73.96 443.425 75.208 444.945 75.208C446.065 75.208 446.961 74.568 447.441 73.704V75H449.137ZM453.13 63.784H451.37V75H453.13V63.784ZM457.146 63.784H455.386V75H457.146V63.784ZM466.265 75.112L466.345 73.832C466.249 73.848 466.073 73.864 465.977 73.864C465.545 73.864 465.321 73.56 465.321 73.128V69.752C465.321 67.848 464.169 66.824 462.313 66.824C460.809 66.824 459.593 67.624 459.033 68.904L460.345 69.464C460.713 68.76 461.289 68.232 462.153 68.232C463.017 68.232 463.577 68.808 463.577 69.704V70.216L461.801 70.456C460.009 70.712 458.793 71.592 458.793 73.048C458.793 74.312 459.801 75.224 461.209 75.224C462.313 75.224 463.193 74.68 463.689 73.864C463.961 74.792 464.617 75.224 465.545 75.224C465.817 75.224 466.041 75.176 466.265 75.112ZM461.785 73.864C461.097 73.864 460.601 73.448 460.601 72.856C460.601 72.136 461.257 71.704 462.169 71.592L463.577 71.4V72.824C463.193 73.432 462.537 73.864 461.785 73.864ZM478.735 71C478.735 68.568 477.327 66.824 475.375 66.824C474.479 66.824 473.519 67.32 472.927 68.056V63.784H471.167V75H472.831V74.024C473.391 74.712 474.383 75.224 475.263 75.224C477.279 75.224 478.735 73.448 478.735 71ZM474.751 73.784C474.015 73.784 473.327 73.432 472.927 72.904V69.176C473.327 68.632 474.047 68.264 474.815 68.264C476.015 68.264 476.879 69.384 476.879 70.968C476.879 72.6 475.983 73.784 474.751 73.784ZM482.208 67.032H480.448V75H482.208V67.032ZM482.208 63.928H480.448V65.672H482.208V63.928ZM491.328 75.112L491.408 73.832C491.312 73.848 491.136 73.864 491.04 73.864C490.608 73.864 490.384 73.56 490.384 73.128V69.752C490.384 67.848 489.232 66.824 487.376 66.824C485.872 66.824 484.656 67.624 484.096 68.904L485.408 69.464C485.776 68.76 486.352 68.232 487.216 68.232C488.08 68.232 488.64 68.808 488.64 69.704V70.216L486.864 70.456C485.072 70.712 483.856 71.592 483.856 73.048C483.856 74.312 484.864 75.224 486.272 75.224C487.376 75.224 488.256 74.68 488.752 73.864C489.024 74.792 489.68 75.224 490.608 75.224C490.88 75.224 491.104 75.176 491.328 75.112ZM486.848 73.864C486.16 73.864 485.664 73.448 485.664 72.856C485.664 72.136 486.32 71.704 487.232 71.592L488.64 71.4V72.824C488.256 73.432 487.6 73.864 486.848 73.864ZM499.721 75V69.784C499.721 68.056 498.537 66.824 497.001 66.824C495.897 66.824 494.969 67.448 494.441 68.2V67.032H492.745V75H494.505V69.288C494.937 68.728 495.689 68.28 496.473 68.28C497.337 68.28 497.961 68.92 497.961 69.912V75H499.721ZM508.382 72.968L506.878 72.408C506.542 73.208 505.966 73.736 505.166 73.736C504.014 73.736 503.198 72.616 503.198 71.064C503.198 69.448 503.998 68.296 505.118 68.296C505.854 68.296 506.462 68.744 506.798 69.592L508.318 69C507.742 67.672 506.622 66.824 505.038 66.824C502.878 66.824 501.326 68.6 501.326 71.08C501.326 73.48 502.894 75.224 505.054 75.224C506.638 75.224 507.838 74.264 508.382 72.968ZM516.703 75.112L516.783 73.832C516.687 73.848 516.511 73.864 516.415 73.864C515.983 73.864 515.759 73.56 515.759 73.128V69.752C515.759 67.848 514.607 66.824 512.751 66.824C511.247 66.824 510.031 67.624 509.471 68.904L510.783 69.464C511.151 68.76 511.727 68.232 512.591 68.232C513.455 68.232 514.015 68.808 514.015 69.704V70.216L512.239 70.456C510.447 70.712 509.231 71.592 509.231 73.048C509.231 74.312 510.239 75.224 511.647 75.224C512.751 75.224 513.631 74.68 514.127 73.864C514.399 74.792 515.055 75.224 515.983 75.224C516.255 75.224 516.479 75.176 516.703 75.112ZM512.223 73.864C511.535 73.864 511.039 73.448 511.039 72.856C511.039 72.136 511.695 71.704 512.607 71.592L514.015 71.4V72.824C513.631 73.432 512.975 73.864 512.223 73.864Z" fill="#F9F9F9"/>
<path d="M529.432 64.648L526.136 65.928L526.904 68.024L529 67.304V72.648H526.504V75H533.96V72.648H531.8V64.648H529.432ZM540.056 75.016L543.944 66.728V64.648H536.008V67.128H540.968L537.096 75L540.056 75.016ZM554.744 69.8C554.744 66.648 552.776 64.424 550.008 64.424C547.224 64.424 545.256 66.648 545.256 69.8C545.256 72.984 547.224 75.224 550.008 75.224C552.776 75.224 554.744 72.984 554.744 69.8ZM548.232 69.832C548.232 68.008 548.936 66.808 550.008 66.808C551.064 66.808 551.784 68.008 551.784 69.832C551.784 71.64 551.064 72.84 550.008 72.84C548.936 72.84 548.232 71.64 548.232 69.832Z" fill="#1E2528"/>
<path d="M0 67H391C397.627 67 403 72.3726 403 79C403 85.6274 397.627 91 391 91H0V67Z" fill="#1E2528"/>
<path d="M361.432 73.648L358.136 74.928L358.904 77.024L361 76.304V81.648H358.504V84H365.96V81.648H363.8V73.648H361.432ZM367.896 82.144V84H376.136V81.584H371.576L373.224 80.256C374.76 79.056 375.752 78.032 375.752 76.48C375.752 74.672 374.104 73.424 371.96 73.424C369.768 73.424 368.344 74.72 367.704 76.272L369.72 77.136C370.024 76.336 370.696 75.728 371.496 75.728C372.216 75.728 372.792 76.16 372.792 76.816C372.792 77.456 372.36 77.92 371.064 79.152L367.896 82.144ZM386.744 78.8C386.744 75.648 384.776 73.424 382.008 73.424C379.224 73.424 377.256 75.648 377.256 78.8C377.256 81.984 379.224 84.224 382.008 84.224C384.776 84.224 386.744 81.984 386.744 78.8ZM380.232 78.832C380.232 77.008 380.936 75.808 382.008 75.808C383.064 75.808 383.784 77.008 383.784 78.832C383.784 80.64 383.064 81.84 382.008 81.84C380.936 81.84 380.232 80.64 380.232 78.832Z" fill="#F9F9F9"/>
<path d="M0 103H559C565.627 103 571 108.373 571 115C571 121.627 565.627 127 559 127H0V103Z" fill="url(#paint2_linear_160_155)"/>
<path d="M487.261 117.264L485.629 116.656C485.181 117.776 484.109 118.56 483.085 118.56C481.373 118.56 480.141 117.056 480.141 114.928C480.141 112.704 481.373 111.104 483.085 111.104C484.061 111.104 485.069 111.888 485.501 112.944L487.213 112.32C486.541 110.656 484.845 109.472 482.989 109.472C480.173 109.472 478.141 111.776 478.141 114.944C478.141 118.016 480.157 120.208 482.989 120.208C484.861 120.208 486.653 118.976 487.261 117.264ZM495.4 118.16L494.056 117.632C493.672 118.384 492.968 118.832 492.2 118.832C491.016 118.832 490.168 117.872 490.056 116.4H495.416C495.464 116.192 495.496 115.728 495.496 115.344C495.496 113.264 494.072 111.824 492.056 111.824C489.848 111.824 488.232 113.632 488.232 116.112C488.232 118.512 489.848 120.224 492.072 120.224C493.56 120.224 494.84 119.44 495.4 118.16ZM492.056 113.168C493.048 113.168 493.72 113.952 493.784 115.168H490.12C490.36 113.936 491.112 113.168 492.056 113.168ZM498.989 120V115.52C499.133 114.432 499.741 113.52 500.957 113.52C501.213 113.52 501.581 113.568 501.805 113.632L501.821 111.952C501.645 111.872 501.277 111.824 501.005 111.824C500.077 111.824 499.229 112.688 498.925 113.728V112.032H497.229V120H498.989ZM504.989 120V115.52C505.133 114.432 505.741 113.52 506.957 113.52C507.213 113.52 507.581 113.568 507.805 113.632L507.821 111.952C507.645 111.872 507.277 111.824 507.005 111.824C506.077 111.824 505.229 112.688 504.925 113.728V112.032H503.229V120H504.989ZM516.434 116.016C516.434 113.584 514.77 111.824 512.466 111.824C510.146 111.824 508.466 113.584 508.466 116.016C508.466 118.448 510.146 120.208 512.466 120.208C514.77 120.208 516.434 118.448 516.434 116.016ZM510.322 116.016C510.322 114.416 511.218 113.248 512.466 113.248C513.698 113.248 514.578 114.416 514.578 116.016C514.578 117.616 513.698 118.768 512.466 118.768C511.218 118.768 510.322 117.616 510.322 116.016Z" fill="#F9F9F9"/>
<path d="M529.432 109.648L526.136 110.928L526.904 113.024L529 112.304V117.648H526.504V120H533.96V117.648H531.8V109.648H529.432ZM540.056 120.016L543.944 111.728V109.648H536.008V112.128H540.968L537.096 120L540.056 120.016ZM554.744 114.8C554.744 111.648 552.776 109.424 550.008 109.424C547.224 109.424 545.256 111.648 545.256 114.8C545.256 117.984 547.224 120.224 550.008 120.224C552.776 120.224 554.744 117.984 554.744 114.8ZM548.232 114.832C548.232 113.008 548.936 111.808 550.008 111.808C551.064 111.808 551.784 113.008 551.784 114.832C551.784 116.64 551.064 117.84 550.008 117.84C548.936 117.84 548.232 116.64 548.232 114.832Z" fill="#1E2528"/>
<path d="M0 112H391C397.627 112 403 117.373 403 124C403 130.627 397.627 136 391 136H0V112Z" fill="#1E2528"/>
<path d="M361.432 118.648L358.136 119.928L358.904 122.024L361 121.304V126.648H358.504V129H365.96V126.648H363.8V118.648H361.432ZM367.896 127.144V129H376.136V126.584H371.576L373.224 125.256C374.76 124.056 375.752 123.032 375.752 121.48C375.752 119.672 374.104 118.424 371.96 118.424C369.768 118.424 368.344 119.72 367.704 121.272L369.72 122.136C370.024 121.336 370.696 120.728 371.496 120.728C372.216 120.728 372.792 121.16 372.792 121.816C372.792 122.456 372.36 122.92 371.064 124.152L367.896 127.144ZM386.744 123.8C386.744 120.648 384.776 118.424 382.008 118.424C379.224 118.424 377.256 120.648 377.256 123.8C377.256 126.984 379.224 129.224 382.008 129.224C384.776 129.224 386.744 126.984 386.744 123.8ZM380.232 123.832C380.232 122.008 380.936 120.808 382.008 120.808C383.064 120.808 383.784 122.008 383.784 123.832C383.784 125.64 383.064 126.84 382.008 126.84C380.936 126.84 380.232 125.64 380.232 123.832Z" fill="#F9F9F9"/>
<path d="M0 148H508C514.627 148 520 153.373 520 160C520 166.627 514.627 172 508 172H0V148Z" fill="url(#paint3_linear_160_155)"/>
<path d="M408.35 165C410.606 165 412.094 163.832 412.094 162.104C412.094 160.776 411.358 159.912 410.222 159.544C411.134 159.144 411.806 158.392 411.806 157.32C411.806 155.72 410.446 154.648 408.366 154.648H404.062V165H408.35ZM405.95 156.12H408.238C409.214 156.12 409.854 156.664 409.854 157.464C409.854 158.376 409.086 159.032 408.142 159.032H405.95V156.12ZM405.95 163.528V160.488H408.158C409.294 160.488 410.142 160.936 410.142 162.008C410.142 162.904 409.374 163.528 408.254 163.528H405.95ZM420.765 165.112L420.845 163.832C420.749 163.848 420.573 163.864 420.477 163.864C420.045 163.864 419.821 163.56 419.821 163.128V159.752C419.821 157.848 418.669 156.824 416.813 156.824C415.309 156.824 414.093 157.624 413.533 158.904L414.845 159.464C415.213 158.76 415.789 158.232 416.653 158.232C417.517 158.232 418.077 158.808 418.077 159.704V160.216L416.301 160.456C414.509 160.712 413.293 161.592 413.293 163.048C413.293 164.312 414.301 165.224 415.709 165.224C416.813 165.224 417.693 164.68 418.189 163.864C418.461 164.792 419.117 165.224 420.045 165.224C420.317 165.224 420.541 165.176 420.765 165.112ZM416.285 163.864C415.597 163.864 415.101 163.448 415.101 162.856C415.101 162.136 415.757 161.704 416.669 161.592L418.077 161.4V162.824C417.693 163.432 417.037 163.864 416.285 163.864ZM429.399 165.432C429.399 164.264 428.519 163.624 426.679 163.464L425.511 163.384C424.423 163.288 424.007 163.128 424.007 162.904C424.007 162.744 424.135 162.504 424.279 162.328C424.567 162.392 424.871 162.424 425.174 162.424C426.999 162.424 428.439 161.336 428.439 159.736C428.439 159.224 428.295 158.744 428.023 158.328C428.455 158.136 429.111 157.96 429.703 157.96V156.504C428.711 156.504 427.943 157 427.479 157.688C426.887 157.16 426.039 156.824 425.062 156.824C423.191 156.824 421.735 158.024 421.735 159.64C421.735 160.76 422.439 161.608 423.431 162.056C422.887 162.44 422.423 163 422.423 163.384C422.423 163.72 422.663 164.024 423.079 164.248C422.103 164.648 421.383 165.32 421.383 166.04C421.383 167.32 422.903 168.072 425.174 168.072C427.799 168.072 429.399 166.984 429.399 165.432ZM425.271 166.856C423.879 166.856 423.079 166.376 423.079 165.752C423.079 165.288 423.495 164.856 424.055 164.6C424.375 164.68 424.743 164.744 425.127 164.776L426.263 164.872C427.399 164.968 427.703 165.224 427.703 165.72C427.703 166.376 426.759 166.856 425.271 166.856ZM423.463 159.656C423.463 158.744 424.167 158.056 425.079 158.056C426.007 158.056 426.743 158.728 426.743 159.656C426.743 160.568 426.023 161.192 425.095 161.192C424.167 161.192 423.463 160.568 423.463 159.656ZM438.247 161.016C438.247 158.584 436.583 156.824 434.279 156.824C431.959 156.824 430.279 158.584 430.279 161.016C430.279 163.448 431.959 165.208 434.279 165.208C436.583 165.208 438.247 163.448 438.247 161.016ZM432.135 161.016C432.135 159.416 433.031 158.248 434.279 158.248C435.511 158.248 436.391 159.416 436.391 161.016C436.391 162.616 435.511 163.768 434.279 163.768C433.031 163.768 432.135 162.616 432.135 161.016ZM441.693 153.784H439.933V165H441.693V153.784ZM450.812 165.112L450.892 163.832C450.796 163.848 450.62 163.864 450.524 163.864C450.092 163.864 449.868 163.56 449.868 163.128V159.752C449.868 157.848 448.716 156.824 446.86 156.824C445.356 156.824 444.14 157.624 443.58 158.904L444.892 159.464C445.26 158.76 445.836 158.232 446.7 158.232C447.564 158.232 448.124 158.808 448.124 159.704V160.216L446.348 160.456C444.556 160.712 443.34 161.592 443.34 163.048C443.34 164.312 444.348 165.224 445.756 165.224C446.86 165.224 447.74 164.68 448.236 163.864C448.508 164.792 449.164 165.224 450.092 165.224C450.364 165.224 450.588 165.176 450.812 165.112ZM446.332 163.864C445.644 163.864 445.148 163.448 445.148 162.856C445.148 162.136 445.804 161.704 446.716 161.592L448.124 161.4V162.824C447.74 163.432 447.084 163.864 446.332 163.864ZM453.989 165V160.52C454.133 159.432 454.741 158.52 455.957 158.52C456.213 158.52 456.581 158.568 456.805 158.632L456.821 156.952C456.645 156.872 456.277 156.824 456.005 156.824C455.077 156.824 454.229 157.688 453.925 158.728V157.032H452.229V165H453.989ZM465.434 161.016C465.434 158.584 463.77 156.824 461.466 156.824C459.146 156.824 457.466 158.584 457.466 161.016C457.466 163.448 459.146 165.208 461.466 165.208C463.77 165.208 465.434 163.448 465.434 161.016ZM459.322 161.016C459.322 159.416 460.218 158.248 461.466 158.248C462.698 158.248 463.578 159.416 463.578 161.016C463.578 162.616 462.698 163.768 461.466 163.768C460.218 163.768 459.322 162.616 459.322 161.016Z" fill="#F9F9F9"/>
<path d="M478.432 154.648L475.136 155.928L475.904 158.024L478 157.304V162.648H475.504V165H482.96V162.648H480.8V154.648H478.432ZM493.408 161.592C493.408 159.56 491.744 158.168 489.552 158.168C488.592 158.168 487.792 158.44 487.264 158.776L487.36 157.08H492.944V154.648H485.36L485.056 160.584L486.784 161C487.312 160.616 487.984 160.392 488.688 160.392C489.808 160.392 490.432 160.904 490.432 161.656C490.432 162.456 489.728 162.936 488.72 162.936C487.76 162.936 486.896 162.504 486.448 161.768L484.4 162.808C485.328 164.392 486.992 165.24 488.944 165.24C491.552 165.24 493.408 163.72 493.408 161.592ZM503.408 161.592C503.408 159.56 501.744 158.168 499.552 158.168C498.592 158.168 497.792 158.44 497.264 158.776L497.36 157.08H502.944V154.648H495.36L495.056 160.584L496.784 161C497.312 160.616 497.984 160.392 498.688 160.392C499.808 160.392 500.432 160.904 500.432 161.656C500.432 162.456 499.728 162.936 498.72 162.936C497.76 162.936 496.896 162.504 496.448 161.768L494.4 162.808C495.328 164.392 496.992 165.24 498.944 165.24C501.552 165.24 503.408 163.72 503.408 161.592Z" fill="#1E2528"/>
<path d="M0 156H334C340.627 156 346 161.373 346 168C346 174.627 340.627 180 334 180H0V156Z" fill="#1E2528"/>
<path d="M304.432 162.648L301.136 163.928L301.904 166.024L304 165.304V170.648H301.504V173H308.96V170.648H306.8V162.648H304.432ZM319.744 167.8C319.744 164.648 317.776 162.424 315.008 162.424C312.224 162.424 310.256 164.648 310.256 167.8C310.256 170.984 312.224 173.224 315.008 173.224C317.776 173.224 319.744 170.984 319.744 167.8ZM313.232 167.832C313.232 166.008 313.936 164.808 315.008 164.808C316.064 164.808 316.784 166.008 316.784 167.832C316.784 169.64 316.064 170.84 315.008 170.84C313.936 170.84 313.232 169.64 313.232 167.832ZM327.104 167.512V167.432C328.368 167.112 329.104 166.216 329.104 165.176C329.104 163.576 327.36 162.424 325.056 162.424C322.816 162.424 321.264 163.576 320.528 165.064L322.528 165.96C322.96 165.192 323.632 164.712 324.624 164.712C325.536 164.712 326.128 165.16 326.128 165.752C326.128 166.344 325.504 166.792 324.496 166.808H323.072V168.744L324.688 168.728C325.744 168.728 326.432 169.08 326.432 169.784C326.432 170.488 325.744 170.936 324.688 170.936C323.584 170.936 322.752 170.456 322.352 169.672L320.32 170.648C321.248 172.296 322.896 173.224 324.992 173.224C327.504 173.224 329.408 171.88 329.408 170.04C329.408 168.76 328.496 167.8 327.104 167.512Z" fill="#F9F9F9"/>
<path d="M0 192H508C514.627 192 520 197.373 520 204C520 210.627 514.627 216 508 216H0V192Z" fill="url(#paint4_linear_160_155)"/>
<path d="M368.574 206.264L366.942 205.656C366.494 206.776 365.422 207.56 364.398 207.56C362.686 207.56 361.454 206.056 361.454 203.928C361.454 201.704 362.686 200.104 364.398 200.104C365.374 200.104 366.382 200.888 366.814 201.944L368.526 201.32C367.854 199.656 366.158 198.472 364.302 198.472C361.486 198.472 359.454 200.776 359.454 203.944C359.454 207.016 361.47 209.208 364.302 209.208C366.174 209.208 367.966 207.976 368.574 206.264ZM376.953 209.112L377.033 207.832C376.937 207.848 376.761 207.864 376.665 207.864C376.233 207.864 376.009 207.56 376.009 207.128V203.752C376.009 201.848 374.857 200.824 373.001 200.824C371.497 200.824 370.281 201.624 369.721 202.904L371.033 203.464C371.401 202.76 371.977 202.232 372.841 202.232C373.705 202.232 374.265 202.808 374.265 203.704V204.216L372.489 204.456C370.697 204.712 369.481 205.592 369.481 207.048C369.481 208.312 370.489 209.224 371.897 209.224C373.001 209.224 373.881 208.68 374.377 207.864C374.649 208.792 375.305 209.224 376.233 209.224C376.505 209.224 376.729 209.176 376.953 209.112ZM372.473 207.864C371.785 207.864 371.289 207.448 371.289 206.856C371.289 206.136 371.945 205.704 372.857 205.592L374.265 205.4V206.824C373.881 207.432 373.225 207.864 372.473 207.864ZM380.13 209V204.52C380.274 203.432 380.882 202.52 382.098 202.52C382.354 202.52 382.722 202.568 382.946 202.632L382.962 200.952C382.786 200.872 382.418 200.824 382.146 200.824C381.218 200.824 380.37 201.688 380.066 202.728V201.032H378.37V209H380.13ZM387.938 207.784C387.282 207.784 386.578 207.464 386.13 206.968V203.288C386.514 202.744 387.202 202.232 388.002 202.232C389.202 202.232 390.082 203.336 390.082 204.984C390.082 206.632 389.202 207.784 387.938 207.784ZM391.938 204.984C391.938 202.552 390.418 200.824 388.546 200.824C387.378 200.824 386.498 201.496 386.082 202.184V201.032H384.37V211.848H386.13V208.184C386.626 208.808 387.49 209.208 388.434 209.208C390.402 209.208 391.938 207.432 391.938 204.984ZM395.396 201.032H393.636V209H395.396V201.032ZM395.396 197.928H393.636V199.672H395.396V197.928ZM404.627 209V203.784C404.627 202.056 403.443 200.824 401.907 200.824C400.803 200.824 399.875 201.448 399.347 202.2V201.032H397.651V209H399.411V203.288C399.843 202.728 400.595 202.28 401.379 202.28C402.243 202.28 402.867 202.92 402.867 203.912V209H404.627ZM414.184 205.016C414.184 202.584 412.52 200.824 410.216 200.824C407.896 200.824 406.216 202.584 406.216 205.016C406.216 207.448 407.896 209.208 410.216 209.208C412.52 209.208 414.184 207.448 414.184 205.016ZM408.072 205.016C408.072 203.416 408.968 202.248 410.216 202.248C411.448 202.248 412.328 203.416 412.328 205.016C412.328 206.616 411.448 207.768 410.216 207.768C408.968 207.768 408.072 206.616 408.072 205.016ZM426.922 205C426.922 202.568 425.514 200.824 423.562 200.824C422.666 200.824 421.706 201.32 421.114 202.056V197.784H419.354V209H421.018V208.024C421.578 208.712 422.57 209.224 423.45 209.224C425.466 209.224 426.922 207.448 426.922 205ZM422.938 207.784C422.202 207.784 421.514 207.432 421.114 206.904V203.176C421.514 202.632 422.234 202.264 423.002 202.264C424.202 202.264 425.066 203.384 425.066 204.968C425.066 206.6 424.17 207.784 422.938 207.784ZM430.396 201.032H428.636V209H430.396V201.032ZM430.396 197.928H428.636V199.672H430.396V197.928ZM439.515 209.112L439.595 207.832C439.499 207.848 439.323 207.864 439.227 207.864C438.795 207.864 438.571 207.56 438.571 207.128V203.752C438.571 201.848 437.419 200.824 435.563 200.824C434.059 200.824 432.843 201.624 432.283 202.904L433.595 203.464C433.963 202.76 434.539 202.232 435.403 202.232C436.267 202.232 436.827 202.808 436.827 203.704V204.216L435.051 204.456C433.259 204.712 432.043 205.592 432.043 207.048C432.043 208.312 433.051 209.224 434.459 209.224C435.563 209.224 436.443 208.68 436.939 207.864C437.211 208.792 437.867 209.224 438.795 209.224C439.067 209.224 439.291 209.176 439.515 209.112ZM435.035 207.864C434.347 207.864 433.851 207.448 433.851 206.856C433.851 206.136 434.507 205.704 435.419 205.592L436.827 205.4V206.824C436.443 207.432 435.787 207.864 435.035 207.864ZM447.909 209V203.784C447.909 202.056 446.725 200.824 445.189 200.824C444.085 200.824 443.157 201.448 442.629 202.2V201.032H440.933V209H442.693V203.288C443.125 202.728 443.877 202.28 444.661 202.28C445.525 202.28 446.149 202.92 446.149 203.912V209H447.909ZM456.57 206.968L455.066 206.408C454.73 207.208 454.154 207.736 453.354 207.736C452.202 207.736 451.386 206.616 451.386 205.064C451.386 203.448 452.186 202.296 453.306 202.296C454.042 202.296 454.65 202.744 454.986 203.592L456.506 203C455.93 201.672 454.81 200.824 453.226 200.824C451.066 200.824 449.514 202.6 449.514 205.08C449.514 207.48 451.082 209.224 453.242 209.224C454.826 209.224 456.026 208.264 456.57 206.968ZM465.434 205.016C465.434 202.584 463.77 200.824 461.466 200.824C459.146 200.824 457.466 202.584 457.466 205.016C457.466 207.448 459.146 209.208 461.466 209.208C463.77 209.208 465.434 207.448 465.434 205.016ZM459.322 205.016C459.322 203.416 460.218 202.248 461.466 202.248C462.698 202.248 463.578 203.416 463.578 205.016C463.578 206.616 462.698 207.768 461.466 207.768C460.218 207.768 459.322 206.616 459.322 205.016Z" fill="#F9F9F9"/>
<path d="M478.432 198.648L475.136 199.928L475.904 202.024L478 201.304V206.648H475.504V209H482.96V206.648H480.8V198.648H478.432ZM493.408 205.592C493.408 203.56 491.744 202.168 489.552 202.168C488.592 202.168 487.792 202.44 487.264 202.776L487.36 201.08H492.944V198.648H485.36L485.056 204.584L486.784 205C487.312 204.616 487.984 204.392 488.688 204.392C489.808 204.392 490.432 204.904 490.432 205.656C490.432 206.456 489.728 206.936 488.72 206.936C487.76 206.936 486.896 206.504 486.448 205.768L484.4 206.808C485.328 208.392 486.992 209.24 488.944 209.24C491.552 209.24 493.408 207.72 493.408 205.592ZM503.408 205.592C503.408 203.56 501.744 202.168 499.552 202.168C498.592 202.168 497.792 202.44 497.264 202.776L497.36 201.08H502.944V198.648H495.36L495.056 204.584L496.784 205C497.312 204.616 497.984 204.392 498.688 204.392C499.808 204.392 500.432 204.904 500.432 205.656C500.432 206.456 499.728 206.936 498.72 206.936C497.76 206.936 496.896 206.504 496.448 205.768L494.4 206.808C495.328 208.392 496.992 209.24 498.944 209.24C501.552 209.24 503.408 207.72 503.408 205.592Z" fill="#1E2528"/>
<path d="M0 200H334C340.627 200 346 205.373 346 212C346 218.627 340.627 224 334 224H0V200Z" fill="#1E2528"/>
<path d="M304.432 206.648L301.136 207.928L301.904 210.024L304 209.304V214.648H301.504V217H308.96V214.648H306.8V206.648H304.432ZM319.744 211.8C319.744 208.648 317.776 206.424 315.008 206.424C312.224 206.424 310.256 208.648 310.256 211.8C310.256 214.984 312.224 217.224 315.008 217.224C317.776 217.224 319.744 214.984 319.744 211.8ZM313.232 211.832C313.232 210.008 313.936 208.808 315.008 208.808C316.064 208.808 316.784 210.008 316.784 211.832C316.784 213.64 316.064 214.84 315.008 214.84C313.936 214.84 313.232 213.64 313.232 211.832ZM327.104 211.512V211.432C328.368 211.112 329.104 210.216 329.104 209.176C329.104 207.576 327.36 206.424 325.056 206.424C322.816 206.424 321.264 207.576 320.528 209.064L322.528 209.96C322.96 209.192 323.632 208.712 324.624 208.712C325.536 208.712 326.128 209.16 326.128 209.752C326.128 210.344 325.504 210.792 324.496 210.808H323.072V212.744L324.688 212.728C325.744 212.728 326.432 213.08 326.432 213.784C326.432 214.488 325.744 214.936 324.688 214.936C323.584 214.936 322.752 214.456 322.352 213.672L320.32 214.648C321.248 216.296 322.896 217.224 324.992 217.224C327.504 217.224 329.408 215.88 329.408 214.04C329.408 212.76 328.496 211.8 327.104 211.512Z" fill="#F9F9F9"/>
<path d="M0 236H508C514.627 236 520 241.373 520 248C520 254.627 514.627 260 508 260H0V236Z" fill="url(#paint5_linear_160_155)"/>
<path d="M412.53 248.84V247.288H408.45V244.232H413.634V242.648H406.562V253H408.45V248.84H412.53ZM416.505 253V248.52C416.649 247.432 417.257 246.52 418.473 246.52C418.729 246.52 419.097 246.568 419.321 246.632L419.337 244.952C419.161 244.872 418.793 244.824 418.521 244.824C417.593 244.824 416.745 245.688 416.441 246.728V245.032H414.745V253H416.505ZM427.437 253.112L427.517 251.832C427.421 251.848 427.245 251.864 427.149 251.864C426.717 251.864 426.493 251.56 426.493 251.128V247.752C426.493 245.848 425.341 244.824 423.485 244.824C421.981 244.824 420.765 245.624 420.205 246.904L421.517 247.464C421.885 246.76 422.461 246.232 423.325 246.232C424.189 246.232 424.749 246.808 424.749 247.704V248.216L422.973 248.456C421.181 248.712 419.965 249.592 419.965 251.048C419.965 252.312 420.973 253.224 422.381 253.224C423.485 253.224 424.365 252.68 424.861 251.864C425.133 252.792 425.789 253.224 426.717 253.224C426.989 253.224 427.213 253.176 427.437 253.112ZM422.957 251.864C422.269 251.864 421.773 251.448 421.773 250.856C421.773 250.136 422.429 249.704 423.341 249.592L424.749 249.4V250.824C424.365 251.432 423.709 251.864 422.957 251.864ZM435.206 250.76C435.206 249.272 433.942 248.632 432.118 248.216C430.854 247.928 430.134 247.736 430.134 247.112C430.134 246.536 430.774 246.152 431.718 246.152C432.758 246.152 433.462 246.584 433.846 247.288L435.158 246.744C434.646 245.752 433.622 244.824 431.734 244.824C429.798 244.824 428.47 245.832 428.47 247.256C428.47 248.664 429.814 249.32 431.462 249.688C432.742 249.96 433.542 250.2 433.542 250.872C433.542 251.496 432.95 251.896 431.942 251.896C430.726 251.896 429.878 251.352 429.462 250.632L428.118 251.176C428.662 252.392 430.006 253.224 431.878 253.224C433.942 253.224 435.206 252.232 435.206 250.76ZM443.222 250.76C443.222 249.272 441.958 248.632 440.134 248.216C438.87 247.928 438.15 247.736 438.15 247.112C438.15 246.536 438.79 246.152 439.734 246.152C440.774 246.152 441.478 246.584 441.862 247.288L443.174 246.744C442.662 245.752 441.638 244.824 439.75 244.824C437.814 244.824 436.486 245.832 436.486 247.256C436.486 248.664 437.83 249.32 439.478 249.688C440.758 249.96 441.558 250.2 441.558 250.872C441.558 251.496 440.966 251.896 439.958 251.896C438.742 251.896 437.894 251.352 437.478 250.632L436.134 251.176C436.678 252.392 438.022 253.224 439.894 253.224C441.958 253.224 443.222 252.232 443.222 250.76ZM446.646 245.032H444.886V253H446.646V245.032ZM446.646 241.928H444.886V243.672H446.646V241.928ZM455.877 253V247.784C455.877 246.056 454.693 244.824 453.157 244.824C452.053 244.824 451.125 245.448 450.597 246.2V245.032H448.901V253H450.661V247.288C451.093 246.728 451.845 246.28 452.629 246.28C453.493 246.28 454.117 246.92 454.117 247.912V253H455.877ZM465.434 249.016C465.434 246.584 463.77 244.824 461.466 244.824C459.146 244.824 457.466 246.584 457.466 249.016C457.466 251.448 459.146 253.208 461.466 253.208C463.77 253.208 465.434 251.448 465.434 249.016ZM459.322 249.016C459.322 247.416 460.218 246.248 461.466 246.248C462.698 246.248 463.578 247.416 463.578 249.016C463.578 250.616 462.698 251.768 461.466 251.768C460.218 251.768 459.322 250.616 459.322 249.016Z" fill="#F9F9F9"/>
<path d="M478.432 242.648L475.136 243.928L475.904 246.024L478 245.304V250.648H475.504V253H482.96V250.648H480.8V242.648H478.432ZM493.408 249.592C493.408 247.56 491.744 246.168 489.552 246.168C488.592 246.168 487.792 246.44 487.264 246.776L487.36 245.08H492.944V242.648H485.36L485.056 248.584L486.784 249C487.312 248.616 487.984 248.392 488.688 248.392C489.808 248.392 490.432 248.904 490.432 249.656C490.432 250.456 489.728 250.936 488.72 250.936C487.76 250.936 486.896 250.504 486.448 249.768L484.4 250.808C485.328 252.392 486.992 253.24 488.944 253.24C491.552 253.24 493.408 251.72 493.408 249.592ZM503.408 249.592C503.408 247.56 501.744 246.168 499.552 246.168C498.592 246.168 497.792 246.44 497.264 246.776L497.36 245.08H502.944V242.648H495.36L495.056 248.584L496.784 249C497.312 248.616 497.984 248.392 498.688 248.392C499.808 248.392 500.432 248.904 500.432 249.656C500.432 250.456 499.728 250.936 498.72 250.936C497.76 250.936 496.896 250.504 496.448 249.768L494.4 250.808C495.328 252.392 496.992 253.24 498.944 253.24C501.552 253.24 503.408 251.72 503.408 249.592Z" fill="#1E2528"/>
<path d="M0 244H334C340.627 244 346 249.373 346 256C346 262.627 340.627 268 334 268H0V244Z" fill="#1E2528"/>
<path d="M304.432 250.648L301.136 251.928L301.904 254.024L304 253.304V258.648H301.504V261H308.96V258.648H306.8V250.648H304.432ZM319.744 255.8C319.744 252.648 317.776 250.424 315.008 250.424C312.224 250.424 310.256 252.648 310.256 255.8C310.256 258.984 312.224 261.224 315.008 261.224C317.776 261.224 319.744 258.984 319.744 255.8ZM313.232 255.832C313.232 254.008 313.936 252.808 315.008 252.808C316.064 252.808 316.784 254.008 316.784 255.832C316.784 257.64 316.064 258.84 315.008 258.84C313.936 258.84 313.232 257.64 313.232 255.832ZM327.104 255.512V255.432C328.368 255.112 329.104 254.216 329.104 253.176C329.104 251.576 327.36 250.424 325.056 250.424C322.816 250.424 321.264 251.576 320.528 253.064L322.528 253.96C322.96 253.192 323.632 252.712 324.624 252.712C325.536 252.712 326.128 253.16 326.128 253.752C326.128 254.344 325.504 254.792 324.496 254.808H323.072V256.744L324.688 256.728C325.744 256.728 326.432 257.08 326.432 257.784C326.432 258.488 325.744 258.936 324.688 258.936C323.584 258.936 322.752 258.456 322.352 257.672L320.32 258.648C321.248 260.296 322.896 261.224 324.992 261.224C327.504 261.224 329.408 259.88 329.408 258.04C329.408 256.76 328.496 255.8 327.104 255.512Z" fill="#F9F9F9"/>
<path d="M0 280H508C514.627 280 520 285.373 520 292C520 298.627 514.627 304 508 304H0V280Z" fill="url(#paint6_linear_160_155)"/>
<path d="M426.054 297V291.592H422.294V293.08H424.278V294.12C424.038 294.824 422.902 295.592 421.574 295.592C419.75 295.592 418.422 294.072 418.422 291.944C418.422 289.704 419.75 288.104 421.574 288.104C422.694 288.104 423.814 288.872 424.262 289.944L425.91 289.336C425.286 287.672 423.43 286.472 421.526 286.472C418.55 286.472 416.406 288.776 416.422 291.96C416.438 295 418.502 297.208 421.334 297.208C422.79 297.208 423.942 296.584 424.486 295.768L424.582 297H426.054ZM429.786 289.032H428.026V297H429.786V289.032ZM429.786 285.928H428.026V287.672H429.786V285.928ZM439.018 297V291.784C439.018 290.056 437.834 288.824 436.298 288.824C435.194 288.824 434.266 289.448 433.738 290.2V289.032H432.042V297H433.802V291.288C434.234 290.728 434.986 290.28 435.77 290.28C436.634 290.28 437.258 290.92 437.258 291.912V297H439.018ZM448.383 297.432C448.383 296.264 447.503 295.624 445.663 295.464L444.495 295.384C443.407 295.288 442.991 295.128 442.991 294.904C442.991 294.744 443.119 294.504 443.263 294.328C443.551 294.392 443.855 294.424 444.159 294.424C445.983 294.424 447.423 293.336 447.423 291.736C447.423 291.224 447.279 290.744 447.007 290.328C447.439 290.136 448.095 289.96 448.687 289.96V288.504C447.695 288.504 446.927 289 446.463 289.688C445.871 289.16 445.023 288.824 444.047 288.824C442.175 288.824 440.719 290.024 440.719 291.64C440.719 292.76 441.423 293.608 442.415 294.056C441.871 294.44 441.407 295 441.407 295.384C441.407 295.72 441.647 296.024 442.063 296.248C441.087 296.648 440.367 297.32 440.367 298.04C440.367 299.32 441.887 300.072 444.159 300.072C446.783 300.072 448.383 298.984 448.383 297.432ZM444.255 298.856C442.863 298.856 442.063 298.376 442.063 297.752C442.063 297.288 442.479 296.856 443.039 296.6C443.359 296.68 443.727 296.744 444.111 296.776L445.247 296.872C446.383 296.968 446.687 297.224 446.687 297.72C446.687 298.376 445.743 298.856 444.255 298.856ZM442.447 291.656C442.447 290.744 443.151 290.056 444.063 290.056C444.991 290.056 445.727 290.728 445.727 291.656C445.727 292.568 445.007 293.192 444.079 293.192C443.151 293.192 442.447 292.568 442.447 291.656ZM451.802 297V294.76L452.794 293.672L455.114 297H457.226L453.914 292.472L457.05 289.032H454.922L451.802 292.6V285.784H450.042V297H451.802ZM465.434 293.016C465.434 290.584 463.77 288.824 461.466 288.824C459.146 288.824 457.466 290.584 457.466 293.016C457.466 295.448 459.146 297.208 461.466 297.208C463.77 297.208 465.434 295.448 465.434 293.016ZM459.322 293.016C459.322 291.416 460.218 290.248 461.466 290.248C462.698 290.248 463.578 291.416 463.578 293.016C463.578 294.616 462.698 295.768 461.466 295.768C460.218 295.768 459.322 294.616 459.322 293.016Z" fill="#F9F9F9"/>
<path d="M478.432 286.648L475.136 287.928L475.904 290.024L478 289.304V294.648H475.504V297H482.96V294.648H480.8V286.648H478.432ZM493.408 293.592C493.408 291.56 491.744 290.168 489.552 290.168C488.592 290.168 487.792 290.44 487.264 290.776L487.36 289.08H492.944V286.648H485.36L485.056 292.584L486.784 293C487.312 292.616 487.984 292.392 488.688 292.392C489.808 292.392 490.432 292.904 490.432 293.656C490.432 294.456 489.728 294.936 488.72 294.936C487.76 294.936 486.896 294.504 486.448 293.768L484.4 294.808C485.328 296.392 486.992 297.24 488.944 297.24C491.552 297.24 493.408 295.72 493.408 293.592ZM503.408 293.592C503.408 291.56 501.744 290.168 499.552 290.168C498.592 290.168 497.792 290.44 497.264 290.776L497.36 289.08H502.944V286.648H495.36L495.056 292.584L496.784 293C497.312 292.616 497.984 292.392 498.688 292.392C499.808 292.392 500.432 292.904 500.432 293.656C500.432 294.456 499.728 294.936 498.72 294.936C497.76 294.936 496.896 294.504 496.448 293.768L494.4 294.808C495.328 296.392 496.992 297.24 498.944 297.24C501.552 297.24 503.408 295.72 503.408 293.592Z" fill="#1E2528"/>
<path d="M0 288H334C340.627 288 346 293.373 346 300C346 306.627 340.627 312 334 312H0V288Z" fill="#1E2528"/>
<path d="M304.432 294.648L301.136 295.928L301.904 298.024L304 297.304V302.648H301.504V305H308.96V302.648H306.8V294.648H304.432ZM319.744 299.8C319.744 296.648 317.776 294.424 315.008 294.424C312.224 294.424 310.256 296.648 310.256 299.8C310.256 302.984 312.224 305.224 315.008 305.224C317.776 305.224 319.744 302.984 319.744 299.8ZM313.232 299.832C313.232 298.008 313.936 296.808 315.008 296.808C316.064 296.808 316.784 298.008 316.784 299.832C316.784 301.64 316.064 302.84 315.008 302.84C313.936 302.84 313.232 301.64 313.232 299.832ZM327.104 299.512V299.432C328.368 299.112 329.104 298.216 329.104 297.176C329.104 295.576 327.36 294.424 325.056 294.424C322.816 294.424 321.264 295.576 320.528 297.064L322.528 297.96C322.96 297.192 323.632 296.712 324.624 296.712C325.536 296.712 326.128 297.16 326.128 297.752C326.128 298.344 325.504 298.792 324.496 298.808H323.072V300.744L324.688 300.728C325.744 300.728 326.432 301.08 326.432 301.784C326.432 302.488 325.744 302.936 324.688 302.936C323.584 302.936 322.752 302.456 322.352 301.672L320.32 302.648C321.248 304.296 322.896 305.224 324.992 305.224C327.504 305.224 329.408 303.88 329.408 302.04C329.408 300.76 328.496 299.8 327.104 299.512Z" fill="#F9F9F9"/>
<path d="M0 324H508C514.627 324 520 329.373 520 336C520 342.627 514.627 348 508 348H0V324Z" fill="url(#paint7_linear_160_155)"/>
<path d="M358.405 330.648V341H365.397V339.384H360.293V330.648H358.405ZM368.568 333.032H366.808V341H368.568V333.032ZM368.568 329.928H366.808V331.672H368.568V329.928ZM372.583 341V336.52C372.727 335.432 373.335 334.52 374.551 334.52C374.807 334.52 375.175 334.568 375.399 334.632L375.415 332.952C375.239 332.872 374.871 332.824 374.599 332.824C373.671 332.824 372.823 333.688 372.519 334.728V333.032H370.823V341H372.583ZM378.583 333.032H376.823V341H378.583V333.032ZM378.583 329.928H376.823V331.672H378.583V329.928ZM388.247 337.016C388.247 334.584 386.583 332.824 384.279 332.824C381.959 332.824 380.279 334.584 380.279 337.016C380.279 339.448 381.959 341.208 384.279 341.208C386.583 341.208 388.247 339.448 388.247 337.016ZM382.135 337.016C382.135 335.416 383.031 334.248 384.279 334.248C385.511 334.248 386.391 335.416 386.391 337.016C386.391 338.616 385.511 339.768 384.279 339.768C383.031 339.768 382.135 338.616 382.135 337.016ZM393.293 339.784C392.109 339.784 391.261 338.648 391.261 337.048C391.261 335.432 392.157 334.264 393.389 334.264C394.109 334.264 394.797 334.584 395.181 335.064V338.824C394.749 339.4 394.029 339.784 393.293 339.784ZM396.941 341V329.784H395.181V333.864C394.653 333.24 393.773 332.824 392.924 332.824C390.877 332.824 389.405 334.6 389.405 337.08C389.405 339.48 390.829 341.224 392.812 341.224C393.693 341.224 394.701 340.664 395.277 339.896V341H396.941ZM405.822 339.16L404.478 338.632C404.094 339.384 403.39 339.832 402.622 339.832C401.438 339.832 400.59 338.872 400.478 337.4H405.838C405.886 337.192 405.918 336.728 405.918 336.344C405.918 334.264 404.494 332.824 402.478 332.824C400.27 332.824 398.654 334.632 398.654 337.112C398.654 339.512 400.27 341.224 402.494 341.224C403.982 341.224 405.262 340.44 405.822 339.16ZM402.478 334.168C403.47 334.168 404.142 334.952 404.206 336.168H400.542C400.782 334.936 401.534 334.168 402.478 334.168ZM414.627 341V335.784C414.627 334.056 413.443 332.824 411.907 332.824C410.803 332.824 409.875 333.448 409.347 334.2V333.032H407.651V341H409.411V335.288C409.843 334.728 410.595 334.28 411.379 334.28C412.243 334.28 412.867 334.92 412.867 335.912V341H414.627ZM420.136 339.784C418.952 339.784 418.104 338.648 418.104 337.048C418.104 335.432 419 334.264 420.232 334.264C420.952 334.264 421.64 334.584 422.024 335.064V338.824C421.592 339.4 420.872 339.784 420.136 339.784ZM423.784 341V329.784H422.024V333.864C421.496 333.24 420.616 332.824 419.768 332.824C417.72 332.824 416.248 334.6 416.248 337.08C416.248 339.48 417.672 341.224 419.656 341.224C420.536 341.224 421.544 340.664 422.12 339.896V341H423.784ZM427.802 341V336.52C427.946 335.432 428.554 334.52 429.77 334.52C430.026 334.52 430.394 334.568 430.618 334.632L430.634 332.952C430.458 332.872 430.09 332.824 429.818 332.824C428.89 332.824 428.042 333.688 427.738 334.728V333.032H426.042V341H427.802ZM439.247 337.016C439.247 334.584 437.583 332.824 435.279 332.824C432.959 332.824 431.279 334.584 431.279 337.016C431.279 339.448 432.959 341.208 435.279 341.208C437.583 341.208 439.247 339.448 439.247 337.016ZM433.135 337.016C433.135 335.416 434.031 334.248 435.279 334.248C436.511 334.248 437.391 335.416 437.391 337.016C437.391 338.616 436.511 339.768 435.279 339.768C434.031 339.768 433.135 338.616 433.135 337.016ZM447.909 341V335.784C447.909 334.056 446.725 332.824 445.189 332.824C444.085 332.824 443.157 333.448 442.629 334.2V333.032H440.933V341H442.693V335.288C443.125 334.728 443.877 334.28 444.661 334.28C445.525 334.28 446.149 334.92 446.149 335.912V341H447.909ZM456.57 338.968L455.066 338.408C454.73 339.208 454.154 339.736 453.354 339.736C452.202 339.736 451.386 338.616 451.386 337.064C451.386 335.448 452.186 334.296 453.306 334.296C454.042 334.296 454.65 334.744 454.986 335.592L456.506 335C455.93 333.672 454.81 332.824 453.226 332.824C451.066 332.824 449.514 334.6 449.514 337.08C449.514 339.48 451.082 341.224 453.242 341.224C454.826 341.224 456.026 340.264 456.57 338.968ZM465.434 337.016C465.434 334.584 463.77 332.824 461.466 332.824C459.146 332.824 457.466 334.584 457.466 337.016C457.466 339.448 459.146 341.208 461.466 341.208C463.77 341.208 465.434 339.448 465.434 337.016ZM459.322 337.016C459.322 335.416 460.218 334.248 461.466 334.248C462.698 334.248 463.578 335.416 463.578 337.016C463.578 338.616 462.698 339.768 461.466 339.768C460.218 339.768 459.322 338.616 459.322 337.016Z" fill="#F9F9F9"/>
<path d="M478.432 330.648L475.136 331.928L475.904 334.024L478 333.304V338.648H475.504V341H482.96V338.648H480.8V330.648H478.432ZM493.408 337.592C493.408 335.56 491.744 334.168 489.552 334.168C488.592 334.168 487.792 334.44 487.264 334.776L487.36 333.08H492.944V330.648H485.36L485.056 336.584L486.784 337C487.312 336.616 487.984 336.392 488.688 336.392C489.808 336.392 490.432 336.904 490.432 337.656C490.432 338.456 489.728 338.936 488.72 338.936C487.76 338.936 486.896 338.504 486.448 337.768L484.4 338.808C485.328 340.392 486.992 341.24 488.944 341.24C491.552 341.24 493.408 339.72 493.408 337.592ZM503.408 337.592C503.408 335.56 501.744 334.168 499.552 334.168C498.592 334.168 497.792 334.44 497.264 334.776L497.36 333.08H502.944V330.648H495.36L495.056 336.584L496.784 337C497.312 336.616 497.984 336.392 498.688 336.392C499.808 336.392 500.432 336.904 500.432 337.656C500.432 338.456 499.728 338.936 498.72 338.936C497.76 338.936 496.896 338.504 496.448 337.768L494.4 338.808C495.328 340.392 496.992 341.24 498.944 341.24C501.552 341.24 503.408 339.72 503.408 337.592Z" fill="#1E2528"/>
<path d="M0 332H334C340.627 332 346 337.373 346 344C346 350.627 340.627 356 334 356H0V332Z" fill="#1E2528"/>
<path d="M304.432 338.648L301.136 339.928L301.904 342.024L304 341.304V346.648H301.504V349H308.96V346.648H306.8V338.648H304.432ZM319.744 343.8C319.744 340.648 317.776 338.424 315.008 338.424C312.224 338.424 310.256 340.648 310.256 343.8C310.256 346.984 312.224 349.224 315.008 349.224C317.776 349.224 319.744 346.984 319.744 343.8ZM313.232 343.832C313.232 342.008 313.936 340.808 315.008 340.808C316.064 340.808 316.784 342.008 316.784 343.832C316.784 345.64 316.064 346.84 315.008 346.84C313.936 346.84 313.232 345.64 313.232 343.832ZM327.104 343.512V343.432C328.368 343.112 329.104 342.216 329.104 341.176C329.104 339.576 327.36 338.424 325.056 338.424C322.816 338.424 321.264 339.576 320.528 341.064L322.528 341.96C322.96 341.192 323.632 340.712 324.624 340.712C325.536 340.712 326.128 341.16 326.128 341.752C326.128 342.344 325.504 342.792 324.496 342.808H323.072V344.744L324.688 344.728C325.744 344.728 326.432 345.08 326.432 345.784C326.432 346.488 325.744 346.936 324.688 346.936C323.584 346.936 322.752 346.456 322.352 345.672L320.32 346.648C321.248 348.296 322.896 349.224 324.992 349.224C327.504 349.224 329.408 347.88 329.408 346.04C329.408 344.76 328.496 343.8 327.104 343.512Z" fill="#F9F9F9"/>
<path d="M704.5 78L711.428 82V90L704.5 94L697.572 90V82L704.5 78Z" fill="url(#paint8_linear_160_155)"/>
<path d="M639.338 84.134L644.602 86.318L639.338 88.488V89.58L645.89 86.878V85.758L639.338 83.056V84.134ZM657.596 87.032C657.596 85.296 656.126 83.994 654.278 83.994C653.326 83.994 652.57 84.344 652.094 84.694L652.276 82.174H657.19V80.942H651.24L650.89 86.01L651.758 86.192C652.206 85.548 653.102 85.114 654.04 85.114C655.328 85.114 656.238 85.954 656.238 87.116C656.238 88.292 655.314 89.048 653.956 89.048C652.794 89.048 651.954 88.488 651.436 87.494L650.428 88.012C651.114 89.356 652.388 90.182 653.998 90.182C656.07 90.182 657.596 88.81 657.596 87.032ZM668.294 90.112L668.35 89.202C668.266 89.216 668.126 89.23 668.042 89.23C667.622 89.23 667.412 88.936 667.412 88.558V85.366C667.412 83.756 666.432 82.874 664.92 82.874C663.716 82.874 662.666 83.546 662.162 84.638L663.086 85.016C663.436 84.358 663.982 83.868 664.808 83.868C665.662 83.868 666.222 84.456 666.222 85.324V85.87L664.598 86.066C663.058 86.262 661.966 87.004 661.966 88.292C661.966 89.398 662.848 90.182 664.08 90.182C665.06 90.182 665.83 89.706 666.278 88.964C666.446 89.762 666.964 90.182 667.748 90.182C667.958 90.182 668.126 90.154 668.294 90.112ZM664.402 89.216C663.702 89.216 663.212 88.796 663.212 88.208C663.212 87.494 663.884 87.074 664.808 86.962L666.222 86.794V88.068C665.858 88.74 665.172 89.216 664.402 89.216ZM675.46 90V85.408C675.46 83.924 674.424 82.874 673.066 82.874C672.072 82.874 671.232 83.462 670.77 84.12V83.056H669.622V90H670.812V84.96C671.246 84.344 672.002 83.882 672.786 83.882C673.654 83.882 674.27 84.526 674.27 85.492V90H675.46ZM683.376 90V85.408C683.376 83.924 682.34 82.874 680.982 82.874C679.988 82.874 679.148 83.462 678.686 84.12V83.056H677.538V90H678.728V84.96C679.162 84.344 679.918 83.882 680.702 83.882C681.57 83.882 682.186 84.526 682.186 85.492V90H683.376ZM686.644 83.056H685.454V90H686.644V83.056ZM686.644 80.298H685.454V81.684H686.644V80.298Z" fill="#1E2528"/>
<path d="M704.5 101L711.428 105V113L704.5 117L697.572 113V105L704.5 101Z" fill="#1E2528"/>
<path d="M639.03 108.758V109.878L645.582 112.58V111.488L640.318 109.318L645.582 107.134V106.056L639.03 108.758ZM657.596 110.032C657.596 108.296 656.126 106.994 654.278 106.994C653.326 106.994 652.57 107.344 652.094 107.694L652.276 105.174H657.19V103.942H651.24L650.89 109.01L651.758 109.192C652.206 108.548 653.102 108.114 654.04 108.114C655.328 108.114 656.238 108.954 656.238 110.116C656.238 111.292 655.314 112.048 653.956 112.048C652.794 112.048 651.954 111.488 651.436 110.494L650.428 111.012C651.114 112.356 652.388 113.182 653.998 113.182C656.07 113.182 657.596 111.81 657.596 110.032ZM668.294 113.112L668.35 112.202C668.266 112.216 668.126 112.23 668.042 112.23C667.622 112.23 667.412 111.936 667.412 111.558V108.366C667.412 106.756 666.432 105.874 664.92 105.874C663.716 105.874 662.666 106.546 662.162 107.638L663.086 108.016C663.436 107.358 663.982 106.868 664.808 106.868C665.662 106.868 666.222 107.456 666.222 108.324V108.87L664.598 109.066C663.058 109.262 661.966 110.004 661.966 111.292C661.966 112.398 662.848 113.182 664.08 113.182C665.06 113.182 665.83 112.706 666.278 111.964C666.446 112.762 666.964 113.182 667.748 113.182C667.958 113.182 668.126 113.154 668.294 113.112ZM664.402 112.216C663.702 112.216 663.212 111.796 663.212 111.208C663.212 110.494 663.884 110.074 664.808 109.962L666.222 109.794V111.068C665.858 111.74 665.172 112.216 664.402 112.216ZM675.46 113V108.408C675.46 106.924 674.424 105.874 673.066 105.874C672.072 105.874 671.232 106.462 670.77 107.12V106.056H669.622V113H670.812V107.96C671.246 107.344 672.002 106.882 672.786 106.882C673.654 106.882 674.27 107.526 674.27 108.492V113H675.46ZM683.376 113V108.408C683.376 106.924 682.34 105.874 680.982 105.874C679.988 105.874 679.148 106.462 678.686 107.12V106.056H677.538V113H678.728V107.96C679.162 107.344 679.918 106.882 680.702 106.882C681.57 106.882 682.186 107.526 682.186 108.492V113H683.376ZM686.644 106.056H685.454V113H686.644V106.056ZM686.644 103.298H685.454V104.684H686.644V103.298Z" fill="#1E2528"/>
<path d="M593.969 351.777L592.643 351.283C592.279 352.193 591.408 352.83 590.576 352.83C589.185 352.83 588.184 351.608 588.184 349.879C588.184 348.072 589.185 346.772 590.576 346.772C591.369 346.772 592.188 347.409 592.539 348.267L593.93 347.76C593.384 346.408 592.006 345.446 590.498 345.446C588.21 345.446 586.559 347.318 586.559 349.892C586.559 352.388 588.197 354.169 590.498 354.169C592.019 354.169 593.475 353.168 593.969 351.777ZM596.786 354V348.28L601.024 354H602.35V345.589H600.907V351.361L596.669 345.589H595.343V354H596.786ZM605.992 346.876H607.383C608.371 346.876 609.034 347.435 609.034 348.267C609.034 349.164 608.358 349.749 607.383 349.749H605.992V346.876ZM605.992 354V351.036H607.357C607.539 351.036 607.721 351.023 607.903 351.01L609.437 354H611.14L609.294 350.568C610.126 350.087 610.62 349.268 610.62 348.254C610.62 346.668 609.346 345.589 607.461 345.589H604.458V354H605.992ZM614.049 356.457L614.959 356.847L620.25 344.77L619.34 344.393L614.049 356.457ZM623.609 352.869V354H629.979V352.622H625.728L627.587 351.01C628.484 350.243 629.628 349.203 629.628 347.812C629.628 346.408 628.38 345.42 626.768 345.42C625.13 345.42 624.051 346.434 623.557 347.656L624.701 348.163C625.013 347.396 625.702 346.72 626.612 346.72C627.366 346.72 628.003 347.188 628.003 347.968C628.003 348.735 627.405 349.32 626.404 350.256L623.609 352.869ZM638.266 349.788C638.266 347.188 636.81 345.42 634.678 345.42C632.533 345.42 631.077 347.188 631.077 349.788C631.077 352.401 632.533 354.169 634.678 354.169C636.81 354.169 638.266 352.401 638.266 349.788ZM632.715 349.788C632.715 347.955 633.495 346.746 634.678 346.746C635.848 346.746 636.641 347.955 636.641 349.788C636.641 351.634 635.848 352.843 634.678 352.843C633.495 352.843 632.715 351.634 632.715 349.788ZM642.379 345.589L639.883 346.577L640.338 347.799L642.093 347.188V352.687H640.104V354H645.421V352.687H643.627V345.589H642.379ZM650.003 354L653.448 346.707V345.589H647.455V347.019H651.758L648.378 354H650.003Z" fill="#C5C5C5"/>
<path d="M586 355.3H654.41V355.95H586V355.3Z" fill="#C5C5C5"/>
<path d="M606.902 332.62V331.359H603.587V328.876H607.799V327.589H602.053V336H603.587V332.62H606.902ZM614.683 332.763C614.683 330.787 613.331 329.357 611.459 329.357C609.574 329.357 608.209 330.787 608.209 332.763C608.209 334.739 609.574 336.169 611.459 336.169C613.331 336.169 614.683 334.739 614.683 332.763ZM609.717 332.763C609.717 331.463 610.445 330.514 611.459 330.514C612.46 330.514 613.175 331.463 613.175 332.763C613.175 334.063 612.46 334.999 611.459 334.999C610.445 334.999 609.717 334.063 609.717 332.763ZM621.721 336V331.762C621.721 330.358 620.759 329.357 619.511 329.357C618.614 329.357 617.86 329.864 617.431 330.475V329.526H616.053V336H617.483V331.359C617.834 330.904 618.445 330.54 619.082 330.54C619.784 330.54 620.291 331.06 620.291 331.866V336H621.721ZM627.316 335.974V334.817C627.069 334.895 626.653 334.973 626.263 334.973C625.496 334.973 625.184 334.609 625.184 334.011V330.683H627.29V329.526H625.184V327.953H623.754V329.526H622.779V330.683H623.754V334.31C623.754 335.493 624.547 336.182 625.977 336.182C626.458 336.182 627.017 336.078 627.316 335.974ZM633.8 334.505L632.708 334.076C632.396 334.687 631.824 335.051 631.2 335.051C630.238 335.051 629.549 334.271 629.458 333.075H633.813C633.852 332.906 633.878 332.529 633.878 332.217C633.878 330.527 632.721 329.357 631.083 329.357C629.289 329.357 627.976 330.826 627.976 332.841C627.976 334.791 629.289 336.182 631.096 336.182C632.305 336.182 633.345 335.545 633.8 334.505ZM631.083 330.449C631.889 330.449 632.435 331.086 632.487 332.074H629.51C629.705 331.073 630.316 330.449 631.083 330.449Z" fill="#1E2528"/>
<circle cx="591.5" cy="332.5" r="5.5" fill="url(#paint9_linear_160_155)"/>
<defs>
<linearGradient id="paint0_linear_160_155" x1="-137.743" y1="8.18732" x2="849.662" y2="138.968" gradientUnits="userSpaceOnUse">
<stop stop-color="#07A76F"/>
<stop offset="1" stop-color="#8ECA45"/>
</linearGradient>
<linearGradient id="paint1_linear_160_155" x1="-114.318" y1="52.1873" x2="709.59" y2="142.755" gradientUnits="userSpaceOnUse">
<stop stop-color="#07A76F"/>
<stop offset="1" stop-color="#8ECA45"/>
</linearGradient>
<linearGradient id="paint2_linear_160_155" x1="-114.318" y1="97.1873" x2="709.59" y2="187.755" gradientUnits="userSpaceOnUse">
<stop stop-color="#07A76F"/>
<stop offset="1" stop-color="#8ECA45"/>
</linearGradient>
<linearGradient id="paint3_linear_160_155" x1="-104.108" y1="142.187" x2="647.744" y2="217.452" gradientUnits="userSpaceOnUse">
<stop stop-color="#07A76F"/>
<stop offset="1" stop-color="#8ECA45"/>
</linearGradient>
<linearGradient id="paint4_linear_160_155" x1="-104.108" y1="186.187" x2="647.744" y2="261.452" gradientUnits="userSpaceOnUse">
<stop stop-color="#07A76F"/>
<stop offset="1" stop-color="#8ECA45"/>
</linearGradient>
<linearGradient id="paint5_linear_160_155" x1="-104.108" y1="230.187" x2="647.744" y2="305.452" gradientUnits="userSpaceOnUse">
<stop stop-color="#07A76F"/>
<stop offset="1" stop-color="#8ECA45"/>
</linearGradient>
<linearGradient id="paint6_linear_160_155" x1="-104.108" y1="274.187" x2="647.744" y2="349.452" gradientUnits="userSpaceOnUse">
<stop stop-color="#07A76F"/>
<stop offset="1" stop-color="#8ECA45"/>
</linearGradient>
<linearGradient id="paint7_linear_160_155" x1="-104.108" y1="318.187" x2="647.744" y2="393.452" gradientUnits="userSpaceOnUse">
<stop stop-color="#07A76F"/>
<stop offset="1" stop-color="#8ECA45"/>
</linearGradient>
<linearGradient id="paint8_linear_160_155" x1="693.297" y1="74.1249" x2="716.662" y2="74.2328" gradientUnits="userSpaceOnUse">
<stop stop-color="#07A76F"/>
<stop offset="1" stop-color="#8ECA45"/>
</linearGradient>
<linearGradient id="paint9_linear_160_155" x1="583.798" y1="324.336" x2="599.861" y2="324.41" gradientUnits="userSpaceOnUse">
<stop stop-color="#07A76F"/>
<stop offset="1" stop-color="#8ECA45"/>
</linearGradient>
</defs>
</svg>
