<svg width="26" height="158" viewBox="0 0 26 158" fill="none" xmlns="http://www.w3.org/2000/svg">
<path d="M19.7701 151.21C17.8301 151.21 16.4201 152.54 16.4201 154.39C16.4201 156.24 17.8201 157.58 19.7601 157.58C21.7101 157.58 23.1301 156.24 23.1301 154.39C23.1301 152.54 21.7201 151.21 19.7701 151.21ZM19.7601 156.33C18.4201 156.33 17.4501 155.52 17.4501 154.39C17.4501 153.27 18.4201 152.46 19.7601 152.46C21.1201 152.46 22.1001 153.27 22.1001 154.39C22.1001 155.52 21.1201 156.33 19.7601 156.33ZM23.0001 148.873L18.6001 148.873L23.0001 145.613L23.0001 144.593L16.5301 144.593L16.5301 145.703L20.9701 145.703L16.5301 148.963L16.5301 149.983L23.0001 149.983L23.0001 148.873ZM20.5701 137.821L16.5301 137.821L16.5301 138.941L20.5701 138.941C21.5401 138.941 22.0901 139.471 22.0901 140.401C22.0901 141.331 21.5401 141.861 20.5701 141.861L16.5301 141.861L16.5301 143.041L20.5701 143.041C22.1201 143.041 23.1201 142.061 23.1201 140.421C23.1201 138.781 22.1201 137.821 20.5701 137.821ZM20.8401 134.294L20.8401 125.294L20.0801 125.294L20.0801 134.294L20.8401 134.294ZM23.0001 119.437L20.3501 118.467L20.3701 118.457L23.0001 117.497L22.9901 116.347L16.5301 114.327L16.5301 115.417L21.5901 116.957L19.1601 117.877L16.5301 116.877L16.5301 117.867L18.1401 118.377L16.5301 118.897L16.5301 119.967L19.2501 118.947L21.5901 119.857L16.5301 121.387L16.5301 122.547L23.0001 120.537L23.0001 119.437ZM20.5101 109.184C18.9901 109.184 17.8901 110.224 17.8901 111.664C17.8901 113.114 18.9901 114.164 20.5101 114.164C22.0301 114.164 23.1301 113.114 23.1301 111.664C23.1301 110.224 22.0301 109.184 20.5101 109.184ZM20.5101 113.004C19.5101 113.004 18.7801 112.444 18.7801 111.664C18.7801 110.894 19.5101 110.344 20.5101 110.344C21.5101 110.344 22.2301 110.894 22.2301 111.664C22.2301 112.444 21.5101 113.004 20.5101 113.004ZM23.0001 107.03L20.2001 107.03C19.5201 106.94 18.9501 106.56 18.9501 105.8C18.9501 105.64 18.9801 105.41 19.0201 105.27L17.9701 105.26C17.9201 105.37 17.8901 105.6 17.8901 105.77C17.8901 106.35 18.4301 106.88 19.0801 107.07L18.0201 107.07L18.0201 108.13L23.0001 108.13L23.0001 107.03ZM15.9901 103.28L15.9901 104.38L23.0001 104.38L23.0001 103.28L15.9901 103.28ZM20.5701 94.4326L16.5301 94.4326L16.5301 95.5526L20.5701 95.5526C21.5401 95.5526 22.0901 96.0826 22.0901 97.0126C22.0901 97.9426 21.5401 98.4726 20.5701 98.4726L16.5301 98.4726L16.5301 99.6526L20.5701 99.6526C22.1201 99.6526 23.1201 98.6726 23.1201 97.0326C23.1201 95.3926 22.1201 94.4326 20.5701 94.4326ZM23.0001 91.952L20.2001 91.952C19.5201 91.862 18.9501 91.482 18.9501 90.722C18.9501 90.562 18.9801 90.332 19.0201 90.192L17.9701 90.182C17.9201 90.292 17.8901 90.522 17.8901 90.692C17.8901 91.272 18.4301 91.802 19.0801 91.992L18.0201 91.992L18.0201 93.052L23.0001 93.052L23.0001 91.952ZM20.5001 84.572C18.9801 84.572 17.8901 85.452 17.8901 86.672C17.8901 87.232 18.2001 87.832 18.6601 88.202L15.9901 88.202L15.9901 89.302L23.0001 89.302L23.0001 88.262L22.3901 88.262C22.8201 87.912 23.1401 87.292 23.1401 86.742C23.1401 85.482 22.0301 84.572 20.5001 84.572ZM22.2401 87.062C22.2401 87.522 22.0201 87.952 21.6901 88.202L19.3601 88.202C19.0201 87.952 18.7901 87.502 18.7901 87.022C18.7901 86.272 19.4901 85.732 20.4801 85.732C21.5001 85.732 22.2401 86.292 22.2401 87.062ZM23.0701 79.2112L22.2701 79.1612C22.2801 79.2212 22.2901 79.3312 22.2901 79.3912C22.2901 79.6612 22.1001 79.8012 21.8301 79.8012L19.7201 79.8012C18.5301 79.8012 17.8901 80.5212 17.8901 81.6812C17.8901 82.6212 18.3901 83.3812 19.1901 83.7312L19.5401 82.9112C19.1001 82.6812 18.7701 82.3212 18.7701 81.7812C18.7701 81.2412 19.1301 80.8912 19.6901 80.8912L20.0101 80.8912L20.1601 82.0012C20.3201 83.1212 20.8701 83.8812 21.7801 83.8812C22.5701 83.8812 23.1401 83.2512 23.1401 82.3712C23.1401 81.6812 22.8001 81.1312 22.2901 80.8212C22.8701 80.6512 23.1401 80.2412 23.1401 79.6612C23.1401 79.4912 23.1101 79.3512 23.0701 79.2112ZM22.2901 82.0112C22.2901 82.4412 22.0301 82.7512 21.6601 82.7512C21.2101 82.7512 20.9401 82.3412 20.8701 81.7712L20.7501 80.8912L21.6401 80.8912C22.0201 81.1312 22.2901 81.5412 22.2901 82.0112ZM23.0001 73.9654L19.7401 73.9654C18.6601 73.9654 17.8901 74.7054 17.8901 75.6654C17.8901 76.3554 18.2801 76.9354 18.7501 77.2654L18.0201 77.2654L18.0201 78.3254L23.0001 78.3254L23.0001 77.2254L19.4301 77.2254C19.0801 76.9554 18.8001 76.4854 18.8001 75.9954C18.8001 75.4554 19.2001 75.0654 19.8201 75.0654L23.0001 75.0654L23.0001 73.9654ZM18.0201 71.5223L18.0201 72.6223L23.0001 72.6223L23.0001 71.5223L18.0201 71.5223ZM16.0801 71.5223L16.0801 72.6223L17.1701 72.6223L17.1701 71.5223L16.0801 71.5223ZM18.9401 70.4025L18.9401 67.8925L22.1801 70.4625L23.0001 70.4625L23.0001 66.4525L22.0801 66.4525L22.0801 69.1225L18.8401 66.4925L18.0201 66.4925L18.0201 70.4025L18.9401 70.4025ZM23.0701 61.1155L22.2701 61.0655C22.2801 61.1255 22.2901 61.2355 22.2901 61.2955C22.2901 61.5655 22.1001 61.7055 21.8301 61.7055L19.7201 61.7055C18.5301 61.7055 17.8901 62.4255 17.8901 63.5855C17.8901 64.5255 18.3901 65.2855 19.1901 65.6355L19.5401 64.8155C19.1001 64.5855 18.7701 64.2255 18.7701 63.6855C18.7701 63.1455 19.1301 62.7955 19.6901 62.7955L20.0101 62.7955L20.1601 63.9055C20.3201 65.0255 20.8701 65.7855 21.7801 65.7855C22.5701 65.7855 23.1401 65.1555 23.1401 64.2755C23.1401 63.5855 22.8001 63.0355 22.2901 62.7255C22.8701 62.5555 23.1401 62.1455 23.1401 61.5655C23.1401 61.3955 23.1101 61.2555 23.0701 61.1155ZM22.2901 63.9155C22.2901 64.3455 22.0301 64.6555 21.6601 64.6555C21.2101 64.6555 20.9401 64.2455 20.8701 63.6755L20.7501 62.7955L21.6401 62.7955C22.0201 63.0355 22.2901 63.4455 22.2901 63.9155ZM22.9801 57.2097L22.0901 57.2097C22.1501 57.3997 22.2101 57.7197 22.2101 58.0197C22.2101 58.6097 21.9301 58.8497 21.4701 58.8497L18.9101 58.8497L18.9101 57.2297L18.0201 57.2297L18.0201 58.8497L16.8101 58.8497L16.8101 59.9497L18.0201 59.9497L18.0201 60.6997L18.9101 60.6997L18.9101 59.9497L21.7001 59.9497C22.6101 59.9497 23.1401 59.3397 23.1401 58.2397C23.1401 57.8697 23.0601 57.4397 22.9801 57.2097ZM18.0201 55.2137L18.0201 56.3137L23.0001 56.3137L23.0001 55.2137L18.0201 55.2137ZM16.0801 55.2137L16.0801 56.3137L17.1701 56.3137L17.1701 55.2137L16.0801 55.2137ZM20.5101 49.1739C18.9901 49.1739 17.8901 50.2139 17.8901 51.6539C17.8901 53.1039 18.9901 54.1539 20.5101 54.1539C22.0301 54.1539 23.1301 53.1039 23.1301 51.6539C23.1301 50.2139 22.0301 49.1739 20.5101 49.1739ZM20.5101 52.9939C19.5101 52.9939 18.7801 52.4339 18.7801 51.6539C18.7801 50.8839 19.5101 50.3339 20.5101 50.3339C21.5101 50.3339 22.2301 50.8839 22.2301 51.6539C22.2301 52.4339 21.5101 52.9939 20.5101 52.9939ZM23.0001 43.7603L19.7401 43.7603C18.6601 43.7603 17.8901 44.5003 17.8901 45.4603C17.8901 46.1503 18.2801 46.7303 18.7501 47.0603L18.0201 47.0603L18.0201 48.1203L23.0001 48.1203L23.0001 47.0203L19.4301 47.0203C19.0801 46.7503 18.8001 46.2803 18.8001 45.7903C18.8001 45.2503 19.2001 44.8603 19.8201 44.8603L23.0001 44.8603L23.0001 43.7603ZM23.0001 38.9495L21.0101 38.9495L21.0101 37.9095C21.0101 36.4095 20.0801 35.3895 18.7601 35.3895C17.4501 35.3895 16.5301 36.4095 16.5301 37.9295L16.5301 40.1295L23.0001 40.1295L23.0001 38.9495ZM17.5201 38.9495L17.5201 38.0095C17.5201 37.1795 18.0201 36.6095 18.7601 36.6095C19.5101 36.6095 20.0201 37.1795 20.0201 38.0095L20.0201 38.9495L17.5201 38.9495ZM23.0001 33.3094L20.2001 33.3094C19.5201 33.2194 18.9501 32.8394 18.9501 32.0794C18.9501 31.9194 18.9801 31.6894 19.0201 31.5494L17.9701 31.5394C17.9201 31.6494 17.8901 31.8794 17.8901 32.0494C17.8901 32.6294 18.4301 33.1594 19.0801 33.3494L18.0201 33.3494L18.0201 34.4094L23.0001 34.4094L23.0001 33.3094ZM20.5101 26.1563C18.9901 26.1563 17.8901 27.1963 17.8901 28.6363C17.8901 30.0863 18.9901 31.1363 20.5101 31.1363C22.0301 31.1363 23.1301 30.0863 23.1301 28.6363C23.1301 27.1963 22.0301 26.1563 20.5101 26.1563ZM20.5101 29.9763C19.5101 29.9763 18.7801 29.4163 18.7801 28.6363C18.7801 27.8663 19.5101 27.3163 20.5101 27.3163C21.5101 27.3163 22.2301 27.8663 22.2301 28.6363C22.2301 29.4163 21.5101 29.9763 20.5101 29.9763ZM21.6001 21.1327C20.6701 21.1327 20.2701 21.9227 20.0101 23.0627C19.8301 23.8527 19.7101 24.3027 19.3201 24.3027C18.9601 24.3027 18.7201 23.9027 18.7201 23.3127C18.7201 22.6627 18.9901 22.2227 19.4301 21.9827L19.0901 21.1627C18.4701 21.4827 17.8901 22.1227 17.8901 23.3027C17.8901 24.5127 18.5201 25.3427 19.4101 25.3427C20.2901 25.3427 20.7001 24.5027 20.9301 23.4727C21.1001 22.6727 21.2501 22.1727 21.6701 22.1727C22.0601 22.1727 22.3101 22.5427 22.3101 23.1727C22.3101 23.9327 21.9701 24.4627 21.5201 24.7227L21.8601 25.5627C22.6201 25.2227 23.1401 24.3827 23.1401 23.2127C23.1401 21.9227 22.5201 21.1327 21.6001 21.1327ZM22.2401 17.863C22.2401 18.273 22.0401 18.713 21.7301 18.993L19.4301 18.993C19.0901 18.753 18.7701 18.323 18.7701 17.823C18.7701 17.073 19.4601 16.523 20.4901 16.523C21.5201 16.523 22.2401 17.073 22.2401 17.863ZM20.4901 15.363C18.9701 15.363 17.8901 16.313 17.8901 17.483C17.8901 18.213 18.3101 18.763 18.7401 19.023L18.0201 19.023L18.0201 20.093L24.7801 20.093L24.7801 18.993L22.4901 18.993C22.8801 18.683 23.1301 18.143 23.1301 17.553C23.1301 16.323 22.0201 15.363 20.4901 15.363ZM21.8501 10.162L21.5201 11.002C21.9901 11.242 22.2701 11.682 22.2701 12.162C22.2701 12.902 21.6701 13.432 20.7501 13.502L20.7501 10.152C20.6201 10.122 20.3301 10.102 20.0901 10.102C18.7901 10.102 17.8901 10.992 17.8901 12.252C17.8901 13.632 19.0201 14.642 20.5701 14.642C22.0701 14.642 23.1401 13.632 23.1401 12.242C23.1401 11.312 22.6501 10.512 21.8501 10.162ZM18.7301 12.252C18.7301 11.632 19.2201 11.212 19.9801 11.172L19.9801 13.462C19.2101 13.312 18.7301 12.842 18.7301 12.252ZM21.7301 4.94875L21.3801 5.88875C21.8801 6.09875 22.2101 6.45875 22.2101 6.95875C22.2101 7.67875 21.5101 8.18875 20.5401 8.18875C19.5301 8.18875 18.8101 7.68875 18.8101 6.98875C18.8101 6.52875 19.0901 6.14875 19.6201 5.93875L19.2501 4.98875C18.4201 5.34875 17.8901 6.04875 17.8901 7.03875C17.8901 8.38875 19.0001 9.35875 20.5501 9.35875C22.0501 9.35875 23.1401 8.37875 23.1401 7.02875C23.1401 6.03875 22.5401 5.28875 21.7301 4.94875ZM22.9801 1.01828L22.0901 1.01828C22.1501 1.20828 22.2101 1.52828 22.2101 1.82828C22.2101 2.41828 21.9301 2.65828 21.4701 2.65828L18.9101 2.65828L18.9101 1.03828L18.0201 1.03828L18.0201 2.65828L16.8101 2.65828L16.8101 3.75828L18.0201 3.75828L18.0201 4.50828L18.9101 4.50828L18.9101 3.75828L21.7001 3.75828C22.6101 3.75828 23.1401 3.14828 23.1401 2.04828C23.1401 1.67828 23.0601 1.24828 22.9801 1.01828Z" fill="#C5C5C5"/>
<path d="M24.0001 158L24.0001 0.818283L24.5001 0.818283L24.5001 158L24.0001 158Z" fill="#C5C5C5"/>
<path d="M6.40009 141.46L5.43009 141.46L5.43009 144.01L3.52009 144.01L3.52009 140.77L2.53009 140.77L2.53009 145.19L9.00009 145.19L9.00009 144.01L6.40009 144.01L6.40009 141.46ZM6.51009 135.475C4.99009 135.475 3.89009 136.515 3.89009 137.955C3.89009 139.405 4.99009 140.455 6.51009 140.455C8.03009 140.455 9.13009 139.405 9.13009 137.955C9.13009 136.515 8.03009 135.475 6.51009 135.475ZM6.51009 139.295C5.51009 139.295 4.78009 138.735 4.78009 137.955C4.78009 137.185 5.51009 136.635 6.51009 136.635C7.51009 136.635 8.23009 137.185 8.23009 137.955C8.23009 138.735 7.51009 139.295 6.51009 139.295ZM9.00009 130.061L5.74009 130.061C4.66009 130.061 3.89009 130.801 3.89009 131.761C3.89009 132.451 4.28009 133.031 4.75009 133.361L4.02009 133.361L4.02009 134.421L9.00009 134.421L9.00009 133.321L5.43009 133.321C5.08009 133.051 4.80009 132.581 4.80009 132.091C4.80009 131.551 5.20009 131.161 5.82009 131.161L9.00009 131.161L9.00009 130.061ZM8.98009 125.757L8.09009 125.757C8.15009 125.947 8.21009 126.267 8.21009 126.567C8.21009 127.157 7.93009 127.397 7.47009 127.397L4.91009 127.397L4.91009 125.777L4.02009 125.777L4.02009 127.397L2.81009 127.397L2.81009 128.497L4.02009 128.497L4.02009 129.247L4.91009 129.247L4.91009 128.497L7.70009 128.497C8.61009 128.497 9.14009 127.887 9.14009 126.787C9.14009 126.417 9.06009 125.987 8.98009 125.757ZM7.85009 120.769L7.52009 121.609C7.99009 121.849 8.27009 122.289 8.27009 122.769C8.27009 123.509 7.67009 124.039 6.75009 124.109L6.75009 120.759C6.62009 120.729 6.33009 120.709 6.09009 120.709C4.79009 120.709 3.89009 121.599 3.89009 122.859C3.89009 124.239 5.02009 125.249 6.57009 125.249C8.07009 125.249 9.14009 124.239 9.14009 122.849C9.14009 121.919 8.65009 121.119 7.85009 120.769ZM4.73009 122.859C4.73009 122.239 5.22009 121.819 5.98009 121.779L5.98009 124.069C5.21009 123.919 4.73009 123.449 4.73009 122.859Z" fill="#3D3D3D"/>
<circle cx="6.00009" cy="154" r="4" transform="rotate(-90 6.00009 154)" fill="url(#paint0_linear_486_171)"/>
<defs>
<linearGradient id="paint0_linear_486_171" x1="0.398432" y1="148.062" x2="12.081" y2="148.116" gradientUnits="userSpaceOnUse">
<stop stop-color="#07A76F"/>
<stop offset="1" stop-color="#8ECA45"/>
</linearGradient>
</defs>
</svg>
