<svg width="543" height="430" viewBox="0 0 543 430" fill="none" xmlns="http://www.w3.org/2000/svg">
<path d="M429.5 74.5019C406.19 51.1923 378.518 32.7021 348.062 20.087C317.607 7.4719 284.965 0.979004 252 0.979004C219.035 0.979004 186.393 7.47191 155.938 20.087C125.482 32.7021 97.8096 51.1923 74.5 74.5019C51.1903 97.8116 32.7001 125.484 20.085 155.94C7.46995 186.395 0.977048 219.037 0.977051 252.002C0.977053 284.967 7.46995 317.609 20.085 348.064C32.7001 378.52 51.1903 406.192 74.5 429.502L429.5 74.5019Z" fill="url(#paint0_linear_160_214)"/>
<path d="M136.029 202.315C133.84 200.126 130.513 200.465 128.375 202.74C127.221 203.995 126.61 205.76 126.78 207.254C124.591 204.827 124.234 202.298 125.914 200.618C126.949 199.583 128.409 199.21 129.851 199.464L130.327 197.156C128.087 196.647 125.88 197.326 124.234 198.972C121.264 201.942 121.79 206.473 125.117 209.799C128.46 213.142 132.702 213.38 135.571 210.512C138.065 208.017 138.235 204.521 136.029 202.315ZM133.84 208.849C132.499 210.19 130.632 210.257 128.647 208.917C128.222 207.542 128.664 205.879 129.631 204.844C130.938 203.469 132.753 203.283 133.992 204.521C135.18 205.709 135.163 207.525 133.84 208.849Z" fill="#F9F9F9"/>
<path d="M146.337 192.007C144.148 189.818 140.822 190.157 138.683 192.431C137.529 193.687 136.918 195.452 137.088 196.945C134.899 194.519 134.542 191.99 136.223 190.31C137.258 189.275 138.717 188.901 140.16 189.156L140.635 186.848C138.395 186.339 136.189 187.018 134.542 188.664C131.573 191.634 132.099 196.165 135.425 199.491C138.768 202.834 143.011 203.072 145.879 200.204C148.373 197.709 148.543 194.213 146.337 192.007ZM144.148 198.541C142.807 199.881 140.94 199.949 138.955 198.609C138.531 197.234 138.972 195.571 139.939 194.536C141.246 193.161 143.062 192.974 144.301 194.213C145.488 195.401 145.472 197.217 144.148 198.541Z" fill="#F9F9F9"/>
<path d="M154.846 179.764C151.452 176.37 147.244 175.963 144.46 178.746C141.66 181.546 142.068 185.755 145.462 189.149C148.873 192.56 153.081 192.967 155.882 190.167C158.665 187.384 158.258 183.175 154.846 179.764ZM147.6 187.01C145.207 184.618 144.647 182.021 146.191 180.477C147.719 178.949 150.332 179.492 152.725 181.885C155.135 184.295 155.678 186.909 154.151 188.436C152.606 189.98 150.01 189.42 147.6 187.01Z" fill="#F9F9F9"/>
<path d="M165.155 169.456C161.761 166.062 157.552 165.654 154.769 168.437C151.969 171.238 152.376 175.446 155.77 178.84C159.181 182.252 163.39 182.659 166.19 179.859C168.973 177.076 168.566 172.867 165.155 169.456ZM157.908 176.702C155.515 174.309 154.955 171.713 156.5 170.168C158.027 168.641 160.641 169.184 163.033 171.577C165.443 173.987 165.986 176.6 164.459 178.128C162.915 179.672 160.318 179.112 157.908 176.702Z" fill="#F9F9F9"/>
<path d="M181.076 160.628L179.091 161.493C179.481 162.698 179.21 163.92 178.395 164.735C177.139 165.99 175.222 165.872 173.541 164.429L179.227 158.744C179.057 158.472 178.599 157.946 178.191 157.539C175.985 155.333 172.948 155.316 170.809 157.454C168.467 159.796 168.671 163.428 171.301 166.058C173.847 168.604 177.377 168.706 179.736 166.347C181.314 164.769 181.84 162.579 181.076 160.628ZM172.235 158.88C173.287 157.828 174.831 157.946 176.189 159.168L172.303 163.055C171.25 161.493 171.233 159.881 172.235 158.88Z" fill="#F9F9F9"/>
<path d="M189.976 155.563L188.466 154.053C188.245 154.477 187.804 155.122 187.295 155.631C186.294 156.632 185.411 156.564 184.631 155.784L180.286 151.439L183.035 148.69L181.525 147.18L178.776 149.929L176.722 147.875L174.856 149.742L176.909 151.796L175.636 153.068L177.147 154.579L178.419 153.306L183.154 158.041C184.699 159.585 186.633 159.449 188.5 157.583C189.128 156.955 189.722 156.089 189.976 155.563Z" fill="#F9F9F9"/>
<path d="M196.622 148.917L195.112 147.407C194.891 147.831 194.45 148.476 193.941 148.985C192.94 149.987 192.057 149.919 191.276 149.138L186.932 144.794L189.681 142.044L188.171 140.534L185.422 143.283L183.368 141.23L181.501 143.096L183.555 145.15L182.282 146.423L183.792 147.933L185.065 146.66L189.8 151.395C191.344 152.939 193.279 152.804 195.146 150.937C195.774 150.309 196.368 149.443 196.622 148.917Z" fill="#F9F9F9"/>
<path d="M205.576 140.269L204.303 138.827C204.218 138.945 204.048 139.149 203.947 139.251C203.488 139.709 202.928 139.624 202.47 139.166L198.889 135.585C196.87 133.566 194.562 133.702 192.593 135.67C190.998 137.265 190.557 139.404 191.321 141.355L193.306 140.558C192.95 139.421 193.001 138.25 193.917 137.333C194.833 136.417 196.038 136.434 196.989 137.384L197.532 137.927L195.903 140.066C194.273 142.238 193.917 144.461 195.461 146.005C196.802 147.346 198.838 147.244 200.332 145.751C201.503 144.58 201.859 143.069 201.52 141.678C202.793 142.374 203.947 142.136 204.931 141.152C205.219 140.863 205.406 140.575 205.576 140.269ZM199.5 143.697C198.771 144.427 197.803 144.512 197.175 143.884C196.412 143.12 196.649 141.966 197.498 140.88L198.788 139.183L200.298 140.693C200.536 141.746 200.298 142.9 199.5 143.697Z" fill="#F9F9F9"/>
<path d="M208.827 136.78L204.075 132.029C203.074 130.722 202.752 129.11 204.041 127.82C204.313 127.548 204.754 127.209 205.06 127.039L203.295 125.24C203.023 125.342 202.582 125.682 202.293 125.97C201.309 126.954 201.326 128.77 202.107 130.196L200.308 128.397L198.509 130.196L206.96 138.647L208.827 136.78Z" fill="#F9F9F9"/>
<path d="M206.74 121.965L204.873 123.832L213.324 132.283L215.191 130.416L206.74 121.965ZM203.447 118.673L201.581 120.54L203.43 122.389L205.297 120.523L203.447 118.673Z" fill="#F9F9F9"/>
<path d="M429.761 301.766L425.537 303.438L426.307 305.506L429.277 304.472L429.277 313.778L425.911 313.778L425.911 316L434.909 316L434.909 313.778L431.873 313.778L431.873 301.766L429.761 301.766Z" fill="#1E2528"/>
<path d="M443.124 301.766L438.9 303.438L439.67 305.506L442.64 304.472L442.64 313.778L439.274 313.778L439.274 316L448.272 316L448.272 313.778L445.236 313.778L445.236 301.766L443.124 301.766Z" fill="#1E2528"/>
<path d="M462.889 308.872C462.889 304.472 460.425 301.48 456.817 301.48C453.187 301.48 450.723 304.472 450.723 308.872C450.723 313.294 453.187 316.286 456.817 316.286C460.425 316.286 462.889 313.294 462.889 308.872ZM453.495 308.872C453.495 305.77 454.815 303.724 456.817 303.724C458.797 303.724 460.139 305.77 460.139 308.872C460.139 311.996 458.797 314.042 456.817 314.042C454.815 314.042 453.495 311.996 453.495 308.872Z" fill="#1E2528"/>
<path d="M476.252 308.872C476.252 304.472 473.788 301.48 470.18 301.48C466.55 301.48 464.086 304.472 464.086 308.872C464.086 313.294 466.55 316.286 470.18 316.286C473.788 316.286 476.252 313.294 476.252 308.872ZM466.858 308.872C466.858 305.77 468.178 303.724 470.18 303.724C472.16 303.724 473.502 305.77 473.502 308.872C473.502 311.996 472.16 314.042 470.18 314.042C468.178 314.042 466.858 311.996 466.858 308.872Z" fill="#1E2528"/>
<path d="M492.295 313.47L490.447 312.744C489.919 313.778 488.951 314.394 487.895 314.394C486.267 314.394 485.101 313.074 484.947 311.05L492.317 311.05C492.383 310.764 492.427 310.126 492.427 309.598C492.427 306.738 490.469 304.758 487.697 304.758C484.661 304.758 482.439 307.244 482.439 310.654C482.439 313.954 484.661 316.308 487.719 316.308C489.765 316.308 491.525 315.23 492.295 313.47ZM487.697 306.606C489.061 306.606 489.985 307.684 490.073 309.356L485.035 309.356C485.365 307.662 486.399 306.606 487.697 306.606Z" fill="#1E2528"/>
<path d="M501.346 315.956L501.346 313.998C500.928 314.13 500.224 314.262 499.564 314.262C498.266 314.262 497.738 313.646 497.738 312.634L497.738 307.002L501.302 307.002L501.302 305.044L497.738 305.044L497.738 302.382L495.318 302.382L495.318 305.044L493.668 305.044L493.668 307.002L495.318 307.002L495.318 313.14C495.318 315.142 496.66 316.308 499.08 316.308C499.894 316.308 500.84 316.132 501.346 315.956Z" fill="#1E2528"/>
<path d="M509.962 315.956L509.962 313.998C509.544 314.13 508.84 314.262 508.18 314.262C506.882 314.262 506.354 313.646 506.354 312.634L506.354 307.002L509.918 307.002L509.918 305.044L506.354 305.044L506.354 302.382L503.934 302.382L503.934 305.044L502.284 305.044L502.284 307.002L503.934 307.002L503.934 313.14C503.934 315.142 505.276 316.308 507.696 316.308C508.51 316.308 509.456 316.132 509.962 315.956Z" fill="#1E2528"/>
<path d="M521.371 316.154L521.481 314.394C521.349 314.416 521.107 314.438 520.975 314.438C520.381 314.438 520.073 314.02 520.073 313.426L520.073 308.784C520.073 306.166 518.489 304.758 515.937 304.758C513.869 304.758 512.197 305.858 511.427 307.618L513.231 308.388C513.737 307.42 514.529 306.694 515.717 306.694C516.905 306.694 517.675 307.486 517.675 308.718L517.675 309.422L515.233 309.752C512.769 310.104 511.097 311.314 511.097 313.316C511.097 315.054 512.483 316.308 514.419 316.308C515.937 316.308 517.147 315.56 517.829 314.438C518.203 315.714 519.105 316.308 520.381 316.308C520.755 316.308 521.063 316.242 521.371 316.154ZM515.211 314.438C514.265 314.438 513.583 313.866 513.583 313.052C513.583 312.062 514.485 311.468 515.739 311.314L517.675 311.05L517.675 313.008C517.147 313.844 516.245 314.438 515.211 314.438Z" fill="#1E2528"/>
<path d="M525.74 316L525.74 309.84C525.938 308.344 526.774 307.09 528.446 307.09C528.798 307.09 529.304 307.156 529.612 307.244L529.634 304.934C529.392 304.824 528.886 304.758 528.512 304.758C527.236 304.758 526.07 305.946 525.652 307.376L525.652 305.044L523.32 305.044L523.32 316L525.74 316Z" fill="#1E2528"/>
<path d="M533.99 305.044L531.57 305.044L531.57 316L533.99 316L533.99 305.044ZM533.99 300.776L531.57 300.776L531.57 303.174L533.99 303.174L533.99 300.776Z" fill="#1E2528"/>
<path d="M173.863 260.342L181.183 267.661L186.127 262.717L184.985 261.575L181.376 265.184L175.198 259.007L173.863 260.342Z" fill="#F9F9F9"/>
<path d="M190.408 255.835L189.084 256.412C189.344 257.215 189.163 258.03 188.62 258.573C187.783 259.41 186.505 259.331 185.384 258.369L189.175 254.579C189.061 254.398 188.756 254.047 188.484 253.776C187.014 252.305 184.988 252.294 183.563 253.719C182.002 255.28 182.137 257.702 183.891 259.455C185.588 261.152 187.941 261.22 189.514 259.648C190.566 258.595 190.917 257.136 190.408 255.835ZM184.513 254.669C185.215 253.968 186.244 254.047 187.149 254.862L184.559 257.453C183.857 256.412 183.846 255.337 184.513 254.669Z" fill="#F9F9F9"/>
<path d="M194.391 245.199L193.384 244.192L191.427 246.149L191.246 245.968C190.454 245.176 190.409 244.294 191.076 243.626C191.393 243.309 191.823 242.993 192.162 242.834L191.178 241.827C190.827 242.02 190.262 242.427 189.9 242.789C188.553 244.135 188.587 245.798 190.024 247.235L190.183 247.394L189.425 248.152L190.431 249.159L191.189 248.401L195.817 253.028L197.061 251.783L192.434 247.156L194.391 245.199Z" fill="#F9F9F9"/>
<path d="M202.086 241.125C200.366 239.405 197.945 239.337 196.316 240.966C194.675 242.607 194.732 245.039 196.451 246.759C198.171 248.479 200.604 248.535 202.244 246.895C203.873 245.266 203.805 242.845 202.086 241.125ZM197.764 245.447C196.632 244.315 196.44 242.856 197.323 241.973C198.194 241.102 199.642 241.306 200.773 242.437C201.905 243.569 202.097 245.005 201.226 245.877C200.343 246.759 198.895 246.578 197.764 245.447Z" fill="#F9F9F9"/>
<path d="M207.339 241.505L204.171 238.338C203.504 237.466 203.289 236.392 204.149 235.532C204.33 235.351 204.624 235.125 204.828 235.011L203.651 233.812C203.47 233.88 203.176 234.106 202.983 234.299C202.327 234.955 202.339 236.165 202.859 237.116L201.66 235.916L200.461 237.116L206.095 242.75L207.339 241.505Z" fill="#F9F9F9"/>
<path d="M213.577 232.666L212.253 233.243C212.513 234.046 212.332 234.861 211.789 235.404C210.952 236.241 209.673 236.162 208.553 235.2L212.343 231.41C212.23 231.229 211.925 230.878 211.653 230.607C210.182 229.136 208.157 229.125 206.732 230.55C205.17 232.112 205.306 234.533 207.06 236.286C208.757 237.983 211.11 238.051 212.683 236.479C213.735 235.427 214.086 233.967 213.577 232.666ZM207.682 231.501C208.384 230.799 209.413 230.878 210.318 231.693L207.727 234.284C207.026 233.243 207.015 232.168 207.682 231.501Z" fill="#F9F9F9"/>
<path d="M219.079 226.598C218.026 225.546 216.68 225.987 215.096 226.983C213.999 227.673 213.354 228.046 212.913 227.605C212.505 227.198 212.686 226.474 213.354 225.806C214.089 225.071 214.893 224.879 215.662 225.105L216.205 223.792C215.141 223.453 213.761 223.521 212.426 224.856C211.057 226.225 210.831 227.877 211.838 228.884C212.833 229.879 214.248 229.393 215.673 228.488C216.771 227.775 217.506 227.379 217.981 227.854C218.422 228.295 218.287 228.997 217.574 229.709C216.714 230.569 215.73 230.784 214.927 230.569L214.361 231.904C215.605 232.38 217.144 232.017 218.468 230.694C219.927 229.234 220.12 227.639 219.079 226.598Z" fill="#F9F9F9"/>
<path d="M225.189 223.611L224.182 222.604C224.035 222.887 223.741 223.316 223.401 223.656C222.734 224.323 222.145 224.278 221.625 223.758L218.729 220.861L220.562 219.029L219.555 218.022L217.722 219.854L216.353 218.485L215.108 219.73L216.477 221.099L215.629 221.947L216.636 222.954L217.484 222.106L220.641 225.262C221.67 226.292 222.96 226.201 224.205 224.957C224.623 224.538 225.019 223.961 225.189 223.611Z" fill="#F9F9F9"/>
<path d="M229.553 216.69L228.229 217.267C228.489 218.07 228.308 218.885 227.765 219.428C226.928 220.265 225.65 220.186 224.529 219.224L228.32 215.434C228.206 215.253 227.901 214.902 227.629 214.631C226.159 213.16 224.133 213.149 222.708 214.574C221.147 216.135 221.282 218.557 223.036 220.31C224.733 222.007 227.086 222.075 228.659 220.503C229.711 219.45 230.062 217.991 229.553 216.69ZM223.658 215.524C224.36 214.823 225.389 214.902 226.294 215.717L223.704 218.308C223.002 217.267 222.991 216.192 223.658 215.524Z" fill="#F9F9F9"/>
<path d="M239.374 209.471L233.74 203.836L232.495 205.081L236.353 208.939C236.602 209.708 236.512 210.568 235.946 211.134C235.335 211.745 234.419 211.688 233.74 211.009L230.153 207.423L228.909 208.667L232.597 212.356C233.808 213.566 235.482 213.657 236.557 212.582C237.349 211.79 237.53 210.704 237.258 209.753L238.175 210.67L239.374 209.471Z" fill="#F9F9F9"/>
<path d="M242.197 206.647L239.03 203.479C238.362 202.608 238.147 201.533 239.007 200.674C239.188 200.493 239.482 200.266 239.686 200.153L238.509 198.954C238.328 199.022 238.034 199.248 237.842 199.44C237.185 200.097 237.197 201.307 237.717 202.258L236.518 201.058L235.319 202.258L240.953 207.892L242.197 206.647Z" fill="#F9F9F9"/>
<path d="M247.719 195.469C245.999 193.75 243.77 193.512 242.39 194.892C241.756 195.526 241.428 196.555 241.53 197.495L238.509 194.474L237.265 195.718L245.196 203.649L246.372 202.473L245.682 201.782C246.564 201.873 247.628 201.533 248.25 200.911C249.676 199.486 249.449 197.2 247.719 195.469ZM246.87 200.255C246.35 200.775 245.614 201.013 244.958 200.923L242.322 198.286C242.22 197.619 242.469 196.85 243.012 196.307C243.861 195.458 245.263 195.639 246.383 196.759C247.537 197.913 247.741 199.384 246.87 200.255Z" fill="#F9F9F9"/>
<path d="M256.691 192.312L255.843 191.35C255.786 191.429 255.673 191.565 255.605 191.633C255.3 191.939 254.926 191.882 254.621 191.577L252.234 189.189C250.887 187.843 249.349 187.934 248.036 189.246C246.973 190.309 246.679 191.735 247.188 193.036L248.511 192.504C248.274 191.746 248.308 190.966 248.919 190.355C249.53 189.744 250.333 189.755 250.966 190.389L251.328 190.751L250.242 192.176C249.156 193.624 248.919 195.106 249.948 196.136C250.842 197.03 252.2 196.962 253.195 195.966C253.976 195.186 254.213 194.179 253.987 193.251C254.836 193.715 255.605 193.556 256.261 192.9C256.454 192.708 256.578 192.516 256.691 192.312ZM252.641 194.597C252.154 195.084 251.509 195.14 251.091 194.722C250.582 194.213 250.74 193.443 251.306 192.719L252.166 191.588L253.173 192.595C253.331 193.296 253.173 194.066 252.641 194.597Z" fill="#F9F9F9"/>
<path d="M262.547 186.298L258.859 182.61C257.637 181.388 255.928 181.354 254.842 182.44C254.062 183.22 253.847 184.318 254.005 185.223L253.179 184.397L251.98 185.596L257.614 191.231L258.859 189.986L254.82 185.947C254.729 185.246 254.944 184.397 255.498 183.843C256.109 183.232 257.003 183.243 257.705 183.945L261.302 187.542L262.547 186.298Z" fill="#F9F9F9"/>
<path d="M267.449 178.793L266.126 179.37C266.386 180.174 266.205 180.988 265.662 181.531C264.824 182.368 263.546 182.289 262.426 181.328L266.216 177.537C266.103 177.356 265.797 177.006 265.526 176.734C264.055 175.263 262.03 175.252 260.604 176.678C259.043 178.239 259.179 180.66 260.933 182.414C262.63 184.111 264.983 184.179 266.555 182.606C267.608 181.554 267.958 180.094 267.449 178.793ZM261.555 177.628C262.256 176.927 263.286 177.006 264.191 177.82L261.6 180.411C260.899 179.37 260.887 178.295 261.555 177.628Z" fill="#F9F9F9"/>
<path d="M178.128 295.867C177.291 296.705 175.888 296.501 174.756 295.37C173.614 294.227 173.421 292.767 174.292 291.896C174.802 291.387 175.514 291.127 176.125 291.195L178.784 293.853C178.886 294.566 178.648 295.347 178.128 295.867ZM181.567 294.148L173.636 286.217L172.392 287.461L175.277 290.346C174.462 290.278 173.546 290.606 172.946 291.206C171.498 292.654 171.713 294.951 173.467 296.705C175.164 298.402 177.404 298.628 178.807 297.225C179.429 296.603 179.746 295.494 179.61 294.544L180.39 295.324L181.567 294.148Z" fill="#F9F9F9"/>
<path d="M188.096 287.777L187.248 286.815C187.191 286.894 187.078 287.03 187.01 287.098C186.705 287.404 186.331 287.347 186.026 287.041L183.639 284.654C182.292 283.308 180.754 283.398 179.441 284.711C178.378 285.774 178.084 287.2 178.593 288.501L179.916 287.969C179.679 287.211 179.713 286.431 180.324 285.82C180.935 285.209 181.738 285.22 182.372 285.854L182.734 286.216L181.647 287.641C180.561 289.089 180.324 290.571 181.353 291.601C182.247 292.495 183.605 292.427 184.6 291.431C185.381 290.651 185.619 289.644 185.392 288.716C186.241 289.18 187.01 289.021 187.666 288.365C187.859 288.173 187.983 287.981 188.096 287.777ZM184.046 290.062C183.559 290.549 182.915 290.605 182.496 290.187C181.987 289.678 182.145 288.908 182.711 288.184L183.571 287.053L184.578 288.06C184.736 288.761 184.578 289.53 184.046 290.062Z" fill="#F9F9F9"/>
<path d="M193.146 280.849C192.682 281.313 191.958 281.584 191.291 281.55L188.689 278.948C188.575 278.292 188.7 277.443 189.266 276.878C190.114 276.029 191.517 276.188 192.682 277.353C193.848 278.518 194.04 279.955 193.146 280.849ZM193.995 276.041C192.275 274.321 189.978 274.174 188.655 275.498C187.829 276.323 187.682 277.421 187.874 278.201L187.059 277.387L185.849 278.597L193.497 286.246L194.741 285.001L192.151 282.41C192.943 282.501 193.836 282.173 194.504 281.505C195.895 280.114 195.726 277.772 193.995 276.041Z" fill="#F9F9F9"/>
<path d="M193.645 270.801L192.401 272.046L198.035 277.68L199.279 276.435L193.645 270.801ZM191.45 268.606L190.206 269.851L191.439 271.084L192.683 269.84L191.45 268.606Z" fill="#F9F9F9"/>
<path d="M205.807 270.066L204.959 269.104C204.902 269.184 204.789 269.319 204.721 269.387C204.416 269.693 204.042 269.636 203.737 269.331L201.349 266.943C200.003 265.597 198.464 265.688 197.152 267C196.089 268.064 195.794 269.489 196.304 270.79L197.627 270.258C197.39 269.5 197.424 268.72 198.035 268.109C198.646 267.498 199.449 267.509 200.082 268.143L200.444 268.505L199.358 269.93C198.272 271.378 198.035 272.861 199.064 273.89C199.958 274.784 201.316 274.716 202.311 273.72C203.092 272.94 203.329 271.933 203.103 271.005C203.952 271.469 204.721 271.311 205.377 270.654C205.57 270.462 205.694 270.27 205.807 270.066ZM201.757 272.351C201.27 272.838 200.625 272.894 200.207 272.476C199.698 271.967 199.856 271.197 200.422 270.473L201.282 269.342L202.289 270.349C202.447 271.05 202.289 271.82 201.757 272.351Z" fill="#F9F9F9"/>
<path d="M211.663 264.052L207.975 260.364C206.753 259.142 205.044 259.108 203.958 260.194C203.178 260.975 202.963 262.072 203.121 262.977L202.295 262.151L201.096 263.35L206.73 268.985L207.975 267.74L203.936 263.701C203.845 263 204.06 262.151 204.614 261.597C205.225 260.986 206.119 260.997 206.821 261.699L210.418 265.296L211.663 264.052Z" fill="#F9F9F9"/>
<path d="M216.51 259.159L215.503 258.152C215.356 258.435 215.062 258.865 214.723 259.205C214.055 259.872 213.467 259.827 212.946 259.306L210.05 256.41L211.883 254.577L210.876 253.57L209.043 255.403L207.674 254.034L206.43 255.279L207.799 256.648L206.95 257.496L207.957 258.503L208.806 257.655L211.962 260.811C212.992 261.841 214.281 261.75 215.526 260.506C215.945 260.087 216.341 259.51 216.51 259.159Z" fill="#F9F9F9"/>
<path d="M222.479 253.394L221.631 252.432C221.574 252.511 221.461 252.647 221.393 252.715C221.088 253.02 220.714 252.964 220.409 252.658L218.022 250.271C216.675 248.925 215.137 249.015 213.824 250.328C212.761 251.391 212.467 252.817 212.976 254.118L214.3 253.586C214.062 252.828 214.096 252.047 214.707 251.437C215.318 250.826 216.121 250.837 216.755 251.47L217.117 251.833L216.031 253.258C214.944 254.706 214.707 256.188 215.736 257.218C216.63 258.112 217.988 258.044 218.983 257.048C219.764 256.267 220.002 255.261 219.775 254.333C220.624 254.797 221.393 254.638 222.049 253.982C222.242 253.79 222.366 253.597 222.479 253.394ZM218.429 255.679C217.943 256.166 217.298 256.222 216.879 255.804C216.37 255.295 216.528 254.525 217.094 253.801L217.954 252.67L218.961 253.677C219.119 254.378 218.961 255.147 218.429 255.679Z" fill="#F9F9F9"/>
<path d="M224.647 251.068L221.479 247.9C220.811 247.029 220.596 245.954 221.456 245.094C221.637 244.913 221.932 244.687 222.135 244.574L220.959 243.375C220.778 243.443 220.483 243.669 220.291 243.861C219.635 244.517 219.646 245.728 220.167 246.678L218.967 245.479L217.768 246.678L223.402 252.312L224.647 251.068Z" fill="#F9F9F9"/>
<path d="M230.884 242.229L229.56 242.806C229.821 243.609 229.64 244.423 229.097 244.966C228.259 245.804 226.981 245.724 225.861 244.763L229.651 240.973C229.538 240.792 229.232 240.441 228.961 240.169C227.49 238.699 225.465 238.687 224.039 240.113C222.478 241.674 222.614 244.095 224.367 245.849C226.064 247.546 228.418 247.614 229.99 246.041C231.042 244.989 231.393 243.53 230.884 242.229ZM224.99 241.063C225.691 240.362 226.721 240.441 227.626 241.256L225.035 243.846C224.333 242.806 224.322 241.731 224.99 241.063Z" fill="#F9F9F9"/>
<path d="M239.325 233.787L238.001 234.364C238.262 235.168 238.081 235.982 237.538 236.525C236.7 237.363 235.422 237.283 234.302 236.322L238.092 232.532C237.979 232.351 237.673 232 237.402 231.728C235.931 230.258 233.906 230.246 232.48 231.672C230.919 233.233 231.055 235.654 232.808 237.408C234.506 239.105 236.859 239.173 238.431 237.6C239.484 236.548 239.834 235.088 239.325 233.787ZM233.431 232.622C234.132 231.921 235.162 232 236.067 232.814L233.476 235.405C232.775 234.364 232.763 233.29 233.431 232.622Z" fill="#F9F9F9"/>
<path d="M246.852 228.862L243.164 225.174C241.942 223.952 240.234 223.918 239.148 225.004C238.367 225.785 238.152 226.882 238.311 227.788L237.485 226.962L236.285 228.161L241.92 233.795L243.164 232.551L239.125 228.512C239.035 227.81 239.25 226.962 239.804 226.407C240.415 225.796 241.309 225.808 242.01 226.509L245.608 230.107L246.852 228.862Z" fill="#F9F9F9"/>
<path d="M251.7 223.97L250.693 222.963C250.546 223.246 250.252 223.676 249.912 224.015C249.245 224.682 248.656 224.637 248.136 224.117L245.24 221.22L247.073 219.388L246.066 218.381L244.233 220.214L242.864 218.845L241.619 220.089L242.988 221.458L242.14 222.307L243.147 223.313L243.995 222.465L247.152 225.621C248.181 226.651 249.471 226.561 250.716 225.316C251.134 224.897 251.53 224.32 251.7 223.97Z" fill="#F9F9F9"/>
<path d="M253.981 221.734L250.813 218.566C250.145 217.695 249.93 216.62 250.79 215.76C250.971 215.579 251.265 215.353 251.469 215.24L250.292 214.041C250.111 214.109 249.817 214.335 249.625 214.527C248.969 215.183 248.98 216.394 249.5 217.344L248.301 216.145L247.102 217.344L252.736 222.979L253.981 221.734Z" fill="#F9F9F9"/>
<path d="M259.256 210.824C257.537 209.105 255.115 209.037 253.486 210.666C251.846 212.306 251.902 214.739 253.622 216.458C255.342 218.178 257.774 218.235 259.415 216.594C261.044 214.965 260.976 212.544 259.256 210.824ZM254.934 215.146C253.803 214.015 253.611 212.555 254.493 211.673C255.364 210.802 256.813 211.005 257.944 212.137C259.075 213.268 259.268 214.705 258.396 215.576C257.514 216.458 256.066 216.277 254.934 215.146Z" fill="#F9F9F9"/>
<path d="M261.34 203.107L260.095 204.351L265.729 209.985L266.974 208.741L261.34 203.107ZM259.145 200.912L257.9 202.156L259.133 203.39L260.378 202.145L259.145 200.912Z" fill="#F9F9F9"/>
<path d="M261.882 197.971L260.638 199.215L268.569 207.146L269.813 205.902L261.882 197.971Z" fill="#F9F9F9"/>
<path d="M272.775 200.972L273.759 201.956L279.303 196.412L278.103 195.213L274.404 198.912L274.619 195.892C274.732 194.444 274.822 192.543 273.612 191.332C272.39 190.11 270.444 190.337 269.041 191.74C267.616 193.165 267.559 194.987 268.193 196.48L269.629 195.926C269.233 194.987 269.245 193.799 270.037 193.007C270.693 192.351 271.655 192.203 272.333 192.882C273.001 193.55 272.99 194.579 272.933 196.265L272.775 200.972Z" fill="#F9F9F9"/>
<path d="M282.849 185.535C280.586 183.272 277.78 183.001 275.925 184.856C274.058 186.723 274.329 189.529 276.592 191.791C278.866 194.065 281.672 194.337 283.539 192.47C285.394 190.615 285.123 187.809 282.849 185.535ZM278.018 190.366C276.422 188.771 276.049 187.04 277.079 186.01C278.097 184.992 279.839 185.354 281.434 186.949C283.041 188.556 283.403 190.298 282.385 191.316C281.355 192.346 279.624 191.972 278.018 190.366Z" fill="#F9F9F9"/>
<path d="M286.519 187.227L287.503 188.211L293.047 182.668L291.848 181.468L288.148 185.168L288.363 182.147C288.476 180.699 288.567 178.798 287.356 177.588C286.134 176.366 284.188 176.592 282.785 177.995C281.36 179.421 281.303 181.242 281.937 182.736L283.374 182.181C282.978 181.242 282.989 180.054 283.781 179.262C284.437 178.606 285.399 178.459 286.078 179.138C286.745 179.805 286.734 180.835 286.677 182.521L286.519 187.227Z" fill="#F9F9F9"/>
<path d="M298.98 176.735L297.43 175.185L298.595 174.019L297.464 172.888L296.299 174.053L291.66 169.415L290.461 170.614L291.524 179.167L292.486 180.129L296.106 176.508L297.656 178.058L298.98 176.735ZM294.986 175.366L292.701 177.651L292.056 172.435L294.986 175.366Z" fill="#F9F9F9"/>
<path d="M418.351 256.648L418.351 267L425.343 267L425.343 265.384L420.239 265.384L420.239 256.648L418.351 256.648Z" fill="#1E2528"/>
<path d="M433.237 265.16L431.893 264.632C431.509 265.384 430.805 265.832 430.037 265.832C428.853 265.832 428.005 264.872 427.893 263.4L433.253 263.4C433.301 263.192 433.333 262.728 433.333 262.344C433.333 260.264 431.909 258.824 429.893 258.824C427.685 258.824 426.069 260.632 426.069 263.112C426.069 265.512 427.685 267.224 429.909 267.224C431.397 267.224 432.677 266.44 433.237 265.16ZM429.893 260.168C430.885 260.168 431.557 260.952 431.621 262.168L427.957 262.168C428.197 260.936 428.949 260.168 429.893 260.168Z" fill="#1E2528"/>
<path d="M443.574 260.456L443.574 259.032L440.806 259.032L440.806 258.776C440.806 257.656 441.398 257 442.342 257C442.79 257 443.318 257.08 443.67 257.208L443.686 255.8C443.302 255.688 442.614 255.576 442.102 255.576C440.198 255.576 439.046 256.776 439.046 258.808L439.046 259.032L437.974 259.032L437.974 260.456L439.046 260.456L439.046 267L440.806 267L440.806 260.456L443.574 260.456Z" fill="#1E2528"/>
<path d="M451.896 263.016C451.896 260.584 450.232 258.824 447.928 258.824C445.608 258.824 443.928 260.584 443.928 263.016C443.928 265.448 445.608 267.208 447.928 267.208C450.232 267.208 451.896 265.448 451.896 263.016ZM445.784 263.016C445.784 261.416 446.68 260.248 447.928 260.248C449.16 260.248 450.04 261.416 450.04 263.016C450.04 264.616 449.16 265.768 447.928 265.768C446.68 265.768 445.784 264.616 445.784 263.016Z" fill="#1E2528"/>
<path d="M455.341 267L455.341 262.52C455.485 261.432 456.093 260.52 457.309 260.52C457.565 260.52 457.933 260.568 458.157 260.632L458.173 258.952C457.997 258.872 457.629 258.824 457.357 258.824C456.429 258.824 455.581 259.688 455.277 260.728L455.277 259.032L453.581 259.032L453.581 267L455.341 267Z" fill="#1E2528"/>
<path d="M466.002 265.16L464.658 264.632C464.274 265.384 463.57 265.832 462.802 265.832C461.618 265.832 460.77 264.872 460.658 263.4L466.018 263.4C466.066 263.192 466.098 262.728 466.098 262.344C466.098 260.264 464.674 258.824 462.658 258.824C460.45 258.824 458.834 260.632 458.834 263.112C458.834 265.512 460.45 267.224 462.674 267.224C464.162 267.224 465.442 266.44 466.002 265.16ZM462.658 260.168C463.65 260.168 464.322 260.952 464.386 262.168L460.722 262.168C460.962 260.936 461.714 260.168 462.658 260.168Z" fill="#1E2528"/>
<path d="M474.183 264.76C474.183 263.272 472.919 262.632 471.095 262.216C469.831 261.928 469.111 261.736 469.111 261.112C469.111 260.536 469.751 260.152 470.695 260.152C471.735 260.152 472.439 260.584 472.823 261.288L474.135 260.744C473.623 259.752 472.599 258.824 470.711 258.824C468.775 258.824 467.447 259.832 467.447 261.256C467.447 262.664 468.791 263.32 470.439 263.688C471.719 263.96 472.519 264.2 472.519 264.872C472.519 265.496 471.927 265.896 470.919 265.896C469.703 265.896 468.855 265.352 468.439 264.632L467.095 265.176C467.639 266.392 468.983 267.224 470.855 267.224C472.919 267.224 474.183 266.232 474.183 264.76Z" fill="#1E2528"/>
<path d="M480.616 266.968L480.616 265.544C480.312 265.64 479.8 265.736 479.32 265.736C478.376 265.736 477.992 265.288 477.992 264.552L477.992 260.456L480.584 260.456L480.584 259.032L477.992 259.032L477.992 257.096L476.232 257.096L476.232 259.032L475.032 259.032L475.032 260.456L476.232 260.456L476.232 264.92C476.232 266.376 477.208 267.224 478.968 267.224C479.56 267.224 480.248 267.096 480.616 266.968Z" fill="#1E2528"/>
<path d="M488.596 265.16L487.252 264.632C486.868 265.384 486.164 265.832 485.396 265.832C484.212 265.832 483.364 264.872 483.252 263.4L488.612 263.4C488.66 263.192 488.692 262.728 488.692 262.344C488.692 260.264 487.268 258.824 485.252 258.824C483.044 258.824 481.428 260.632 481.428 263.112C481.428 265.512 483.044 267.224 485.268 267.224C486.756 267.224 488.036 266.44 488.596 265.16ZM485.252 260.168C486.244 260.168 486.916 260.952 486.98 262.168L483.316 262.168C483.556 260.936 484.308 260.168 485.252 260.168Z" fill="#1E2528"/>
<path d="M500.645 267L500.645 259.032L498.885 259.032L498.885 264.488C498.517 265.208 497.845 265.752 497.045 265.752C496.181 265.752 495.573 265.064 495.573 264.104L495.573 259.032L493.813 259.032L493.813 264.248C493.813 265.96 494.933 267.208 496.453 267.208C497.573 267.208 498.469 266.568 498.949 265.704L498.949 267L500.645 267Z" fill="#1E2528"/>
<path d="M504.638 267L504.638 262.52C504.782 261.432 505.39 260.52 506.606 260.52C506.862 260.52 507.23 260.568 507.454 260.632L507.47 258.952C507.294 258.872 506.926 258.824 506.654 258.824C505.726 258.824 504.878 259.688 504.574 260.728L504.574 259.032L502.878 259.032L502.878 267L504.638 267Z" fill="#1E2528"/>
<path d="M516.446 263C516.446 260.568 515.038 258.824 513.086 258.824C512.19 258.824 511.23 259.32 510.638 260.056L510.638 255.784L508.878 255.784L508.878 267L510.542 267L510.542 266.024C511.102 266.712 512.094 267.224 512.974 267.224C514.99 267.224 516.446 265.448 516.446 263ZM512.462 265.784C511.726 265.784 511.038 265.432 510.638 264.904L510.638 261.176C511.038 260.632 511.758 260.264 512.526 260.264C513.726 260.264 514.59 261.384 514.59 262.968C514.59 264.6 513.694 265.784 512.462 265.784Z" fill="#1E2528"/>
<path d="M525.023 267.112L525.103 265.832C525.007 265.848 524.831 265.864 524.735 265.864C524.303 265.864 524.079 265.56 524.079 265.128L524.079 261.752C524.079 259.848 522.927 258.824 521.071 258.824C519.567 258.824 518.351 259.624 517.791 260.904L519.103 261.464C519.471 260.76 520.047 260.232 520.911 260.232C521.775 260.232 522.335 260.808 522.335 261.704L522.335 262.216L520.559 262.456C518.767 262.712 517.551 263.592 517.551 265.048C517.551 266.312 518.559 267.224 519.967 267.224C521.071 267.224 521.951 266.68 522.447 265.864C522.719 266.792 523.375 267.224 524.303 267.224C524.575 267.224 524.799 267.176 525.023 267.112ZM520.543 265.864C519.855 265.864 519.359 265.448 519.359 264.856C519.359 264.136 520.015 263.704 520.927 263.592L522.335 263.4L522.335 264.824C521.951 265.432 521.295 265.864 520.543 265.864Z" fill="#1E2528"/>
<path d="M533.417 267L533.417 261.784C533.417 260.056 532.233 258.824 530.697 258.824C529.593 258.824 528.665 259.448 528.137 260.2L528.137 259.032L526.441 259.032L526.441 267L528.201 267L528.201 261.288C528.633 260.728 529.385 260.28 530.169 260.28C531.033 260.28 531.657 260.92 531.657 261.912L531.657 267L533.417 267Z" fill="#1E2528"/>
<path d="M542.19 265.16L540.846 264.632C540.462 265.384 539.758 265.832 538.99 265.832C537.806 265.832 536.958 264.872 536.846 263.4L542.206 263.4C542.254 263.192 542.286 262.728 542.286 262.344C542.286 260.264 540.862 258.824 538.846 258.824C536.638 258.824 535.022 260.632 535.022 263.112C535.022 265.512 536.638 267.224 538.862 267.224C540.35 267.224 541.63 266.44 542.19 265.16ZM538.846 260.168C539.838 260.168 540.51 260.952 540.574 262.168L536.91 262.168C537.15 260.936 537.902 260.168 538.846 260.168Z" fill="#1E2528"/>
<path d="M433.293 279.456L433.293 278.032L430.525 278.032L430.525 277.776C430.525 276.656 431.117 276 432.061 276C432.509 276 433.037 276.08 433.389 276.208L433.405 274.8C433.021 274.688 432.333 274.576 431.821 274.576C429.917 274.576 428.765 275.776 428.765 277.808L428.765 278.032L427.693 278.032L427.693 279.456L428.765 279.456L428.765 286L430.525 286L430.525 279.456L433.293 279.456ZM436.077 278.032L434.317 278.032L434.317 286L436.077 286L436.077 278.032ZM436.077 274.928L434.317 274.928L434.317 276.672L436.077 276.672L436.077 274.928Z" fill="#1E2528"/>
<path d="M445.307 286L445.307 280.784C445.307 279.056 444.123 277.824 442.587 277.824C441.483 277.824 440.555 278.448 440.027 279.2L440.027 278.032L438.331 278.032L438.331 286L440.091 286L440.091 280.288C440.523 279.728 441.275 279.28 442.059 279.28C442.923 279.28 443.547 279.92 443.547 280.912L443.547 286L445.307 286Z" fill="#1E2528"/>
<path d="M454.864 282.016C454.864 279.584 453.2 277.824 450.896 277.824C448.576 277.824 446.896 279.584 446.896 282.016C446.896 284.448 448.576 286.208 450.896 286.208C453.2 286.208 454.864 284.448 454.864 282.016ZM448.752 282.016C448.752 280.416 449.648 279.248 450.896 279.248C452.128 279.248 453.008 280.416 453.008 282.016C453.008 283.616 452.128 284.768 450.896 284.768C449.648 284.768 448.752 283.616 448.752 282.016Z" fill="#1E2528"/>
<path d="M458.31 286L458.31 281.52C458.454 280.432 459.062 279.52 460.278 279.52C460.534 279.52 460.902 279.568 461.126 279.632L461.142 277.952C460.966 277.872 460.598 277.824 460.326 277.824C459.398 277.824 458.55 278.688 458.246 279.728L458.246 278.032L456.55 278.032L456.55 286L458.31 286Z" fill="#1E2528"/>
<path d="M469.242 286.112L469.322 284.832C469.226 284.848 469.05 284.864 468.954 284.864C468.522 284.864 468.298 284.56 468.298 284.128L468.298 280.752C468.298 278.848 467.146 277.824 465.29 277.824C463.786 277.824 462.57 278.624 462.01 279.904L463.322 280.464C463.69 279.76 464.266 279.232 465.13 279.232C465.994 279.232 466.554 279.808 466.554 280.704L466.554 281.216L464.778 281.456C462.986 281.712 461.77 282.592 461.77 284.048C461.77 285.312 462.778 286.224 464.186 286.224C465.29 286.224 466.17 285.68 466.666 284.864C466.938 285.792 467.594 286.224 468.522 286.224C468.794 286.224 469.018 286.176 469.242 286.112ZM464.762 284.864C464.074 284.864 463.578 284.448 463.578 283.856C463.578 283.136 464.234 282.704 465.146 282.592L466.554 282.4L466.554 283.824C466.17 284.432 465.514 284.864 464.762 284.864Z" fill="#1E2528"/>
<path d="M477.712 284.784C477.056 284.784 476.352 284.464 475.904 283.968L475.904 280.288C476.288 279.744 476.976 279.232 477.776 279.232C478.976 279.232 479.856 280.336 479.856 281.984C479.856 283.632 478.976 284.784 477.712 284.784ZM481.712 281.984C481.712 279.552 480.192 277.824 478.32 277.824C477.152 277.824 476.272 278.496 475.856 279.184L475.856 278.032L474.144 278.032L474.144 288.848L475.904 288.848L475.904 285.184C476.4 285.808 477.264 286.208 478.208 286.208C480.176 286.208 481.712 284.432 481.712 281.984Z" fill="#1E2528"/>
<path d="M485.169 278.032L483.409 278.032L483.409 286L485.169 286L485.169 278.032ZM485.169 274.928L483.409 274.928L483.409 276.672L485.169 276.672L485.169 274.928Z" fill="#1E2528"/>
<path d="M494.289 286.112L494.369 284.832C494.273 284.848 494.097 284.864 494.001 284.864C493.569 284.864 493.345 284.56 493.345 284.128L493.345 280.752C493.345 278.848 492.193 277.824 490.337 277.824C488.833 277.824 487.617 278.624 487.057 279.904L488.369 280.464C488.737 279.76 489.313 279.232 490.177 279.232C491.041 279.232 491.601 279.808 491.601 280.704L491.601 281.216L489.825 281.456C488.033 281.712 486.817 282.592 486.817 284.048C486.817 285.312 487.825 286.224 489.233 286.224C490.337 286.224 491.217 285.68 491.713 284.864C491.985 285.792 492.641 286.224 493.569 286.224C493.841 286.224 494.065 286.176 494.289 286.112ZM489.809 284.864C489.121 284.864 488.625 284.448 488.625 283.856C488.625 283.136 489.281 282.704 490.193 282.592L491.601 282.4L491.601 283.824C491.217 284.432 490.561 284.864 489.809 284.864Z" fill="#1E2528"/>
<path d="M502.682 286L502.682 280.784C502.682 279.056 501.498 277.824 499.962 277.824C498.858 277.824 497.93 278.448 497.402 279.2L497.402 278.032L495.706 278.032L495.706 286L497.466 286L497.466 280.288C497.898 279.728 498.65 279.28 499.434 279.28C500.298 279.28 500.922 279.92 500.922 280.912L500.922 286L502.682 286Z" fill="#1E2528"/>
<path d="M509.57 285.968L509.57 284.544C509.266 284.64 508.754 284.736 508.274 284.736C507.33 284.736 506.946 284.288 506.946 283.552L506.946 279.456L509.538 279.456L509.538 278.032L506.946 278.032L506.946 276.096L505.186 276.096L505.186 278.032L503.986 278.032L503.986 279.456L505.186 279.456L505.186 283.92C505.186 285.376 506.162 286.224 507.922 286.224C508.514 286.224 509.202 286.096 509.57 285.968Z" fill="#1E2528"/>
<path d="M517.867 286.112L517.947 284.832C517.851 284.848 517.675 284.864 517.579 284.864C517.147 284.864 516.923 284.56 516.923 284.128L516.923 280.752C516.923 278.848 515.771 277.824 513.915 277.824C512.411 277.824 511.195 278.624 510.635 279.904L511.947 280.464C512.315 279.76 512.891 279.232 513.755 279.232C514.619 279.232 515.179 279.808 515.179 280.704L515.179 281.216L513.403 281.456C511.611 281.712 510.395 282.592 510.395 284.048C510.395 285.312 511.403 286.224 512.811 286.224C513.915 286.224 514.795 285.68 515.291 284.864C515.563 285.792 516.219 286.224 517.147 286.224C517.419 286.224 517.643 286.176 517.867 286.112ZM513.387 284.864C512.699 284.864 512.203 284.448 512.203 283.856C512.203 283.136 512.859 282.704 513.771 282.592L515.179 282.4L515.179 283.824C514.795 284.432 514.139 284.864 513.387 284.864Z" fill="#1E2528"/>
<path d="M524.116 285.968L524.116 284.544C523.812 284.64 523.3 284.736 522.82 284.736C521.876 284.736 521.492 284.288 521.492 283.552L521.492 279.456L524.084 279.456L524.084 278.032L521.492 278.032L521.492 276.096L519.732 276.096L519.732 278.032L518.532 278.032L518.532 279.456L519.732 279.456L519.732 283.92C519.732 285.376 520.708 286.224 522.468 286.224C523.06 286.224 523.748 286.096 524.116 285.968Z" fill="#1E2528"/>
<path d="M532.096 284.16L530.752 283.632C530.368 284.384 529.664 284.832 528.896 284.832C527.712 284.832 526.864 283.872 526.752 282.4L532.112 282.4C532.16 282.192 532.192 281.728 532.192 281.344C532.192 279.264 530.768 277.824 528.752 277.824C526.544 277.824 524.928 279.632 524.928 282.112C524.928 284.512 526.544 286.224 528.768 286.224C530.256 286.224 531.536 285.44 532.096 284.16ZM528.752 279.168C529.744 279.168 530.416 279.952 530.48 281.168L526.816 281.168C527.056 279.936 527.808 279.168 528.752 279.168Z" fill="#1E2528"/>
<path fill-rule="evenodd" clip-rule="evenodd" d="M234.548 291.05C229.472 288.948 224.86 285.866 220.975 281.981L250.558 252.398L280.141 222.814C284.026 226.699 287.108 231.311 289.21 236.387C291.313 241.463 292.395 246.904 292.395 252.398C292.395 257.892 291.313 263.332 289.21 268.408C287.108 273.484 284.026 278.096 280.141 281.981C278.243 283.88 276.171 285.586 273.955 287.081C273.586 286.265 273.238 285.466 272.911 284.686C271.101 280.373 269.926 276.66 269.203 274.028C268.842 272.713 268.595 271.669 268.438 270.956C268.359 270.599 268.303 270.325 268.267 270.142C268.249 270.05 268.236 269.981 268.228 269.936L268.219 269.885L268.217 269.873L268.216 269.871C268.216 269.871 268.216 269.871 268.165 269.88L268.216 269.871C268.145 269.463 267.757 269.19 267.349 269.261C266.94 269.332 266.667 269.72 266.738 270.128L267.477 269.999C266.738 270.128 266.738 270.129 266.739 270.13L266.739 270.135L266.742 270.15L266.753 270.209C266.762 270.259 266.776 270.334 266.795 270.431C266.833 270.625 266.892 270.91 266.973 271.278C267.135 272.014 267.388 273.084 267.757 274.426C268.494 277.109 269.689 280.884 271.528 285.266C271.888 286.124 272.272 287.005 272.683 287.906C270.739 289.117 268.694 290.17 266.568 291.05C261.492 293.153 256.052 294.235 250.558 294.235C245.064 294.235 239.623 293.153 234.548 291.05ZM272.683 287.906C276.467 296.207 282.469 306.189 291.775 314.982C302.098 324.738 316.472 333.015 336.345 335.922C355.858 338.775 380.631 336.446 412.033 325.313L409.934 329.793C409.758 330.169 409.92 330.615 410.295 330.791C410.67 330.967 411.116 330.805 411.292 330.43L414.156 324.318C414.332 323.943 414.17 323.496 413.795 323.32L407.683 320.456C407.308 320.281 406.861 320.442 406.686 320.817C406.51 321.192 406.671 321.639 407.047 321.815L411.512 323.907C380.287 334.973 355.771 337.247 336.562 334.437C317.013 331.578 302.918 323.449 292.805 313.892C283.598 305.192 277.676 295.294 273.955 287.081C273.536 287.363 273.112 287.639 272.683 287.906Z" fill="#1E2528"/>
<defs>
<linearGradient id="paint0_linear_160_214" x1="-260.054" y1="237.095" x2="260.757" y2="-278.926" gradientUnits="userSpaceOnUse">
<stop stop-color="#8ECA45"/>
<stop offset="1" stop-color="#07A76F"/>
</linearGradient>
</defs>
</svg>
