<svg width="40" height="40" viewBox="0 0 40 40" fill="none" xmlns="http://www.w3.org/2000/svg">
<rect width="40" height="40" fill="url(#paint0_linear_153_762)"/>
<path d="M27.104 13.216L26.048 12.136C25.112 13.024 23.36 13.696 21.728 13.696C20.528 13.696 18.92 13.432 17.912 13.072C17.288 12.472 16.448 12.136 15.464 12.136C13.28 12.136 11.744 13.84 11.744 16.168C11.744 18.496 13.28 20.2 15.464 20.2C17.624 20.2 19.16 18.496 19.16 16.168C19.16 15.592 19.064 15.064 18.896 14.584C19.784 14.968 20.816 15.208 21.632 15.208C22.352 15.184 23.144 14.968 23.888 14.608L12.776 27.232L13.88 28.336L27.104 13.216ZM28.232 24.304C28.232 21.976 26.672 20.272 24.536 20.272C22.376 20.272 20.816 21.976 20.816 24.304C20.816 26.632 22.376 28.336 24.536 28.336C26.672 28.336 28.232 26.632 28.232 24.304ZM22.88 24.304C22.88 22.96 23.576 22 24.536 22C25.472 22 26.144 22.96 26.144 24.304C26.144 25.624 25.472 26.608 24.536 26.608C23.576 26.608 22.88 25.624 22.88 24.304ZM13.808 16.168C13.808 14.824 14.504 13.864 15.464 13.864C16.4 13.864 17.096 14.824 17.096 16.168C17.096 17.488 16.4 18.472 15.464 18.472C14.504 18.472 13.808 17.488 13.808 16.168Z" fill="#F9F9F9"/>
<defs>
<linearGradient id="paint0_linear_153_762" x1="-8.0083" y1="-9.68781" x2="50.4048" y2="-9.41792" gradientUnits="userSpaceOnUse">
<stop stop-color="#07A76F"/>
<stop offset="1" stop-color="#8ECA45"/>
</linearGradient>
</defs>
</svg>
