<svg width="724" height="297" viewBox="0 0 724 297" fill="none" xmlns="http://www.w3.org/2000/svg">
<path d="M111 208V40.0001L589 0.00012207V268L111 208Z" fill="url(#paint0_linear_160_157)"/>
<path d="M193.5 124C193.5 170.116 156.116 207.5 110 207.5C63.8842 207.5 26.5 170.116 26.5 124C26.5 77.8843 63.8842 40.5001 110 40.5001C156.116 40.5001 193.5 77.8843 193.5 124Z" fill="#F9F9F9" stroke="url(#paint1_linear_160_157)"/>
<path d="M723.5 134C723.5 207.73 663.73 267.5 590 267.5C516.27 267.5 456.5 207.73 456.5 134C456.5 60.2701 516.27 0.500122 590 0.500122C663.73 0.500122 723.5 60.2701 723.5 134Z" fill="url(#paint2_linear_160_157)" stroke="#F9F9F9"/>
<path d="M360.833 113.512V112.424H357.665V109.336H356.513V112.424H353.345V113.512H356.513V116.776H357.665V113.512H360.833ZM362.827 115.832V117H370.539V115.656H364.923L367.547 113.336C368.523 112.456 370.059 111.096 370.059 109.336C370.059 107.64 368.571 106.44 366.651 106.44C364.715 106.44 363.435 107.672 362.827 109.144L363.963 109.672C364.395 108.648 365.307 107.736 366.571 107.736C367.611 107.736 368.507 108.376 368.507 109.48C368.507 110.552 367.627 111.384 366.395 112.536L362.827 115.832ZM380.262 113.608C380.262 111.624 378.582 110.136 376.47 110.136C375.382 110.136 374.518 110.536 373.974 110.936L374.182 108.056H379.798V106.648H372.998L372.598 112.44L373.59 112.648C374.102 111.912 375.126 111.416 376.198 111.416C377.67 111.416 378.71 112.376 378.71 113.704C378.71 115.048 377.654 115.912 376.102 115.912C374.774 115.912 373.814 115.272 373.222 114.136L372.07 114.728C372.854 116.264 374.31 117.208 376.15 117.208C378.518 117.208 380.262 115.64 380.262 113.608ZM392.488 117.128L392.552 116.088C392.456 116.104 392.296 116.12 392.2 116.12C391.72 116.12 391.48 115.784 391.48 115.352V111.704C391.48 109.864 390.36 108.856 388.632 108.856C387.256 108.856 386.056 109.624 385.48 110.872L386.536 111.304C386.936 110.552 387.56 109.992 388.504 109.992C389.48 109.992 390.12 110.664 390.12 111.656V112.28L388.264 112.504C386.504 112.728 385.256 113.576 385.256 115.048C385.256 116.312 386.264 117.208 387.672 117.208C388.792 117.208 389.672 116.664 390.184 115.816C390.376 116.728 390.968 117.208 391.864 117.208C392.104 117.208 392.296 117.176 392.488 117.128ZM388.04 116.104C387.24 116.104 386.68 115.624 386.68 114.952C386.68 114.136 387.448 113.656 388.504 113.528L390.12 113.336V114.792C389.704 115.56 388.92 116.104 388.04 116.104ZM400.677 117V111.752C400.677 110.056 399.493 108.856 397.941 108.856C396.805 108.856 395.845 109.528 395.317 110.28V109.064H394.005V117H395.365V111.24C395.861 110.536 396.725 110.008 397.621 110.008C398.613 110.008 399.317 110.744 399.317 111.848V117H400.677ZM409.724 117V111.752C409.724 110.056 408.54 108.856 406.988 108.856C405.852 108.856 404.892 109.528 404.364 110.28V109.064H403.052V117H404.412V111.24C404.908 110.536 405.772 110.008 406.668 110.008C407.66 110.008 408.364 110.744 408.364 111.848V117H409.724ZM413.459 109.064H412.099V117H413.459V109.064ZM413.459 105.912H412.099V107.496H413.459V105.912Z" fill="#F9F9F9"/>
<path d="M59.8984 123.25C67.3724 104.839 72.2422 93.5756 74.5078 89.4611C75.9922 86.6225 78.3099 85.2163 81.4609 85.2423C83.6484 85.2423 85.7318 85.4246 87.7109 85.7892C89.6901 86.1277 90.9141 86.5574 91.3828 87.0782C91.0182 87.9376 90.0938 89.0835 88.6094 90.5157C78.1146 100.438 69.3125 111.128 62.2031 122.586H79.9766V108.68C84.8203 107.039 88.362 106.102 90.6016 105.867L92.2031 106.102V122.586H97.7891V124.617H92.2031V125.477C92.2031 129.201 92.2682 131.583 92.3984 132.625C92.5286 133.667 92.8151 134.409 93.2578 134.852L97.3984 135.555C97.5026 135.867 97.5547 136.349 97.5547 137H72.75L72.9062 135.555L78.9219 134.774C79.3385 134.513 79.612 133.862 79.7422 132.82C79.8984 131.779 79.9766 129.357 79.9766 125.555V124.617H60.3672L59.8984 123.25ZM102.359 131.649C102.359 129.513 103.023 127.807 104.352 126.531C105.68 125.255 107.359 124.617 109.391 124.617C111.474 124.617 113.206 125.281 114.586 126.609C115.966 127.938 116.656 129.617 116.656 131.649C116.656 133.576 115.94 135.177 114.508 136.453C113.076 137.729 111.37 138.367 109.391 138.367C107.411 138.367 105.745 137.729 104.391 136.453C103.036 135.177 102.359 133.576 102.359 131.649ZM121.305 136.024C127.503 129.878 132.451 123.55 136.148 117.039C139.872 110.503 141.734 104.201 141.734 98.1329C141.734 94.8256 141.357 92.1434 140.602 90.0861C139.846 88.0288 138.831 87.0001 137.555 87.0001C137.346 87.0001 137.112 87.0131 136.852 87.0392C136.617 87.0652 136.422 87.0782 136.266 87.0782L136.031 87.1564C135.51 87.9116 134.586 90.6199 133.258 95.2814C131.956 99.9428 130.914 102.495 130.133 102.938C127.789 102.781 125.797 102.143 124.156 101.024C122.542 99.8777 121.734 98.4064 121.734 96.6095C121.734 93.771 123.466 91.1668 126.93 88.797C130.393 86.4272 134.234 85.2423 138.453 85.2423C143.141 85.2423 147.034 86.4142 150.133 88.7579C153.258 91.1017 154.82 94.409 154.82 98.6798C154.82 102.742 153.505 106.362 150.875 109.539C148.245 112.69 143.089 117.287 135.406 123.328L130.758 127.156C133.857 126.245 136.279 125.789 138.023 125.789C139.039 125.789 140.992 125.906 143.883 126.141C146.799 126.349 148.818 126.453 149.938 126.453C151.474 126.453 152.711 125.958 153.648 124.969C154.612 123.953 155.628 122.117 156.695 119.461L158.023 119.813C155.315 131.818 152.516 137.807 149.625 137.781C147.984 137.781 144.69 137.508 139.742 136.961C134.82 136.388 131.747 136.102 130.523 136.102C129.508 136.102 128.284 136.206 126.852 136.414C125.445 136.596 124.26 136.792 123.297 137L121.969 137.313L121.305 136.024Z" fill="url(#paint3_linear_160_157)"/>
<path d="M96.0604 165V159.784C96.0604 158.04 94.8924 156.824 93.4044 156.824C92.3804 156.824 91.4684 157.416 90.8924 158.28C90.4604 157.384 89.6284 156.824 88.6684 156.824C87.6604 156.824 86.7964 157.448 86.3004 158.216V157.032H84.6044V165H86.3644V159.288C86.7644 158.728 87.4364 158.28 88.1244 158.28C88.8924 158.28 89.4524 158.936 89.4524 159.928V165H91.2124V159.784C91.2124 159.576 91.1964 159.368 91.1644 159.176C91.5804 158.664 92.2364 158.28 92.9084 158.28C93.7084 158.28 94.3004 158.936 94.3004 159.928V165H96.0604ZM99.9581 157.032H98.1981V165H99.9581V157.032ZM99.9581 153.928H98.1981V155.672H99.9581V153.928ZM103.974 153.784H102.214V165H103.974V153.784ZM107.989 157.032H106.229V165H107.989V157.032ZM107.989 153.928H106.229V155.672H107.989V153.928ZM117.109 165.112L117.189 163.832C117.093 163.848 116.917 163.864 116.821 163.864C116.389 163.864 116.165 163.56 116.165 163.128V159.752C116.165 157.848 115.013 156.824 113.157 156.824C111.653 156.824 110.437 157.624 109.877 158.904L111.189 159.464C111.557 158.76 112.133 158.232 112.997 158.232C113.861 158.232 114.421 158.808 114.421 159.704V160.216L112.645 160.456C110.853 160.712 109.637 161.592 109.637 163.048C109.637 164.312 110.645 165.224 112.053 165.224C113.157 165.224 114.037 164.68 114.533 163.864C114.805 164.792 115.461 165.224 116.389 165.224C116.661 165.224 116.885 165.176 117.109 165.112ZM112.629 163.864C111.941 163.864 111.445 163.448 111.445 162.856C111.445 162.136 112.101 161.704 113.013 161.592L114.421 161.4V162.824C114.037 163.432 113.381 163.864 112.629 163.864ZM120.286 165V160.52C120.43 159.432 121.038 158.52 122.254 158.52C122.51 158.52 122.878 158.568 123.102 158.632L123.118 156.952C122.942 156.872 122.574 156.824 122.302 156.824C121.374 156.824 120.526 157.688 120.222 158.728V157.032H118.526V165H120.286ZM127.714 163.784C126.53 163.784 125.682 162.648 125.682 161.048C125.682 159.432 126.578 158.264 127.81 158.264C128.53 158.264 129.218 158.584 129.602 159.064V162.824C129.17 163.4 128.45 163.784 127.714 163.784ZM131.362 165V153.784H129.602V157.864C129.074 157.24 128.194 156.824 127.346 156.824C125.298 156.824 123.826 158.6 123.826 161.08C123.826 163.48 125.25 165.224 127.234 165.224C128.114 165.224 129.122 164.664 129.698 163.896V165H131.362ZM135.38 157.032H133.62V165H135.38V157.032ZM135.38 153.928H133.62V155.672H135.38V153.928Z" fill="url(#paint4_linear_160_157)"/>
<path d="M566.848 190V181.524C566.848 178.69 564.95 176.714 562.532 176.714C560.868 176.714 559.386 177.676 558.45 179.08C557.748 177.624 556.396 176.714 554.836 176.714C553.198 176.714 551.794 177.728 550.988 178.976V177.052H548.232V190H551.092V180.718C551.742 179.808 552.834 179.08 553.952 179.08C555.2 179.08 556.11 180.146 556.11 181.758V190H558.97V181.524C558.97 181.186 558.944 180.848 558.892 180.536C559.568 179.704 560.634 179.08 561.726 179.08C563.026 179.08 563.988 180.146 563.988 181.758V190H566.848ZM573.182 177.052H570.322V190H573.182V177.052ZM573.182 172.008H570.322V174.842H573.182V172.008ZM579.707 171.774H576.847V190H579.707V171.774ZM586.233 177.052H583.373V190H586.233V177.052ZM586.233 172.008H583.373V174.842H586.233V172.008ZM601.052 190.182L601.182 188.102C601.026 188.128 600.74 188.154 600.584 188.154C599.882 188.154 599.518 187.66 599.518 186.958V181.472C599.518 178.378 597.646 176.714 594.63 176.714C592.186 176.714 590.21 178.014 589.3 180.094L591.432 181.004C592.03 179.86 592.966 179.002 594.37 179.002C595.774 179.002 596.684 179.938 596.684 181.394V182.226L593.798 182.616C590.886 183.032 588.91 184.462 588.91 186.828C588.91 188.882 590.548 190.364 592.836 190.364C594.63 190.364 596.06 189.48 596.866 188.154C597.308 189.662 598.374 190.364 599.882 190.364C600.324 190.364 600.688 190.286 601.052 190.182ZM593.772 188.154C592.654 188.154 591.848 187.478 591.848 186.516C591.848 185.346 592.914 184.644 594.396 184.462L596.684 184.15V186.464C596.06 187.452 594.994 188.154 593.772 188.154ZM606.215 190V182.72C606.449 180.952 607.437 179.47 609.413 179.47C609.829 179.47 610.427 179.548 610.791 179.652L610.817 176.922C610.531 176.792 609.933 176.714 609.491 176.714C607.983 176.714 606.605 178.118 606.111 179.808V177.052H603.355V190H606.215ZM618.286 188.024C616.362 188.024 614.984 186.178 614.984 183.578C614.984 180.952 616.44 179.054 618.442 179.054C619.612 179.054 620.73 179.574 621.354 180.354V186.464C620.652 187.4 619.482 188.024 618.286 188.024ZM624.214 190V171.774H621.354V178.404C620.496 177.39 619.066 176.714 617.688 176.714C614.36 176.714 611.968 179.6 611.968 183.63C611.968 187.53 614.282 190.364 617.506 190.364C618.936 190.364 620.574 189.454 621.51 188.206V190H624.214ZM630.743 177.052H627.883V190H630.743V177.052ZM630.743 172.008H627.883V174.842H630.743V172.008Z" fill="#F9F9F9"/>
<path d="M555.268 214V211.214H556.724C558.824 211.214 560.252 209.912 560.252 208.064C560.252 206.23 558.824 204.942 556.696 204.942H553.616V214H555.268ZM555.268 206.328H556.584C557.746 206.328 558.544 207.028 558.544 208.064C558.544 209.114 557.746 209.828 556.584 209.828H555.268V206.328ZM567.421 212.39L566.245 211.928C565.909 212.586 565.293 212.978 564.621 212.978C563.585 212.978 562.843 212.138 562.745 210.85H567.435C567.477 210.668 567.505 210.262 567.505 209.926C567.505 208.106 566.259 206.846 564.495 206.846C562.563 206.846 561.149 208.428 561.149 210.598C561.149 212.698 562.563 214.196 564.509 214.196C565.811 214.196 566.931 213.51 567.421 212.39ZM564.495 208.022C565.363 208.022 565.951 208.708 566.007 209.772H562.801C563.011 208.694 563.669 208.022 564.495 208.022ZM570.561 214V210.08C570.687 209.128 571.219 208.33 572.283 208.33C572.507 208.33 572.829 208.372 573.025 208.428L573.039 206.958C572.885 206.888 572.563 206.846 572.325 206.846C571.513 206.846 570.771 207.602 570.505 208.512V207.028H569.021V214H570.561ZM579.761 212.04C579.761 210.738 578.655 210.178 577.059 209.814C575.953 209.562 575.323 209.394 575.323 208.848C575.323 208.344 575.883 208.008 576.709 208.008C577.619 208.008 578.235 208.386 578.571 209.002L579.719 208.526C579.271 207.658 578.375 206.846 576.723 206.846C575.029 206.846 573.867 207.728 573.867 208.974C573.867 210.206 575.043 210.78 576.485 211.102C577.605 211.34 578.305 211.55 578.305 212.138C578.305 212.684 577.787 213.034 576.905 213.034C575.841 213.034 575.099 212.558 574.735 211.928L573.559 212.404C574.035 213.468 575.211 214.196 576.849 214.196C578.655 214.196 579.761 213.328 579.761 212.04ZM587.698 210.514C587.698 208.386 586.242 206.846 584.226 206.846C582.196 206.846 580.726 208.386 580.726 210.514C580.726 212.642 582.196 214.182 584.226 214.182C586.242 214.182 587.698 212.642 587.698 210.514ZM582.35 210.514C582.35 209.114 583.134 208.092 584.226 208.092C585.304 208.092 586.074 209.114 586.074 210.514C586.074 211.914 585.304 212.922 584.226 212.922C583.134 212.922 582.35 211.914 582.35 210.514ZM595.277 214V209.436C595.277 207.924 594.241 206.846 592.897 206.846C591.931 206.846 591.119 207.392 590.657 208.05V207.028H589.173V214H590.713V209.002C591.091 208.512 591.749 208.12 592.435 208.12C593.191 208.12 593.737 208.68 593.737 209.548V214H595.277ZM602.954 212.39L601.778 211.928C601.442 212.586 600.826 212.978 600.154 212.978C599.118 212.978 598.376 212.138 598.278 210.85H602.968C603.01 210.668 603.038 210.262 603.038 209.926C603.038 208.106 601.792 206.846 600.028 206.846C598.096 206.846 596.682 208.428 596.682 210.598C596.682 212.698 598.096 214.196 600.042 214.196C601.344 214.196 602.464 213.51 602.954 212.39ZM600.028 208.022C600.896 208.022 601.484 208.708 601.54 209.772H598.334C598.544 208.694 599.202 208.022 600.028 208.022ZM613.707 214V209.436C613.707 207.924 612.671 206.846 611.327 206.846C610.361 206.846 609.549 207.392 609.087 208.05V207.028H607.603V214H609.143V209.002C609.521 208.512 610.179 208.12 610.865 208.12C611.621 208.12 612.167 208.68 612.167 209.548V214H613.707ZM621.383 212.39L620.207 211.928C619.871 212.586 619.255 212.978 618.583 212.978C617.547 212.978 616.805 212.138 616.707 210.85H621.397C621.439 210.668 621.467 210.262 621.467 209.926C621.467 208.106 620.221 206.846 618.457 206.846C616.525 206.846 615.111 208.428 615.111 210.598C615.111 212.698 616.525 214.196 618.471 214.196C619.773 214.196 620.893 213.51 621.383 212.39ZM618.457 208.022C619.325 208.022 619.913 208.708 619.969 209.772H616.763C616.973 208.694 617.631 208.022 618.457 208.022ZM624.524 207.028H622.984V214H624.524V207.028ZM624.524 204.312H622.984V205.838H624.524V204.312ZM555.913 226.222L554.597 225.732C554.303 226.432 553.799 226.894 553.099 226.894C552.091 226.894 551.377 225.914 551.377 224.556C551.377 223.142 552.077 222.134 553.057 222.134C553.701 222.134 554.233 222.526 554.527 223.268L555.857 222.75C555.353 221.588 554.373 220.846 552.987 220.846C551.097 220.846 549.739 222.4 549.739 224.57C549.739 226.67 551.111 228.196 553.001 228.196C554.387 228.196 555.437 227.356 555.913 226.222ZM562.984 226.39L561.808 225.928C561.472 226.586 560.856 226.978 560.184 226.978C559.148 226.978 558.406 226.138 558.308 224.85H562.998C563.04 224.668 563.068 224.262 563.068 223.926C563.068 222.106 561.822 220.846 560.058 220.846C558.126 220.846 556.712 222.428 556.712 224.598C556.712 226.698 558.126 228.196 560.072 228.196C561.374 228.196 562.494 227.51 562.984 226.39ZM560.058 222.022C560.926 222.022 561.514 222.708 561.57 223.772H558.364C558.574 222.694 559.232 222.022 560.058 222.022ZM570.688 228V223.436C570.688 221.924 569.652 220.846 568.308 220.846C567.342 220.846 566.53 221.392 566.068 222.05V221.028H564.584V228H566.124V223.002C566.502 222.512 567.16 222.12 567.846 222.12C568.602 222.12 569.148 222.68 569.148 223.548V228H570.688ZM576.715 227.972V226.726C576.449 226.81 576.001 226.894 575.581 226.894C574.755 226.894 574.419 226.502 574.419 225.858V222.274H576.687V221.028H574.419V219.334H572.879V221.028H571.829V222.274H572.879V226.18C572.879 227.454 573.733 228.196 575.273 228.196C575.791 228.196 576.393 228.084 576.715 227.972ZM579.509 228V224.08C579.635 223.128 580.167 222.33 581.231 222.33C581.455 222.33 581.777 222.372 581.973 222.428L581.987 220.958C581.833 220.888 581.511 220.846 581.273 220.846C580.461 220.846 579.719 221.602 579.453 222.512V221.028H577.969V228H579.509ZM584.759 221.028H583.219V228H584.759V221.028ZM584.759 218.312H583.219V219.838H584.759V218.312ZM595.676 228V221.028H594.136V225.802C593.814 226.432 593.226 226.908 592.526 226.908C591.77 226.908 591.238 226.306 591.238 225.466V221.028H589.698V225.592C589.698 227.09 590.678 228.182 592.008 228.182C592.988 228.182 593.772 227.622 594.192 226.866V228H595.676ZM599.169 228V224.08C599.295 223.128 599.827 222.33 600.891 222.33C601.115 222.33 601.437 222.372 601.633 222.428L601.647 220.958C601.493 220.888 601.171 220.846 600.933 220.846C600.121 220.846 599.379 221.602 599.113 222.512V221.028H597.629V228H599.169ZM609.501 224.5C609.501 222.372 608.269 220.846 606.561 220.846C605.777 220.846 604.937 221.28 604.419 221.924V218.186H602.879V228H604.335V227.146C604.825 227.748 605.693 228.196 606.463 228.196C608.227 228.196 609.501 226.642 609.501 224.5ZM606.015 226.936C605.371 226.936 604.769 226.628 604.419 226.166V222.904C604.769 222.428 605.399 222.106 606.071 222.106C607.121 222.106 607.877 223.086 607.877 224.472C607.877 225.9 607.093 226.936 606.015 226.936ZM617.007 228.098L617.077 226.978C616.993 226.992 616.839 227.006 616.755 227.006C616.377 227.006 616.181 226.74 616.181 226.362V223.408C616.181 221.742 615.173 220.846 613.549 220.846C612.233 220.846 611.169 221.546 610.679 222.666L611.827 223.156C612.149 222.54 612.653 222.078 613.409 222.078C614.165 222.078 614.655 222.582 614.655 223.366V223.814L613.101 224.024C611.533 224.248 610.469 225.018 610.469 226.292C610.469 227.398 611.351 228.196 612.583 228.196C613.549 228.196 614.319 227.72 614.753 227.006C614.991 227.818 615.565 228.196 616.377 228.196C616.615 228.196 616.811 228.154 617.007 228.098ZM613.087 227.006C612.485 227.006 612.051 226.642 612.051 226.124C612.051 225.494 612.625 225.116 613.423 225.018L614.655 224.85V226.096C614.319 226.628 613.745 227.006 613.087 227.006ZM624.351 228V223.436C624.351 221.924 623.315 220.846 621.971 220.846C621.005 220.846 620.193 221.392 619.731 222.05V221.028H618.247V228H619.787V223.002C620.165 222.512 620.823 222.12 621.509 222.12C622.265 222.12 622.811 222.68 622.811 223.548V228H624.351ZM627.771 221.028H626.231V228H627.771V221.028ZM627.771 218.312H626.231V219.838H627.771V218.312Z" fill="#F9F9F9"/>
<path d="M515.375 112.875C515.375 98.8751 519.917 87.2293 529 77.9376C538.125 68.646 550.104 62.9793 564.938 60.9376C565.438 61.4376 565.771 62.0835 565.938 62.8751C549.396 70.5418 539.688 82.4376 536.812 98.5626C541.062 95.0626 545.875 93.3126 551.25 93.3126C558.333 93.3126 564.021 95.5626 568.312 100.063C572.646 104.521 574.812 110.375 574.812 117.625C574.812 125.833 572 132.5 566.375 137.625C560.792 142.708 554 145.25 546 145.25C537.208 145.25 529.896 142.396 524.062 136.688C518.271 130.979 515.375 123.042 515.375 112.875ZM535.75 110.063C535.75 119.021 536.625 126.729 538.375 133.188C540.125 139.646 542.792 142.875 546.375 142.875C549.125 142.875 551.188 140.833 552.562 136.75C553.979 132.625 554.688 127.625 554.688 121.75C554.688 115.25 553.625 109.833 551.5 105.5C549.375 101.125 546.729 98.9376 543.562 98.9376C541.354 98.9376 539.042 99.5835 536.625 100.875C536.042 103.875 535.75 106.938 535.75 110.063ZM582.438 135.438C582.438 132.021 583.5 129.292 585.625 127.25C587.75 125.208 590.438 124.188 593.688 124.188C597.021 124.188 599.792 125.25 602 127.375C604.208 129.5 605.312 132.188 605.312 135.438C605.312 138.521 604.167 141.083 601.875 143.125C599.583 145.167 596.854 146.188 593.688 146.188C590.521 146.188 587.854 145.167 585.688 143.125C583.521 141.083 582.438 138.521 582.438 135.438ZM611.375 91.6251C613 81.2085 614.875 73.7085 617 69.1251C619.125 64.5001 621.729 62.1876 624.812 62.1876C627.271 62.1876 632.521 62.6251 640.562 63.5001C648.646 64.3335 654.875 64.7501 659.25 64.7501C660.083 64.7501 661.229 64.396 662.688 63.6876C664.146 62.9376 665.375 62.1876 666.375 61.4376L667.938 60.3126L669.188 61.4376C648.438 94.7293 638 114.563 637.875 120.938C638.208 122.896 639.708 126.104 642.375 130.563C645.083 134.979 646.562 138.438 646.812 140.938C644.271 144.188 640.271 145.813 634.812 145.813C632.521 145.813 630.667 145.146 629.25 143.813C627.833 142.479 627.125 140.708 627.125 138.5C627.125 130.292 635.917 111.563 653.5 82.3126C640.208 81.1876 631.333 80.6251 626.875 80.6251C622.958 80.6251 620.208 81.2918 618.625 82.6251C617.042 83.9585 615.354 87.0418 613.562 91.8751L611.375 91.6251Z" fill="#F9F9F9"/>
<path d="M440.53 124.53C440.823 124.238 440.823 123.763 440.53 123.47L435.757 118.697C435.464 118.404 434.99 118.404 434.697 118.697C434.404 118.99 434.404 119.465 434.697 119.757L438.939 124L434.697 128.243C434.404 128.536 434.404 129.011 434.697 129.303C434.99 129.596 435.464 129.596 435.757 129.303L440.53 124.53ZM210 124.75L440 124.75V123.25L210 123.25V124.75Z" fill="#F9F9F9"/>
<path d="M589.5 272L593 278L586 278L589.5 272Z" fill="url(#paint5_linear_160_157)"/>
<rect x="564.5" y="278.5" width="50" height="17" rx="1.5" fill="url(#paint6_linear_160_157)"/>
<path d="M573.332 290.782V292H580.192V290.516H575.614L577.616 288.78C578.582 287.954 579.814 286.834 579.814 285.336C579.814 283.824 578.47 282.76 576.734 282.76C574.97 282.76 573.808 283.852 573.276 285.168L574.508 285.714C574.844 284.888 575.586 284.16 576.566 284.16C577.378 284.16 578.064 284.664 578.064 285.504C578.064 286.33 577.42 286.96 576.342 287.968L573.332 290.782ZM589.116 287.464C589.116 284.664 587.548 282.76 585.252 282.76C582.942 282.76 581.374 284.664 581.374 287.464C581.374 290.278 582.942 292.182 585.252 292.182C587.548 292.182 589.116 290.278 589.116 287.464ZM583.138 287.464C583.138 285.49 583.978 284.188 585.252 284.188C586.512 284.188 587.366 285.49 587.366 287.464C587.366 289.452 586.512 290.754 585.252 290.754C583.978 290.754 583.138 289.452 583.138 287.464ZM597.382 289.032C597.382 287.268 595.912 285.994 594.036 285.994C593.126 285.994 592.398 286.302 591.936 286.624L592.076 284.468H596.99V282.942H590.816L590.48 288.052L591.558 288.29C592.006 287.744 592.818 287.366 593.658 287.366C594.834 287.366 595.632 288.094 595.632 289.102C595.632 290.138 594.806 290.782 593.602 290.782C592.538 290.782 591.74 290.278 591.25 289.382L589.99 290.026C590.718 291.384 592.034 292.196 593.686 292.196C595.828 292.196 597.382 290.824 597.382 289.032ZM606.124 287.464C606.124 284.664 604.556 282.76 602.26 282.76C599.95 282.76 598.382 284.664 598.382 287.464C598.382 290.278 599.95 292.182 602.26 292.182C604.556 292.182 606.124 290.278 606.124 287.464ZM600.146 287.464C600.146 285.49 600.986 284.188 602.26 284.188C603.52 284.188 604.374 285.49 604.374 287.464C604.374 289.452 603.52 290.754 602.26 290.754C600.986 290.754 600.146 289.452 600.146 287.464Z" fill="#F9F9F9"/>
<rect x="564.5" y="278.5" width="50" height="17" rx="1.5" stroke="url(#paint7_linear_160_157)"/>
<path d="M109.5 36L106 30L113 30L109.5 36Z" fill="url(#paint8_linear_160_157)"/>
<rect x="84.5" y="12.5" width="50" height="17" rx="1.5" fill="#F9F9F9"/>
<path d="M93.3322 24.782V26H100.192V24.516H95.6142L97.6162 22.78C98.5822 21.954 99.8142 20.834 99.8142 19.336C99.8142 17.824 98.4702 16.76 96.7342 16.76C94.9702 16.76 93.8082 17.852 93.2762 19.168L94.5082 19.714C94.8442 18.888 95.5862 18.16 96.5662 18.16C97.3782 18.16 98.0642 18.664 98.0642 19.504C98.0642 20.33 97.4202 20.96 96.3422 21.968L93.3322 24.782ZM109.116 21.464C109.116 18.664 107.548 16.76 105.252 16.76C102.942 16.76 101.374 18.664 101.374 21.464C101.374 24.278 102.942 26.182 105.252 26.182C107.548 26.182 109.116 24.278 109.116 21.464ZM103.138 21.464C103.138 19.49 103.978 18.188 105.252 18.188C106.512 18.188 107.366 19.49 107.366 21.464C107.366 23.452 106.512 24.754 105.252 24.754C103.978 24.754 103.138 23.452 103.138 21.464ZM110.34 24.782V26H117.2V24.516H112.622L114.624 22.78C115.59 21.954 116.822 20.834 116.822 19.336C116.822 17.824 115.478 16.76 113.742 16.76C111.978 16.76 110.816 17.852 110.284 19.168L111.516 19.714C111.852 18.888 112.594 18.16 113.574 18.16C114.386 18.16 115.072 18.664 115.072 19.504C115.072 20.33 114.428 20.96 113.35 21.968L110.34 24.782ZM118.844 24.782V26H125.704V24.516H121.126L123.128 22.78C124.094 21.954 125.326 20.834 125.326 19.336C125.326 17.824 123.982 16.76 122.246 16.76C120.482 16.76 119.32 17.852 118.788 19.168L120.02 19.714C120.356 18.888 121.098 18.16 122.078 18.16C122.89 18.16 123.576 18.664 123.576 19.504C123.576 20.33 122.932 20.96 121.854 21.968L118.844 24.782Z" fill="url(#paint9_linear_160_157)"/>
<rect x="84.5" y="12.5" width="50" height="17" rx="1.5" stroke="url(#paint10_linear_160_157)"/>
<path d="M8.827 288.801C8.827 286.279 7.098 284.446 4.693 284.446C2.288 284.446 0.546 286.266 0.546 288.788C0.546 291.323 2.288 293.169 4.693 293.169C7.098 293.169 8.827 291.336 8.827 288.801ZM2.171 288.788C2.171 287.046 3.224 285.785 4.693 285.785C6.149 285.785 7.202 287.046 7.202 288.788C7.202 290.556 6.149 291.83 4.693 291.83C3.224 291.83 2.171 290.556 2.171 288.788ZM11.8651 293V287.28L16.1031 293H17.4291V284.589H15.9861V290.361L11.7481 284.589H10.4221V293H11.8651ZM26.2324 289.841V284.589H24.7764V289.841C24.7764 291.102 24.0874 291.817 22.8784 291.817C21.6694 291.817 20.9804 291.102 20.9804 289.841V284.589H19.4464V289.841C19.4464 291.856 20.7204 293.156 22.8524 293.156C24.9844 293.156 26.2324 291.856 26.2324 289.841ZM30.8174 290.192H42.5174V289.204H30.8174V290.192ZM50.1316 293L51.3926 289.555L51.4056 289.581L52.6536 293L54.1486 292.987L56.7746 284.589H55.3576L53.3556 291.167L52.1596 288.008L53.4596 284.589H52.1726L51.5096 286.682L50.8336 284.589H49.4426L50.7686 288.125L49.5856 291.167L47.5966 284.589H46.0886L48.7016 293H50.1316ZM63.4612 289.763C63.4612 287.787 62.1092 286.357 60.2372 286.357C58.3522 286.357 56.9872 287.787 56.9872 289.763C56.9872 291.739 58.3522 293.169 60.2372 293.169C62.1092 293.169 63.4612 291.739 63.4612 289.763ZM58.4952 289.763C58.4952 288.463 59.2232 287.514 60.2372 287.514C61.2382 287.514 61.9532 288.463 61.9532 289.763C61.9532 291.063 61.2382 291.999 60.2372 291.999C59.2232 291.999 58.4952 291.063 58.4952 289.763ZM66.2609 293V289.36C66.3779 288.476 66.8719 287.735 67.8599 287.735C68.0679 287.735 68.3669 287.774 68.5489 287.826L68.5619 286.461C68.4189 286.396 68.1199 286.357 67.8989 286.357C67.1449 286.357 66.4559 287.059 66.2089 287.904V286.526H64.8309V293H66.2609ZM71.1359 283.887H69.7059V293H71.1359V283.887ZM82.6376 289.841V284.589H81.1816V289.841C81.1816 291.102 80.4926 291.817 79.2836 291.817C78.0746 291.817 77.3856 291.102 77.3856 289.841V284.589H75.8516V289.841C75.8516 291.856 77.1256 293.156 79.2576 293.156C81.3896 293.156 82.6376 291.856 82.6376 289.841ZM85.8625 293V289.36C85.9795 288.476 86.4735 287.735 87.4615 287.735C87.6695 287.735 87.9685 287.774 88.1505 287.826L88.1635 286.461C88.0205 286.396 87.7215 286.357 87.5005 286.357C86.7465 286.357 86.0575 287.059 85.8105 287.904V286.526H84.4325V293H85.8625ZM95.4565 289.75C95.4565 287.774 94.3125 286.357 92.7265 286.357C91.9985 286.357 91.2185 286.76 90.7375 287.358V283.887H89.3075V293H90.6595V292.207C91.1145 292.766 91.9205 293.182 92.6355 293.182C94.2735 293.182 95.4565 291.739 95.4565 289.75ZM92.2195 292.012C91.6215 292.012 91.0625 291.726 90.7375 291.297V288.268C91.0625 287.826 91.6475 287.527 92.2715 287.527C93.2465 287.527 93.9485 288.437 93.9485 289.724C93.9485 291.05 93.2205 292.012 92.2195 292.012ZM102.425 293.091L102.49 292.051C102.412 292.064 102.269 292.077 102.191 292.077C101.84 292.077 101.658 291.83 101.658 291.479V288.736C101.658 287.189 100.722 286.357 99.2145 286.357C97.9925 286.357 97.0045 287.007 96.5495 288.047L97.6155 288.502C97.9145 287.93 98.3825 287.501 99.0845 287.501C99.7865 287.501 100.241 287.969 100.241 288.697V289.113L98.7985 289.308C97.3425 289.516 96.3545 290.231 96.3545 291.414C96.3545 292.441 97.1735 293.182 98.3175 293.182C99.2145 293.182 99.9295 292.74 100.332 292.077C100.553 292.831 101.086 293.182 101.84 293.182C102.061 293.182 102.243 293.143 102.425 293.091ZM98.7855 292.077C98.2265 292.077 97.8235 291.739 97.8235 291.258C97.8235 290.673 98.3565 290.322 99.0975 290.231L100.241 290.075V291.232C99.9295 291.726 99.3965 292.077 98.7855 292.077ZM109.245 293V288.762C109.245 287.358 108.283 286.357 107.035 286.357C106.138 286.357 105.384 286.864 104.955 287.475V286.526H103.577V293H105.007V288.359C105.358 287.904 105.969 287.54 106.606 287.54C107.308 287.54 107.815 288.06 107.815 288.866V293H109.245ZM112.421 286.526H110.991V293H112.421V286.526ZM112.421 284.004H110.991V285.421H112.421V284.004ZM113.877 287.722H117.14L113.799 291.934V293H119.012V291.804H115.541L118.96 287.592V286.526H113.877V287.722ZM125.95 293.091L126.015 292.051C125.937 292.064 125.794 292.077 125.716 292.077C125.365 292.077 125.183 291.83 125.183 291.479V288.736C125.183 287.189 124.247 286.357 122.739 286.357C121.517 286.357 120.529 287.007 120.074 288.047L121.14 288.502C121.439 287.93 121.907 287.501 122.609 287.501C123.311 287.501 123.766 287.969 123.766 288.697V289.113L122.323 289.308C120.867 289.516 119.879 290.231 119.879 291.414C119.879 292.441 120.698 293.182 121.842 293.182C122.739 293.182 123.454 292.74 123.857 292.077C124.078 292.831 124.611 293.182 125.365 293.182C125.586 293.182 125.768 293.143 125.95 293.091ZM122.31 292.077C121.751 292.077 121.348 291.739 121.348 291.258C121.348 290.673 121.881 290.322 122.622 290.231L123.766 290.075V291.232C123.454 291.726 122.921 292.077 122.31 292.077ZM131.027 292.974V291.817C130.78 291.895 130.364 291.973 129.974 291.973C129.207 291.973 128.895 291.609 128.895 291.011V287.683H131.001V286.526H128.895V284.953H127.465V286.526H126.49V287.683H127.465V291.31C127.465 292.493 128.258 293.182 129.688 293.182C130.169 293.182 130.728 293.078 131.027 292.974ZM133.622 286.526H132.192V293H133.622V286.526ZM133.622 284.004H132.192V285.421H133.622V284.004ZM141.474 289.763C141.474 287.787 140.122 286.357 138.25 286.357C136.365 286.357 135 287.787 135 289.763C135 291.739 136.365 293.169 138.25 293.169C140.122 293.169 141.474 291.739 141.474 289.763ZM136.508 289.763C136.508 288.463 137.236 287.514 138.25 287.514C139.251 287.514 139.966 288.463 139.966 289.763C139.966 291.063 139.251 291.999 138.25 291.999C137.236 291.999 136.508 291.063 136.508 289.763ZM148.512 293V288.762C148.512 287.358 147.55 286.357 146.302 286.357C145.405 286.357 144.651 286.864 144.222 287.475V286.526H142.844V293H144.274V288.359C144.625 287.904 145.236 287.54 145.873 287.54C146.575 287.54 147.082 288.06 147.082 288.866V293H148.512ZM154.766 293V290.413H156.118C158.068 290.413 159.394 289.204 159.394 287.488C159.394 285.785 158.068 284.589 156.092 284.589H153.232V293H154.766ZM154.766 285.876H155.988C157.067 285.876 157.808 286.526 157.808 287.488C157.808 288.463 157.067 289.126 155.988 289.126H154.766V285.876ZM162.098 293V289.36C162.215 288.476 162.709 287.735 163.697 287.735C163.905 287.735 164.204 287.774 164.386 287.826L164.399 286.461C164.256 286.396 163.957 286.357 163.736 286.357C162.982 286.357 162.293 287.059 162.046 287.904V286.526H160.668V293H162.098ZM171.397 289.763C171.397 287.787 170.045 286.357 168.173 286.357C166.288 286.357 164.923 287.787 164.923 289.763C164.923 291.739 166.288 293.169 168.173 293.169C170.045 293.169 171.397 291.739 171.397 289.763ZM166.431 289.763C166.431 288.463 167.159 287.514 168.173 287.514C169.174 287.514 169.889 288.463 169.889 289.763C169.889 291.063 169.174 291.999 168.173 291.999C167.159 291.999 166.431 291.063 166.431 289.763ZM177.927 291.18C177.927 289.971 176.9 289.451 175.418 289.113C174.391 288.879 173.806 288.723 173.806 288.216C173.806 287.748 174.326 287.436 175.093 287.436C175.938 287.436 176.51 287.787 176.822 288.359L177.888 287.917C177.472 287.111 176.64 286.357 175.106 286.357C173.533 286.357 172.454 287.176 172.454 288.333C172.454 289.477 173.546 290.01 174.885 290.309C175.925 290.53 176.575 290.725 176.575 291.271C176.575 291.778 176.094 292.103 175.275 292.103C174.287 292.103 173.598 291.661 173.26 291.076L172.168 291.518C172.61 292.506 173.702 293.182 175.223 293.182C176.9 293.182 177.927 292.376 177.927 291.18ZM182.178 292.012C181.645 292.012 181.073 291.752 180.709 291.349V288.359C181.021 287.917 181.58 287.501 182.23 287.501C183.205 287.501 183.92 288.398 183.92 289.737C183.92 291.076 183.205 292.012 182.178 292.012ZM185.428 289.737C185.428 287.761 184.193 286.357 182.672 286.357C181.723 286.357 181.008 286.903 180.67 287.462V286.526H179.279V295.314H180.709V292.337C181.112 292.844 181.814 293.169 182.581 293.169C184.18 293.169 185.428 291.726 185.428 289.737ZM192.189 291.505L191.097 291.076C190.785 291.687 190.213 292.051 189.589 292.051C188.627 292.051 187.938 291.271 187.847 290.075H192.202C192.241 289.906 192.267 289.529 192.267 289.217C192.267 287.527 191.11 286.357 189.472 286.357C187.678 286.357 186.365 287.826 186.365 289.841C186.365 291.791 187.678 293.182 189.485 293.182C190.694 293.182 191.734 292.545 192.189 291.505ZM189.472 287.449C190.278 287.449 190.824 288.086 190.876 289.074H187.899C188.094 288.073 188.705 287.449 189.472 287.449ZM198.967 291.349L197.745 290.894C197.472 291.544 197.004 291.973 196.354 291.973C195.418 291.973 194.755 291.063 194.755 289.802C194.755 288.489 195.405 287.553 196.315 287.553C196.913 287.553 197.407 287.917 197.68 288.606L198.915 288.125C198.447 287.046 197.537 286.357 196.25 286.357C194.495 286.357 193.234 287.8 193.234 289.815C193.234 291.765 194.508 293.182 196.263 293.182C197.55 293.182 198.525 292.402 198.967 291.349ZM204.076 292.974V291.817C203.829 291.895 203.413 291.973 203.023 291.973C202.256 291.973 201.944 291.609 201.944 291.011V287.683H204.05V286.526H201.944V284.953H200.514V286.526H199.539V287.683H200.514V291.31C200.514 292.493 201.307 293.182 202.737 293.182C203.218 293.182 203.777 293.078 204.076 292.974Z" fill="#C5C5C5"/>
<path d="M0 294.3H204.336V294.95H0V294.3Z" fill="#C5C5C5"/>
<path d="M20.902 271.62V270.359H17.587V267.876H21.799V266.589H16.053V275H17.587V271.62H20.902ZM28.6829 271.763C28.6829 269.787 27.3309 268.357 25.4589 268.357C23.5739 268.357 22.2089 269.787 22.2089 271.763C22.2089 273.739 23.5739 275.169 25.4589 275.169C27.3309 275.169 28.6829 273.739 28.6829 271.763ZM23.7169 271.763C23.7169 270.463 24.4449 269.514 25.4589 269.514C26.4599 269.514 27.1749 270.463 27.1749 271.763C27.1749 273.063 26.4599 273.999 25.4589 273.999C24.4449 273.999 23.7169 273.063 23.7169 271.763ZM35.7206 275V270.762C35.7206 269.358 34.7586 268.357 33.5106 268.357C32.6136 268.357 31.8596 268.864 31.4306 269.475V268.526H30.0526V275H31.4826V270.359C31.8336 269.904 32.4446 269.54 33.0816 269.54C33.7836 269.54 34.2906 270.06 34.2906 270.866V275H35.7206ZM41.3165 274.974V273.817C41.0695 273.895 40.6535 273.973 40.2635 273.973C39.4965 273.973 39.1845 273.609 39.1845 273.011V269.683H41.2905V268.526H39.1845V266.953H37.7545V268.526H36.7795V269.683H37.7545V273.31C37.7545 274.493 38.5475 275.182 39.9775 275.182C40.4585 275.182 41.0175 275.078 41.3165 274.974ZM47.7998 273.505L46.7078 273.076C46.3958 273.687 45.8238 274.051 45.1998 274.051C44.2378 274.051 43.5488 273.271 43.4578 272.075H47.8128C47.8518 271.906 47.8778 271.529 47.8778 271.217C47.8778 269.527 46.7208 268.357 45.0828 268.357C43.2888 268.357 41.9758 269.826 41.9758 271.841C41.9758 273.791 43.2888 275.182 45.0958 275.182C46.3048 275.182 47.3448 274.545 47.7998 273.505ZM45.0828 269.449C45.8888 269.449 46.4348 270.086 46.4868 271.074H43.5098C43.7048 270.073 44.3158 269.449 45.0828 269.449Z" fill="#3D3D3D"/>
<circle cx="5.5" cy="271.5" r="5.5" fill="url(#paint11_linear_160_157)"/>
<path d="M581.25 46C581.25 43.2386 583.489 41 586.25 41H593.75C596.512 41 598.75 43.2386 598.75 46H581.25Z" fill="#F9F9F9"/>
<path d="M581.25 29.7495C581.25 26.9881 583.489 24.7495 586.25 24.7495H593.75C596.512 24.7495 598.75 26.9881 598.75 29.7495H581.25Z" fill="#F9F9F9"/>
<path d="M597.5 38.5C597.5 35.7386 599.739 33.5 602.5 33.5H610C612.761 33.5 615 35.7386 615 38.5H597.5Z" fill="#3D3D3D"/>
<path d="M565 38.5C565 35.7386 567.239 33.5 570 33.5H577.5C580.262 33.5 582.5 35.7386 582.5 38.5H565Z" fill="#3D3D3D"/>
<circle cx="590" cy="35.9995" r="3.74998" fill="#3D3D3D"/>
<circle cx="590" cy="19.75" r="3.74998" fill="#3D3D3D"/>
<circle cx="606.25" cy="28.4995" r="3.74998" fill="#F9F9F9"/>
<circle cx="573.75" cy="28.4995" r="3.74998" fill="#F9F9F9"/>
<path d="M93 70.7505C93 67.9891 95.2386 65.7505 98 65.7505H105.5C108.261 65.7505 110.5 67.9891 110.5 70.7505H93Z" fill="url(#paint12_linear_160_157)"/>
<path d="M109.5 75.5005C109.5 72.7391 111.738 70.5005 114.499 70.5005H121.999C124.761 70.5005 126.999 72.7391 126.999 75.5005H109.5Z" fill="#3D3D3D"/>
<circle cx="101.75" cy="60.75" r="3.74998" fill="#3D3D3D"/>
<circle cx="118.25" cy="65.5" r="3.74998" fill="url(#paint13_linear_160_157)"/>
<defs>
<linearGradient id="paint0_linear_160_157" x1="15.3008" y1="-64.9082" x2="713.305" y2="-59.1562" gradientUnits="userSpaceOnUse">
<stop stop-color="#07A76F"/>
<stop offset="1" stop-color="#8ECA45"/>
</linearGradient>
<linearGradient id="paint1_linear_160_157" x1="-7.63485" y1="-0.688669" x2="237.7" y2="0.444851" gradientUnits="userSpaceOnUse">
<stop stop-color="#07A76F"/>
<stop offset="1" stop-color="#8ECA45"/>
</linearGradient>
<linearGradient id="paint2_linear_160_157" x1="402.344" y1="-64.9082" x2="793.712" y2="-63.1" gradientUnits="userSpaceOnUse">
<stop stop-color="#07A76F"/>
<stop offset="1" stop-color="#8ECA45"/>
</linearGradient>
<linearGradient id="paint3_linear_160_157" x1="38.5788" y1="52.6245" x2="187.53" y2="53.502" gradientUnits="userSpaceOnUse">
<stop stop-color="#07A76F"/>
<stop offset="1" stop-color="#8ECA45"/>
</linearGradient>
<linearGradient id="paint4_linear_160_157" x1="72.1888" y1="148.125" x2="151.029" y2="149.354" gradientUnits="userSpaceOnUse">
<stop stop-color="#07A76F"/>
<stop offset="1" stop-color="#8ECA45"/>
</linearGradient>
<linearGradient id="paint5_linear_160_157" x1="594.401" y1="279.453" x2="584.179" y2="279.398" gradientUnits="userSpaceOnUse">
<stop stop-color="#07A76F"/>
<stop offset="1" stop-color="#8ECA45"/>
</linearGradient>
<linearGradient id="paint6_linear_160_157" x1="553.789" y1="273.641" x2="628.255" y2="274.615" gradientUnits="userSpaceOnUse">
<stop stop-color="#07A76F"/>
<stop offset="1" stop-color="#8ECA45"/>
</linearGradient>
<linearGradient id="paint7_linear_160_157" x1="553.789" y1="273.641" x2="628.255" y2="274.615" gradientUnits="userSpaceOnUse">
<stop stop-color="#07A76F"/>
<stop offset="1" stop-color="#8ECA45"/>
</linearGradient>
<linearGradient id="paint8_linear_160_157" x1="104.599" y1="28.5468" x2="114.821" y2="28.6019" gradientUnits="userSpaceOnUse">
<stop stop-color="#07A76F"/>
<stop offset="1" stop-color="#8ECA45"/>
</linearGradient>
<linearGradient id="paint9_linear_160_157" x1="84.9927" y1="10.6093" x2="136.098" y2="11.1996" gradientUnits="userSpaceOnUse">
<stop stop-color="#07A76F"/>
<stop offset="1" stop-color="#8ECA45"/>
</linearGradient>
<linearGradient id="paint10_linear_160_157" x1="73.7894" y1="7.64049" x2="148.255" y2="8.6153" gradientUnits="userSpaceOnUse">
<stop stop-color="#07A76F"/>
<stop offset="1" stop-color="#8ECA45"/>
</linearGradient>
<linearGradient id="paint11_linear_160_157" x1="-2.20228" y1="263.336" x2="13.8613" y2="263.41" gradientUnits="userSpaceOnUse">
<stop stop-color="#07A76F"/>
<stop offset="1" stop-color="#8ECA45"/>
</linearGradient>
<linearGradient id="paint12_linear_160_157" x1="89.4964" y1="64.5395" x2="115.046" y2="64.9527" gradientUnits="userSpaceOnUse">
<stop stop-color="#07A76F"/>
<stop offset="1" stop-color="#8ECA45"/>
</linearGradient>
<linearGradient id="paint13_linear_160_157" x1="112.998" y1="59.9335" x2="123.951" y2="59.9842" gradientUnits="userSpaceOnUse">
<stop stop-color="#07A76F"/>
<stop offset="1" stop-color="#8ECA45"/>
</linearGradient>
</defs>
</svg>
