<svg width="240" height="689" viewBox="0 0 240 689" fill="none" xmlns="http://www.w3.org/2000/svg">
<path d="M119.5 665L123 671L116 671L119.5 665Z" fill="url(#paint0_linear_486_179)"/>
<rect x="144.5" y="688.5" width="50" height="17" rx="1.5" transform="rotate(-180 144.5 688.5)" fill="url(#paint1_linear_486_179)"/>
<path d="M103.332 683.782V685H110.192V683.516H105.614L107.616 681.78C108.582 680.954 109.814 679.834 109.814 678.336C109.814 676.824 108.47 675.76 106.734 675.76C104.97 675.76 103.808 676.852 103.276 678.168L104.508 678.714C104.844 677.888 105.586 677.16 106.566 677.16C107.378 677.16 108.064 677.664 108.064 678.504C108.064 679.33 107.42 679.96 106.342 680.968L103.332 683.782ZM119.116 680.464C119.116 677.664 117.548 675.76 115.252 675.76C112.942 675.76 111.374 677.664 111.374 680.464C111.374 683.278 112.942 685.182 115.252 685.182C117.548 685.182 119.116 683.278 119.116 680.464ZM113.138 680.464C113.138 678.49 113.978 677.188 115.252 677.188C116.512 677.188 117.366 678.49 117.366 680.464C117.366 682.452 116.512 683.754 115.252 683.754C113.978 683.754 113.138 682.452 113.138 680.464ZM127.382 682.032C127.382 680.268 125.912 678.994 124.036 678.994C123.126 678.994 122.398 679.302 121.936 679.624L122.076 677.468H126.99V675.942H120.816L120.48 681.052L121.558 681.29C122.006 680.744 122.818 680.366 123.658 680.366C124.834 680.366 125.632 681.094 125.632 682.102C125.632 683.138 124.806 683.782 123.602 683.782C122.538 683.782 121.74 683.278 121.25 682.382L119.99 683.026C120.718 684.384 122.034 685.196 123.686 685.196C125.828 685.196 127.382 683.824 127.382 682.032ZM136.124 680.464C136.124 677.664 134.556 675.76 132.26 675.76C129.95 675.76 128.382 677.664 128.382 680.464C128.382 683.278 129.95 685.182 132.26 685.182C134.556 685.182 136.124 683.278 136.124 680.464ZM130.146 680.464C130.146 678.49 130.986 677.188 132.26 677.188C133.52 677.188 134.374 678.49 134.374 680.464C134.374 682.452 133.52 683.754 132.26 683.754C130.986 683.754 130.146 682.452 130.146 680.464Z" fill="#F9F9F9"/>
<rect x="144.5" y="688.5" width="50" height="17" rx="1.5" transform="rotate(-180 144.5 688.5)" stroke="url(#paint2_linear_486_179)"/>
<path d="M44.3518 108.11L195.229 108.11L240 536.119L0.0286845 536.119L44.3518 108.11Z" fill="url(#paint3_linear_486_179)"/>
<path d="M119.757 181.93C78.4926 181.93 45.0416 148.479 45.0416 107.215C45.0416 65.951 78.4926 32.5 119.757 32.5C161.02 32.5001 194.471 65.9511 194.471 107.215C194.471 148.479 161.02 181.93 119.757 181.93Z" fill="#F9F9F9" stroke="url(#paint4_linear_486_179)"/>
<path d="M119.986 656.5C53.9956 656.5 0.50002 603.004 0.500035 537.014C0.500049 471.024 53.9956 417.529 119.986 417.529C185.976 417.529 239.471 471.024 239.471 537.014C239.471 603.005 185.976 656.5 119.986 656.5Z" fill="url(#paint5_linear_486_179)" stroke="#F9F9F9"/>
<path d="M120.5 24.0001L117 18.0001L124 18.0001L120.5 24.0001Z" fill="url(#paint6_linear_486_179)"/>
<rect x="145.5" y="17.5001" width="50" height="17" rx="1.5" transform="rotate(-180 145.5 17.5001)" fill="#F9F9F9"/>
<path d="M104.332 12.7821V14.0001H111.192V12.5161H106.614L108.616 10.7801C109.582 9.95406 110.814 8.83406 110.814 7.33606C110.814 5.82406 109.47 4.76006 107.734 4.76006C105.97 4.76006 104.808 5.85206 104.276 7.16806L105.508 7.71406C105.844 6.88806 106.586 6.16006 107.566 6.16006C108.378 6.16006 109.064 6.66406 109.064 7.50406C109.064 8.33006 108.42 8.96006 107.342 9.96806L104.332 12.7821ZM120.116 9.46406C120.116 6.66406 118.548 4.76006 116.252 4.76006C113.942 4.76006 112.374 6.66406 112.374 9.46406C112.374 12.2781 113.942 14.1821 116.252 14.1821C118.548 14.1821 120.116 12.2781 120.116 9.46406ZM114.138 9.46406C114.138 7.49006 114.978 6.18806 116.252 6.18806C117.512 6.18806 118.366 7.49006 118.366 9.46406C118.366 11.4521 117.512 12.7541 116.252 12.7541C114.978 12.7541 114.138 11.4521 114.138 9.46406ZM121.34 12.7821V14.0001H128.2V12.5161H123.622L125.624 10.7801C126.59 9.95406 127.822 8.83406 127.822 7.33606C127.822 5.82406 126.478 4.76006 124.742 4.76006C122.978 4.76006 121.816 5.85206 121.284 7.16806L122.516 7.71406C122.852 6.88806 123.594 6.16006 124.574 6.16006C125.386 6.16006 126.072 6.66406 126.072 7.50406C126.072 8.33006 125.428 8.96006 124.35 9.96806L121.34 12.7821ZM129.844 12.7821V14.0001H136.704V12.5161H132.126L134.128 10.7801C135.094 9.95406 136.326 8.83406 136.326 7.33606C136.326 5.82406 134.982 4.76006 133.246 4.76006C131.482 4.76006 130.32 5.85206 129.788 7.16806L131.02 7.71406C131.356 6.88806 132.098 6.16006 133.078 6.16006C133.89 6.16006 134.576 6.66406 134.576 7.50406C134.576 8.33006 133.932 8.96006 132.854 9.96806L129.844 12.7821Z" fill="url(#paint7_linear_486_179)"/>
<rect x="145.5" y="17.5001" width="50" height="17" rx="1.5" transform="rotate(-180 145.5 17.5001)" stroke="url(#paint8_linear_486_179)"/>
<path d="M84.6629 114.375C89.8947 101.487 93.3035 93.6029 94.8895 90.7227C95.9285 88.7357 97.5509 87.7514 99.7567 87.7696C101.288 87.7696 102.746 87.8972 104.132 88.1524C105.517 88.3894 106.374 88.6902 106.702 89.0547C106.447 89.6563 105.8 90.4584 104.761 91.461C97.4142 98.4063 91.2527 105.889 86.2762 113.91H98.7176V104.176C102.108 103.027 104.587 102.371 106.155 102.207L107.276 102.371V113.91H111.186V115.332H107.276V115.934C107.276 118.54 107.322 120.208 107.413 120.938C107.504 121.667 107.705 122.186 108.014 122.496L110.913 122.988C110.986 123.207 111.022 123.544 111.022 124H93.659L93.7684 122.988L97.9793 122.441C98.271 122.259 98.4624 121.803 98.5535 121.074C98.6629 120.345 98.7176 118.65 98.7176 115.988V115.332H84.991L84.6629 114.375ZM114.386 120.254C114.386 118.759 114.85 117.565 115.78 116.672C116.71 115.779 117.886 115.332 119.307 115.332C120.766 115.332 121.978 115.797 122.944 116.727C123.91 117.656 124.393 118.832 124.393 120.254C124.393 121.603 123.892 122.724 122.889 123.617C121.887 124.51 120.693 124.957 119.307 124.957C117.922 124.957 116.755 124.51 115.807 123.617C114.86 122.724 114.386 121.603 114.386 120.254ZM127.647 123.316C131.986 119.014 135.449 114.585 138.038 110.027C140.645 105.452 141.948 101.04 141.948 96.793C141.948 94.4779 141.684 92.6003 141.155 91.1602C140.626 89.7201 139.916 89.0001 139.022 89.0001C138.876 89.0001 138.712 89.0092 138.53 89.0274C138.366 89.0456 138.229 89.0547 138.12 89.0547L137.956 89.1094C137.591 89.6381 136.944 91.5339 136.014 94.7969C135.103 98.06 134.374 99.8464 133.827 100.156C132.186 100.047 130.792 99.6003 129.643 98.8165C128.513 98.0144 127.948 96.9844 127.948 95.7266C127.948 93.7396 129.16 91.9167 131.585 90.2579C134.009 88.599 136.698 87.7696 139.651 87.7696C142.932 87.7696 145.658 88.5899 147.827 90.2305C150.014 91.8712 151.108 94.1863 151.108 97.1758C151.108 100.02 150.188 102.553 148.346 104.777C146.505 106.983 142.896 110.201 137.518 114.43L134.264 117.109C136.434 116.471 138.129 116.152 139.35 116.152C140.061 116.152 141.429 116.234 143.452 116.398C145.494 116.544 146.906 116.617 147.69 116.617C148.766 116.617 149.632 116.271 150.288 115.578C150.962 114.867 151.673 113.582 152.421 111.723L153.35 111.969C151.455 120.372 149.495 124.565 147.471 124.547C146.323 124.547 144.017 124.356 140.554 123.973C137.108 123.572 134.957 123.371 134.1 123.371C133.389 123.371 132.533 123.444 131.53 123.59C130.546 123.718 129.716 123.854 129.042 124L128.112 124.219L127.647 123.316Z" fill="url(#paint9_linear_486_179)"/>
<path d="M105.032 152V146.784C105.032 145.04 103.864 143.824 102.376 143.824C101.352 143.824 100.44 144.416 99.8639 145.28C99.4319 144.384 98.5999 143.824 97.6399 143.824C96.6319 143.824 95.7679 144.448 95.2719 145.216V144.032H93.5759V152H95.3359V146.288C95.7359 145.728 96.4079 145.28 97.0959 145.28C97.8639 145.28 98.4239 145.936 98.4239 146.928V152H100.184V146.784C100.184 146.576 100.168 146.368 100.136 146.176C100.552 145.664 101.208 145.28 101.88 145.28C102.68 145.28 103.272 145.936 103.272 146.928V152H105.032ZM108.93 144.032H107.17V152H108.93V144.032ZM108.93 140.928H107.17V142.672H108.93V140.928ZM112.945 140.784H111.185V152H112.945V140.784ZM116.961 144.032H115.201V152H116.961V144.032ZM116.961 140.928H115.201V142.672H116.961V140.928ZM126.08 152.112L126.16 150.832C126.064 150.848 125.888 150.864 125.792 150.864C125.36 150.864 125.136 150.56 125.136 150.128V146.752C125.136 144.848 123.984 143.824 122.128 143.824C120.624 143.824 119.408 144.624 118.848 145.904L120.16 146.464C120.528 145.76 121.104 145.232 121.968 145.232C122.832 145.232 123.392 145.808 123.392 146.704V147.216L121.616 147.456C119.824 147.712 118.608 148.592 118.608 150.048C118.608 151.312 119.616 152.224 121.024 152.224C122.128 152.224 123.008 151.68 123.504 150.864C123.776 151.792 124.432 152.224 125.36 152.224C125.632 152.224 125.856 152.176 126.08 152.112ZM121.6 150.864C120.912 150.864 120.416 150.448 120.416 149.856C120.416 149.136 121.072 148.704 121.984 148.592L123.392 148.4V149.824C123.008 150.432 122.352 150.864 121.6 150.864ZM129.258 152V147.52C129.402 146.432 130.01 145.52 131.226 145.52C131.482 145.52 131.85 145.568 132.074 145.632L132.09 143.952C131.914 143.872 131.546 143.824 131.274 143.824C130.346 143.824 129.498 144.688 129.194 145.728V144.032H127.498V152H129.258ZM136.686 150.784C135.502 150.784 134.654 149.648 134.654 148.048C134.654 146.432 135.55 145.264 136.782 145.264C137.502 145.264 138.19 145.584 138.574 146.064V149.824C138.142 150.4 137.422 150.784 136.686 150.784ZM140.334 152V140.784H138.574V144.864C138.046 144.24 137.166 143.824 136.318 143.824C134.27 143.824 132.798 145.6 132.798 148.08C132.798 150.48 134.222 152.224 136.206 152.224C137.086 152.224 138.094 151.664 138.67 150.896V152H140.334ZM144.351 144.032H142.591V152H144.351V144.032ZM144.351 140.928H142.591V142.672H144.351V140.928Z" fill="url(#paint10_linear_486_179)"/>
<path d="M102.971 69.7505C102.971 66.9891 105.21 64.7505 107.971 64.7505H115.471C118.233 64.7505 120.471 66.9891 120.471 69.7505H102.971Z" fill="url(#paint11_linear_486_179)"/>
<path d="M119.471 74.5005C119.471 71.7391 121.71 69.5005 124.471 69.5005H131.971C134.732 69.5005 136.971 71.7391 136.971 74.5005H119.471Z" fill="#3D3D3D"/>
<circle cx="111.721" cy="59.75" r="3.74998" fill="#3D3D3D"/>
<circle cx="128.221" cy="64.5" r="3.74998" fill="url(#paint12_linear_486_179)"/>
<path d="M101.304 585V577.828C101.304 575.43 99.6985 573.758 97.6525 573.758C96.2445 573.758 94.9905 574.572 94.1985 575.76C93.6045 574.528 92.4605 573.758 91.1405 573.758C89.7545 573.758 88.5665 574.616 87.8845 575.672V574.044H85.5525V585H87.9725V577.146C88.5225 576.376 89.4465 575.76 90.3925 575.76C91.4485 575.76 92.2185 576.662 92.2185 578.026V585H94.6385V577.828C94.6385 577.542 94.6165 577.256 94.5725 576.992C95.1445 576.288 96.0465 575.76 96.9705 575.76C98.0705 575.76 98.8845 576.662 98.8845 578.026V585H101.304ZM106.664 574.044H104.244V585H106.664V574.044ZM106.664 569.776H104.244V572.174H106.664V569.776ZM112.185 569.578H109.765V585H112.185V569.578ZM117.707 574.044H115.287V585H117.707V574.044ZM117.707 569.776H115.287V572.174H117.707V569.776ZM130.246 585.154L130.356 583.394C130.224 583.416 129.982 583.438 129.85 583.438C129.256 583.438 128.948 583.02 128.948 582.426V577.784C128.948 575.166 127.364 573.758 124.812 573.758C122.744 573.758 121.072 574.858 120.302 576.618L122.106 577.388C122.612 576.42 123.404 575.694 124.592 575.694C125.78 575.694 126.55 576.486 126.55 577.718V578.422L124.108 578.752C121.644 579.104 119.972 580.314 119.972 582.316C119.972 584.054 121.358 585.308 123.294 585.308C124.812 585.308 126.022 584.56 126.704 583.438C127.078 584.714 127.98 585.308 129.256 585.308C129.63 585.308 129.938 585.242 130.246 585.154ZM124.086 583.438C123.14 583.438 122.458 582.866 122.458 582.052C122.458 581.062 123.36 580.468 124.614 580.314L126.55 580.05V582.008C126.022 582.844 125.12 583.438 124.086 583.438ZM134.615 585V578.84C134.813 577.344 135.649 576.09 137.321 576.09C137.673 576.09 138.179 576.156 138.487 576.244L138.509 573.934C138.267 573.824 137.761 573.758 137.387 573.758C136.111 573.758 134.945 574.946 134.527 576.376V574.044H132.195V585H134.615ZM144.829 583.328C143.201 583.328 142.035 581.766 142.035 579.566C142.035 577.344 143.267 575.738 144.961 575.738C145.951 575.738 146.897 576.178 147.425 576.838V582.008C146.831 582.8 145.841 583.328 144.829 583.328ZM149.845 585V569.578H147.425V575.188C146.699 574.33 145.489 573.758 144.323 573.758C141.507 573.758 139.483 576.2 139.483 579.61C139.483 582.91 141.441 585.308 144.169 585.308C145.379 585.308 146.765 584.538 147.557 583.482V585H149.845ZM155.369 574.044H152.949V585H155.369V574.044ZM155.369 569.776H152.949V572.174H155.369V569.776Z" fill="#F9F9F9"/>
<path d="M86.2399 609V606.214H87.6959C89.7959 606.214 91.2239 604.912 91.2239 603.064C91.2239 601.23 89.7959 599.942 87.6679 599.942H84.5879V609H86.2399ZM86.2399 601.328H87.5559C88.7179 601.328 89.5159 602.028 89.5159 603.064C89.5159 604.114 88.7179 604.828 87.5559 604.828H86.2399V601.328ZM98.392 607.39L97.216 606.928C96.88 607.586 96.264 607.978 95.592 607.978C94.556 607.978 93.814 607.138 93.716 605.85H98.406C98.448 605.668 98.476 605.262 98.476 604.926C98.476 603.106 97.23 601.846 95.466 601.846C93.534 601.846 92.12 603.428 92.12 605.598C92.12 607.698 93.534 609.196 95.48 609.196C96.782 609.196 97.902 608.51 98.392 607.39ZM95.466 603.022C96.334 603.022 96.922 603.708 96.978 604.772H93.772C93.982 603.694 94.64 603.022 95.466 603.022ZM101.532 609V605.08C101.658 604.128 102.19 603.33 103.254 603.33C103.478 603.33 103.8 603.372 103.996 603.428L104.01 601.958C103.856 601.888 103.534 601.846 103.296 601.846C102.484 601.846 101.742 602.602 101.476 603.512V602.028H99.9925V609H101.532ZM110.732 607.04C110.732 605.738 109.626 605.178 108.03 604.814C106.924 604.562 106.294 604.394 106.294 603.848C106.294 603.344 106.854 603.008 107.68 603.008C108.59 603.008 109.206 603.386 109.542 604.002L110.69 603.526C110.242 602.658 109.346 601.846 107.694 601.846C106 601.846 104.838 602.728 104.838 603.974C104.838 605.206 106.014 605.78 107.456 606.102C108.576 606.34 109.276 606.55 109.276 607.138C109.276 607.684 108.758 608.034 107.876 608.034C106.812 608.034 106.07 607.558 105.706 606.928L104.53 607.404C105.006 608.468 106.182 609.196 107.82 609.196C109.626 609.196 110.732 608.328 110.732 607.04ZM118.67 605.514C118.67 603.386 117.214 601.846 115.198 601.846C113.168 601.846 111.698 603.386 111.698 605.514C111.698 607.642 113.168 609.182 115.198 609.182C117.214 609.182 118.67 607.642 118.67 605.514ZM113.322 605.514C113.322 604.114 114.106 603.092 115.198 603.092C116.276 603.092 117.046 604.114 117.046 605.514C117.046 606.914 116.276 607.922 115.198 607.922C114.106 607.922 113.322 606.914 113.322 605.514ZM126.249 609V604.436C126.249 602.924 125.213 601.846 123.869 601.846C122.903 601.846 122.091 602.392 121.629 603.05V602.028H120.145V609H121.685V604.002C122.063 603.512 122.721 603.12 123.407 603.12C124.163 603.12 124.709 603.68 124.709 604.548V609H126.249ZM133.925 607.39L132.749 606.928C132.413 607.586 131.797 607.978 131.125 607.978C130.089 607.978 129.347 607.138 129.249 605.85H133.939C133.981 605.668 134.009 605.262 134.009 604.926C134.009 603.106 132.763 601.846 130.999 601.846C129.067 601.846 127.653 603.428 127.653 605.598C127.653 607.698 129.067 609.196 131.013 609.196C132.315 609.196 133.435 608.51 133.925 607.39ZM130.999 603.022C131.867 603.022 132.455 603.708 132.511 604.772H129.305C129.515 603.694 130.173 603.022 130.999 603.022ZM144.678 609V604.436C144.678 602.924 143.642 601.846 142.298 601.846C141.332 601.846 140.52 602.392 140.058 603.05V602.028H138.574V609H140.114V604.002C140.492 603.512 141.15 603.12 141.836 603.12C142.592 603.12 143.138 603.68 143.138 604.548V609H144.678ZM152.355 607.39L151.179 606.928C150.843 607.586 150.227 607.978 149.555 607.978C148.519 607.978 147.777 607.138 147.679 605.85H152.369C152.411 605.668 152.439 605.262 152.439 604.926C152.439 603.106 151.193 601.846 149.429 601.846C147.497 601.846 146.083 603.428 146.083 605.598C146.083 607.698 147.497 609.196 149.443 609.196C150.745 609.196 151.865 608.51 152.355 607.39ZM149.429 603.022C150.297 603.022 150.885 603.708 150.941 604.772H147.735C147.945 603.694 148.603 603.022 149.429 603.022ZM155.495 602.028H153.955V609H155.495V602.028ZM155.495 599.312H153.955V600.838H155.495V599.312ZM86.8848 621.222L85.5688 620.732C85.2748 621.432 84.7708 621.894 84.0708 621.894C83.0628 621.894 82.3488 620.914 82.3488 619.556C82.3488 618.142 83.0488 617.134 84.0288 617.134C84.6728 617.134 85.2048 617.526 85.4988 618.268L86.8288 617.75C86.3248 616.588 85.3448 615.846 83.9588 615.846C82.0688 615.846 80.7108 617.4 80.7108 619.57C80.7108 621.67 82.0828 623.196 83.9728 623.196C85.3588 623.196 86.4088 622.356 86.8848 621.222ZM93.9554 621.39L92.7794 620.928C92.4434 621.586 91.8274 621.978 91.1554 621.978C90.1194 621.978 89.3774 621.138 89.2794 619.85H93.9694C94.0114 619.668 94.0394 619.262 94.0394 618.926C94.0394 617.106 92.7934 615.846 91.0294 615.846C89.0974 615.846 87.6834 617.428 87.6834 619.598C87.6834 621.698 89.0974 623.196 91.0434 623.196C92.3454 623.196 93.4654 622.51 93.9554 621.39ZM91.0294 617.022C91.8974 617.022 92.4854 617.708 92.5414 618.772H89.3354C89.5454 617.694 90.2034 617.022 91.0294 617.022ZM101.66 623V618.436C101.66 616.924 100.624 615.846 99.2799 615.846C98.3139 615.846 97.5019 616.392 97.0399 617.05V616.028H95.5559V623H97.0959V618.002C97.4739 617.512 98.1319 617.12 98.8179 617.12C99.5739 617.12 100.12 617.68 100.12 618.548V623H101.66ZM107.686 622.972V621.726C107.42 621.81 106.972 621.894 106.552 621.894C105.726 621.894 105.39 621.502 105.39 620.858V617.274H107.658V616.028H105.39V614.334H103.85V616.028H102.8V617.274H103.85V621.18C103.85 622.454 104.704 623.196 106.244 623.196C106.762 623.196 107.364 623.084 107.686 622.972ZM110.481 623V619.08C110.607 618.128 111.139 617.33 112.203 617.33C112.427 617.33 112.749 617.372 112.945 617.428L112.959 615.958C112.805 615.888 112.483 615.846 112.245 615.846C111.433 615.846 110.691 616.602 110.425 617.512V616.028H108.941V623H110.481ZM115.731 616.028H114.191V623H115.731V616.028ZM115.731 613.312H114.191V614.838H115.731V613.312ZM126.647 623V616.028H125.107V620.802C124.785 621.432 124.197 621.908 123.497 621.908C122.741 621.908 122.209 621.306 122.209 620.466V616.028H120.669V620.592C120.669 622.09 121.649 623.182 122.979 623.182C123.959 623.182 124.743 622.622 125.163 621.866V623H126.647ZM130.141 623V619.08C130.267 618.128 130.799 617.33 131.863 617.33C132.087 617.33 132.409 617.372 132.605 617.428L132.619 615.958C132.465 615.888 132.143 615.846 131.905 615.846C131.093 615.846 130.351 616.602 130.085 617.512V616.028H128.601V623H130.141ZM140.473 619.5C140.473 617.372 139.241 615.846 137.533 615.846C136.749 615.846 135.909 616.28 135.391 616.924V613.186H133.851V623H135.307V622.146C135.797 622.748 136.665 623.196 137.435 623.196C139.199 623.196 140.473 621.642 140.473 619.5ZM136.987 621.936C136.343 621.936 135.741 621.628 135.391 621.166V617.904C135.741 617.428 136.371 617.106 137.043 617.106C138.093 617.106 138.849 618.086 138.849 619.472C138.849 620.9 138.065 621.936 136.987 621.936ZM147.978 623.098L148.048 621.978C147.964 621.992 147.81 622.006 147.726 622.006C147.348 622.006 147.152 621.74 147.152 621.362V618.408C147.152 616.742 146.144 615.846 144.52 615.846C143.204 615.846 142.14 616.546 141.65 617.666L142.798 618.156C143.12 617.54 143.624 617.078 144.38 617.078C145.136 617.078 145.626 617.582 145.626 618.366V618.814L144.072 619.024C142.504 619.248 141.44 620.018 141.44 621.292C141.44 622.398 142.322 623.196 143.554 623.196C144.52 623.196 145.29 622.72 145.724 622.006C145.962 622.818 146.536 623.196 147.348 623.196C147.586 623.196 147.782 623.154 147.978 623.098ZM144.058 622.006C143.456 622.006 143.022 621.642 143.022 621.124C143.022 620.494 143.596 620.116 144.394 620.018L145.626 619.85V621.096C145.29 621.628 144.716 622.006 144.058 622.006ZM155.322 623V618.436C155.322 616.924 154.286 615.846 152.942 615.846C151.976 615.846 151.164 616.392 150.702 617.05V616.028H149.218V623H150.758V618.002C151.136 617.512 151.794 617.12 152.48 617.12C153.236 617.12 153.782 617.68 153.782 618.548V623H155.322ZM158.742 616.028H157.202V623H158.742V616.028ZM158.742 613.312H157.202V614.838H158.742V613.312Z" fill="#F9F9F9"/>
<path d="M64.3777 525.656C64.3777 515.156 67.7839 506.422 74.5964 499.453C81.4402 492.485 90.4246 488.235 101.55 486.703C101.925 487.078 102.175 487.563 102.3 488.156C89.8933 493.906 82.6121 502.828 80.4558 514.922C83.6433 512.297 87.2527 510.985 91.2839 510.985C96.5964 510.985 100.862 512.672 104.081 516.047C107.331 519.391 108.956 523.781 108.956 529.219C108.956 535.375 106.846 540.375 102.628 544.219C98.4402 548.031 93.3464 549.938 87.3464 549.938C80.7527 549.938 75.2683 547.797 70.8933 543.516C66.5496 539.235 64.3777 533.281 64.3777 525.656ZM79.6589 523.547C79.6589 530.266 80.3152 536.047 81.6277 540.891C82.9402 545.735 84.9402 548.156 87.6277 548.156C89.6902 548.156 91.2371 546.625 92.2683 543.563C93.3308 540.469 93.8621 536.719 93.8621 532.313C93.8621 527.438 93.0652 523.375 91.4714 520.125C89.8777 516.844 87.8933 515.203 85.5183 515.203C83.8621 515.203 82.1277 515.688 80.3152 516.656C79.8777 518.906 79.6589 521.203 79.6589 523.547ZM114.675 542.578C114.675 540.016 115.471 537.969 117.065 536.438C118.659 534.906 120.675 534.141 123.112 534.141C125.612 534.141 127.69 534.938 129.346 536.531C131.003 538.125 131.831 540.141 131.831 542.578C131.831 544.891 130.971 546.813 129.253 548.344C127.534 549.875 125.487 550.641 123.112 550.641C120.737 550.641 118.737 549.875 117.112 548.344C115.487 546.813 114.675 544.891 114.675 542.578ZM136.378 509.719C137.596 501.906 139.003 496.281 140.596 492.844C142.19 489.375 144.143 487.641 146.456 487.641C148.3 487.641 152.237 487.969 158.268 488.625C164.331 489.25 169.003 489.563 172.284 489.563C172.909 489.563 173.768 489.297 174.862 488.766C175.956 488.203 176.878 487.641 177.628 487.078L178.8 486.235L179.737 487.078C164.175 512.047 156.346 526.922 156.253 531.703C156.503 533.172 157.628 535.578 159.628 538.922C161.659 542.235 162.768 544.828 162.956 546.703C161.05 549.141 158.05 550.36 153.956 550.36C152.237 550.36 150.846 549.86 149.784 548.86C148.721 547.86 148.19 546.531 148.19 544.875C148.19 538.719 154.784 524.672 167.971 502.735C158.003 501.891 151.346 501.469 148.003 501.469C145.065 501.469 143.003 501.969 141.815 502.969C140.628 503.969 139.362 506.281 138.018 509.906L136.378 509.719Z" fill="#F9F9F9"/>
<path d="M112.026 467C112.026 464.607 113.966 462.667 116.359 462.667H122.859C125.253 462.667 127.193 464.607 127.193 467H112.026Z" fill="#F9F9F9"/>
<path d="M112.026 452.916C112.026 450.523 113.966 448.583 116.359 448.583H122.859C125.253 448.583 127.193 450.523 127.193 452.916H112.026Z" fill="#F9F9F9"/>
<path d="M126.109 460.5C126.109 458.107 128.049 456.167 130.443 456.167H136.943C139.336 456.167 141.276 458.107 141.276 460.5H126.109Z" fill="#3D3D3D"/>
<path d="M97.9427 460.5C97.9427 458.107 99.8828 456.167 102.276 456.167H108.776C111.169 456.167 113.109 458.107 113.109 460.5H97.9427Z" fill="#3D3D3D"/>
<circle cx="119.609" cy="458.333" r="3.24998" fill="#3D3D3D"/>
<circle cx="119.609" cy="444.25" r="3.24998" fill="#3D3D3D"/>
<circle cx="133.693" cy="451.833" r="3.24998" fill="#F9F9F9"/>
<circle cx="105.526" cy="451.833" r="3.24998" fill="#F9F9F9"/>
<path d="M118.948 369.334L117.996 369.334L117.996 372.106L115.294 372.106L115.294 373.114L117.996 373.114L117.996 375.886L118.948 375.886L118.948 373.114L121.804 373.114L121.804 372.106L118.948 372.106L118.948 369.334ZM120.978 367.589L122 367.589L122 360.841L120.824 360.841L120.824 365.755L118.794 363.459C118.024 362.605 116.834 361.261 115.294 361.261C113.81 361.261 112.76 362.563 112.76 364.243C112.76 365.937 113.838 367.057 115.126 367.589L115.588 366.595C114.692 366.217 113.894 365.419 113.894 364.313C113.894 363.403 114.454 362.619 115.42 362.619C116.358 362.619 117.086 363.389 118.094 364.467L120.978 367.589ZM119.032 352.334C117.296 352.334 115.994 353.804 115.994 355.652C115.994 356.604 116.344 357.36 116.694 357.836L114.174 357.654L114.174 352.74L112.942 352.74L112.942 358.69L118.01 359.04L118.192 358.172C117.548 357.724 117.114 356.828 117.114 355.89C117.114 354.602 117.954 353.692 119.116 353.692C120.292 353.692 121.048 354.616 121.048 355.974C121.048 357.136 120.488 357.976 119.494 358.494L120.012 359.502C121.356 358.816 122.182 357.542 122.182 355.932C122.182 353.86 120.81 352.334 119.032 352.334ZM122.112 341.636L121.202 341.58C121.216 341.664 121.23 341.804 121.23 341.888C121.23 342.308 120.936 342.518 120.558 342.518L117.366 342.518C115.756 342.518 114.874 343.498 114.874 345.01C114.874 346.214 115.546 347.264 116.638 347.768L117.016 346.844C116.358 346.494 115.868 345.948 115.868 345.122C115.868 344.268 116.456 343.708 117.324 343.708L117.87 343.708L118.066 345.332C118.262 346.872 119.004 347.964 120.292 347.964C121.398 347.964 122.182 347.082 122.182 345.85C122.182 344.87 121.706 344.1 120.964 343.652C121.762 343.484 122.182 342.966 122.182 342.182C122.182 341.972 122.154 341.804 122.112 341.636ZM121.216 345.528C121.216 346.228 120.796 346.718 120.208 346.718C119.494 346.718 119.074 346.046 118.962 345.122L118.794 343.708L120.068 343.708C120.74 344.072 121.216 344.758 121.216 345.528ZM122 334.47L117.408 334.47C115.924 334.47 114.874 335.506 114.874 336.864C114.874 337.858 115.462 338.698 116.12 339.16L115.056 339.16L115.056 340.308L122 340.308L122 339.118L116.96 339.118C116.344 338.684 115.882 337.928 115.882 337.144C115.882 336.276 116.526 335.66 117.492 335.66L122 335.66L122 334.47ZM122 326.554L117.408 326.554C115.924 326.554 114.874 327.59 114.874 328.948C114.874 329.942 115.462 330.782 116.12 331.244L115.056 331.244L115.056 332.392L122 332.392L122 331.202L116.96 331.202C116.344 330.768 115.882 330.012 115.882 329.228C115.882 328.36 116.526 327.744 117.492 327.744L122 327.744L122 326.554ZM115.056 323.286L115.056 324.476L122 324.476L122 323.286L115.056 323.286ZM112.298 323.286L112.298 324.476L113.684 324.476L113.684 323.286L112.298 323.286Z" fill="#F9F9F9"/>
<path d="M130.647 401.354C130.842 401.549 131.158 401.549 131.354 401.354L134.536 398.172C134.731 397.976 134.731 397.66 134.536 397.465C134.34 397.269 134.024 397.269 133.829 397.465L131 400.293L128.172 397.465C127.976 397.269 127.66 397.269 127.465 397.465C127.269 397.66 127.269 397.976 127.465 398.172L130.647 401.354ZM130.5 198L130.5 401L131.5 401L131.5 198L130.5 198Z" fill="#F9F9F9"/>
<defs>
<linearGradient id="paint0_linear_486_179" x1="124.402" y1="672.453" x2="114.179" y2="672.398" gradientUnits="userSpaceOnUse">
<stop stop-color="#07A76F"/>
<stop offset="1" stop-color="#8ECA45"/>
</linearGradient>
<linearGradient id="paint1_linear_486_179" x1="134.79" y1="684.64" x2="209.255" y2="685.615" gradientUnits="userSpaceOnUse">
<stop stop-color="#07A76F"/>
<stop offset="1" stop-color="#8ECA45"/>
</linearGradient>
<linearGradient id="paint2_linear_486_179" x1="134.79" y1="684.64" x2="209.255" y2="685.615" gradientUnits="userSpaceOnUse">
<stop stop-color="#07A76F"/>
<stop offset="1" stop-color="#8ECA45"/>
</linearGradient>
<linearGradient id="paint3_linear_486_179" x1="298.12" y1="22.4199" x2="292.969" y2="647.423" gradientUnits="userSpaceOnUse">
<stop stop-color="#07A76F"/>
<stop offset="1" stop-color="#8ECA45"/>
</linearGradient>
<linearGradient id="paint4_linear_486_179" x1="231.405" y1="1.88291" x2="230.39" y2="221.56" gradientUnits="userSpaceOnUse">
<stop stop-color="#07A76F"/>
<stop offset="1" stop-color="#8ECA45"/>
</linearGradient>
<linearGradient id="paint5_linear_486_179" x1="298.091" y1="368.985" x2="296.472" y2="719.421" gradientUnits="userSpaceOnUse">
<stop stop-color="#07A76F"/>
<stop offset="1" stop-color="#8ECA45"/>
</linearGradient>
<linearGradient id="paint6_linear_486_179" x1="115.599" y1="16.547" x2="125.821" y2="16.6021" gradientUnits="userSpaceOnUse">
<stop stop-color="#07A76F"/>
<stop offset="1" stop-color="#8ECA45"/>
</linearGradient>
<linearGradient id="paint7_linear_486_179" x1="95.9929" y1="-1.39067" x2="147.099" y2="-0.800363" gradientUnits="userSpaceOnUse">
<stop stop-color="#07A76F"/>
<stop offset="1" stop-color="#8ECA45"/>
</linearGradient>
<linearGradient id="paint8_linear_486_179" x1="135.79" y1="13.6405" x2="210.255" y2="14.6154" gradientUnits="userSpaceOnUse">
<stop stop-color="#07A76F"/>
<stop offset="1" stop-color="#8ECA45"/>
</linearGradient>
<linearGradient id="paint9_linear_486_179" x1="69.7568" y1="65.4371" x2="173.439" y2="66.0445" gradientUnits="userSpaceOnUse">
<stop stop-color="#07A76F"/>
<stop offset="1" stop-color="#8ECA45"/>
</linearGradient>
<linearGradient id="paint10_linear_486_179" x1="81.1603" y1="135.125" x2="160" y2="136.354" gradientUnits="userSpaceOnUse">
<stop stop-color="#07A76F"/>
<stop offset="1" stop-color="#8ECA45"/>
</linearGradient>
<linearGradient id="paint11_linear_486_179" x1="99.4679" y1="63.5396" x2="125.017" y2="63.9527" gradientUnits="userSpaceOnUse">
<stop stop-color="#07A76F"/>
<stop offset="1" stop-color="#8ECA45"/>
</linearGradient>
<linearGradient id="paint12_linear_486_179" x1="122.97" y1="58.9336" x2="133.922" y2="58.9842" gradientUnits="userSpaceOnUse">
<stop stop-color="#07A76F"/>
<stop offset="1" stop-color="#8ECA45"/>
</linearGradient>
</defs>
</svg>
