<?xml version="1.0" encoding="UTF-8"?><svg id="Layer_1" xmlns="http://www.w3.org/2000/svg" xmlns:xlink="http://www.w3.org/1999/xlink" viewBox="0 0 1440 716"><defs><style>.Graphic_Style_10{fill:url(#linear-gradient);}.cls-1{fill:#00aa6a;}.cls-2{fill:#005c37;}.cls-3{fill:#fff;}.cls-4{fill:#9bc8c0;}.cls-5{fill:#c4c4c4;}.cls-6{fill:#0ab58b;}.cls-7{fill:url(#linear-gradient-8);}.cls-8{fill:url(#linear-gradient-9);}.cls-9{fill:url(#linear-gradient-3);}.cls-10{fill:url(#linear-gradient-4);}.cls-11{fill:url(#linear-gradient-2);}.cls-12{fill:url(#linear-gradient-6);}.cls-13{fill:url(#linear-gradient-7);}.cls-14{fill:url(#linear-gradient-5);}.cls-15{fill:url(#linear-gradient-13);}.cls-16{fill:url(#linear-gradient-12);}.cls-17{fill:url(#linear-gradient-10);}.cls-18{fill:url(#linear-gradient-11);}</style><linearGradient id="linear-gradient" x1="788.36" y1="156.5" x2="753.76" y2="216.43" gradientTransform="matrix(1, 0, 0, 1, 0, 0)" gradientUnits="userSpaceOnUse"><stop offset=".3" stop-color="#00aa6a"/><stop offset=".48" stop-color="#27b452"/><stop offset=".71" stop-color="#56c137"/><stop offset=".9" stop-color="#74c926"/><stop offset="1" stop-color="#7fcd20"/></linearGradient><linearGradient id="linear-gradient-2" x1="924.78" y1="121.11" x2="980.59" y2="65.3" gradientTransform="matrix(1, 0, 0, 1, 0, 0)" gradientUnits="userSpaceOnUse"><stop offset="0" stop-color="#00aa6a"/><stop offset=".1" stop-color="#19b15b"/><stop offset=".33" stop-color="#4fbf3d"/><stop offset=".51" stop-color="#70c82a"/><stop offset=".6" stop-color="#7dcc23"/><stop offset="1" stop-color="#7fcd20"/></linearGradient><linearGradient id="linear-gradient-3" x1="1270.73" y1="353.4" x2="1326.55" y2="297.58" xlink:href="#linear-gradient-2"/><linearGradient id="linear-gradient-4" x1="1044.64" y1="398.01" x2="1120.25" y2="322.4" xlink:href="#linear-gradient-2"/><linearGradient id="linear-gradient-5" x1="1189.46" y1="461.93" x2="1286.76" y2="364.63" xlink:href="#linear-gradient-2"/><linearGradient id="linear-gradient-6" x1="402.34" y1="444.68" x2="499.73" y2="347.28" xlink:href="#linear-gradient-2"/><linearGradient id="linear-gradient-7" x1="622.06" y1="543.67" x2="677.88" y2="487.86" xlink:href="#linear-gradient-2"/><linearGradient id="linear-gradient-8" x1="722.35" y1="453.32" x2="819.75" y2="355.93" xlink:href="#linear-gradient-2"/><linearGradient id="linear-gradient-9" x1="543" y1="328.82" x2="618.61" y2="253.21" xlink:href="#linear-gradient-2"/><linearGradient id="linear-gradient-10" x1="361.44" y1="179.3" x2="410.93" y2="129.81" xlink:href="#linear-gradient-2"/><linearGradient id="linear-gradient-11" x1="161.73" y1="503.59" x2="211.21" y2="454.1" xlink:href="#linear-gradient-2"/><linearGradient id="linear-gradient-12" x1="288.29" y1="526.38" x2="344.1" y2="470.56" xlink:href="#linear-gradient-2"/><linearGradient id="linear-gradient-13" x1="179.3" y1="340.67" x2="228.22" y2="291.74" xlink:href="#linear-gradient-2"/></defs><rect x="298.9" y="74.03" width="108.9" height="268.12"/><rect x="359.44" y="471.88" width="65.45" height="147.03"/><rect x="316.99" y="333.5" width="64.87" height="160.01"/><path class="cls-4" d="M822.95,125.93c0-14.33-11.62-25.95-25.95-25.95-5.34,0-10.3,1.61-14.42,4.38-7.47-12.95-21.45-21.67-37.47-21.67-7.88,0-15.27,2.12-21.63,5.81-11.09-14.06-28.26-23.1-47.56-23.1-33.44,0-60.54,27.11-60.54,60.54h138.38v34.6h51.89v-34.6h17.3Z"/><rect x="667.27" y="65.38" width="25.95" height="95.14"/><rect class="cls-4" x="684.57" y="99.98" width="60.54" height="138.38"/><path class="cls-3" d="M702.66,169.96h-10.23v-53.48h10.23v53.48Zm-8.65-1.58h7.07v-50.31h-7.07v50.31Z"/><path class="cls-3" d="M719.96,169.96h-10.23v-53.48h10.23v53.48Zm-8.65-1.58h7.07v-50.31h-7.07v50.31Z"/><path class="cls-3" d="M737.25,169.96h-10.23v-53.48h10.23v53.48Zm-8.65-1.58h7.07v-50.31h-7.07v50.31Z"/><rect x="710.51" y="160.52" width="43.24" height="34.6"/><polygon points="745.11 99.98 788.36 143.22 788.36 247.01 745.11 247.01 745.11 99.98"/><rect class="cls-5" x="788.36" y="117.28" width="25.95" height="155.68"/><polygon class="cls-2" points="831.6 272.96 814.3 272.96 814.3 117.28 831.6 134.57 831.6 272.96"/><rect x="736.46" y="186.47" width="51.89" height="69.19"/><circle class="cls-1" cx="771.06" cy="186.47" r="34.6"/><polygon points="793.24 187.03 792.12 185.91 771.85 206.18 771.85 186.79 780.27 178.38 779.15 177.26 771.85 184.56 771.85 169.17 770.27 169.17 770.27 193.21 754.32 177.26 753.2 178.38 770.27 195.44 770.27 247.01 771.85 247.01 771.85 208.42 793.24 187.03"/><rect x="416.45" y="515.13" width="34.6" height="138.38"/><rect class="cls-2" x="476.99" y="272.96" width="103.79" height="155.68"/><rect class="cls-1" x="476.99" y="532.43" width="51.89" height="121.09"/><rect class="cls-4" x="546.18" y="558.37" width="34.6" height="95.14"/><rect class="cls-2" x="580.78" y="56.73" width="69.19" height="596.78"/><rect class="cls-1" x="606.73" y="65.38" width="60.54" height="112.44"/><path d="M667.27,83.47v-1.58h-7.86v-7.86h-1.58v7.86h-7.07v-7.86h-1.58v7.86h-7.07v-7.86h-1.58v7.86h-7.07v-7.86h-1.58v7.86h-7.07v-7.86h-1.58v7.86h-7.07v-7.86h-1.58v7.86h-7.86v1.58h7.86v7.06h-7.86v1.58h7.86v7.07h-7.86v1.58h7.86v7.06h-7.86v1.58h7.86v7.07h-7.86v1.58h7.86v7.06h-7.86v1.58h7.86v7.07h-7.86v1.58h7.86v7.06h-7.86v1.58h7.86v7.07h-7.86v1.58h7.86v7.86h1.58v-7.86h7.07v7.86h1.58v-7.86h7.07v7.86h1.58v-7.86h7.07v7.86h1.58v-7.86h7.07v7.86h1.58v-7.86h7.07v7.86h1.58v-7.86h7.86v-1.58h-7.86v-7.07h7.86v-1.58h-7.86v-7.06h7.86v-1.58h-7.86v-7.07h7.86v-1.58h-7.86v-7.06h7.86v-1.58h-7.86v-7.07h7.86v-1.58h-7.86v-7.06h7.86v-1.58h-7.86v-7.07h7.86v-1.58h-7.86v-7.06h7.86Zm-18.09,0v7.06h-7.07v-7.06h7.07Zm-15.71,41.66v-7.06h7.07v7.06h-7.07Zm7.07,1.58v7.07h-7.07v-7.07h7.07Zm-7.07-10.23v-7.07h7.07v7.07h-7.07Zm0-8.65v-7.06h7.07v7.06h-7.07Zm0-8.65v-7.07h7.07v7.07h-7.07Zm-1.58,0h-7.07v-7.07h7.07v7.07Zm0,1.58v7.06h-7.07v-7.06h7.07Zm0,8.65v7.07h-7.07v-7.07h7.07Zm0,8.65v7.06h-7.07v-7.06h7.07Zm0,8.65v7.07h-7.07v-7.07h7.07Zm0,8.65v7.06h-7.07v-7.06h7.07Zm1.58,0h7.07v7.06h-7.07v-7.06Zm8.65,0h7.07v7.06h-7.07v-7.06Zm0-1.58v-7.07h7.07v7.07h-7.07Zm0-8.65v-7.06h7.07v7.06h-7.07Zm0-8.65v-7.07h7.07v7.07h-7.07Zm0-8.65v-7.06h7.07v7.06h-7.07Zm0-8.65v-7.07h7.07v7.07h-7.07Zm-1.58-15.71v7.06h-7.07v-7.06h7.07Zm-8.65,0v7.06h-7.07v-7.06h7.07Zm-15.71,0h7.07v7.06h-7.07v-7.06Zm0,8.65h7.07v7.07h-7.07v-7.07Zm0,8.65h7.07v7.06h-7.07v-7.06Zm0,8.65h7.07v7.07h-7.07v-7.07Zm0,8.65h7.07v7.06h-7.07v-7.06Zm0,8.65h7.07v7.07h-7.07v-7.07Zm0,8.65h7.07v7.06h-7.07v-7.06Zm0,15.71v-7.07h7.07v7.07h-7.07Zm8.65,0v-7.07h7.07v7.07h-7.07Zm8.65,0v-7.07h7.07v7.07h-7.07Zm8.65,0v-7.07h7.07v7.07h-7.07Zm15.71,0h-7.07v-7.07h7.07v7.07Zm0-8.65h-7.07v-7.06h7.07v7.06Zm0-8.65h-7.07v-7.07h7.07v7.07Zm0-8.65h-7.07v-7.06h7.07v7.06Zm0-8.65h-7.07v-7.07h7.07v7.07Zm0-8.65h-7.07v-7.06h7.07v7.06Zm0-8.65h-7.07v-7.07h7.07v7.07Zm0-8.65h-7.07v-7.06h7.07v7.06Z"/><polygon points="451.05 636.21 476.99 636.21 476.99 97.82 451.05 74.03 451.05 636.21"/><rect class="cls-1" x="416.45" y="272.96" width="34.6" height="164.33"/><rect class="cls-1" x="476.99" y="428.64" width="77.84" height="86.49"/><rect x="554.83" y="428.64" width="25.95" height="77.84"/><rect class="cls-1" x="580.78" y="195.12" width="95.14" height="77.84"/><path class="cls-3" d="M649.97,256.45c-5.21,0-9.44-4.24-9.44-9.44s4.23-9.44,9.44-9.44,9.44,4.24,9.44,9.44-4.23,9.44-9.44,9.44Zm0-17.3c-4.33,0-7.86,3.52-7.86,7.86s3.52,7.86,7.86,7.86,7.86-3.52,7.86-7.86-3.52-7.86-7.86-7.86Z"/><polygon class="cls-2" points="632.67 195.12 658.62 221.06 736.46 221.06 736.46 195.12 632.67 195.12"/><rect class="cls-5" x="624.03" y="333.5" width="77.84" height="95.14"/><path class="cls-3" d="M676.71,429.43h-27.53v-53.48h27.53v53.48Zm-25.95-1.58h24.36v-50.31h-24.36v50.31Z"/><rect class="cls-5" x="710.51" y="480.53" width="95.14" height="34.6"/><rect x="805.65" y="454.59" width="86.49" height="60.54"/><rect x="710.51" y="445.94" width="95.14" height="34.6"/><rect class="cls-4" x="892.14" y="480.53" width="51.89" height="51.89"/><path class="cls-2" d="M944.04,489.97v-1.58h-7.86v-7.86h-1.58v7.86h-7.06v-7.86h-1.58v7.86h-7.07v-7.86h-1.58v7.86h-7.06v-7.86h-1.58v7.86h-7.07v-7.86h-1.58v7.86h-7.86v1.58h7.86v7.06h-7.86v1.58h7.86v7.07h-7.86v1.58h7.86v7.06h-7.86v1.58h7.86v7.07h-7.86v1.58h7.86v7.86h1.58v-7.86h7.07v7.86h1.58v-7.86h7.06v7.86h1.58v-7.86h7.07v7.86h1.58v-7.86h7.06v7.86h1.58v-7.86h7.86v-1.58h-7.86v-7.07h7.86v-1.58h-7.86v-7.06h7.86v-1.58h-7.86v-7.07h7.86v-1.58h-7.86v-7.06h7.86Zm-18.09,0v7.06h-7.07v-7.06h7.07Zm-8.65,17.3v7.06h-7.06v-7.06h7.06Zm-7.06-1.58v-7.07h7.06v7.07h-7.06Zm8.65,1.58h7.07v7.06h-7.07v-7.06Zm0-1.58v-7.07h7.07v7.07h-7.07Zm-1.58-15.71v7.06h-7.06v-7.06h7.06Zm-15.71,0h7.07v7.06h-7.07v-7.06Zm0,8.65h7.07v7.07h-7.07v-7.07Zm0,8.65h7.07v7.06h-7.07v-7.06Zm0,15.71v-7.07h7.07v7.07h-7.07Zm8.65,0v-7.07h7.06v7.07h-7.06Zm8.65,0v-7.07h7.07v7.07h-7.07Zm15.71,0h-7.06v-7.07h7.06v7.07Zm0-8.65h-7.06v-7.06h7.06v7.06Zm0-8.65h-7.06v-7.07h7.06v7.07Zm0-8.65h-7.06v-7.06h7.06v7.06Z"/><rect x="892.14" y="342.15" width="34.6" height="86.49"/><rect class="cls-2" x="866.2" y="342.15" width="34.6" height="86.49"/><rect class="cls-4" x="822.95" y="91.33" width="25.95" height="181.63"/><path class="cls-1" d="M968.02,94.96c6.72-4.93,10.99-13.02,10.59-22.09-.59-13.47-11.65-24.37-25.13-24.77-14.69-.44-26.74,11.34-26.74,25.94,0,8.57,4.16,16.17,10.57,20.9,1.55,1.14,1.9,3.31,.73,4.82-2.43,3.14-3.88,7.07-3.88,11.35,0,5.87,2.73,11.1,6.99,14.49,1.18,.94,1.62,2.51,1.1,3.93-.49,1.33-.73,2.78-.66,4.29,.25,5.94,5.3,10.71,11.25,10.64,6.08-.08,10.98-5.02,10.98-11.12,0-1.37-.25-2.69-.7-3.9-.53-1.4,.01-2.95,1.18-3.89,4.23-3.4,6.94-8.61,6.94-14.45,0-4.28-1.45-8.22-3.89-11.35-1.16-1.5-.85-3.66,.68-4.79Z"/><polygon points="961.89 110.42 960.78 109.3 953.48 116.6 953.48 83.92 951.89 83.92 951.89 107.95 944.6 100.65 943.48 101.77 951.89 110.19 951.89 161.76 953.48 161.76 953.48 118.84 961.89 110.42"/><polygon class="cls-2" points="918.09 281.61 848.9 281.61 848.9 91.33 918.09 160.52 918.09 281.61"/><path class="cls-1" d="M883.49,281.61c0-14.33-11.62-25.95-25.95-25.95-5.34,0-10.3,1.61-14.42,4.38-7.47-12.95-21.45-21.67-37.47-21.67-7.88,0-15.27,2.12-21.63,5.81-11.09-14.06-28.26-23.1-47.56-23.1-33.44,0-60.54,27.11-60.54,60.54h121.09v112.44h69.19v-112.44h17.3Z"/><rect class="cls-2" x="926.74" y="368.1" width="34.6" height="86.49"/><polygon points="969.98 151.87 1004.58 186.47 1004.58 316.2 969.98 316.2 969.98 151.87"/><polygon points="1212.15 342.15 1177.56 342.15 1177.56 229.71 1212.15 264.31 1212.15 342.15"/><rect class="cls-5" x="1160.26" y="229.71" width="17.3" height="77.84"/><polygon points="1281.35 454.59 1281.35 428.64 1367.84 428.64 1367.84 463.23 1333.24 463.23 1307.29 489.18 1281.35 489.18 1194.86 489.18 1194.86 454.59 1281.35 454.59"/><rect x="1004.58" y="463.23" width="34.6" height="129.73"/><rect class="cls-4" x="1194.86" y="489.18" width="25.95" height="34.6"/><rect class="cls-4" x="995.93" y="316.2" width="86.49" height="138.38"/><path class="cls-3" d="M1048.62,438.08h-27.53v-62.13h27.53v62.13Zm-25.95-1.58h24.36v-58.96h-24.36v58.96Z"/><path class="cls-3" d="M1034.85,351.59c-5.21,0-9.44-4.24-9.44-9.44s4.24-9.44,9.44-9.44,9.44,4.24,9.44,9.44-4.24,9.44-9.44,9.44Zm0-17.3c-4.33,0-7.86,3.52-7.86,7.86s3.52,7.86,7.86,7.86,7.86-3.52,7.86-7.86-3.52-7.86-7.86-7.86Z"/><rect x="1082.42" y="428.64" width="86.49" height="25.95"/><rect class="cls-2" x="1082.42" y="402.69" width="69.19" height="25.95"/><rect class="cls-2" x="1039.18" y="463.23" width="69.19" height="112.44"/><polygon class="cls-2" points="1177.56 350.8 1177.56 385.39 1065.12 385.39 1099.72 350.8 1177.56 350.8"/><polygon points="1056.47 255.66 1021.88 255.66 1021.88 134.57 1056.47 169.17 1056.47 255.66"/><polygon points="1082.42 272.96 1047.82 272.96 1047.82 134.57 1082.42 169.17 1082.42 272.96"/><rect class="cls-1" x="1030.53" y="134.57" width="17.3" height="138.38"/><rect class="cls-1" x="1004.58" y="134.57" width="17.3" height="138.38"/><polygon points="563.48 195.12 528.89 195.12 528.89 74.03 563.48 108.63 563.48 195.12"/><polygon points="589.43 212.41 554.83 212.41 554.83 74.03 589.43 108.63 589.43 212.41"/><rect class="cls-4" x="537.54" y="74.03" width="17.3" height="138.38"/><rect class="cls-4" x="511.59" y="74.03" width="17.3" height="138.38"/><path class="cls-1" d="M1231.14,232.34c-2.24-1.22-2.85-4.21-1.13-6.09,2.32-2.54,3.76-5.95,3.76-9.51,0-4.32-2.11-8.43-5.36-11.02-1.68-1.34-1.91-3.76-.64-5.49,1.25-1.7,1.89-3.86,1.61-6.19-.47-3.91-3.67-7.08-7.58-7.52-5.22-.59-9.65,3.49-9.65,8.59,0,1.91,.62,3.67,1.66,5.1,1.27,1.74,1.08,4.16-.61,5.49-3.26,2.58-5.38,6.7-5.38,11.03,0,3.56,1.44,6.98,3.76,9.51,1.71,1.87,1.13,4.86-1.09,6.07-7.1,3.86-11.8,11.57-11.27,20.33,.64,10.78,9.39,19.57,20.17,20.25,12.58,.8,23.04-9.17,23.04-21.58,0-8.2-4.56-15.33-11.28-18.99Z"/><polygon points="1234.38 247.57 1233.26 246.45 1221.59 258.12 1221.59 212.42 1220.01 212.42 1220.01 249.41 1208.4 237.8 1207.28 238.92 1220.01 251.65 1220.01 290.25 1221.59 290.25 1221.59 260.36 1234.38 247.57"/><circle class="cls-1" cx="1117.02" cy="151.87" r="34.6"/><polygon points="1139.2 152.43 1138.08 151.31 1117.81 171.58 1117.81 152.2 1126.22 143.78 1125.11 142.66 1117.81 149.96 1117.81 134.57 1116.22 134.57 1116.22 158.61 1100.28 142.66 1099.16 143.78 1116.22 160.85 1116.22 212.42 1117.81 212.42 1117.81 173.82 1139.2 152.43"/><rect class="cls-4" x="1056.47" y="203.77" width="69.19" height="86.49"/><path class="cls-3" d="M1100.51,291.05h-18.88v-44.04c0-5.21,4.24-9.44,9.44-9.44s9.44,4.24,9.44,9.44v44.04Zm-17.3-1.58h15.71v-42.45c0-4.33-3.52-7.86-7.86-7.86s-7.86,3.52-7.86,7.86v42.45Z"/><rect class="cls-2" x="1264.05" y="316.2" width="34.6" height="86.49"/><path class="cls-1" d="M1313.97,327.25c6.72-4.93,10.99-13.02,10.59-22.09-.59-13.47-11.65-24.37-25.13-24.77-14.69-.44-26.74,11.34-26.74,25.94,0,8.57,4.16,16.17,10.57,20.9,1.55,1.14,1.9,3.31,.73,4.82-2.43,3.14-3.88,7.07-3.88,11.35,0,5.87,2.73,11.1,6.99,14.49,1.18,.94,1.62,2.51,1.1,3.93-.49,1.33-.73,2.78-.66,4.29,.25,5.94,5.3,10.71,11.25,10.64,6.08-.08,10.98-5.02,10.98-11.12,0-1.37-.25-2.69-.7-3.9-.53-1.4,.01-2.95,1.18-3.89,4.23-3.4,6.94-8.61,6.94-14.45,0-4.28-1.45-8.22-3.89-11.35-1.16-1.5-.85-3.66,.68-4.79Z"/><polygon points="1307.85 342.71 1306.73 341.59 1299.44 348.89 1299.44 316.2 1297.85 316.2 1297.85 340.24 1290.55 332.94 1289.44 334.06 1297.85 342.48 1297.85 394.04 1299.44 394.04 1299.44 351.12 1307.85 342.71"/><rect class="cls-4" x="1125.66" y="316.2" width="34.6" height="69.19"/><polygon class="cls-2" points="1142.96 350.8 1142.96 316.2 1065.12 316.2 1099.72 350.8 1142.96 350.8"/><rect class="cls-2" x="995.93" y="290.26" width="69.19" height="25.95"/><polygon points="1160.26 316.2 1125.66 316.2 1125.66 203.77 1160.26 238.36 1160.26 316.2"/><polygon class="cls-5" points="1091.07 281.61 1065.12 255.66 995.93 255.66 995.93 290.26 1039.18 290.26 1065.12 316.2 1091.07 316.2 1142.96 316.2 1142.96 281.61 1091.07 281.61"/><rect class="cls-1" x="1160.26" y="281.61" width="69.19" height="147.03"/><polygon points="1264.05 394.04 1229.45 394.04 1229.45 281.61 1264.05 316.2 1264.05 394.04"/><polygon class="cls-2" points="1212.15 411.34 1212.15 411.34 1212.15 411.34 1212.15 402.69 1203.51 402.69 1203.51 394.04 1194.86 394.04 1194.86 385.39 1186.21 385.39 1186.21 376.74 1177.56 376.74 1177.56 368.1 1168.91 368.1 1168.91 368.1 1168.91 368.1 1168.91 368.1 1168.91 359.45 1160.26 359.45 1160.26 350.8 1151.61 350.8 1151.61 359.45 1151.61 419.99 1212.15 419.99 1212.15 419.99 1220.8 419.99 1220.8 411.34 1212.15 411.34"/><path class="cls-4" d="M1367.84,428.64h0c0-14.33-11.62-25.95-25.95-25.95-5.34,0-10.3,1.61-14.42,4.38-7.47-12.95-21.45-21.67-37.47-21.67-7.88,0-15.27,2.12-21.63,5.81-11.09-14.06-28.26-23.1-47.56-23.1-33.44,0-60.54,27.11-60.54,60.54h207.57Z"/><rect class="cls-2" x="1142.96" y="350.8" width="8.65" height="51.89"/><polygon points="1030.53 445.94 1030.53 445.94 1030.53 445.94 1030.53 437.29 1021.88 437.29 1021.88 428.64 1013.23 428.64 1013.23 419.99 1004.58 419.99 1004.58 411.34 995.93 411.34 995.93 402.69 987.28 402.69 987.28 402.69 987.28 402.69 987.28 402.69 987.28 394.04 978.63 394.04 978.63 385.39 961.33 385.39 961.33 394.04 961.33 454.59 1030.53 454.59 1030.53 454.59 1039.18 454.59 1039.18 445.94 1030.53 445.94"/><path d="M589.43,419.99v-8.65h-8.65v-8.65h-8.65v-8.65h-8.65v-8.65h-8.65v-8.65h-8.65v-8.65h-8.65v-8.65h-8.65v-8.65h-8.65v-8.65h-8.65v-8.65h-8.65v-8.65h-8.65v-8.65h-8.65v-8.65h-17.3v121.09h129.73v-8.65h-8.65Zm-43.24-43.24h0Z"/><rect x="961.33" y="385.39" width="8.65" height="51.89"/><polygon points="1255.4 463.23 1255.4 428.64 1142.96 428.64 1177.56 463.23 1255.4 463.23"/><polygon class="cls-5" points="1168.91 394.04 1142.96 368.1 1091.07 368.1 1091.07 402.69 1117.02 402.69 1142.96 428.64 1168.91 428.64 1220.8 428.64 1220.8 394.04 1168.91 394.04"/><path class="cls-3" d="M1182.67,351.59h-10.23v-53.48h10.23v53.48Zm-8.65-1.58h7.06v-50.31h-7.06v50.31Z"/><path class="cls-3" d="M1199.97,351.59h-10.23v-53.48h10.23v53.48Zm-8.65-1.58h7.06v-50.31h-7.06v50.31Z"/><path class="cls-3" d="M1217.27,351.59h-10.23v-53.48h10.23v53.48Zm-8.65-1.58h7.06v-50.31h-7.06v50.31Z"/><path class="cls-3" d="M1117.02,333.5c0-19.15-15.56-34.67-34.73-34.6s-33.8,14.91-34.44,33.35c-.34,9.73,3.34,18.61,9.51,25.09,2.24,2.35,2.71,5.83,1.38,8.79-1.45,3.24-2.26,6.83-2.26,10.61,0,7.4,3.1,14.08,8.07,18.8,2.42,2.3,3.33,5.85,2,8.92-1.16,2.68-1.67,5.7-1.31,8.88,.9,7.93,7.29,14.31,15.22,15.18,10.43,1.15,19.26-6.99,19.26-17.19,0-2.39-.49-4.67-1.36-6.74-1.32-3.11-.58-6.67,1.87-8.99,5.01-4.73,8.14-11.43,8.14-18.87,0-3.78-.81-7.37-2.26-10.61-1.34-2.98-.84-6.45,1.4-8.82,5.89-6.2,9.51-14.59,9.51-23.82Z"/><polygon points="1099.16 376.19 1083.21 392.13 1083.21 359.77 1100.28 342.71 1099.16 341.59 1083.21 357.54 1083.21 333.5 1081.63 333.5 1081.63 374.83 1065.68 358.89 1064.56 360.01 1081.63 377.07 1081.63 454.59 1083.21 454.59 1083.21 394.37 1100.28 377.3 1099.16 376.19"/><polygon class="cls-3" points="1091.07 454.59 1065.12 428.64 1004.58 428.64 1004.58 463.23 1039.18 463.23 1065.12 489.18 1091.07 489.18 1194.86 489.18 1194.86 454.59 1091.07 454.59"/><path class="cls-1" d="M1276.56,402.46c-3.19-3.52-4.68-8.21-4.11-12.92,.16-1.36,.25-2.74,.25-4.15,0-9.03-3.46-17.24-9.12-23.4-3.21-3.49-4.55-8.28-4-12.99,.14-1.17,.18-2.36,.12-3.58-.54-11.31-10-20.43-21.32-20.57-12.07-.15-21.9,9.59-21.9,21.62,0,.86,.05,1.72,.15,2.55,.56,4.7-.8,9.48-4,12.96-5.66,6.16-9.12,14.38-9.12,23.4,0,1.41,.08,2.79,.25,4.15,.57,4.7-.91,9.38-4.09,12.89-8.65,9.53-13.8,22.28-13.44,36.24,.72,27.63,23.4,50.06,51.04,50.5,29.04,.46,52.73-22.95,52.73-51.89,0-13.4-5.09-25.62-13.43-34.82Z"/><polygon points="1273.26 420.55 1272.14 419.43 1238.89 452.67 1238.89 403.02 1255.96 385.95 1254.84 384.83 1238.89 400.78 1238.89 350.8 1237.31 350.8 1237.31 374.83 1230.01 367.54 1228.89 368.66 1237.31 377.07 1237.31 426.73 1212.71 402.13 1211.59 403.25 1237.31 428.97 1237.31 489.18 1238.89 489.18 1238.89 454.91 1273.26 420.55"/><circle class="cls-1" cx="1168.91" cy="445.94" r="34.6"/><polygon points="1191.09 446.5 1189.97 445.38 1169.7 465.65 1169.7 446.26 1178.12 437.85 1177 436.73 1169.7 444.03 1169.7 428.64 1168.12 428.64 1168.12 452.67 1152.17 436.73 1151.05 437.85 1168.12 454.91 1168.12 506.48 1169.7 506.48 1169.7 467.89 1191.09 446.5"/><polygon class="cls-2" points="1194.86 523.78 1194.86 489.18 1065.12 489.18 1099.72 523.78 1194.86 523.78"/><polygon class="cls-4" points="1004.58 463.23 1039.18 497.83 1039.18 463.23 1004.58 463.23"/><path class="cls-5" d="M1039.18,575.67h69.19c-7.47-7.26-1.95-12.53-9.42-19.79-7.47-7.26-12.99-1.58-20.46-8.83-7.47-7.26-1.95-12.93-9.43-20.19-7.47-7.26-12.99-1.58-20.46-8.84s-1.96-12.94-9.43-20.19v77.84Z"/><path class="cls-4" d="M1091.07,515.92c-5.21,0-9.44-4.24-9.44-9.44s4.24-9.44,9.44-9.44,9.44,4.24,9.44,9.44-4.24,9.44-9.44,9.44Zm0-17.3c-4.33,0-7.86,3.52-7.86,7.86s3.52,7.86,7.86,7.86,7.86-3.52,7.86-7.86-3.52-7.86-7.86-7.86Z"/><path class="cls-6" d="M520.24,403.48c-5.21,0-9.44-4.24-9.44-9.44s4.23-9.44,9.44-9.44,9.44,4.24,9.44,9.44-4.23,9.44-9.44,9.44Zm0-17.3c-4.33,0-7.86,3.52-7.86,7.86s3.52,7.86,7.86,7.86,7.86-3.52,7.86-7.86-3.52-7.86-7.86-7.86Z"/><rect class="cls-5" x="883.1" y="151.87" width="86.49" height="164.33"/><path class="cls-3" d="M936.18,177.03h-36.18v70.78h0v69.19h53.48v-69.19h0v-70.78h-17.3Zm0,1.58h15.71v15.71h-15.71v-15.71Zm0,17.3h15.71v15.71h-15.71v-15.71Zm0,17.3h15.71v15.71h-15.71v-15.71Zm0,17.3h15.71v15.71h-15.71v-15.71Zm-17.3-51.89h15.71v15.71h-15.71v-15.71Zm0,17.3h15.71v15.71h-15.71v-15.71Zm0,17.3h15.71v15.71h-15.71v-15.71Zm0,17.3h15.71v15.71h-15.71v-15.71Zm-17.3-51.89h15.71v15.71h-15.71v-15.71Zm0,17.3h15.71v15.71h-15.71v-15.71Zm0,17.3h15.71v15.71h-15.71v-15.71Zm0,17.3h15.71v15.71h-15.71v-15.71Zm15.71,84.91h-15.71v-15.72h15.71v15.72Zm0-17.3h-15.71v-15.71h15.71v15.71Zm0-17.3h-15.71v-15.72h15.71v15.72Zm-15.71-17.3v-15.71h15.71v15.71h-15.71Zm33.01,51.89h-15.71v-15.72h15.71v15.72Zm0-17.3h-15.71v-15.71h15.71v15.71Zm0-17.3h-15.71v-15.72h15.71v15.72Zm-15.71-17.3v-15.71h15.71v15.71h-15.71Zm33.01,51.89h-15.71v-15.72h15.71v15.72Zm0-17.3h-15.71v-15.71h15.71v15.71Zm0-17.3h-15.71v-15.72h15.71v15.72Zm0-17.3h-15.71v-15.71h15.71v15.71Z"/><path class="cls-4" d="M883.49,316.2h69.19c-7.47-7.26-1.95-12.53-9.42-19.79-7.47-7.26-12.99-1.58-20.46-8.83-7.47-7.26-1.95-12.93-9.43-20.19-7.47-7.26-12.99-1.58-20.46-8.84-7.47-7.26-1.96-12.94-9.43-20.19v77.84Z"/><path d="M952.69,316.2c-.28-.28-.54-.55-.79-.82v.03h-15.71v-15.72h9.74c-.31-.52-.68-1.05-1.11-1.58h-8.63v-5.63c-.53-.12-1.06-.21-1.58-.28v5.91h-15.71v-15.71h.36c-1.17-3-1.03-5.84-1.94-8.81v7.22h-15.71v-15.72h8.87c-1.35-.82-2.65-1.28-3.92-1.58h-4.95v-.75c-.53-.08-1.05-.17-1.58-.29v53.72h52.69Zm-33.8-16.51h15.71v15.72h-15.71v-15.72Zm-17.3-17.3h15.71v15.71h-15.71v-15.71Zm0,17.3h15.71v15.72h-15.71v-15.72Z"/><path class="cls-4" d="M883.49,151.87c9.34,8.87,2.42,15.34,11.76,24.2,9.34,8.87,16.26,1.9,25.6,10.77,9.34,8.87,2.42,15.83,11.76,24.7,9.34,8.87,16.26,1.9,25.6,10.77,9.34,8.87,2.42,15.83,11.76,24.7v-95.14h-86.49Z"/><path d="M934.6,177.03h-34.6v2.43c.53,.26,1.06,.49,1.58,.68v-1.53h15.72v5.5c.52,.31,1.05,.67,1.58,1.07v-6.57h15.71v15.72h-8.88c.17,.53,.31,1.06,.43,1.58h8.45v15.71h-1.89c.64,.6,1.26,1.12,1.88,1.58h0c.53,.41,1.06,.76,1.58,1.07v-1.07h15.71v5.04c.52,.19,1.05,.42,1.58,.68v-41.9h-18.88Zm17.3,34.6h-15.71v-15.71h15.71v15.71Zm0-17.3h-15.71v-15.72h15.71v15.72Z"/><rect x="961.33" y="316.2" width="34.6" height="138.38"/><rect class="cls-1" x="961.33" y="454.59" width="43.24" height="25.95"/><rect class="cls-4" x="961.33" y="480.53" width="43.24" height="69.19"/><path class="cls-3" d="M994.24,500.46c2.24-1.22,2.85-4.21,1.13-6.09-2.32-2.54-3.76-5.95-3.76-9.51,0-4.32,2.11-8.43,5.36-11.02,1.68-1.34,1.91-3.76,.64-5.49s-1.89-3.86-1.61-6.19c.47-3.91,3.67-7.08,7.58-7.52,5.22-.59,9.65,3.49,9.65,8.59,0,1.91-.62,3.67-1.66,5.1-1.27,1.74-1.08,4.16,.61,5.49,3.26,2.58,5.38,6.7,5.38,11.03,0,3.56-1.44,6.98-3.76,9.51-1.71,1.87-1.13,4.86,1.09,6.07,7.1,3.86,11.8,11.57,11.27,20.33-.64,10.78-9.39,19.57-20.17,20.25-12.58,.8-23.04-9.17-23.04-21.58,0-8.2,4.56-15.33,11.28-18.99Z"/><polygon points="1018.1 507.04 1016.99 505.92 1005.37 517.53 1005.37 480.53 1003.79 480.53 1003.79 526.24 992.12 514.57 991 515.69 1003.79 528.48 1003.79 558.37 1005.37 558.37 1005.37 519.77 1018.1 507.04"/><polygon class="cls-5" points="892.14 419.99 866.2 394.04 797 394.04 797 428.64 840.25 428.64 866.2 454.59 892.14 454.59 944.04 454.59 944.04 419.99 892.14 419.99"/><polygon class="cls-2" points="900.79 342.15 926.74 368.1 995.93 368.1 995.93 342.15 900.79 342.15"/><polygon class="cls-2" points="866.2 454.59 892.14 480.53 944.04 480.53 944.04 558.37 961.33 558.37 961.33 480.53 961.33 473.03 961.33 454.59 866.2 454.59"/><polygon class="cls-2" points="866.2 454.59 840.25 428.64 797 428.64 797 454.59 866.2 454.59"/><polygon class="cls-3" points="658.62 160.52 632.67 134.57 563.48 134.57 563.48 169.17 606.73 169.17 632.67 195.12 658.62 195.12 710.51 195.12 710.51 160.52 658.62 160.52"/><polygon class="cls-2" points="632.67 195.12 606.73 169.17 563.48 169.17 563.48 195.12 632.67 195.12"/><rect class="cls-5" x="476.99" y="186.47" width="103.79" height="69.19"/><polygon points="580.78 316.2 624.03 316.2 624.03 229.71 580.78 186.47 580.78 316.2"/><polygon class="cls-2" points="476.99 272.96 502.94 298.9 580.78 298.9 580.78 272.96 476.99 272.96"/><polygon class="cls-2" points="476.99 272.96 451.05 247.01 390.5 247.01 390.5 272.96 476.99 272.96"/><rect x="381.85" y="281.61" width="34.6" height="216.22"/><rect x="407.8" y="437.29" width="43.24" height="34.6"/><path class="cls-3" d="M412.58,385.17c3.19-3.52,4.68-8.21,4.11-12.92-.16-1.36-.25-2.74-.25-4.15,0-9.03,3.46-17.24,9.12-23.4,3.21-3.49,4.55-8.28,4-12.99-.14-1.17-.18-2.36-.12-3.58,.54-11.31,10-20.43,21.32-20.57,12.07-.15,21.9,9.59,21.9,21.62,0,.86-.05,1.72-.15,2.55-.56,4.7,.8,9.48,4,12.96,5.66,6.16,9.12,14.38,9.12,23.4,0,1.41-.08,2.79-.25,4.15-.57,4.7,.91,9.38,4.09,12.89,8.65,9.53,13.8,22.28,13.44,36.24-.72,27.63-23.4,50.06-51.04,50.5-29.04,.46-52.73-22.95-52.73-51.89,0-13.4,5.09-25.62,13.43-34.82Z"/><polygon points="477.55 385.95 476.43 384.83 451.84 409.43 451.84 359.77 460.25 351.36 459.14 350.24 451.84 357.54 451.84 333.5 450.25 333.5 450.25 383.48 434.31 367.54 433.19 368.66 450.25 385.72 450.25 435.38 417.01 402.13 415.89 403.25 450.25 437.62 450.25 471.88 451.84 471.88 451.84 411.67 477.55 385.95"/><polygon points="324.84 281.61 350.79 281.61 350.79 99.98 324.84 74.03 324.84 281.61"/><polygon class="cls-5" points="502.94 497.83 476.99 471.88 407.8 471.88 407.8 506.48 451.05 506.48 476.99 532.43 502.94 532.43 580.78 532.43 580.78 497.83 502.94 497.83"/><polygon class="cls-2" points="476.99 532.43 502.94 558.37 580.78 558.37 580.78 532.43 476.99 532.43"/><polygon points="944.04 592.97 969.98 618.92 1039.18 618.92 1039.18 592.97 944.04 592.97"/><polygon points="944.04 592.97 918.09 567.02 874.85 567.02 874.85 592.97 944.04 592.97"/><rect x="944.04" y="419.99" width="17.3" height="34.6"/><rect x="771.06" y="264.31" width="25.95" height="129.73" transform="translate(1568.06 658.35) rotate(180)"/><rect class="cls-4" x="675.92" y="221.06" width="60.54" height="77.84"/><path class="cls-2" d="M719.96,325.64h-27.53v-65.66c0-7.59,6.17-13.77,13.77-13.77s13.77,6.18,13.77,13.77v65.66Zm-25.95-1.58h24.36v-64.08c0-6.72-5.46-12.18-12.18-12.18s-12.18,5.46-12.18,12.18v64.08Z"/><path class="cls-4" d="M528.47,203.41c6.54,6.21,11.38,1.33,17.92,7.54,6.54,6.21,1.69,11.08,8.23,17.29,6.54,6.21,11.38,1.33,17.92,7.54,6.54,6.21,1.7,11.08,8.23,17.29v-66.6h-60.54c6.54,6.21,1.69,10.74,8.23,16.94Z"/><path class="cls-4" d="M634.61,355.28c8.41,7.98,14.63,1.71,23.04,9.69,8.41,7.98,2.18,14.25,10.59,22.23,8.41,7.98,14.64,1.71,23.04,9.7,8.41,7.98,2.18,14.25,10.59,22.23v-85.62h-77.84c8.41,7.98,2.18,13.8,10.59,21.78Z"/><path d="M663.17,377.54h11.95v13.71c.53,.15,1.06,.27,1.58,.37v-15.66h-13.79c.08,.53,.16,1.05,.25,1.58Z"/><polygon points="771.06 298.9 736.46 298.9 736.46 221.06 771.06 255.66 771.06 298.9"/><polygon class="cls-5" points="719.16 298.9 693.22 272.96 624.03 272.96 624.03 307.55 667.27 307.55 693.22 333.5 719.16 333.5 771.06 333.5 771.06 298.9 719.16 298.9"/><polygon class="cls-2" points="624.03 454.59 647.61 480.53 710.51 480.53 710.51 454.59 624.03 454.59"/><rect x="701.87" y="342.15" width="43.24" height="112.44"/><polygon class="cls-2" points="693.22 333.5 719.16 359.45 788.36 359.45 788.36 333.5 693.22 333.5"/><polygon class="cls-3" points="649.97 419.99 624.03 394.04 554.83 394.04 554.83 428.64 598.08 428.64 624.03 454.59 649.97 454.59 710.51 454.59 710.51 419.99 649.97 419.99"/><rect class="cls-1" x="649.97" y="480.53" width="60.54" height="138.38"/><path class="cls-3" d="M694.01,593.76h-18.88v-44.04c0-5.21,4.23-9.44,9.44-9.44s9.44,4.24,9.44,9.44v44.04Zm-17.3-1.58h15.71v-42.45c0-4.33-3.52-7.86-7.86-7.86s-7.86,3.52-7.86,7.86v42.45Z"/><path class="cls-1" d="M665.3,517.52c6.72-4.93,10.99-13.02,10.59-22.09-.59-13.47-11.65-24.37-25.13-24.77-14.69-.44-26.74,11.34-26.74,25.94,0,8.57,4.16,16.17,10.57,20.9,1.55,1.14,1.9,3.31,.73,4.82-2.43,3.14-3.88,7.07-3.88,11.35,0,5.87,2.73,11.1,6.99,14.49,1.18,.94,1.62,2.51,1.1,3.93-.49,1.33-.73,2.78-.66,4.29,.25,5.94,5.3,10.71,11.25,10.64,6.08-.08,10.98-5.02,10.98-11.12,0-1.37-.25-2.69-.7-3.9-.53-1.4,.01-2.95,1.18-3.89,4.23-3.4,6.94-8.61,6.94-14.45,0-4.28-1.45-8.22-3.89-11.35-1.16-1.5-.85-3.66,.68-4.79Z"/><polygon points="659.18 532.99 658.06 531.87 650.76 539.16 650.76 506.48 649.18 506.48 649.18 530.52 641.88 523.22 640.76 524.34 649.18 532.75 649.18 584.32 650.76 584.32 650.76 541.4 659.18 532.99"/><polygon class="cls-2" points="598.08 428.64 554.83 428.64 598.08 471.88 598.08 428.64"/><polygon class="cls-2" points="693.22 333.5 667.27 307.55 624.03 307.55 624.03 333.5 693.22 333.5"/><path class="cls-1" d="M1021.88,558.37h0c0-14.33-11.62-25.95-25.95-25.95-5.34,0-10.3,1.61-14.42,4.38-7.47-12.95-21.45-21.67-37.47-21.67-7.88,0-15.27,2.12-21.63,5.81-11.09-14.06-28.26-23.1-47.56-23.1-33.44,0-60.54,27.11-60.54,60.54h207.57Z"/><polygon points="857.55 662.16 883.49 662.16 883.49 489.18 857.55 463.23 857.55 662.16"/><polygon class="cls-3" points="969.98 558.37 944.04 532.43 874.85 532.43 874.85 567.02 918.09 567.02 944.04 592.97 969.98 592.97 1021.88 592.97 1021.88 558.37 969.98 558.37"/><rect class="cls-1" x="814.3" y="463.23" width="43.24" height="198.93"/><path class="cls-3" d="M841.04,533.22h-10.23v-53.48h10.23v53.48Zm-8.65-1.58h7.06v-50.31h-7.06v50.31Z"/><path class="cls-3" d="M841.04,611.06h-10.23v-53.48h10.23v53.48Zm-8.65-1.58h7.06v-50.31h-7.06v50.31Z"/><polygon points="797 506.48 805.65 515.13 805.65 662.16 797 662.16 797 506.48"/><rect class="cls-4" x="779.71" y="506.48" width="17.3" height="164.33"/><polygon class="cls-2" points="684.57 644.86 710.51 670.81 779.71 670.81 779.71 644.86 684.57 644.86"/><rect class="cls-2" x="727.81" y="515.13" width="51.89" height="155.68"/><path class="cls-4" d="M763.2,602.41h-10.23v-53.48h10.23v53.48Zm-8.65-1.58h7.06v-50.31h-7.06v50.31Z"/><polygon points="710.51 627.56 727.81 627.56 727.81 497.83 710.51 480.53 710.51 627.56"/><circle class="cls-3" cx="727.81" cy="506.48" r="34.6"/><polygon points="750 507.04 748.88 505.92 728.6 526.19 728.6 506.81 737.02 498.39 735.9 497.27 728.6 504.57 728.6 489.18 727.02 489.18 727.02 513.22 711.07 497.27 709.96 498.39 727.02 515.46 727.02 567.02 728.6 567.02 728.6 528.43 750 507.04"/><polygon class="cls-5" points="710.51 610.27 684.57 584.32 615.38 584.32 615.38 618.92 658.62 618.92 684.57 644.86 710.51 644.86 762.41 644.86 762.41 610.27 710.51 610.27"/><polygon class="cls-2" points="684.57 644.86 658.62 618.92 615.38 618.92 615.38 644.86 684.57 644.86"/><rect x="797" y="515.13" width="17.3" height="147.03"/><circle class="cls-1" cx="961.33" cy="394.04" r="34.6"/><polygon points="979.19 385.95 978.07 384.83 962.13 400.78 962.13 376.75 960.54 376.75 960.54 392.13 953.25 384.83 952.13 385.95 960.54 394.37 960.54 413.75 940.27 393.48 939.15 394.6 960.54 415.99 960.54 454.59 962.13 454.59 962.13 403.02 979.19 385.95"/><path class="cls-1" d="M732.6,393.81c3.19-3.52,4.68-8.21,4.11-12.92-.16-1.36-.25-2.74-.25-4.15,0-9.03,3.46-17.24,9.12-23.4,3.21-3.49,4.55-8.28,4-12.99-.14-1.17-.18-2.36-.12-3.58,.54-11.31,10-20.43,21.32-20.57,12.07-.15,21.9,9.59,21.9,21.62,0,.86-.05,1.72-.15,2.55-.56,4.7,.8,9.48,4,12.96,5.66,6.16,9.12,14.38,9.12,23.4,0,1.41-.08,2.79-.25,4.15-.57,4.7,.91,9.38,4.09,12.89,8.65,9.53,13.8,22.28,13.44,36.24-.72,27.63-23.4,50.06-51.04,50.5-29.04,.46-52.73-22.95-52.73-51.89,0-13.4,5.09-25.62,13.43-34.82Z"/><polygon points="797.56 394.6 796.45 393.48 771.85 418.08 771.85 368.42 780.27 360.01 779.15 358.89 771.85 366.18 771.85 342.15 770.27 342.15 770.27 392.13 754.32 376.19 753.2 377.3 770.27 394.37 770.27 444.03 737.02 410.78 735.9 411.9 770.27 446.26 770.27 480.53 771.85 480.53 771.85 420.32 797.56 394.6"/><rect class="cls-4" x="719.16" y="558.37" width="17.3" height="51.89"/><path class="cls-4" d="M820.18,475.34c4.67,4.43,8.13,.95,12.8,5.38,4.67,4.43,1.21,7.91,5.88,12.35,4.67,4.43,8.13,.95,12.8,5.39,4.67,4.43,1.21,7.92,5.88,12.35v-47.57h-43.24c4.67,4.43,1.21,7.67,5.88,12.1Z"/><path d="M832.98,480.72c.21,.2,.41,.4,.59,.6h5.89v12.27c.54,.45,1.07,.8,1.58,1.07v-14.92h-9.24c.39,.28,.78,.6,1.19,.98Z"/><rect class="cls-1" x="407.8" y="74.03" width="43.24" height="164.33"/><path class="cls-3" d="M434.54,144.01h-10.23v-53.48h10.23v53.48Zm-8.65-1.58h7.07v-50.31h-7.07v50.31Z"/><path class="cls-3" d="M434.54,221.86h-10.23v-53.48h10.23v53.48Zm-8.65-1.58h7.07v-50.31h-7.07v50.31Z"/><path class="cls-4" d="M413.68,86.13c4.67,4.43,8.13,.95,12.8,5.38,4.67,4.43,1.21,7.91,5.88,12.35,4.67,4.43,8.13,.95,12.8,5.39,4.67,4.43,1.21,7.92,5.88,12.35v-47.57h-43.24c4.67,4.43,1.21,7.67,5.88,12.1Z"/><path d="M426.48,91.52c.21,.2,.41,.4,.59,.6h5.89v12.27c.54,.45,1.07,.8,1.58,1.07v-14.92h-9.24c.39,.28,.78,.6,1.19,.98Z"/><polygon class="cls-3" points="502.94 238.36 476.99 212.41 390.5 212.41 390.5 247.01 451.05 247.01 476.99 272.96 502.94 272.96 598.08 272.96 598.08 238.36 502.94 238.36"/><circle class="cls-1" cx="389.94" cy="281.61" r="34.6"/><polygon points="412.13 282.17 411.01 281.05 390.74 301.32 390.74 281.93 399.15 273.52 398.03 272.4 390.74 279.7 390.74 264.31 389.15 264.31 389.15 288.35 373.21 272.4 372.09 273.52 389.15 290.58 389.15 333.5 390.74 333.5 390.74 303.56 412.13 282.17"/><path class="cls-3" d="M615.38,264.31c0-19.15-15.56-34.67-34.73-34.6-18.45,.07-33.8,14.91-34.44,33.35-.34,9.73,3.34,18.61,9.51,25.09,2.24,2.35,2.71,5.83,1.38,8.79-1.45,3.24-2.26,6.83-2.26,10.61,0,7.4,3.1,14.08,8.07,18.8,2.42,2.3,3.33,5.85,2,8.92-1.16,2.68-1.67,5.7-1.31,8.88,.9,7.93,7.29,14.31,15.22,15.18,10.43,1.15,19.26-6.99,19.26-17.19,0-2.39-.49-4.67-1.36-6.74-1.32-3.11-.58-6.67,1.87-8.99,5.01-4.73,8.14-11.43,8.14-18.87,0-3.78-.81-7.37-2.26-10.61-1.34-2.98-.84-6.45,1.4-8.82,5.89-6.2,9.51-14.59,9.51-23.82Z"/><polygon points="597.52 306.99 581.57 322.94 581.57 290.58 598.64 273.52 597.52 272.4 581.57 288.35 581.57 264.31 579.99 264.31 579.99 305.64 564.04 289.7 562.92 290.82 579.99 307.88 579.99 394.04 581.57 394.04 581.57 325.18 598.64 308.11 597.52 306.99"/><rect x="624.03" y="350.01" width="77.84" height="1.58"/><rect x="528.89" y="558.37" width="17.3" height="95.14"/><path class="cls-1" d="M556.53,595.6c-2.24-1.22-2.85-4.21-1.13-6.09,2.32-2.54,3.76-5.95,3.76-9.51,0-4.32-2.11-8.43-5.36-11.02-1.68-1.34-1.91-3.76-.64-5.49s1.89-3.86,1.61-6.19c-.47-3.91-3.67-7.08-7.58-7.52-5.22-.59-9.65,3.49-9.65,8.59,0,1.91,.62,3.67,1.66,5.1,1.27,1.74,1.08,4.16-.61,5.49-3.26,2.58-5.38,6.7-5.38,11.03,0,3.56,1.44,6.98,3.76,9.51,1.71,1.87,1.13,4.86-1.09,6.07-7.1,3.86-11.8,11.57-11.27,20.33,.64,10.78,9.39,19.57,20.17,20.25,12.58,.8,23.04-9.17,23.04-21.58,0-8.2-4.56-15.33-11.28-18.99Z"/><polygon points="559.76 610.83 558.64 609.71 546.98 621.38 546.98 575.67 545.39 575.67 545.39 612.67 533.78 601.06 532.66 602.18 545.39 614.91 545.39 653.51 546.97 653.51 546.97 623.61 559.76 610.83"/><polygon class="cls-2" points="451.05 506.48 407.8 506.48 451.05 549.72 451.05 506.48"/><rect x="476.99" y="74.03" width="34.6" height="112.44"/><path class="cls-3" d="M823.74,386.19h-10.23v-53.48h10.23v53.48Zm-8.65-1.58h7.06v-50.31h-7.06v50.31Z"/><path class="cls-3" d="M849.69,386.19h-10.23v-53.48h10.23v53.48Zm-8.65-1.58h7.07v-50.31h-7.07v50.31Z"/><path class="cls-4" d="M476.99,580.92c-.45-.3-.91-.67-1.38-1.12-4.67-4.43-1.21-7.91-5.88-12.35-4.67-4.43-8.13-.95-12.8-5.39-4.67-4.43-1.21-7.92-5.88-12.35v103.79h25.95v-72.59Z"/><path class="cls-1" d="M396.52,154.5c-2.24-1.22-2.85-4.21-1.13-6.09,2.32-2.54,3.76-5.95,3.76-9.51,0-4.32-2.11-8.43-5.36-11.02-1.68-1.34-1.91-3.76-.64-5.49s1.89-3.86,1.61-6.19c-.47-3.91-3.67-7.08-7.58-7.52-5.22-.59-9.65,3.49-9.65,8.59,0,1.91,.62,3.67,1.66,5.1,1.27,1.74,1.08,4.16-.61,5.49-3.26,2.58-5.38,6.7-5.38,11.03,0,3.56,1.44,6.98,3.76,9.51,1.71,1.87,1.13,4.86-1.09,6.07-7.1,3.86-11.8,11.57-11.27,20.33,.64,10.78,9.39,19.57,20.17,20.25,12.58,.8,23.04-9.17,23.04-21.58,0-8.2-4.56-15.33-11.28-18.99Z"/><polygon points="399.76 169.73 398.64 168.61 386.97 180.28 386.97 134.57 385.39 134.57 385.39 171.57 373.77 159.96 372.65 161.08 385.39 173.81 385.39 212.42 386.97 212.42 386.97 182.52 399.76 169.73"/><path class="cls-1" d="M134.57,177.82c0-19.15-15.56-34.67-34.73-34.6-18.45,.07-33.8,14.91-34.44,33.35-.34,9.73,3.34,18.61,9.51,25.09,2.24,2.35,2.71,5.83,1.38,8.79-1.45,3.24-2.26,6.83-2.26,10.61,0,7.4,3.1,14.08,8.07,18.8,2.42,2.3,3.33,5.85,2,8.92-1.16,2.68-1.67,5.7-1.31,8.88,.9,7.93,7.29,14.31,15.22,15.18,10.43,1.15,19.26-6.99,19.26-17.19,0-2.39-.49-4.67-1.36-6.74-1.32-3.11-.58-6.67,1.87-8.99,5.01-4.73,8.14-11.43,8.14-18.87,0-3.78-.81-7.37-2.26-10.61-1.34-2.98-.84-6.45,1.4-8.82,5.89-6.2,9.51-14.59,9.51-23.82Z"/><polygon points="116.71 220.5 100.76 236.45 100.76 204.09 117.83 187.03 116.71 185.91 100.76 201.85 100.76 177.82 99.18 177.82 99.18 219.15 83.23 203.21 82.11 204.32 99.18 221.39 99.18 307.55 100.76 307.55 100.76 238.69 117.83 221.62 116.71 220.5"/><circle cx="177.81" cy="186.47" r="34.6"/><rect class="cls-4" x="91.32" y="316.2" width="69.19" height="43.24"/><rect class="cls-1" x="186.46" y="419.99" width="34.6" height="112.44"/><path class="cls-1" d="M196.8,478.79c-2.24-1.22-2.85-4.21-1.13-6.09,2.32-2.54,3.76-5.95,3.76-9.51,0-4.32-2.11-8.43-5.36-11.02-1.68-1.34-1.91-3.76-.64-5.49,1.25-1.7,1.89-3.86,1.61-6.19-.47-3.91-3.67-7.08-7.58-7.52-5.22-.59-9.65,3.49-9.65,8.59,0,1.91,.62,3.67,1.66,5.1,1.27,1.74,1.08,4.16-.61,5.49-3.26,2.58-5.38,6.7-5.38,11.03,0,3.56,1.44,6.98,3.76,9.51,1.71,1.87,1.13,4.86-1.09,6.07-7.1,3.86-11.8,11.57-11.27,20.33,.64,10.78,9.39,19.57,20.17,20.25,12.58,.8,23.04-9.17,23.04-21.58,0-8.2-4.56-15.33-11.28-18.99Z"/><polygon points="200.04 494.02 198.92 492.9 187.25 504.57 187.25 458.86 185.67 458.86 185.67 495.86 174.06 484.25 172.94 485.37 185.67 498.1 185.67 532.43 187.25 532.43 187.25 506.81 200.04 494.02"/><rect class="cls-5" x="264.3" y="74.03" width="60.54" height="121.09"/><rect class="cls-4" x="255.65" y="316.2" width="69.19" height="129.73"/><path class="cls-3" d="M308.34,429.43h-10.23v-53.48h10.23v53.48Zm-8.65-1.58h7.07v-50.31h-7.07v50.31Z"/><path class="cls-2" d="M265.06,370.16c7.47,7.09,13.01,1.52,20.48,8.62,7.47,7.09,1.94,12.66,9.41,19.76,7.47,7.09,13.01,1.52,20.48,8.62,7.47,7.09,1.94,12.66,9.41,19.76v-110.71h-69.19v34.6c7.47,7.09,1.94,12.27,9.41,19.36Z"/><polygon class="cls-2" points="290.25 247.01 255.65 247.01 255.65 74.03 290.25 108.63 290.25 247.01"/><polygon points="221.06 255.66 255.65 255.66 255.65 160.52 221.06 125.93 221.06 255.66"/><rect class="cls-5" x="169.16" y="125.93" width="51.89" height="129.73"/><path d="M195.9,151.08h-18.88v88.07h36.18v-88.07h-17.3Zm-17.3,1.58h15.71v15.71h-15.71v-15.71Zm0,17.3h15.71v15.72h-15.71v-15.72Zm0,17.3h15.71v15.71h-15.71v-15.71Zm0,17.3h15.71v15.72h-15.71v-15.72Zm15.71,33.01h-15.71v-15.71h15.71v15.71Zm17.3,0h-15.71v-15.71h15.71v15.71Zm0-17.3h-15.71v-15.72h15.71v15.72Zm0-17.3h-15.71v-15.71h15.71v15.71Zm0-17.3h-15.71v-15.72h15.71v15.72Zm-15.71-17.3v-15.71h15.71v15.71h-15.71Z"/><rect class="cls-4" x="238.36" y="74.03" width="17.3" height="172.98"/><polygon class="cls-2" points="272.95 316.2 298.9 342.15 350.79 342.15 350.79 316.2 272.95 316.2"/><rect class="cls-1" x="264.3" y="169.17" width="34.6" height="112.44"/><polygon points="324.84 281.61 298.9 281.61 298.9 169.17 324.84 195.12 324.84 281.61"/><path class="cls-4" d="M333.49,281.61h0c0-14.33-11.62-25.95-25.95-25.95-5.34,0-10.3,1.61-14.42,4.38-7.47-12.95-21.45-21.67-37.47-21.67-7.88,0-15.27,2.12-21.63,5.81-11.09-14.06-28.26-23.1-47.56-23.1-33.44,0-60.54,27.11-60.54,60.54h207.57Z"/><path class="cls-2" d="M195.9,239.15h17.3v-11.87c-.52-.26-1.05-.51-1.58-.75v11.04h-15.71v-15.71h.33c-3.18-.52-6.44-.79-9.77-.79s-6.36,.26-9.44,.74v17.35h18.88Zm-17.3-17.3h15.71v15.71h-15.71v-15.71Z"/><polygon class="cls-5" points="298.9 281.61 272.95 255.66 203.76 255.66 203.76 290.26 247 290.26 272.95 316.2 298.9 316.2 350.79 316.2 350.79 281.61 298.9 281.61"/><polygon class="cls-2" points="195.11 419.99 221.06 445.94 272.95 445.94 272.95 419.99 195.11 419.99"/><polygon points="186.46 307.55 160.51 281.61 91.32 281.61 91.32 316.2 134.57 316.2 160.51 342.15 186.46 342.15 238.36 342.15 238.36 307.55 186.46 307.55"/><polygon class="cls-2" points="272.95 316.2 247 290.26 203.76 290.26 203.76 316.2 272.95 316.2"/><polygon class="cls-1" points="203.76 281.61 151.87 281.61 186.46 316.2 203.76 316.2 203.76 281.61"/><path class="cls-6" d="M151.87,316.99c-5.21,0-9.44-4.24-9.44-9.44s4.23-9.44,9.44-9.44,9.44,4.24,9.44,9.44-4.23,9.44-9.44,9.44Zm0-17.3c-4.33,0-7.86,3.52-7.86,7.86s3.52,7.86,7.86,7.86,7.86-3.52,7.86-7.86-3.52-7.86-7.86-7.86Z"/><rect x="160.51" y="342.15" width="25.95" height="34.6"/><polygon class="cls-2" points="195.11 419.99 169.16 394.04 125.92 394.04 125.92 419.99 195.11 419.99"/><polygon points="255.65 592.97 281.6 618.92 359.44 618.92 359.44 592.97 255.65 592.97"/><polygon points="255.65 592.97 229.71 567.02 177.81 567.02 177.81 592.97 255.65 592.97"/><path class="cls-4" d="M176.22,140.45c5.6,5.32,9.76,1.14,15.36,6.46,5.6,5.32,1.45,9.5,7.06,14.82,5.61,5.32,9.76,1.14,15.36,6.46,5.61,5.32,1.45,9.5,7.06,14.82v-57.08h-51.89c5.6,5.32,1.45,9.2,7.06,14.52Z"/><path d="M298.11,400.9c.54,.3,1.06,.55,1.58,.76v-24.13h7.07v25.5c.53,.07,1.05,.16,1.58,.28v-27.36h-10.23v24.95Z"/><rect class="cls-4" x="255.65" y="463.23" width="103.79" height="112.44"/><rect class="cls-2" x="255.65" y="480.53" width="103.79" height="25.95"/><rect class="cls-5" x="255.65" y="445.94" width="103.79" height="34.6"/><path class="cls-3" d="M331.53,500.23c6.72-4.93,10.99-13.02,10.59-22.09-.59-13.47-11.65-24.37-25.13-24.77-14.69-.44-26.74,11.34-26.74,25.94,0,8.57,4.16,16.17,10.57,20.9,1.55,1.14,1.9,3.31,.73,4.82-2.43,3.14-3.88,7.07-3.88,11.35,0,5.87,2.73,11.1,6.99,14.49,1.18,.94,1.62,2.51,1.1,3.93-.49,1.33-.73,2.78-.66,4.29,.25,5.94,5.3,10.71,11.25,10.64,6.08-.08,10.98-5.02,10.98-11.12,0-1.37-.25-2.69-.7-3.9-.53-1.4,.01-2.95,1.18-3.89,4.23-3.4,6.94-8.61,6.94-14.45,0-4.28-1.45-8.22-3.89-11.35-1.16-1.5-.85-3.66,.68-4.79Z"/><polygon points="325.4 515.69 324.29 514.57 316.99 521.87 316.99 489.18 315.4 489.18 315.4 513.22 308.11 505.92 306.99 507.04 315.4 515.46 315.4 567.02 316.99 567.02 316.99 524.1 325.4 515.69"/><polygon class="cls-3" points="281.6 558.37 255.65 532.43 177.81 532.43 177.81 567.02 229.71 567.02 255.65 592.97 281.6 592.97 359.44 592.97 359.44 558.37 281.6 558.37"/><rect x="238.36" y="316.2" width="17.3" height="69.19"/><rect class="cls-1" x="186.46" y="342.15" width="51.89" height="69.19"/><circle class="cls-3" cx="203.76" cy="316.2" r="34.6"/><polygon points="221.62 308.11 220.5 306.99 204.55 322.94 204.55 298.9 202.97 298.9 202.97 314.29 195.67 306.99 194.55 308.11 202.97 316.53 202.97 335.91 182.7 315.64 181.58 316.76 202.97 338.15 202.97 376.74 204.55 376.74 204.55 325.18 221.62 308.11"/><polygon class="cls-3" points="221.06 385.39 195.11 359.45 125.92 359.45 125.92 394.04 169.16 394.04 195.11 419.99 221.06 419.99 272.95 419.99 272.95 385.39 221.06 385.39"/><rect x="221.06" y="445.94" width="34.6" height="86.49"/><rect x="169.16" y="133.78" width="51.89" height="1.58"/><path class="cls-2" d="M194.39,151.08c.8,2.26,.65,4.41,1.51,6.68v-5.1h15.71v13.74c.52,.29,1.04,.65,1.58,1.09v-16.41h-18.81Z"/><rect x="763.97" y="264.31" width="13.44" height="34.6"/><polygon class="cls-3" points="926.74 307.55 900.79 281.61 840.26 281.61 840.26 316.2 874.85 316.2 900.79 342.15 926.74 342.15 995.93 342.15 995.93 307.55 926.74 307.55"/><polygon class="cls-2" points="874.85 316.2 900.79 342.15 866.2 342.15 840.26 316.21 874.85 316.2"/><rect x="298.9" y="74.03" width="108.9" height="268.12"/><rect x="359.44" y="471.88" width="65.45" height="147.03"/><rect x="316.99" y="333.5" width="64.87" height="160.01"/><path class="cls-1" d="M822.95,125.93c0-14.33-11.62-25.95-25.95-25.95-5.34,0-10.3,1.61-14.42,4.38-7.47-12.95-21.45-21.67-37.47-21.67-7.88,0-15.27,2.12-21.63,5.81-11.09-14.06-28.26-23.1-47.56-23.1-33.44,0-60.54,27.11-60.54,60.54h138.38v34.6h51.89v-34.6h17.3Z"/><rect x="667.27" y="65.38" width="25.95" height="95.14"/><rect class="cls-4" x="684.57" y="99.98" width="60.54" height="138.38"/><path class="cls-3" d="M702.66,169.96h-10.23v-53.48h10.23v53.48Zm-8.65-1.58h7.07v-50.31h-7.07v50.31Z"/><path class="cls-3" d="M719.96,169.96h-10.23v-53.48h10.23v53.48Zm-8.65-1.58h7.07v-50.31h-7.07v50.31Z"/><path class="cls-3" d="M737.25,169.96h-10.23v-53.48h10.23v53.48Zm-8.65-1.58h7.07v-50.31h-7.07v50.31Z"/><rect x="710.51" y="160.52" width="43.24" height="34.6"/><polygon points="745.11 99.98 788.36 143.22 788.36 247.01 745.11 247.01 745.11 99.98"/><rect class="cls-5" x="788.36" y="117.28" width="25.95" height="155.68"/><polygon class="cls-2" points="831.6 272.96 814.3 272.96 814.3 117.28 831.6 134.57 831.6 272.96"/><rect x="736.46" y="186.47" width="51.89" height="69.19"/><circle class="Graphic_Style_10" cx="771.06" cy="186.47" r="34.6"/><polygon points="793.24 187.03 792.12 185.91 771.85 206.18 771.85 186.79 780.27 178.38 779.15 177.26 771.85 184.56 771.85 169.17 770.27 169.17 770.27 193.21 754.32 177.26 753.2 178.38 770.27 195.44 770.27 247.01 771.85 247.01 771.85 208.42 793.24 187.03"/><rect x="416.45" y="515.13" width="34.6" height="138.38"/><rect class="cls-2" x="476.99" y="272.96" width="103.79" height="155.68"/><rect class="cls-2" x="476.99" y="532.43" width="51.89" height="121.09"/><rect class="cls-4" x="546.18" y="558.37" width="34.6" height="95.14"/><rect class="cls-2" x="580.78" y="56.73" width="69.19" height="596.78"/><rect class="cls-5" x="606.73" y="65.38" width="60.54" height="112.44"/><path d="M667.27,83.47v-1.58h-7.86v-7.86h-1.58v7.86h-7.07v-7.86h-1.58v7.86h-7.07v-7.86h-1.58v7.86h-7.07v-7.86h-1.58v7.86h-7.07v-7.86h-1.58v7.86h-7.07v-7.86h-1.58v7.86h-7.86v1.58h7.86v7.06h-7.86v1.58h7.86v7.07h-7.86v1.58h7.86v7.06h-7.86v1.58h7.86v7.07h-7.86v1.58h7.86v7.06h-7.86v1.58h7.86v7.07h-7.86v1.58h7.86v7.06h-7.86v1.58h7.86v7.07h-7.86v1.58h7.86v7.86h1.58v-7.86h7.07v7.86h1.58v-7.86h7.07v7.86h1.58v-7.86h7.07v7.86h1.58v-7.86h7.07v7.86h1.58v-7.86h7.07v7.86h1.58v-7.86h7.86v-1.58h-7.86v-7.07h7.86v-1.58h-7.86v-7.06h7.86v-1.58h-7.86v-7.07h7.86v-1.58h-7.86v-7.06h7.86v-1.58h-7.86v-7.07h7.86v-1.58h-7.86v-7.06h7.86v-1.58h-7.86v-7.07h7.86v-1.58h-7.86v-7.06h7.86Zm-18.09,0v7.06h-7.07v-7.06h7.07Zm-15.71,41.66v-7.06h7.07v7.06h-7.07Zm7.07,1.58v7.07h-7.07v-7.07h7.07Zm-7.07-10.23v-7.07h7.07v7.07h-7.07Zm0-8.65v-7.06h7.07v7.06h-7.07Zm0-8.65v-7.07h7.07v7.07h-7.07Zm-1.58,0h-7.07v-7.07h7.07v7.07Zm0,1.58v7.06h-7.07v-7.06h7.07Zm0,8.65v7.07h-7.07v-7.07h7.07Zm0,8.65v7.06h-7.07v-7.06h7.07Zm0,8.65v7.07h-7.07v-7.07h7.07Zm0,8.65v7.06h-7.07v-7.06h7.07Zm1.58,0h7.07v7.06h-7.07v-7.06Zm8.65,0h7.07v7.06h-7.07v-7.06Zm0-1.58v-7.07h7.07v7.07h-7.07Zm0-8.65v-7.06h7.07v7.06h-7.07Zm0-8.65v-7.07h7.07v7.07h-7.07Zm0-8.65v-7.06h7.07v7.06h-7.07Zm0-8.65v-7.07h7.07v7.07h-7.07Zm-1.58-15.71v7.06h-7.07v-7.06h7.07Zm-8.65,0v7.06h-7.07v-7.06h7.07Zm-15.71,0h7.07v7.06h-7.07v-7.06Zm0,8.65h7.07v7.07h-7.07v-7.07Zm0,8.65h7.07v7.06h-7.07v-7.06Zm0,8.65h7.07v7.07h-7.07v-7.07Zm0,8.65h7.07v7.06h-7.07v-7.06Zm0,8.65h7.07v7.07h-7.07v-7.07Zm0,8.65h7.07v7.06h-7.07v-7.06Zm0,15.71v-7.07h7.07v7.07h-7.07Zm8.65,0v-7.07h7.07v7.07h-7.07Zm8.65,0v-7.07h7.07v7.07h-7.07Zm8.65,0v-7.07h7.07v7.07h-7.07Zm15.71,0h-7.07v-7.07h7.07v7.07Zm0-8.65h-7.07v-7.06h7.07v7.06Zm0-8.65h-7.07v-7.07h7.07v7.07Zm0-8.65h-7.07v-7.06h7.07v7.06Zm0-8.65h-7.07v-7.07h7.07v7.07Zm0-8.65h-7.07v-7.06h7.07v7.06Zm0-8.65h-7.07v-7.07h7.07v7.07Zm0-8.65h-7.07v-7.06h7.07v7.06Z"/><polygon points="451.05 636.21 476.99 636.21 476.99 97.82 451.05 74.03 451.05 636.21"/><rect class="cls-5" x="416.45" y="272.96" width="34.6" height="164.33"/><rect class="cls-4" x="476.99" y="428.64" width="77.84" height="86.49"/><rect x="554.83" y="428.64" width="25.95" height="77.84"/><rect class="cls-5" x="580.78" y="195.12" width="95.14" height="77.84"/><path class="cls-3" d="M649.97,256.45c-5.21,0-9.44-4.24-9.44-9.44s4.23-9.44,9.44-9.44,9.44,4.24,9.44,9.44-4.23,9.44-9.44,9.44Zm0-17.3c-4.33,0-7.86,3.52-7.86,7.86s3.52,7.86,7.86,7.86,7.86-3.52,7.86-7.86-3.52-7.86-7.86-7.86Z"/><polygon class="cls-2" points="632.67 195.12 658.62 221.06 736.46 221.06 736.46 195.12 632.67 195.12"/><rect class="cls-5" x="624.03" y="333.5" width="77.84" height="95.14"/><path class="cls-3" d="M676.71,429.43h-27.53v-53.48h27.53v53.48Zm-25.95-1.58h24.36v-50.31h-24.36v50.31Z"/><rect class="cls-5" x="710.51" y="480.53" width="95.14" height="34.6"/><rect x="805.65" y="454.59" width="86.49" height="60.54"/><rect x="710.51" y="445.94" width="95.14" height="34.6"/><rect class="cls-4" x="892.14" y="480.53" width="51.89" height="51.89"/><path class="cls-2" d="M944.04,489.97v-1.58h-7.86v-7.86h-1.58v7.86h-7.06v-7.86h-1.58v7.86h-7.07v-7.86h-1.58v7.86h-7.06v-7.86h-1.58v7.86h-7.07v-7.86h-1.58v7.86h-7.86v1.58h7.86v7.06h-7.86v1.58h7.86v7.07h-7.86v1.58h7.86v7.06h-7.86v1.58h7.86v7.07h-7.86v1.58h7.86v7.86h1.58v-7.86h7.07v7.86h1.58v-7.86h7.06v7.86h1.58v-7.86h7.07v7.86h1.58v-7.86h7.06v7.86h1.58v-7.86h7.86v-1.58h-7.86v-7.07h7.86v-1.58h-7.86v-7.06h7.86v-1.58h-7.86v-7.07h7.86v-1.58h-7.86v-7.06h7.86Zm-18.09,0v7.06h-7.07v-7.06h7.07Zm-8.65,17.3v7.06h-7.06v-7.06h7.06Zm-7.06-1.58v-7.07h7.06v7.07h-7.06Zm8.65,1.58h7.07v7.06h-7.07v-7.06Zm0-1.58v-7.07h7.07v7.07h-7.07Zm-1.58-15.71v7.06h-7.06v-7.06h7.06Zm-15.71,0h7.07v7.06h-7.07v-7.06Zm0,8.65h7.07v7.07h-7.07v-7.07Zm0,8.65h7.07v7.06h-7.07v-7.06Zm0,15.71v-7.07h7.07v7.07h-7.07Zm8.65,0v-7.07h7.06v7.07h-7.06Zm8.65,0v-7.07h7.07v7.07h-7.07Zm15.71,0h-7.06v-7.07h7.06v7.07Zm0-8.65h-7.06v-7.06h7.06v7.06Zm0-8.65h-7.06v-7.07h7.06v7.07Zm0-8.65h-7.06v-7.06h7.06v7.06Z"/><rect x="892.14" y="342.15" width="34.6" height="86.49"/><rect class="cls-2" x="866.2" y="342.15" width="34.6" height="86.49"/><rect class="cls-4" x="822.95" y="91.33" width="25.95" height="181.63"/><path class="cls-11" d="M968.02,94.96c6.72-4.93,10.99-13.02,10.59-22.09-.59-13.47-11.65-24.37-25.13-24.77-14.69-.44-26.74,11.34-26.74,25.94,0,8.57,4.16,16.17,10.57,20.9,1.55,1.14,1.9,3.31,.73,4.82-2.43,3.14-3.88,7.07-3.88,11.35,0,5.87,2.73,11.1,6.99,14.49,1.18,.94,1.62,2.51,1.1,3.93-.49,1.33-.73,2.78-.66,4.29,.25,5.94,5.3,10.71,11.25,10.64,6.08-.08,10.98-5.02,10.98-11.12,0-1.37-.25-2.69-.7-3.9-.53-1.4,.01-2.95,1.18-3.89,4.23-3.4,6.94-8.61,6.94-14.45,0-4.28-1.45-8.22-3.89-11.35-1.16-1.5-.85-3.66,.68-4.79Z"/><polygon points="961.89 110.42 960.78 109.3 953.48 116.6 953.48 83.92 951.89 83.92 951.89 107.95 944.6 100.65 943.48 101.77 951.89 110.19 951.89 161.76 953.48 161.76 953.48 118.84 961.89 110.42"/><polygon class="cls-2" points="918.09 281.61 848.9 281.61 848.9 91.33 918.09 160.52 918.09 281.61"/><path d="M883.49,281.61c0-14.33-11.62-25.95-25.95-25.95-5.34,0-10.3,1.61-14.42,4.38-7.47-12.95-21.45-21.67-37.47-21.67-7.88,0-15.27,2.12-21.63,5.81-11.09-14.06-28.26-23.1-47.56-23.1-33.44,0-60.54,27.11-60.54,60.54h121.09v112.44h69.19v-112.44h17.3Z"/><rect class="cls-2" x="926.74" y="368.1" width="34.6" height="86.49"/><polygon points="969.98 151.87 1004.58 186.47 1004.58 316.2 969.98 316.2 969.98 151.87"/><polygon points="1212.15 342.15 1177.56 342.15 1177.56 229.71 1212.15 264.31 1212.15 342.15"/><rect class="cls-5" x="1160.26" y="229.71" width="17.3" height="77.84"/><polygon points="1281.35 454.59 1281.35 428.64 1367.84 428.64 1367.84 463.23 1333.24 463.23 1307.29 489.18 1281.35 489.18 1194.86 489.18 1194.86 454.59 1281.35 454.59"/><rect x="1004.58" y="463.23" width="34.6" height="129.73"/><rect class="cls-4" x="1194.86" y="489.18" width="25.95" height="34.6"/><rect class="cls-4" x="995.93" y="316.2" width="86.49" height="138.38"/><path class="cls-3" d="M1048.62,438.08h-27.53v-62.13h27.53v62.13Zm-25.95-1.58h24.36v-58.96h-24.36v58.96Z"/><path class="cls-3" d="M1034.85,351.59c-5.21,0-9.44-4.24-9.44-9.44s4.24-9.44,9.44-9.44,9.44,4.24,9.44,9.44-4.24,9.44-9.44,9.44Zm0-17.3c-4.33,0-7.86,3.52-7.86,7.86s3.52,7.86,7.86,7.86,7.86-3.52,7.86-7.86-3.52-7.86-7.86-7.86Z"/><rect x="1082.42" y="428.64" width="86.49" height="25.95"/><rect class="cls-2" x="1082.42" y="402.69" width="69.19" height="25.95"/><rect class="cls-2" x="1039.18" y="463.23" width="69.19" height="112.44"/><polygon class="cls-2" points="1177.56 350.8 1177.56 385.39 1065.12 385.39 1099.72 350.8 1177.56 350.8"/><polygon points="1056.47 255.66 1021.88 255.66 1021.88 134.57 1056.47 169.17 1056.47 255.66"/><polygon points="1082.42 272.96 1047.82 272.96 1047.82 134.57 1082.42 169.17 1082.42 272.96"/><rect class="cls-5" x="1030.53" y="134.57" width="17.3" height="138.38"/><rect class="cls-5" x="1004.58" y="134.57" width="17.3" height="138.38"/><polygon points="563.48 195.12 528.89 195.12 528.89 74.03 563.48 108.63 563.48 195.12"/><polygon points="589.43 212.41 554.83 212.41 554.83 74.03 589.43 108.63 589.43 212.41"/><rect class="cls-4" x="537.54" y="74.03" width="17.3" height="138.38"/><rect class="cls-4" x="511.59" y="74.03" width="17.3" height="138.38"/><path class="Graphic_Style_10" d="M1231.14,232.34c-2.24-1.22-2.85-4.21-1.13-6.09,2.32-2.54,3.76-5.95,3.76-9.51,0-4.32-2.11-8.43-5.36-11.02-1.68-1.34-1.91-3.76-.64-5.49,1.25-1.7,1.89-3.86,1.61-6.19-.47-3.91-3.67-7.08-7.58-7.52-5.22-.59-9.65,3.49-9.65,8.59,0,1.91,.62,3.67,1.66,5.1,1.27,1.74,1.08,4.16-.61,5.49-3.26,2.58-5.38,6.7-5.38,11.03,0,3.56,1.44,6.98,3.76,9.51,1.71,1.87,1.13,4.86-1.09,6.07-7.1,3.86-11.8,11.57-11.27,20.33,.64,10.78,9.39,19.57,20.17,20.25,12.58,.8,23.04-9.17,23.04-21.58,0-8.2-4.56-15.33-11.28-18.99Z"/><polygon points="1234.38 247.57 1233.26 246.45 1221.59 258.12 1221.59 212.42 1220.01 212.42 1220.01 249.41 1208.4 237.8 1207.28 238.92 1220.01 251.65 1220.01 290.25 1221.59 290.25 1221.59 260.36 1234.38 247.57"/><circle class="Graphic_Style_10" cx="1117.02" cy="151.87" r="34.6"/><polygon points="1139.2 152.43 1138.08 151.31 1117.81 171.58 1117.81 152.2 1126.22 143.78 1125.11 142.66 1117.81 149.96 1117.81 134.57 1116.22 134.57 1116.22 158.61 1100.28 142.66 1099.16 143.78 1116.22 160.85 1116.22 212.42 1117.81 212.42 1117.81 173.82 1139.2 152.43"/><rect class="cls-4" x="1056.47" y="203.77" width="69.19" height="86.49"/><path class="cls-3" d="M1100.51,291.05h-18.88v-44.04c0-5.21,4.24-9.44,9.44-9.44s9.44,4.24,9.44,9.44v44.04Zm-17.3-1.58h15.71v-42.45c0-4.33-3.52-7.86-7.86-7.86s-7.86,3.52-7.86,7.86v42.45Z"/><rect class="cls-2" x="1264.05" y="316.2" width="34.6" height="86.49"/><path class="cls-9" d="M1313.97,327.25c6.72-4.93,10.99-13.02,10.59-22.09-.59-13.47-11.65-24.37-25.13-24.77-14.69-.44-26.74,11.34-26.74,25.94,0,8.57,4.16,16.17,10.57,20.9,1.55,1.14,1.9,3.31,.73,4.82-2.43,3.14-3.88,7.07-3.88,11.35,0,5.87,2.73,11.1,6.99,14.49,1.18,.94,1.62,2.51,1.1,3.93-.49,1.33-.73,2.78-.66,4.29,.25,5.94,5.3,10.71,11.25,10.64,6.08-.08,10.98-5.02,10.98-11.12,0-1.37-.25-2.69-.7-3.9-.53-1.4,.01-2.95,1.18-3.89,4.23-3.4,6.94-8.61,6.94-14.45,0-4.28-1.45-8.22-3.89-11.35-1.16-1.5-.85-3.66,.68-4.79Z"/><polygon points="1307.85 342.71 1306.73 341.59 1299.44 348.89 1299.44 316.2 1297.85 316.2 1297.85 340.24 1290.55 332.94 1289.44 334.06 1297.85 342.48 1297.85 394.04 1299.44 394.04 1299.44 351.12 1307.85 342.71"/><rect class="cls-5" x="1125.66" y="316.2" width="34.6" height="69.19"/><polygon class="cls-2" points="1142.96 350.8 1142.96 316.2 1065.12 316.2 1099.72 350.8 1142.96 350.8"/><rect class="cls-2" x="995.93" y="290.26" width="69.19" height="25.95"/><polygon points="1160.26 316.2 1125.66 316.2 1125.66 203.77 1160.26 238.36 1160.26 316.2"/><polygon class="cls-5" points="1091.07 281.61 1065.12 255.66 995.93 255.66 995.93 290.26 1039.18 290.26 1065.12 316.2 1091.07 316.2 1142.96 316.2 1142.96 281.61 1091.07 281.61"/><rect class="cls-4" x="1160.26" y="281.61" width="69.19" height="147.03"/><polygon points="1264.05 394.04 1229.45 394.04 1229.45 281.61 1264.05 316.2 1264.05 394.04"/><polygon class="cls-2" points="1212.15 411.34 1212.15 411.34 1212.15 411.34 1212.15 402.69 1203.51 402.69 1203.51 394.04 1194.86 394.04 1194.86 385.39 1186.21 385.39 1186.21 376.74 1177.56 376.74 1177.56 368.1 1168.91 368.1 1168.91 368.1 1168.91 368.1 1168.91 368.1 1168.91 359.45 1160.26 359.45 1160.26 350.8 1151.61 350.8 1151.61 359.45 1151.61 419.99 1212.15 419.99 1212.15 419.99 1220.8 419.99 1220.8 411.34 1212.15 411.34"/><path class="cls-1" d="M1367.84,428.64h0c0-14.33-11.62-25.95-25.95-25.95-5.34,0-10.3,1.61-14.42,4.38-7.47-12.95-21.45-21.67-37.47-21.67-7.88,0-15.27,2.12-21.63,5.81-11.09-14.06-28.26-23.1-47.56-23.1-33.44,0-60.54,27.11-60.54,60.54h207.57Z"/><rect class="cls-2" x="1142.96" y="350.8" width="8.65" height="51.89"/><polygon points="1030.53 445.94 1030.53 445.94 1030.53 445.94 1030.53 437.29 1021.88 437.29 1021.88 428.64 1013.23 428.64 1013.23 419.99 1004.58 419.99 1004.58 411.34 995.93 411.34 995.93 402.69 987.28 402.69 987.28 402.69 987.28 402.69 987.28 402.69 987.28 394.04 978.63 394.04 978.63 385.39 961.33 385.39 961.33 394.04 961.33 454.59 1030.53 454.59 1030.53 454.59 1039.18 454.59 1039.18 445.94 1030.53 445.94"/><path d="M589.43,419.99v-8.65h-8.65v-8.65h-8.65v-8.65h-8.65v-8.65h-8.65v-8.65h-8.65v-8.65h-8.65v-8.65h-8.65v-8.65h-8.65v-8.65h-8.65v-8.65h-8.65v-8.65h-8.65v-8.65h-8.65v-8.65h-17.3v121.09h129.73v-8.65h-8.65Zm-43.24-43.24h0Z"/><rect x="961.33" y="385.39" width="8.65" height="51.89"/><polygon points="1255.4 463.23 1255.4 428.64 1142.96 428.64 1177.56 463.23 1255.4 463.23"/><polygon class="cls-5" points="1168.91 394.04 1142.96 368.1 1091.07 368.1 1091.07 402.69 1117.02 402.69 1142.96 428.64 1168.91 428.64 1220.8 428.64 1220.8 394.04 1168.91 394.04"/><path class="cls-3" d="M1182.67,351.59h-10.23v-53.48h10.23v53.48Zm-8.65-1.58h7.06v-50.31h-7.06v50.31Z"/><path class="cls-3" d="M1199.97,351.59h-10.23v-53.48h10.23v53.48Zm-8.65-1.58h7.06v-50.31h-7.06v50.31Z"/><path class="cls-3" d="M1217.27,351.59h-10.23v-53.48h10.23v53.48Zm-8.65-1.58h7.06v-50.31h-7.06v50.31Z"/><path class="cls-10" d="M1117.02,333.5c0-19.15-15.56-34.67-34.73-34.6s-33.8,14.91-34.44,33.35c-.34,9.73,3.34,18.61,9.51,25.09,2.24,2.35,2.71,5.83,1.38,8.79-1.45,3.24-2.26,6.83-2.26,10.61,0,7.4,3.1,14.08,8.07,18.8,2.42,2.3,3.33,5.85,2,8.92-1.16,2.68-1.67,5.7-1.31,8.88,.9,7.93,7.29,14.31,15.22,15.18,10.43,1.15,19.26-6.99,19.26-17.19,0-2.39-.49-4.67-1.36-6.74-1.32-3.11-.58-6.67,1.87-8.99,5.01-4.73,8.14-11.43,8.14-18.87,0-3.78-.81-7.37-2.26-10.61-1.34-2.98-.84-6.45,1.4-8.82,5.89-6.2,9.51-14.59,9.51-23.82Z"/><polygon points="1099.16 376.19 1083.21 392.13 1083.21 359.77 1100.28 342.71 1099.16 341.59 1083.21 357.54 1083.21 333.5 1081.63 333.5 1081.63 374.83 1065.68 358.89 1064.56 360.01 1081.63 377.07 1081.63 454.59 1083.21 454.59 1083.21 394.37 1100.28 377.3 1099.16 376.19"/><polygon class="cls-3" points="1091.07 454.59 1065.12 428.64 1004.58 428.64 1004.58 463.23 1039.18 463.23 1065.12 489.18 1091.07 489.18 1194.86 489.18 1194.86 454.59 1091.07 454.59"/><path class="cls-14" d="M1276.56,402.46c-3.19-3.52-4.68-8.21-4.11-12.92,.16-1.36,.25-2.74,.25-4.15,0-9.03-3.46-17.24-9.12-23.4-3.21-3.49-4.55-8.28-4-12.99,.14-1.17,.18-2.36,.12-3.58-.54-11.31-10-20.43-21.32-20.57-12.07-.15-21.9,9.59-21.9,21.62,0,.86,.05,1.72,.15,2.55,.56,4.7-.8,9.48-4,12.96-5.66,6.16-9.12,14.38-9.12,23.4,0,1.41,.08,2.79,.25,4.15,.57,4.7-.91,9.38-4.09,12.89-8.65,9.53-13.8,22.28-13.44,36.24,.72,27.63,23.4,50.06,51.04,50.5,29.04,.46,52.73-22.95,52.73-51.89,0-13.4-5.09-25.62-13.43-34.82Z"/><polygon points="1273.26 420.55 1272.14 419.43 1238.89 452.67 1238.89 403.02 1255.96 385.95 1254.84 384.83 1238.89 400.78 1238.89 350.8 1237.31 350.8 1237.31 374.83 1230.01 367.54 1228.89 368.66 1237.31 377.07 1237.31 426.73 1212.71 402.13 1211.59 403.25 1237.31 428.97 1237.31 489.18 1238.89 489.18 1238.89 454.91 1273.26 420.55"/><circle class="Graphic_Style_10" cx="1168.91" cy="445.94" r="34.6"/><polygon points="1191.09 446.5 1189.97 445.38 1169.7 465.65 1169.7 446.26 1178.12 437.85 1177 436.73 1169.7 444.03 1169.7 428.64 1168.12 428.64 1168.12 452.67 1152.17 436.73 1151.05 437.85 1168.12 454.91 1168.12 506.48 1169.7 506.48 1169.7 467.89 1191.09 446.5"/><polygon class="cls-2" points="1194.86 523.78 1194.86 489.18 1065.12 489.18 1099.72 523.78 1194.86 523.78"/><polygon class="cls-4" points="1004.58 463.23 1039.18 497.83 1039.18 463.23 1004.58 463.23"/><path class="cls-5" d="M1039.18,575.67h69.19c-7.47-7.26-1.95-12.53-9.42-19.79-7.47-7.26-12.99-1.58-20.46-8.83-7.47-7.26-1.95-12.93-9.43-20.19-7.47-7.26-12.99-1.58-20.46-8.84s-1.96-12.94-9.43-20.19v77.84Z"/><path class="cls-4" d="M1091.07,515.92c-5.21,0-9.44-4.24-9.44-9.44s4.24-9.44,9.44-9.44,9.44,4.24,9.44,9.44-4.24,9.44-9.44,9.44Zm0-17.3c-4.33,0-7.86,3.52-7.86,7.86s3.52,7.86,7.86,7.86,7.86-3.52,7.86-7.86-3.52-7.86-7.86-7.86Z"/><path class="cls-6" d="M520.24,403.48c-5.21,0-9.44-4.24-9.44-9.44s4.23-9.44,9.44-9.44,9.44,4.24,9.44,9.44-4.23,9.44-9.44,9.44Zm0-17.3c-4.33,0-7.86,3.52-7.86,7.86s3.52,7.86,7.86,7.86,7.86-3.52,7.86-7.86-3.52-7.86-7.86-7.86Z"/><rect class="cls-5" x="883.49" y="151.87" width="86.49" height="164.33"/><path class="cls-3" d="M936.18,177.03h-36.18v70.78h0v69.19h53.48v-69.19h0v-70.78h-17.3Zm0,1.58h15.71v15.71h-15.71v-15.71Zm0,17.3h15.71v15.71h-15.71v-15.71Zm0,17.3h15.71v15.71h-15.71v-15.71Zm0,17.3h15.71v15.71h-15.71v-15.71Zm-17.3-51.89h15.71v15.71h-15.71v-15.71Zm0,17.3h15.71v15.71h-15.71v-15.71Zm0,17.3h15.71v15.71h-15.71v-15.71Zm0,17.3h15.71v15.71h-15.71v-15.71Zm-17.3-51.89h15.71v15.71h-15.71v-15.71Zm0,17.3h15.71v15.71h-15.71v-15.71Zm0,17.3h15.71v15.71h-15.71v-15.71Zm0,17.3h15.71v15.71h-15.71v-15.71Zm15.71,84.91h-15.71v-15.72h15.71v15.72Zm0-17.3h-15.71v-15.71h15.71v15.71Zm0-17.3h-15.71v-15.72h15.71v15.72Zm-15.71-17.3v-15.71h15.71v15.71h-15.71Zm33.01,51.89h-15.71v-15.72h15.71v15.72Zm0-17.3h-15.71v-15.71h15.71v15.71Zm0-17.3h-15.71v-15.72h15.71v15.72Zm-15.71-17.3v-15.71h15.71v15.71h-15.71Zm33.01,51.89h-15.71v-15.72h15.71v15.72Zm0-17.3h-15.71v-15.71h15.71v15.71Zm0-17.3h-15.71v-15.72h15.71v15.72Zm0-17.3h-15.71v-15.71h15.71v15.71Z"/><path class="cls-1" d="M883.49,316.2h69.19c-7.47-7.26-1.95-12.53-9.42-19.79-7.47-7.26-12.99-1.58-20.46-8.83-7.47-7.26-1.95-12.93-9.43-20.19-7.47-7.26-12.99-1.58-20.46-8.84-7.47-7.26-1.96-12.94-9.43-20.19v77.84Z"/><path d="M952.69,316.2c-.28-.28-.54-.55-.79-.82v.03h-15.71v-15.72h9.74c-.31-.52-.68-1.05-1.11-1.58h-8.63v-5.63c-.53-.12-1.06-.21-1.58-.28v5.91h-15.71v-15.71h.36c-1.17-3-1.03-5.84-1.94-8.81v7.22h-15.71v-15.72h8.87c-1.35-.82-2.65-1.28-3.92-1.58h-4.95v-.75c-.53-.08-1.05-.17-1.58-.29v53.72h52.69Zm-33.8-16.51h15.71v15.72h-15.71v-15.72Zm-17.3-17.3h15.71v15.71h-15.71v-15.71Zm0,17.3h15.71v15.72h-15.71v-15.72Z"/><path class="cls-1" d="M883.49,151.87c9.34,8.87,2.42,15.34,11.76,24.2,9.34,8.87,16.26,1.9,25.6,10.77,9.34,8.87,2.42,15.83,11.76,24.7,9.34,8.87,16.26,1.9,25.6,10.77,9.34,8.87,2.42,15.83,11.76,24.7v-95.14h-86.49Z"/><path d="M934.6,177.03h-34.6v2.43c.53,.26,1.06,.49,1.58,.68v-1.53h15.72v5.5c.52,.31,1.05,.67,1.58,1.07v-6.57h15.71v15.72h-8.88c.17,.53,.31,1.06,.43,1.58h8.45v15.71h-1.89c.64,.6,1.26,1.12,1.88,1.58h0c.53,.41,1.06,.76,1.58,1.07v-1.07h15.71v5.04c.52,.19,1.05,.42,1.58,.68v-41.9h-18.88Zm17.3,34.6h-15.71v-15.71h15.71v15.71Zm0-17.3h-15.71v-15.72h15.71v15.72Z"/><rect x="961.33" y="316.2" width="34.6" height="138.38"/><rect class="cls-5" x="961.33" y="454.59" width="43.24" height="25.95"/><rect class="cls-4" x="961.33" y="480.53" width="43.24" height="69.19"/><path class="Graphic_Style_10" d="M994.24,500.46c2.24-1.22,2.85-4.21,1.13-6.09-2.32-2.54-3.76-5.95-3.76-9.51,0-4.32,2.11-8.43,5.36-11.02,1.68-1.34,1.91-3.76,.64-5.49s-1.89-3.86-1.61-6.19c.47-3.91,3.67-7.08,7.58-7.52,5.22-.59,9.65,3.49,9.65,8.59,0,1.91-.62,3.67-1.66,5.1-1.27,1.74-1.08,4.16,.61,5.49,3.26,2.58,5.38,6.7,5.38,11.03,0,3.56-1.44,6.98-3.76,9.51-1.71,1.87-1.13,4.86,1.09,6.07,7.1,3.86,11.8,11.57,11.27,20.33-.64,10.78-9.39,19.57-20.17,20.25-12.58,.8-23.04-9.17-23.04-21.58,0-8.2,4.56-15.33,11.28-18.99Z"/><polygon points="1018.1 507.04 1016.99 505.92 1005.37 517.53 1005.37 480.53 1003.79 480.53 1003.79 526.24 992.12 514.57 991 515.69 1003.79 528.48 1003.79 558.37 1005.37 558.37 1005.37 519.77 1018.1 507.04"/><polygon class="cls-5" points="892.14 419.99 866.2 394.04 797 394.04 797 428.64 840.25 428.64 866.2 454.59 892.14 454.59 944.04 454.59 944.04 419.99 892.14 419.99"/><polygon class="cls-2" points="900.79 342.15 926.74 368.1 995.93 368.1 995.93 342.15 900.79 342.15"/><polygon class="cls-2" points="866.2 454.59 892.14 480.53 944.04 480.53 944.04 558.37 961.33 558.37 961.33 480.53 961.33 473.03 961.33 454.59 866.2 454.59"/><polygon class="cls-2" points="866.2 454.59 840.25 428.64 797 428.64 797 454.59 866.2 454.59"/><polygon class="cls-3" points="658.62 160.52 632.67 134.57 563.48 134.57 563.48 169.17 606.73 169.17 632.67 195.12 658.62 195.12 710.51 195.12 710.51 160.52 658.62 160.52"/><polygon class="cls-2" points="632.67 195.12 606.73 169.17 563.48 169.17 563.48 195.12 632.67 195.12"/><rect class="cls-5" x="476.99" y="186.47" width="103.79" height="69.19"/><polygon points="580.78 316.2 624.03 316.2 624.03 229.71 580.78 186.47 580.78 316.2"/><polygon class="cls-2" points="476.99 272.96 502.94 298.9 580.78 298.9 580.78 272.96 476.99 272.96"/><polygon class="cls-2" points="476.99 272.96 451.05 247.01 390.5 247.01 390.5 272.96 476.99 272.96"/><rect x="381.85" y="281.61" width="34.6" height="216.22"/><rect x="407.8" y="437.29" width="43.24" height="34.6"/><path class="cls-12" d="M412.58,385.17c3.19-3.52,4.68-8.21,4.11-12.92-.16-1.36-.25-2.74-.25-4.15,0-9.03,3.46-17.24,9.12-23.4,3.21-3.49,4.55-8.28,4-12.99-.14-1.17-.18-2.36-.12-3.58,.54-11.31,10-20.43,21.32-20.57,12.07-.15,21.9,9.59,21.9,21.62,0,.86-.05,1.72-.15,2.55-.56,4.7,.8,9.48,4,12.96,5.66,6.16,9.12,14.38,9.12,23.4,0,1.41-.08,2.79-.25,4.15-.57,4.7,.91,9.38,4.09,12.89,8.65,9.53,13.8,22.28,13.44,36.24-.72,27.63-23.4,50.06-51.04,50.5-29.04,.46-52.73-22.95-52.73-51.89,0-13.4,5.09-25.62,13.43-34.82Z"/><polygon points="477.55 385.95 476.43 384.83 451.84 409.43 451.84 359.77 460.25 351.36 459.14 350.24 451.84 357.54 451.84 333.5 450.25 333.5 450.25 383.48 434.31 367.54 433.19 368.66 450.25 385.72 450.25 435.38 417.01 402.13 415.89 403.25 450.25 437.62 450.25 471.88 451.84 471.88 451.84 411.67 477.55 385.95"/><polygon points="324.84 281.61 350.79 281.61 350.79 99.98 324.84 74.03 324.84 281.61"/><polygon class="cls-5" points="502.94 497.83 476.99 471.88 407.8 471.88 407.8 506.48 451.05 506.48 476.99 532.43 502.94 532.43 580.78 532.43 580.78 497.83 502.94 497.83"/><polygon class="cls-2" points="476.99 532.43 502.94 558.37 580.78 558.37 580.78 532.43 476.99 532.43"/><polygon points="944.04 592.97 969.98 618.92 1039.18 618.92 1039.18 592.97 944.04 592.97"/><polygon points="944.04 592.97 918.09 567.02 874.85 567.02 874.85 592.97 944.04 592.97"/><rect x="944.04" y="419.99" width="17.3" height="34.6"/><rect x="771.06" y="264.31" width="25.95" height="129.73" transform="translate(1568.06 658.35) rotate(180)"/><rect class="cls-4" x="675.92" y="221.06" width="60.54" height="77.84"/><path class="cls-2" d="M719.96,325.64h-27.53v-65.66c0-7.59,6.17-13.77,13.77-13.77s13.77,6.18,13.77,13.77v65.66Zm-25.95-1.58h24.36v-64.08c0-6.72-5.46-12.18-12.18-12.18s-12.18,5.46-12.18,12.18v64.08Z"/><path class="cls-1" d="M528.47,203.41c6.54,6.21,11.38,1.33,17.92,7.54,6.54,6.21,1.69,11.08,8.23,17.29,6.54,6.21,11.38,1.33,17.92,7.54,6.54,6.21,1.7,11.08,8.23,17.29v-66.6h-60.54c6.54,6.21,1.69,10.74,8.23,16.94Z"/><path class="cls-1" d="M634.61,355.28c8.41,7.98,14.63,1.71,23.04,9.69,8.41,7.98,2.18,14.25,10.59,22.23,8.41,7.98,14.64,1.71,23.04,9.7,8.41,7.98,2.18,14.25,10.59,22.23v-85.62h-77.84c8.41,7.98,2.18,13.8,10.59,21.78Z"/><path d="M663.17,377.54h11.95v13.71c.53,.15,1.06,.27,1.58,.37v-15.66h-13.79c.08,.53,.16,1.05,.25,1.58Z"/><polygon points="771.06 298.9 736.46 298.9 736.46 221.06 771.06 255.66 771.06 298.9"/><polygon class="cls-5" points="719.16 298.9 693.22 272.96 624.03 272.96 624.03 307.55 667.27 307.55 693.22 333.5 719.16 333.5 771.06 333.5 771.06 298.9 719.16 298.9"/><polygon class="cls-2" points="624.03 454.59 647.61 480.53 710.51 480.53 710.51 454.59 624.03 454.59"/><rect x="701.87" y="342.15" width="43.24" height="112.44"/><polygon class="cls-2" points="693.22 333.5 719.16 359.45 788.36 359.45 788.36 333.5 693.22 333.5"/><polygon class="cls-3" points="649.97 419.99 624.03 394.04 554.83 394.04 554.83 428.64 598.08 428.64 624.03 454.59 649.97 454.59 710.51 454.59 710.51 419.99 649.97 419.99"/><rect class="cls-4" x="649.97" y="480.53" width="60.54" height="138.38"/><path class="cls-3" d="M694.01,593.76h-18.88v-44.04c0-5.21,4.23-9.44,9.44-9.44s9.44,4.24,9.44,9.44v44.04Zm-17.3-1.58h15.71v-42.45c0-4.33-3.52-7.86-7.86-7.86s-7.86,3.52-7.86,7.86v42.45Z"/><path class="cls-13" d="M665.3,517.52c6.72-4.93,10.99-13.02,10.59-22.09-.59-13.47-11.65-24.37-25.13-24.77-14.69-.44-26.74,11.34-26.74,25.94,0,8.57,4.16,16.17,10.57,20.9,1.55,1.14,1.9,3.31,.73,4.82-2.43,3.14-3.88,7.07-3.88,11.35,0,5.87,2.73,11.1,6.99,14.49,1.18,.94,1.62,2.51,1.1,3.93-.49,1.33-.73,2.78-.66,4.29,.25,5.94,5.3,10.71,11.25,10.64,6.08-.08,10.98-5.02,10.98-11.12,0-1.37-.25-2.69-.7-3.9-.53-1.4,.01-2.95,1.18-3.89,4.23-3.4,6.94-8.61,6.94-14.45,0-4.28-1.45-8.22-3.89-11.35-1.16-1.5-.85-3.66,.68-4.79Z"/><polygon points="659.18 532.99 658.06 531.87 650.76 539.16 650.76 506.48 649.18 506.48 649.18 530.52 641.88 523.22 640.76 524.34 649.18 532.75 649.18 584.32 650.76 584.32 650.76 541.4 659.18 532.99"/><polygon class="cls-2" points="598.08 428.64 554.83 428.64 598.08 471.88 598.08 428.64"/><polygon class="cls-2" points="693.22 333.5 667.27 307.55 624.03 307.55 624.03 333.5 693.22 333.5"/><path class="cls-1" d="M1021.88,558.37h0c0-14.33-11.62-25.95-25.95-25.95-5.34,0-10.3,1.61-14.42,4.38-7.47-12.95-21.45-21.67-37.47-21.67-7.88,0-15.27,2.12-21.63,5.81-11.09-14.06-28.26-23.1-47.56-23.1-33.44,0-60.54,27.11-60.54,60.54h207.57Z"/><polygon points="857.55 662.16 883.49 662.16 883.49 489.18 857.55 463.23 857.55 662.16"/><polygon class="cls-3" points="969.98 558.37 944.04 532.43 874.85 532.43 874.85 567.02 918.09 567.02 944.04 592.97 969.98 592.97 1021.88 592.97 1021.88 558.37 969.98 558.37"/><rect class="cls-5" x="814.3" y="463.23" width="43.24" height="198.93"/><path class="cls-3" d="M841.04,533.22h-10.23v-53.48h10.23v53.48Zm-8.65-1.58h7.06v-50.31h-7.06v50.31Z"/><path class="cls-3" d="M841.04,611.06h-10.23v-53.48h10.23v53.48Zm-8.65-1.58h7.06v-50.31h-7.06v50.31Z"/><polygon points="797 506.48 805.65 515.13 805.65 662.16 797 662.16 797 506.48"/><rect class="cls-4" x="779.71" y="506.48" width="17.3" height="164.33"/><polygon class="cls-2" points="684.57 644.86 710.51 670.81 779.71 670.81 779.71 644.86 684.57 644.86"/><rect class="cls-2" x="727.81" y="515.13" width="51.89" height="155.68"/><path class="cls-4" d="M763.2,602.41h-10.23v-53.48h10.23v53.48Zm-8.65-1.58h7.06v-50.31h-7.06v50.31Z"/><polygon points="710.51 627.56 727.81 627.56 727.81 497.83 710.51 480.53 710.51 627.56"/><circle class="Graphic_Style_10" cx="727.81" cy="506.48" r="34.6"/><polygon points="750 507.04 748.88 505.92 728.6 526.19 728.6 506.81 737.02 498.39 735.9 497.27 728.6 504.57 728.6 489.18 727.02 489.18 727.02 513.22 711.07 497.27 709.96 498.39 727.02 515.46 727.02 610.27 728.6 610.27 728.6 528.43 750 507.04"/><polygon class="cls-5" points="710.51 610.27 684.57 584.32 615.38 584.32 615.38 618.92 658.62 618.92 684.57 644.86 710.51 644.86 762.41 644.86 762.41 610.27 710.51 610.27"/><polygon class="cls-2" points="684.57 644.86 658.62 618.92 615.38 618.92 615.38 644.86 684.57 644.86"/><rect x="797" y="515.13" width="17.3" height="147.03"/><circle class="Graphic_Style_10" cx="961.33" cy="394.04" r="34.6"/><polygon points="979.19 385.95 978.07 384.83 962.13 400.78 962.13 376.75 960.54 376.75 960.54 392.13 953.25 384.83 952.13 385.95 960.54 394.37 960.54 413.75 940.27 393.48 939.15 394.6 960.54 415.99 960.54 454.59 962.13 454.59 962.13 403.02 979.19 385.95"/><path class="cls-7" d="M732.6,393.81c3.19-3.52,4.68-8.21,4.11-12.92-.16-1.36-.25-2.74-.25-4.15,0-9.03,3.46-17.24,9.12-23.4,3.21-3.49,4.55-8.28,4-12.99-.14-1.17-.18-2.36-.12-3.58,.54-11.31,10-20.43,21.32-20.57,12.07-.15,21.9,9.59,21.9,21.62,0,.86-.05,1.72-.15,2.55-.56,4.7,.8,9.48,4,12.96,5.66,6.16,9.12,14.38,9.12,23.4,0,1.41-.08,2.79-.25,4.15-.57,4.7,.91,9.38,4.09,12.89,8.65,9.53,13.8,22.28,13.44,36.24-.72,27.63-23.4,50.06-51.04,50.5-29.04,.46-52.73-22.95-52.73-51.89,0-13.4,5.09-25.62,13.43-34.82Z"/><polygon points="797.56 394.6 796.45 393.48 771.85 418.08 771.85 368.42 780.27 360.01 779.15 358.89 771.85 366.18 771.85 342.15 770.27 342.15 770.27 392.13 754.32 376.19 753.2 377.3 770.27 394.37 770.27 444.03 737.02 410.78 735.9 411.9 770.27 446.26 770.27 480.53 771.85 480.53 771.85 420.32 797.56 394.6"/><path class="cls-1" d="M820.18,475.34c4.67,4.43,8.13,.95,12.8,5.38,4.67,4.43,1.21,7.91,5.88,12.35,4.67,4.43,8.13,.95,12.8,5.39,4.67,4.43,1.21,7.92,5.88,12.35v-47.57h-43.24c4.67,4.43,1.21,7.67,5.88,12.1Z"/><path d="M832.98,480.72c.21,.2,.41,.4,.59,.6h5.89v12.27c.54,.45,1.07,.8,1.58,1.07v-14.92h-9.24c.39,.28,.78,.6,1.19,.98Z"/><rect class="cls-5" x="407.8" y="74.03" width="43.24" height="164.33"/><path class="cls-3" d="M434.54,144.01h-10.23v-53.48h10.23v53.48Zm-8.65-1.58h7.07v-50.31h-7.07v50.31Z"/><path class="cls-3" d="M434.54,221.86h-10.23v-53.48h10.23v53.48Zm-8.65-1.58h7.07v-50.31h-7.07v50.31Z"/><path class="cls-1" d="M413.68,86.13c4.67,4.43,8.13,.95,12.8,5.38,4.67,4.43,1.21,7.91,5.88,12.35,4.67,4.43,8.13,.95,12.8,5.39,4.67,4.43,1.21,7.92,5.88,12.35v-47.57h-43.24c4.67,4.43,1.21,7.67,5.88,12.1Z"/><path d="M426.48,91.52c.21,.2,.41,.4,.59,.6h5.89v12.27c.54,.45,1.07,.8,1.58,1.07v-14.92h-9.24c.39,.28,.78,.6,1.19,.98Z"/><polygon class="cls-3" points="502.94 238.36 476.99 212.41 390.5 212.41 390.5 247.01 451.05 247.01 476.99 272.96 502.94 272.96 598.08 272.96 598.08 238.36 502.94 238.36"/><circle class="Graphic_Style_10" cx="389.94" cy="281.61" r="34.6"/><polygon points="412.13 282.17 411.01 281.05 390.74 301.32 390.74 281.93 399.15 273.52 398.03 272.4 390.74 279.7 390.74 264.31 389.15 264.31 389.15 288.35 373.21 272.4 372.09 273.52 389.15 290.58 389.15 333.5 390.74 333.5 390.74 303.56 412.13 282.17"/><path class="cls-8" d="M615.38,264.31c0-19.15-15.56-34.67-34.73-34.6-18.45,.07-33.8,14.91-34.44,33.35-.34,9.73,3.34,18.61,9.51,25.09,2.24,2.35,2.71,5.83,1.38,8.79-1.45,3.24-2.26,6.83-2.26,10.61,0,7.4,3.1,14.08,8.07,18.8,2.42,2.3,3.33,5.85,2,8.92-1.16,2.68-1.67,5.7-1.31,8.88,.9,7.93,7.29,14.31,15.22,15.18,10.43,1.15,19.26-6.99,19.26-17.19,0-2.39-.49-4.67-1.36-6.74-1.32-3.11-.58-6.67,1.87-8.99,5.01-4.73,8.14-11.43,8.14-18.87,0-3.78-.81-7.37-2.26-10.61-1.34-2.98-.84-6.45,1.4-8.82,5.89-6.2,9.51-14.59,9.51-23.82Z"/><polygon points="597.52 306.99 581.57 322.94 581.57 290.58 598.64 273.52 597.52 272.4 581.57 288.35 581.57 264.31 579.99 264.31 579.99 305.64 564.04 289.7 562.92 290.82 579.99 307.88 579.99 394.04 581.57 394.04 581.57 325.18 598.64 308.11 597.52 306.99"/><rect x="624.03" y="350.01" width="77.84" height="1.58"/><rect x="528.89" y="558.37" width="17.3" height="95.14"/><path class="Graphic_Style_10" d="M556.53,595.6c-2.24-1.22-2.85-4.21-1.13-6.09,2.32-2.54,3.76-5.95,3.76-9.51,0-4.32-2.11-8.43-5.36-11.02-1.68-1.34-1.91-3.76-.64-5.49s1.89-3.86,1.61-6.19c-.47-3.91-3.67-7.08-7.58-7.52-5.22-.59-9.65,3.49-9.65,8.59,0,1.91,.62,3.67,1.66,5.1,1.27,1.74,1.08,4.16-.61,5.49-3.26,2.58-5.38,6.7-5.38,11.03,0,3.56,1.44,6.98,3.76,9.51,1.71,1.87,1.13,4.86-1.09,6.07-7.1,3.86-11.8,11.57-11.27,20.33,.64,10.78,9.39,19.57,20.17,20.25,12.58,.8,23.04-9.17,23.04-21.58,0-8.2-4.56-15.33-11.28-18.99Z"/><polygon points="559.76 610.83 558.64 609.71 546.98 621.38 546.98 575.67 545.39 575.67 545.39 612.67 533.78 601.06 532.66 602.18 545.39 614.91 545.39 653.51 546.97 653.51 546.97 623.61 559.76 610.83"/><polygon class="cls-2" points="451.05 506.48 407.8 506.48 451.05 549.72 451.05 506.48"/><rect x="476.99" y="74.03" width="34.6" height="112.44"/><path class="cls-3" d="M823.74,386.19h-10.23v-53.48h10.23v53.48Zm-8.65-1.58h7.06v-50.31h-7.06v50.31Z"/><path class="cls-3" d="M849.69,386.19h-10.23v-53.48h10.23v53.48Zm-8.65-1.58h7.07v-50.31h-7.07v50.31Z"/><path class="cls-5" d="M476.99,580.92c-.45-.3-.91-.67-1.38-1.12-4.67-4.43-1.21-7.91-5.88-12.35-4.67-4.43-8.13-.95-12.8-5.39-4.67-4.43-1.21-7.92-5.88-12.35v103.79h25.95v-72.59Z"/><path class="cls-17" d="M396.52,154.5c-2.24-1.22-2.85-4.21-1.13-6.09,2.32-2.54,3.76-5.95,3.76-9.51,0-4.32-2.11-8.43-5.36-11.02-1.68-1.34-1.91-3.76-.64-5.49s1.89-3.86,1.61-6.19c-.47-3.91-3.67-7.08-7.58-7.52-5.22-.59-9.65,3.49-9.65,8.59,0,1.91,.62,3.67,1.66,5.1,1.27,1.74,1.08,4.16-.61,5.49-3.26,2.58-5.38,6.7-5.38,11.03,0,3.56,1.44,6.98,3.76,9.51,1.71,1.87,1.13,4.86-1.09,6.07-7.1,3.86-11.8,11.57-11.27,20.33,.64,10.78,9.39,19.57,20.17,20.25,12.58,.8,23.04-9.17,23.04-21.58,0-8.2-4.56-15.33-11.28-18.99Z"/><polygon points="399.76 169.73 398.64 168.61 386.97 180.28 386.97 134.57 385.39 134.57 385.39 171.57 373.77 159.96 372.65 161.08 385.39 173.81 385.39 212.42 386.97 212.42 386.97 182.52 399.76 169.73"/><path class="Graphic_Style_10" d="M134.57,177.82c0-19.15-15.56-34.67-34.73-34.6-18.45,.07-33.8,14.91-34.44,33.35-.34,9.73,3.34,18.61,9.51,25.09,2.24,2.35,2.71,5.83,1.38,8.79-1.45,3.24-2.26,6.83-2.26,10.61,0,7.4,3.1,14.08,8.07,18.8,2.42,2.3,3.33,5.85,2,8.92-1.16,2.68-1.67,5.7-1.31,8.88,.9,7.93,7.29,14.31,15.22,15.18,10.43,1.15,19.26-6.99,19.26-17.19,0-2.39-.49-4.67-1.36-6.74-1.32-3.11-.58-6.67,1.87-8.99,5.01-4.73,8.14-11.43,8.14-18.87,0-3.78-.81-7.37-2.26-10.61-1.34-2.98-.84-6.45,1.4-8.82,5.89-6.2,9.51-14.59,9.51-23.82Z"/><polygon points="116.71 220.5 100.76 236.45 100.76 204.09 117.83 187.03 116.71 185.91 100.76 201.85 100.76 177.82 99.18 177.82 99.18 219.15 83.23 203.21 82.11 204.32 99.18 221.39 99.18 307.55 100.76 307.55 100.76 238.69 117.83 221.62 116.71 220.5"/><circle cx="177.81" cy="186.47" r="34.6"/><rect class="cls-4" x="91.32" y="316.2" width="69.19" height="43.24"/><rect class="cls-4" x="186.46" y="419.99" width="34.6" height="112.44"/><path class="cls-18" d="M196.8,478.79c-2.24-1.22-2.85-4.21-1.13-6.09,2.32-2.54,3.76-5.95,3.76-9.51,0-4.32-2.11-8.43-5.36-11.02-1.68-1.34-1.91-3.76-.64-5.49,1.25-1.7,1.89-3.86,1.61-6.19-.47-3.91-3.67-7.08-7.58-7.52-5.22-.59-9.65,3.49-9.65,8.59,0,1.91,.62,3.67,1.66,5.1,1.27,1.74,1.08,4.16-.61,5.49-3.26,2.58-5.38,6.7-5.38,11.03,0,3.56,1.44,6.98,3.76,9.51,1.71,1.87,1.13,4.86-1.09,6.07-7.1,3.86-11.8,11.57-11.27,20.33,.64,10.78,9.39,19.57,20.17,20.25,12.58,.8,23.04-9.17,23.04-21.58,0-8.2-4.56-15.33-11.28-18.99Z"/><polygon points="200.04 494.02 198.92 492.9 187.25 504.57 187.25 458.86 185.67 458.86 185.67 495.86 174.06 484.25 172.94 485.37 185.67 498.1 185.67 532.43 187.25 532.43 187.25 506.81 200.04 494.02"/><rect class="cls-5" x="264.3" y="74.03" width="60.54" height="121.09"/><rect class="cls-4" x="255.65" y="316.2" width="69.19" height="129.73"/><path class="cls-3" d="M308.34,429.43h-10.23v-53.48h10.23v53.48Zm-8.65-1.58h7.07v-50.31h-7.07v50.31Z"/><path class="cls-2" d="M265.06,370.16c7.47,7.09,13.01,1.52,20.48,8.62,7.47,7.09,1.94,12.66,9.41,19.76,7.47,7.09,13.01,1.52,20.48,8.62,7.47,7.09,1.94,12.66,9.41,19.76v-110.71h-69.19v34.6c7.47,7.09,1.94,12.27,9.41,19.36Z"/><polygon class="cls-2" points="290.25 247.01 255.65 247.01 255.65 74.03 290.25 108.63 290.25 247.01"/><polygon points="221.06 255.66 255.65 255.66 255.65 160.52 221.06 125.93 221.06 255.66"/><rect class="cls-5" x="169.16" y="125.93" width="51.89" height="129.73"/><path d="M195.9,151.08h-18.88v88.07h36.18v-88.07h-17.3Zm-17.3,1.58h15.71v15.71h-15.71v-15.71Zm0,17.3h15.71v15.72h-15.71v-15.72Zm0,17.3h15.71v15.71h-15.71v-15.71Zm0,17.3h15.71v15.72h-15.71v-15.72Zm15.71,33.01h-15.71v-15.71h15.71v15.71Zm17.3,0h-15.71v-15.71h15.71v15.71Zm0-17.3h-15.71v-15.72h15.71v15.72Zm0-17.3h-15.71v-15.71h15.71v15.71Zm0-17.3h-15.71v-15.72h15.71v15.72Zm-15.71-17.3v-15.71h15.71v15.71h-15.71Z"/><rect class="cls-4" x="238.36" y="74.03" width="17.3" height="172.98"/><polygon class="cls-2" points="272.95 316.2 298.9 342.15 350.79 342.15 350.79 316.2 272.95 316.2"/><rect class="cls-5" x="264.3" y="169.17" width="34.6" height="112.44"/><polygon points="324.84 281.61 298.9 281.61 298.9 169.17 324.84 195.12 324.84 281.61"/><path class="cls-1" d="M333.49,281.61h0c0-14.33-11.62-25.95-25.95-25.95-5.34,0-10.3,1.61-14.42,4.38-7.47-12.95-21.45-21.67-37.47-21.67-7.88,0-15.27,2.12-21.63,5.81-11.09-14.06-28.26-23.1-47.56-23.1-33.44,0-60.54,27.11-60.54,60.54h207.57Z"/><path class="cls-2" d="M195.9,239.15h17.3v-11.87c-.52-.26-1.05-.51-1.58-.75v11.04h-15.71v-15.71h.33c-3.18-.52-6.44-.79-9.77-.79s-6.36,.26-9.44,.74v17.35h18.88Zm-17.3-17.3h15.71v15.71h-15.71v-15.71Z"/><polygon class="cls-5" points="298.9 281.61 272.95 255.66 203.76 255.66 203.76 290.26 247 290.26 272.95 316.2 298.9 316.2 350.79 316.2 350.79 281.61 298.9 281.61"/><polygon class="cls-2" points="195.11 419.99 221.06 445.94 272.95 445.94 272.95 419.99 195.11 419.99"/><polygon points="186.46 307.55 160.51 281.61 91.32 281.61 91.32 316.2 134.57 316.2 160.51 342.15 186.46 342.15 238.36 342.15 238.36 307.55 186.46 307.55"/><polygon class="cls-2" points="272.95 316.2 247 290.26 203.76 290.26 203.76 316.2 272.95 316.2"/><polygon class="cls-1" points="203.76 281.61 151.87 281.61 186.46 316.2 203.76 316.2 203.76 281.61"/><path class="cls-6" d="M151.87,316.99c-5.21,0-9.44-4.24-9.44-9.44s4.23-9.44,9.44-9.44,9.44,4.24,9.44,9.44-4.23,9.44-9.44,9.44Zm0-17.3c-4.33,0-7.86,3.52-7.86,7.86s3.52,7.86,7.86,7.86,7.86-3.52,7.86-7.86-3.52-7.86-7.86-7.86Z"/><rect x="160.51" y="342.15" width="25.95" height="34.6"/><polygon class="cls-2" points="195.11 419.99 169.16 394.04 125.92 394.04 125.92 419.99 195.11 419.99"/><polygon points="255.65 592.97 281.6 618.92 359.44 618.92 359.44 592.97 255.65 592.97"/><polygon points="255.65 592.97 229.71 567.02 177.81 567.02 177.81 592.97 255.65 592.97"/><path class="cls-1" d="M176.22,140.45c5.6,5.32,9.76,1.14,15.36,6.46,5.6,5.32,1.45,9.5,7.06,14.82,5.61,5.32,9.76,1.14,15.36,6.46,5.61,5.32,1.45,9.5,7.06,14.82v-57.08h-51.89c5.6,5.32,1.45,9.2,7.06,14.52Z"/><path d="M298.11,400.9c.54,.3,1.06,.55,1.58,.76v-24.13h7.07v25.5c.53,.07,1.05,.16,1.58,.28v-27.36h-10.23v24.95Z"/><rect class="cls-4" x="255.65" y="463.23" width="103.79" height="112.44"/><rect class="cls-2" x="255.65" y="480.53" width="103.79" height="25.95"/><rect class="cls-5" x="255.65" y="445.94" width="103.79" height="34.6"/><path class="cls-16" d="M331.53,500.23c6.72-4.93,10.99-13.02,10.59-22.09-.59-13.47-11.65-24.37-25.13-24.77-14.69-.44-26.74,11.34-26.74,25.94,0,8.57,4.16,16.17,10.57,20.9,1.55,1.14,1.9,3.31,.73,4.82-2.43,3.14-3.88,7.07-3.88,11.35,0,5.87,2.73,11.1,6.99,14.49,1.18,.94,1.62,2.51,1.1,3.93-.49,1.33-.73,2.78-.66,4.29,.25,5.94,5.3,10.71,11.25,10.64,6.08-.08,10.98-5.02,10.98-11.12,0-1.37-.25-2.69-.7-3.9-.53-1.4,.01-2.95,1.18-3.89,4.23-3.4,6.94-8.61,6.94-14.45,0-4.28-1.45-8.22-3.89-11.35-1.16-1.5-.85-3.66,.68-4.79Z"/><polygon points="325.4 515.69 324.29 514.57 316.99 521.87 316.99 489.18 315.4 489.18 315.4 513.22 308.11 505.92 306.99 507.04 315.4 515.46 315.4 567.02 316.99 567.02 316.99 524.1 325.4 515.69"/><polygon class="cls-3" points="281.6 558.37 255.65 532.43 177.81 532.43 177.81 567.02 229.71 567.02 255.65 592.97 281.6 592.97 359.44 592.97 359.44 558.37 281.6 558.37"/><rect x="238.36" y="316.2" width="17.3" height="69.19"/><rect class="cls-5" x="186.46" y="342.15" width="51.89" height="69.19"/><circle class="cls-15" cx="203.76" cy="316.2" r="34.6"/><polygon points="221.62 308.11 220.5 306.99 204.55 322.94 204.55 298.9 202.97 298.9 202.97 314.29 195.67 306.99 194.55 308.11 202.97 316.53 202.97 335.91 182.7 315.64 181.58 316.76 202.97 338.15 202.97 376.74 204.55 376.74 204.55 325.18 221.62 308.11"/><polygon class="cls-3" points="221.06 385.39 195.11 359.45 125.92 359.45 125.92 394.04 169.16 394.04 195.11 419.99 221.06 419.99 272.95 419.99 272.95 385.39 221.06 385.39"/><rect x="221.06" y="445.94" width="34.6" height="86.49"/><rect x="169.16" y="133.78" width="51.89" height="1.58"/><path class="cls-2" d="M194.39,151.08c.8,2.26,.65,4.41,1.51,6.68v-5.1h15.71v13.74c.52,.29,1.04,.65,1.58,1.09v-16.41h-18.81Z"/><rect x="763.97" y="264.31" width="13.44" height="34.6"/><polygon class="cls-3" points="926.74 307.55 900.79 281.61 840.26 281.61 840.26 316.2 874.85 316.2 900.79 342.15 926.74 342.15 995.93 342.15 995.93 307.55 926.74 307.55"/><polygon class="cls-2" points="874.85 316.2 900.79 342.15 866.2 342.15 840.26 316.21 874.85 316.2"/></svg>