<svg width="20" height="112" viewBox="0 0 20 112" fill="none" xmlns="http://www.w3.org/2000/svg">
<rect x="0.5" y="111.5" width="111" height="19" rx="9.5" transform="rotate(-90 0.5 111.5)" fill="#F9F9F9"/>
<path d="M15 92.7294L11.656 92.7294L11.656 90.8734C11.656 88.5214 10.216 86.9534 8.12 86.9534C6.072 86.9534 4.648 88.5214 4.648 90.8894L4.648 94.2014L15 94.2014L15 92.7294ZM5.912 92.7294L5.912 91.0174C5.912 89.4974 6.808 88.4574 8.12 88.4574C9.48 88.4574 10.392 89.4974 10.392 91.0174L10.392 92.7294L5.912 92.7294ZM6.28 82.2137L6.28 82.1817L10.824 80.5337L10.824 83.8617L6.28 82.2137ZM15 85.3817L12.072 84.3257L12.072 80.0697L15 79.0137L15 77.4777L4.648 81.3497L4.648 82.9497L15 86.8217L15 85.3817ZM5.912 74.3231L5.912 72.3391C5.912 70.9791 6.68 70.0831 7.832 70.0831C9.064 70.0831 9.88 70.9951 9.88 72.3551L9.88 74.3231L5.912 74.3231ZM15 74.3231L11.144 74.3231L11.144 72.3551C11.144 72.0831 11.128 71.8271 11.096 71.5871L15 69.5231L15 67.9071L10.664 70.2271C10.104 69.1871 9.096 68.5631 7.832 68.5631C5.928 68.5631 4.648 70.0351 4.648 72.2431L4.648 75.7951L15 75.7951L15 74.3231ZM5.912 59.2231L4.648 59.2231L4.648 67.4151L5.912 67.4151L5.912 64.0551L15 64.0551L15 62.5831L5.912 62.5831L5.912 59.2231ZM15 50.4895L13.736 50.4895L13.736 56.0575L10.456 56.0575L10.456 51.5775L9.208 51.5775L9.208 56.0575L5.912 56.0575L5.912 50.6015L4.648 50.6015L4.648 57.5295L15 57.5295L15 50.4895ZM11.384 45.069L11.384 30.701L10.376 30.701L10.376 45.069L11.384 45.069ZM9.512 19.7131L9.48 19.7131C9.112 18.1931 8.216 17.5211 7.176 17.5211C5.56 17.5211 4.44 19.0891 4.44 21.1371C4.44 23.0411 5.416 24.4971 6.888 25.1851L7.432 24.0971C6.456 23.5691 5.736 22.6411 5.736 21.2811C5.736 20.0011 6.36 19.0731 7.304 19.0731C8.216 19.0731 9.048 20.0171 9.064 21.6651L9.08 22.8651L10.328 22.8651L10.312 21.6011C10.296 19.7771 10.92 18.6891 12.136 18.6891C13.336 18.6891 13.912 19.8571 13.912 21.2011C13.912 22.6571 13.224 23.7131 12.328 24.2891L13.048 25.3931C14.376 24.5771 15.208 23.0091 15.208 21.1851C15.208 18.8971 13.88 17.1371 12.056 17.1371C10.68 17.1371 9.752 18.1611 9.512 19.7131Z" fill="#1E2528"/>
<rect x="0.5" y="111.5" width="111" height="19" rx="9.5" transform="rotate(-90 0.5 111.5)" stroke="url(#paint0_linear_153_826)"/>
<defs>
<linearGradient id="paint0_linear_153_826" x1="-22.4232" y1="107.156" x2="141.027" y2="111.385" gradientUnits="userSpaceOnUse">
<stop stop-color="#07A76F"/>
<stop offset="1" stop-color="#8ECA45"/>
</linearGradient>
</defs>
</svg>
