<svg width="358" height="318" viewBox="0 0 358 318" fill="none" xmlns="http://www.w3.org/2000/svg">
<path d="M317.566 54.5221C300.294 37.2504 279.789 23.5497 257.223 14.2024C234.656 4.85498 210.47 0.0439515 186.044 0.0439529C161.618 0.0439542 137.431 4.85499 114.865 14.2024C92.298 23.5497 71.7935 37.2504 54.5218 54.5221C37.2501 71.7938 23.5495 92.2983 14.2021 114.865C4.85473 137.431 0.0436998 161.618 0.0437012 186.044C0.0437025 210.47 4.85474 234.657 14.2021 257.223C23.5495 279.79 37.2502 300.294 54.5219 317.566L317.566 54.5221Z" fill="url(#paint0_linear_451_41)"/>
<path d="M104.27 154.198C102.628 152.556 100.134 152.811 98.53 154.516C97.6645 155.458 97.2063 156.782 97.3336 157.902C95.6917 156.082 95.4244 154.185 96.6845 152.925C97.4609 152.149 98.5555 151.869 99.6374 152.06L99.9938 150.329C98.3137 149.947 96.659 150.456 95.4244 151.691C93.197 153.918 93.5916 157.316 96.0863 159.811C98.5937 162.319 101.776 162.497 103.927 160.346C105.798 158.475 105.925 155.853 104.27 154.198ZM102.628 159.098C101.623 160.104 100.223 160.155 98.7337 159.149C98.4155 158.118 98.7464 156.871 99.4719 156.095C100.452 155.064 101.814 154.924 102.743 155.853C103.634 156.744 103.621 158.106 102.628 159.098Z" fill="#F9F9F9"/>
<path d="M112.002 146.467C110.36 144.825 107.865 145.08 106.261 146.785C105.396 147.727 104.938 149.051 105.065 150.171C103.423 148.351 103.156 146.454 104.416 145.194C105.192 144.418 106.287 144.138 107.369 144.329L107.725 142.598C106.045 142.216 104.39 142.725 103.156 143.959C100.928 146.187 101.323 149.585 103.817 152.08C106.325 154.587 109.507 154.765 111.658 152.614C113.529 150.743 113.656 148.122 112.002 146.467ZM110.36 151.367C109.354 152.373 107.954 152.424 106.465 151.418C106.147 150.387 106.478 149.14 107.203 148.363C108.183 147.332 109.545 147.192 110.474 148.122C111.365 149.012 111.352 150.374 110.36 151.367Z" fill="#F9F9F9"/>
<path d="M118.384 137.285C115.838 134.739 112.682 134.434 110.594 136.521C108.494 138.621 108.799 141.778 111.345 144.323C113.903 146.882 117.06 147.187 119.16 145.087C121.247 143 120.942 139.843 118.384 137.285ZM112.949 142.72C111.154 140.925 110.734 138.978 111.892 137.819C113.038 136.674 114.998 137.081 116.793 138.876C118.6 140.683 119.007 142.643 117.862 143.789C116.704 144.947 114.756 144.527 112.949 142.72Z" fill="#F9F9F9"/>
<path d="M126.115 129.553C123.569 127.008 120.413 126.702 118.325 128.79C116.225 130.89 116.531 134.046 119.076 136.592C121.635 139.15 124.791 139.456 126.891 137.356C128.979 135.268 128.673 132.112 126.115 129.553ZM120.68 134.988C118.885 133.194 118.465 131.246 119.624 130.088C120.769 128.943 122.729 129.35 124.524 131.144C126.331 132.952 126.739 134.912 125.593 136.057C124.435 137.216 122.487 136.796 120.68 134.988Z" fill="#F9F9F9"/>
<path d="M138.056 122.932L136.567 123.582C136.86 124.485 136.656 125.402 136.045 126.013C135.103 126.954 133.665 126.865 132.405 125.784L136.669 121.52C136.541 121.316 136.198 120.921 135.892 120.616C134.238 118.961 131.959 118.949 130.356 120.552C128.599 122.309 128.752 125.033 130.725 127.005C132.634 128.915 135.281 128.991 137.051 127.222C138.234 126.038 138.629 124.396 138.056 122.932ZM131.425 121.621C132.214 120.832 133.372 120.921 134.39 121.838L131.476 124.753C130.687 123.582 130.674 122.372 131.425 121.621Z" fill="#F9F9F9"/>
<path d="M144.731 119.134L143.598 118.001C143.433 118.319 143.102 118.803 142.72 119.185C141.969 119.936 141.307 119.885 140.722 119.299L137.463 116.041L139.525 113.979L138.393 112.846L136.331 114.908L134.791 113.368L133.391 114.768L134.931 116.308L133.976 117.263L135.109 118.396L136.063 117.441L139.614 120.992C140.773 122.15 142.224 122.049 143.624 120.649C144.095 120.178 144.54 119.529 144.731 119.134Z" fill="#F9F9F9"/>
<path d="M149.715 114.15L148.583 113.017C148.417 113.335 148.086 113.819 147.704 114.201C146.953 114.952 146.292 114.901 145.706 114.315L142.448 111.057L144.51 108.995L143.377 107.862L141.315 109.924L139.775 108.384L138.375 109.784L139.915 111.324L138.96 112.279L140.093 113.411L141.048 112.457L144.599 116.008C145.757 117.166 147.208 117.064 148.608 115.664C149.079 115.193 149.524 114.544 149.715 114.15Z" fill="#F9F9F9"/>
<path d="M156.431 107.664L155.476 106.582C155.412 106.671 155.285 106.823 155.209 106.9C154.865 107.244 154.445 107.18 154.101 106.836L151.416 104.151C149.901 102.636 148.17 102.738 146.694 104.214C145.497 105.411 145.166 107.014 145.739 108.478L147.228 107.88C146.961 107.027 146.999 106.149 147.687 105.462C148.374 104.774 149.278 104.787 149.99 105.5L150.398 105.907L149.176 107.511C147.954 109.14 147.687 110.807 148.845 111.966C149.85 112.971 151.378 112.895 152.498 111.775C153.376 110.896 153.643 109.764 153.389 108.72C154.343 109.242 155.209 109.064 155.947 108.325C156.163 108.109 156.303 107.893 156.431 107.664ZM151.874 110.235C151.327 110.782 150.601 110.846 150.13 110.375C149.558 109.802 149.736 108.936 150.372 108.122L151.339 106.849L152.472 107.982C152.65 108.771 152.472 109.636 151.874 110.235Z" fill="#F9F9F9"/>
<path d="M158.869 105.047L155.305 101.483C154.554 100.503 154.312 99.2939 155.28 98.3266C155.483 98.123 155.814 97.8684 156.043 97.7411L154.72 96.392C154.516 96.4683 154.185 96.7229 153.969 96.9393C153.231 97.6775 153.243 99.0394 153.829 100.109L152.48 98.7594L151.13 100.109L157.469 106.447L158.869 105.047Z" fill="#F9F9F9"/>
<path d="M157.304 93.9355L155.903 95.3355L162.242 101.674L163.642 100.274L157.304 93.9355ZM154.834 91.4663L153.434 92.8663L154.822 94.2537L156.222 92.8536L154.834 91.4663Z" fill="#F9F9F9"/>
<path d="M269.323 210.354L265.867 211.722L266.497 213.414L268.927 212.568V220.182H266.173V222H273.535V220.182H271.051V210.354H269.323Z" fill="#1E2528"/>
<path d="M280.257 210.354L276.801 211.722L277.431 213.414L279.861 212.568V220.182H277.107V222H284.469V220.182H281.985V210.354H280.257Z" fill="#1E2528"/>
<path d="M296.428 216.168C296.428 212.568 294.412 210.12 291.46 210.12C288.49 210.12 286.474 212.568 286.474 216.168C286.474 219.786 288.49 222.234 291.46 222.234C294.412 222.234 296.428 219.786 296.428 216.168ZM288.742 216.168C288.742 213.63 289.822 211.956 291.46 211.956C293.08 211.956 294.178 213.63 294.178 216.168C294.178 218.724 293.08 220.398 291.46 220.398C289.822 220.398 288.742 218.724 288.742 216.168Z" fill="#1E2528"/>
<path d="M307.362 216.168C307.362 212.568 305.346 210.12 302.394 210.12C299.424 210.12 297.408 212.568 297.408 216.168C297.408 219.786 299.424 222.234 302.394 222.234C305.346 222.234 307.362 219.786 307.362 216.168ZM299.676 216.168C299.676 213.63 300.756 211.956 302.394 211.956C304.014 211.956 305.112 213.63 305.112 216.168C305.112 218.724 304.014 220.398 302.394 220.398C300.756 220.398 299.676 218.724 299.676 216.168Z" fill="#1E2528"/>
<path d="M320.487 219.93L318.975 219.336C318.543 220.182 317.751 220.686 316.887 220.686C315.555 220.686 314.601 219.606 314.475 217.95H320.505C320.559 217.716 320.595 217.194 320.595 216.762C320.595 214.422 318.993 212.802 316.725 212.802C314.241 212.802 312.423 214.836 312.423 217.626C312.423 220.326 314.241 222.252 316.743 222.252C318.417 222.252 319.857 221.37 320.487 219.93ZM316.725 214.314C317.841 214.314 318.597 215.196 318.669 216.564H314.547C314.817 215.178 315.663 214.314 316.725 214.314Z" fill="#1E2528"/>
<path d="M327.893 221.964V220.362C327.551 220.47 326.975 220.578 326.435 220.578C325.373 220.578 324.941 220.074 324.941 219.246V214.638H327.857V213.036H324.941V210.858H322.961V213.036H321.611V214.638H322.961V219.66C322.961 221.298 324.059 222.252 326.039 222.252C326.705 222.252 327.479 222.108 327.893 221.964Z" fill="#1E2528"/>
<path d="M334.942 221.964V220.362C334.6 220.47 334.024 220.578 333.484 220.578C332.422 220.578 331.99 220.074 331.99 219.246V214.638H334.906V213.036H331.99V210.858H330.01V213.036H328.66V214.638H330.01V219.66C330.01 221.298 331.108 222.252 333.088 222.252C333.754 222.252 334.528 222.108 334.942 221.964Z" fill="#1E2528"/>
<path d="M344.277 222.126L344.367 220.686C344.259 220.704 344.061 220.722 343.953 220.722C343.467 220.722 343.215 220.38 343.215 219.894V216.096C343.215 213.954 341.919 212.802 339.831 212.802C338.139 212.802 336.771 213.702 336.141 215.142L337.617 215.772C338.031 214.98 338.679 214.386 339.651 214.386C340.623 214.386 341.253 215.034 341.253 216.042V216.618L339.255 216.888C337.239 217.176 335.871 218.166 335.871 219.804C335.871 221.226 337.005 222.252 338.589 222.252C339.831 222.252 340.821 221.64 341.379 220.722C341.685 221.766 342.423 222.252 343.467 222.252C343.773 222.252 344.025 222.198 344.277 222.126ZM339.237 220.722C338.463 220.722 337.905 220.254 337.905 219.588C337.905 218.778 338.643 218.292 339.669 218.166L341.253 217.95V219.552C340.821 220.236 340.083 220.722 339.237 220.722Z" fill="#1E2528"/>
<path d="M347.851 222V216.96C348.013 215.736 348.697 214.71 350.065 214.71C350.353 214.71 350.767 214.764 351.019 214.836L351.037 212.946C350.839 212.856 350.425 212.802 350.119 212.802C349.075 212.802 348.121 213.774 347.779 214.944V213.036H345.871V222H347.851Z" fill="#1E2528"/>
<path d="M354.601 213.036H352.621V222H354.601V213.036ZM354.601 209.544H352.621V211.506H354.601V209.544Z" fill="#1E2528"/>
<path d="M264.281 179.236V187L269.525 187V185.788H265.697V179.236H264.281Z" fill="#1E2528"/>
<path d="M275.445 185.62L274.437 185.224C274.149 185.788 273.621 186.124 273.045 186.124C272.157 186.124 271.521 185.404 271.437 184.3H275.457C275.493 184.144 275.517 183.796 275.517 183.508C275.517 181.948 274.449 180.868 272.937 180.868C271.281 180.868 270.069 182.224 270.069 184.084C270.069 185.884 271.281 187.168 272.949 187.168C274.065 187.168 275.025 186.58 275.445 185.62ZM272.937 181.876C273.681 181.876 274.185 182.464 274.233 183.376H271.485C271.665 182.452 272.229 181.876 272.937 181.876Z" fill="#1E2528"/>
<path d="M283.198 182.092V181.024H281.122V180.832C281.122 179.992 281.566 179.5 282.274 179.5C282.61 179.5 283.006 179.56 283.27 179.656L283.282 178.6C282.994 178.516 282.478 178.432 282.094 178.432C280.666 178.432 279.802 179.332 279.802 180.856V181.024H278.998V182.092H279.802V187H281.122V182.092H283.198Z" fill="#1E2528"/>
<path d="M289.439 184.012C289.439 182.188 288.191 180.868 286.463 180.868C284.723 180.868 283.463 182.188 283.463 184.012C283.463 185.836 284.723 187.156 286.463 187.156C288.191 187.156 289.439 185.836 289.439 184.012ZM284.855 184.012C284.855 182.812 285.527 181.936 286.463 181.936C287.387 181.936 288.047 182.812 288.047 184.012C288.047 185.212 287.387 186.076 286.463 186.076C285.527 186.076 284.855 185.212 284.855 184.012Z" fill="#1E2528"/>
<path d="M292.023 187V183.64C292.131 182.824 292.587 182.14 293.499 182.14C293.691 182.14 293.967 182.176 294.135 182.224L294.147 180.964C294.015 180.904 293.739 180.868 293.535 180.868C292.839 180.868 292.203 181.516 291.975 182.296V181.024H290.703V187H292.023Z" fill="#1E2528"/>
<path d="M300.019 185.62L299.011 185.224C298.723 185.788 298.195 186.124 297.619 186.124C296.731 186.124 296.095 185.404 296.011 184.3H300.031C300.067 184.144 300.091 183.796 300.091 183.508C300.091 181.948 299.023 180.868 297.511 180.868C295.855 180.868 294.643 182.224 294.643 184.084C294.643 185.884 295.855 187.168 297.523 187.168C298.639 187.168 299.599 186.58 300.019 185.62ZM297.511 181.876C298.255 181.876 298.759 182.464 298.807 183.376H296.059C296.239 182.452 296.803 181.876 297.511 181.876Z" fill="#1E2528"/>
<path d="M306.155 185.32C306.155 184.204 305.207 183.724 303.839 183.412C302.891 183.196 302.351 183.052 302.351 182.584C302.351 182.152 302.831 181.864 303.539 181.864C304.319 181.864 304.847 182.188 305.135 182.716L306.119 182.308C305.735 181.564 304.967 180.868 303.551 180.868C302.099 180.868 301.103 181.624 301.103 182.692C301.103 183.748 302.111 184.24 303.347 184.516C304.307 184.72 304.907 184.9 304.907 185.404C304.907 185.872 304.463 186.172 303.707 186.172C302.795 186.172 302.159 185.764 301.847 185.224L300.839 185.632C301.247 186.544 302.255 187.168 303.659 187.168C305.207 187.168 306.155 186.424 306.155 185.32Z" fill="#1E2528"/>
<path d="M310.98 186.976V185.908C310.752 185.98 310.368 186.052 310.008 186.052C309.3 186.052 309.012 185.716 309.012 185.164V182.092H310.956V181.024H309.012V179.572H307.692V181.024H306.792V182.092H307.692V185.44C307.692 186.532 308.424 187.168 309.744 187.168C310.188 187.168 310.704 187.072 310.98 186.976Z" fill="#1E2528"/>
<path d="M316.964 185.62L315.956 185.224C315.668 185.788 315.14 186.124 314.564 186.124C313.676 186.124 313.04 185.404 312.956 184.3H316.976C317.012 184.144 317.036 183.796 317.036 183.508C317.036 181.948 315.968 180.868 314.456 180.868C312.8 180.868 311.588 182.224 311.588 184.084C311.588 185.884 312.8 187.168 314.468 187.168C315.584 187.168 316.544 186.58 316.964 185.62ZM314.456 181.876C315.2 181.876 315.704 182.464 315.752 183.376H313.004C313.184 182.452 313.748 181.876 314.456 181.876Z" fill="#1E2528"/>
<path d="M326.001 187V181.024H324.681V185.116C324.405 185.656 323.901 186.064 323.301 186.064C322.653 186.064 322.197 185.548 322.197 184.828V181.024H320.877V184.936C320.877 186.22 321.717 187.156 322.857 187.156C323.697 187.156 324.369 186.676 324.729 186.028V187H326.001Z" fill="#1E2528"/>
<path d="M328.996 187V183.64C329.104 182.824 329.56 182.14 330.472 182.14C330.664 182.14 330.94 182.176 331.108 182.224L331.12 180.964C330.988 180.904 330.712 180.868 330.508 180.868C329.812 180.868 329.176 181.516 328.948 182.296V181.024H327.676V187H328.996Z" fill="#1E2528"/>
<path d="M337.852 184C337.852 182.176 336.796 180.868 335.332 180.868C334.66 180.868 333.94 181.24 333.496 181.792V178.588H332.176V187H333.424V186.268C333.844 186.784 334.588 187.168 335.248 187.168C336.76 187.168 337.852 185.836 337.852 184ZM334.864 186.088C334.312 186.088 333.796 185.824 333.496 185.428V182.632C333.796 182.224 334.336 181.948 334.912 181.948C335.812 181.948 336.46 182.788 336.46 183.976C336.46 185.2 335.788 186.088 334.864 186.088Z" fill="#1E2528"/>
<path d="M344.285 187.084L344.345 186.124C344.273 186.136 344.141 186.148 344.069 186.148C343.745 186.148 343.577 185.92 343.577 185.596V183.064C343.577 181.636 342.713 180.868 341.321 180.868C340.193 180.868 339.281 181.468 338.861 182.428L339.845 182.848C340.121 182.32 340.553 181.924 341.201 181.924C341.849 181.924 342.269 182.356 342.269 183.028V183.412L340.937 183.592C339.593 183.784 338.681 184.444 338.681 185.536C338.681 186.484 339.437 187.168 340.493 187.168C341.321 187.168 341.981 186.76 342.353 186.148C342.557 186.844 343.049 187.168 343.745 187.168C343.949 187.168 344.117 187.132 344.285 187.084ZM340.925 186.148C340.409 186.148 340.037 185.836 340.037 185.392C340.037 184.852 340.529 184.528 341.213 184.444L342.269 184.3V185.368C341.981 185.824 341.489 186.148 340.925 186.148Z" fill="#1E2528"/>
<path d="M350.58 187V183.088C350.58 181.792 349.692 180.868 348.54 180.868C347.712 180.868 347.016 181.336 346.62 181.9V181.024H345.348V187H346.668V182.716C346.992 182.296 347.556 181.96 348.144 181.96C348.792 181.96 349.26 182.44 349.26 183.184V187H350.58Z" fill="#1E2528"/>
<path d="M357.16 185.62L356.152 185.224C355.864 185.788 355.336 186.124 354.76 186.124C353.872 186.124 353.236 185.404 353.152 184.3H357.172C357.208 184.144 357.232 183.796 357.232 183.508C357.232 181.948 356.164 180.868 354.652 180.868C352.996 180.868 351.784 182.224 351.784 184.084C351.784 185.884 352.996 187.168 354.664 187.168C355.78 187.168 356.74 186.58 357.16 185.62ZM354.652 181.876C355.396 181.876 355.9 182.464 355.948 183.376H353.2C353.38 182.452 353.944 181.876 354.652 181.876Z" fill="#1E2528"/>
<path d="M275.487 196.092V195.024H273.411V194.832C273.411 193.992 273.855 193.5 274.563 193.5C274.899 193.5 275.295 193.56 275.559 193.656L275.571 192.6C275.283 192.516 274.767 192.432 274.383 192.432C272.955 192.432 272.091 193.332 272.091 194.856V195.024H271.287V196.092H272.091V201H273.411V196.092H275.487ZM277.575 195.024H276.255V201H277.575V195.024ZM277.575 192.696H276.255V194.004H277.575V192.696Z" fill="#1E2528"/>
<path d="M284.498 201V197.088C284.498 195.792 283.61 194.868 282.458 194.868C281.63 194.868 280.934 195.336 280.538 195.9V195.024H279.266V201H280.586V196.716C280.91 196.296 281.474 195.96 282.062 195.96C282.71 195.96 283.178 196.44 283.178 197.184V201H284.498Z" fill="#1E2528"/>
<path d="M291.665 198.012C291.665 196.188 290.417 194.868 288.689 194.868C286.949 194.868 285.689 196.188 285.689 198.012C285.689 199.836 286.949 201.156 288.689 201.156C290.417 201.156 291.665 199.836 291.665 198.012ZM287.081 198.012C287.081 196.812 287.753 195.936 288.689 195.936C289.613 195.936 290.273 196.812 290.273 198.012C290.273 199.212 289.613 200.076 288.689 200.076C287.753 200.076 287.081 199.212 287.081 198.012Z" fill="#1E2528"/>
<path d="M294.25 201V197.64C294.358 196.824 294.814 196.14 295.726 196.14C295.918 196.14 296.194 196.176 296.362 196.224L296.374 194.964C296.242 194.904 295.966 194.868 295.762 194.868C295.066 194.868 294.43 195.516 294.202 196.296V195.024H292.93V201H294.25Z" fill="#1E2528"/>
<path d="M302.449 201.084L302.509 200.124C302.437 200.136 302.305 200.148 302.233 200.148C301.909 200.148 301.741 199.92 301.741 199.596V197.064C301.741 195.636 300.877 194.868 299.485 194.868C298.357 194.868 297.445 195.468 297.025 196.428L298.009 196.848C298.285 196.32 298.717 195.924 299.365 195.924C300.013 195.924 300.433 196.356 300.433 197.028V197.412L299.101 197.592C297.757 197.784 296.845 198.444 296.845 199.536C296.845 200.484 297.601 201.168 298.657 201.168C299.485 201.168 300.145 200.76 300.517 200.148C300.721 200.844 301.213 201.168 301.909 201.168C302.113 201.168 302.281 201.132 302.449 201.084ZM299.089 200.148C298.573 200.148 298.201 199.836 298.201 199.392C298.201 198.852 298.693 198.528 299.377 198.444L300.433 198.3V199.368C300.145 199.824 299.653 200.148 299.089 200.148Z" fill="#1E2528"/>
<path d="M308.801 200.088C308.309 200.088 307.781 199.848 307.445 199.476V196.716C307.733 196.308 308.249 195.924 308.849 195.924C309.749 195.924 310.409 196.752 310.409 197.988C310.409 199.224 309.749 200.088 308.801 200.088ZM311.801 197.988C311.801 196.164 310.661 194.868 309.257 194.868C308.381 194.868 307.721 195.372 307.409 195.888V195.024H306.125V203.136H307.445V200.388C307.817 200.856 308.465 201.156 309.173 201.156C310.649 201.156 311.801 199.824 311.801 197.988Z" fill="#1E2528"/>
<path d="M314.394 195.024H313.074V201H314.394V195.024ZM314.394 192.696H313.074V194.004H314.394V192.696Z" fill="#1E2528"/>
<path d="M321.234 201.084L321.294 200.124C321.222 200.136 321.09 200.148 321.018 200.148C320.694 200.148 320.526 199.92 320.526 199.596V197.064C320.526 195.636 319.662 194.868 318.27 194.868C317.142 194.868 316.23 195.468 315.81 196.428L316.794 196.848C317.07 196.32 317.502 195.924 318.15 195.924C318.798 195.924 319.218 196.356 319.218 197.028V197.412L317.886 197.592C316.542 197.784 315.63 198.444 315.63 199.536C315.63 200.484 316.386 201.168 317.442 201.168C318.27 201.168 318.93 200.76 319.302 200.148C319.506 200.844 319.998 201.168 320.694 201.168C320.898 201.168 321.066 201.132 321.234 201.084ZM317.874 200.148C317.358 200.148 316.986 199.836 316.986 199.392C316.986 198.852 317.478 198.528 318.162 198.444L319.218 198.3V199.368C318.93 199.824 318.438 200.148 317.874 200.148Z" fill="#1E2528"/>
<path d="M327.529 201V197.088C327.529 195.792 326.641 194.868 325.489 194.868C324.661 194.868 323.965 195.336 323.569 195.9V195.024H322.297V201H323.617V196.716C323.941 196.296 324.505 195.96 325.093 195.96C325.741 195.96 326.209 196.44 326.209 197.184V201H327.529Z" fill="#1E2528"/>
<path d="M332.694 200.976V199.908C332.466 199.98 332.082 200.052 331.722 200.052C331.014 200.052 330.726 199.716 330.726 199.164V196.092H332.67V195.024H330.726V193.572H329.406V195.024H328.506V196.092H329.406V199.44C329.406 200.532 330.138 201.168 331.458 201.168C331.902 201.168 332.418 201.072 332.694 200.976Z" fill="#1E2528"/>
<path d="M338.918 201.084L338.978 200.124C338.906 200.136 338.774 200.148 338.702 200.148C338.378 200.148 338.21 199.92 338.21 199.596V197.064C338.21 195.636 337.346 194.868 335.954 194.868C334.826 194.868 333.914 195.468 333.494 196.428L334.478 196.848C334.754 196.32 335.186 195.924 335.834 195.924C336.482 195.924 336.902 196.356 336.902 197.028V197.412L335.57 197.592C334.226 197.784 333.314 198.444 333.314 199.536C333.314 200.484 334.07 201.168 335.126 201.168C335.954 201.168 336.614 200.76 336.986 200.148C337.19 200.844 337.682 201.168 338.378 201.168C338.582 201.168 338.75 201.132 338.918 201.084ZM335.558 200.148C335.042 200.148 334.67 199.836 334.67 199.392C334.67 198.852 335.162 198.528 335.846 198.444L336.902 198.3V199.368C336.614 199.824 336.122 200.148 335.558 200.148Z" fill="#1E2528"/>
<path d="M343.605 200.976V199.908C343.377 199.98 342.993 200.052 342.633 200.052C341.925 200.052 341.637 199.716 341.637 199.164V196.092H343.581V195.024H341.637V193.572H340.317V195.024H339.417V196.092H340.317V199.44C340.317 200.532 341.049 201.168 342.369 201.168C342.813 201.168 343.329 201.072 343.605 200.976Z" fill="#1E2528"/>
<path d="M349.589 199.62L348.581 199.224C348.293 199.788 347.765 200.124 347.189 200.124C346.301 200.124 345.665 199.404 345.581 198.3H349.601C349.637 198.144 349.661 197.796 349.661 197.508C349.661 195.948 348.593 194.868 347.081 194.868C345.425 194.868 344.213 196.224 344.213 198.084C344.213 199.884 345.425 201.168 347.093 201.168C348.209 201.168 349.169 200.58 349.589 199.62ZM347.081 195.876C347.825 195.876 348.329 196.464 348.377 197.376H345.629C345.809 196.452 346.373 195.876 347.081 195.876Z" fill="#1E2528"/>
<path d="M131.916 196.573L137.406 202.063L141.114 198.355L140.257 197.498L137.55 200.204L132.917 195.571L131.916 196.573Z" fill="#F9F9F9"/>
<path d="M144.324 193.193L143.331 193.625C143.526 194.228 143.391 194.839 142.983 195.246C142.355 195.874 141.397 195.815 140.557 195.093L143.399 192.251C143.314 192.115 143.085 191.852 142.882 191.648C141.778 190.545 140.26 190.537 139.19 191.606C138.019 192.777 138.121 194.593 139.436 195.908C140.709 197.181 142.474 197.232 143.654 196.052C144.443 195.263 144.706 194.168 144.324 193.193ZM139.903 192.319C140.429 191.793 141.201 191.852 141.88 192.463L139.937 194.406C139.411 193.625 139.403 192.819 139.903 192.319Z" fill="#F9F9F9"/>
<path d="M147.312 185.216L146.556 184.46L145.088 185.928L144.953 185.793C144.359 185.199 144.325 184.537 144.825 184.036C145.063 183.799 145.385 183.561 145.64 183.442L144.902 182.687C144.639 182.831 144.214 183.137 143.943 183.408C142.933 184.418 142.959 185.665 144.036 186.743L144.155 186.862L143.587 187.43L144.342 188.186L144.91 187.617L148.381 191.087L149.314 190.154L145.844 186.684L147.312 185.216Z" fill="#F9F9F9"/>
<path d="M153.082 182.16C151.793 180.87 149.977 180.819 148.755 182.041C147.525 183.272 147.567 185.096 148.857 186.386C150.146 187.676 151.971 187.718 153.201 186.488C154.423 185.266 154.372 183.45 153.082 182.16ZM149.841 185.402C148.992 184.553 148.848 183.458 149.51 182.797C150.163 182.143 151.25 182.296 152.098 183.144C152.947 183.993 153.091 185.071 152.438 185.724C151.776 186.386 150.69 186.25 149.841 185.402Z" fill="#F9F9F9"/>
<path d="M157.023 182.446L154.647 180.07C154.146 179.416 153.985 178.61 154.63 177.965C154.766 177.83 154.986 177.66 155.139 177.575L154.256 176.676C154.121 176.727 153.9 176.896 153.756 177.04C153.264 177.533 153.272 178.441 153.662 179.153L152.763 178.254L151.864 179.153L156.089 183.379L157.023 182.446Z" fill="#F9F9F9"/>
<path d="M161.701 175.816L160.708 176.249C160.903 176.851 160.767 177.462 160.36 177.869C159.732 178.497 158.773 178.438 157.933 177.717L160.776 174.874C160.691 174.738 160.462 174.475 160.258 174.272C159.155 173.169 157.636 173.16 156.567 174.229C155.396 175.4 155.498 177.216 156.813 178.531C158.086 179.804 159.851 179.855 161.03 178.676C161.819 177.886 162.082 176.792 161.701 175.816ZM157.28 174.942C157.806 174.416 158.578 174.475 159.257 175.086L157.314 177.029C156.788 176.249 156.779 175.443 157.28 174.942Z" fill="#F9F9F9"/>
<path d="M165.827 171.265C165.038 170.476 164.028 170.807 162.84 171.554C162.017 172.071 161.534 172.351 161.203 172.02C160.897 171.715 161.033 171.172 161.534 170.671C162.085 170.12 162.688 169.975 163.265 170.145L163.672 169.161C162.874 168.906 161.839 168.957 160.838 169.958C159.811 170.985 159.641 172.224 160.397 172.979C161.143 173.726 162.204 173.361 163.273 172.682C164.096 172.148 164.648 171.851 165.004 172.207C165.335 172.538 165.233 173.064 164.699 173.599C164.054 174.244 163.316 174.405 162.713 174.244L162.289 175.245C163.222 175.601 164.376 175.33 165.369 174.337C166.464 173.242 166.608 172.046 165.827 171.265Z" fill="#F9F9F9"/>
<path d="M170.41 169.024L169.655 168.269C169.544 168.481 169.324 168.804 169.069 169.058C168.568 169.559 168.127 169.525 167.737 169.135L165.565 166.963L166.939 165.588L166.184 164.833L164.81 166.207L163.783 165.181L162.849 166.114L163.876 167.141L163.24 167.777L163.995 168.532L164.631 167.896L166.999 170.263C167.771 171.035 168.738 170.968 169.672 170.034C169.986 169.72 170.283 169.288 170.41 169.024Z" fill="#F9F9F9"/>
<path d="M173.683 163.834L172.69 164.267C172.885 164.869 172.749 165.48 172.342 165.887C171.714 166.515 170.755 166.456 169.915 165.735L172.758 162.892C172.673 162.756 172.444 162.493 172.24 162.29C171.137 161.186 169.618 161.178 168.549 162.247C167.378 163.418 167.48 165.234 168.795 166.549C170.068 167.822 171.833 167.873 173.012 166.693C173.802 165.904 174.065 164.81 173.683 163.834ZM169.262 162.96C169.788 162.434 170.56 162.493 171.239 163.104L169.296 165.047C168.77 164.267 168.761 163.461 169.262 162.96Z" fill="#F9F9F9"/>
<path d="M181.049 158.419L176.823 154.194L175.89 155.127L178.783 158.021C178.97 158.598 178.902 159.243 178.478 159.667C178.02 160.125 177.332 160.083 176.823 159.573L174.133 156.884L173.2 157.817L175.966 160.583C176.874 161.491 178.13 161.559 178.936 160.753C179.53 160.159 179.666 159.344 179.462 158.632L180.149 159.319L181.049 158.419Z" fill="#F9F9F9"/>
<path d="M183.166 156.302L180.79 153.926C180.29 153.273 180.128 152.467 180.773 151.822C180.909 151.686 181.13 151.516 181.283 151.431L180.4 150.532C180.264 150.583 180.044 150.753 179.899 150.897C179.407 151.389 179.416 152.297 179.806 153.01L178.907 152.11L178.007 153.01L182.233 157.235L183.166 156.302Z" fill="#F9F9F9"/>
<path d="M187.307 147.919C186.017 146.629 184.346 146.451 183.31 147.486C182.835 147.961 182.589 148.733 182.666 149.437L180.4 147.172L179.467 148.105L185.415 154.053L186.297 153.171L185.78 152.653C186.442 152.721 187.239 152.467 187.706 152C188.775 150.931 188.605 149.217 187.307 147.919ZM186.671 151.508C186.28 151.898 185.729 152.076 185.237 152.008L183.26 150.031C183.183 149.531 183.37 148.954 183.777 148.546C184.414 147.91 185.466 148.046 186.306 148.886C187.171 149.751 187.324 150.854 186.671 151.508Z" fill="#F9F9F9"/>
<path d="M194.037 145.55L193.4 144.829C193.358 144.889 193.273 144.99 193.222 145.041C192.993 145.27 192.713 145.228 192.484 144.999L190.693 143.209C189.684 142.199 188.53 142.267 187.545 143.251C186.748 144.049 186.527 145.118 186.909 146.094L187.902 145.695C187.723 145.126 187.749 144.541 188.207 144.083C188.665 143.624 189.268 143.633 189.743 144.108L190.015 144.38L189.2 145.449C188.385 146.535 188.207 147.646 188.979 148.419C189.65 149.089 190.668 149.038 191.415 148.291C192 147.706 192.178 146.951 192.009 146.255C192.645 146.603 193.222 146.484 193.714 145.992C193.858 145.847 193.952 145.703 194.037 145.55ZM190.999 147.265C190.634 147.629 190.15 147.672 189.836 147.358C189.454 146.976 189.573 146.399 189.998 145.856L190.642 145.007L191.398 145.763C191.516 146.289 191.398 146.866 190.999 147.265Z" fill="#F9F9F9"/>
<path d="M198.428 141.04L195.662 138.274C194.746 137.357 193.464 137.332 192.65 138.146C192.064 138.732 191.903 139.555 192.022 140.234L191.403 139.614L190.503 140.514L194.729 144.739L195.662 143.806L192.633 140.777C192.565 140.251 192.726 139.614 193.142 139.199C193.6 138.74 194.271 138.749 194.797 139.275L197.495 141.973L198.428 141.04Z" fill="#F9F9F9"/>
<path d="M202.105 135.411L201.112 135.844C201.307 136.447 201.172 137.058 200.764 137.465C200.137 138.093 199.178 138.033 198.338 137.312L201.18 134.47C201.095 134.334 200.866 134.071 200.663 133.867C199.56 132.764 198.041 132.756 196.972 133.825C195.801 134.996 195.902 136.812 197.218 138.127C198.49 139.4 200.255 139.45 201.435 138.271C202.224 137.482 202.487 136.387 202.105 135.411ZM197.684 134.538C198.21 134.011 198.983 134.071 199.661 134.682L197.718 136.625C197.192 135.844 197.184 135.038 197.684 134.538Z" fill="#F9F9F9"/>
<path d="M134.937 223.04C134.309 223.668 133.257 223.515 132.409 222.667C131.552 221.81 131.407 220.715 132.061 220.062C132.443 219.68 132.977 219.485 133.435 219.536L135.429 221.53C135.506 222.064 135.328 222.65 134.937 223.04ZM137.517 221.75L131.569 215.802L130.635 216.736L132.799 218.899C132.188 218.849 131.501 219.095 131.051 219.544C129.965 220.63 130.126 222.353 131.441 223.668C132.714 224.941 134.394 225.111 135.446 224.058C135.913 223.592 136.151 222.76 136.049 222.047L136.634 222.633L137.517 221.75Z" fill="#F9F9F9"/>
<path d="M142.414 216.972L141.777 216.251C141.735 216.311 141.65 216.412 141.599 216.463C141.37 216.692 141.09 216.65 140.861 216.421L139.07 214.63C138.061 213.621 136.907 213.689 135.922 214.673C135.125 215.471 134.904 216.54 135.286 217.515L136.279 217.117C136.101 216.548 136.126 215.963 136.584 215.504C137.042 215.046 137.645 215.055 138.12 215.53L138.392 215.801L137.577 216.871C136.762 217.957 136.584 219.068 137.356 219.84C138.027 220.511 139.045 220.46 139.792 219.713C140.377 219.128 140.555 218.372 140.386 217.677C141.022 218.025 141.599 217.906 142.091 217.414C142.235 217.269 142.329 217.125 142.414 216.972ZM139.376 218.686C139.011 219.051 138.527 219.094 138.213 218.78C137.832 218.398 137.95 217.821 138.375 217.278L139.019 216.429L139.775 217.185C139.893 217.711 139.775 218.288 139.376 218.686Z" fill="#F9F9F9"/>
<path d="M146.201 211.776C145.853 212.124 145.31 212.328 144.809 212.303L142.858 210.351C142.773 209.859 142.866 209.222 143.291 208.798C143.927 208.162 144.979 208.28 145.853 209.154C146.727 210.028 146.871 211.106 146.201 211.776ZM146.837 208.17C145.548 206.88 143.825 206.77 142.832 207.763C142.213 208.382 142.103 209.205 142.247 209.791L141.636 209.18L140.728 210.088L146.464 215.824L147.397 214.891L145.454 212.947C146.048 213.015 146.719 212.769 147.219 212.269C148.263 211.225 148.136 209.468 146.837 208.17Z" fill="#F9F9F9"/>
<path d="M146.575 204.241L145.642 205.174L149.868 209.4L150.801 208.466L146.575 204.241ZM144.929 202.594L143.996 203.528L144.921 204.453L145.854 203.519L144.929 202.594Z" fill="#F9F9F9"/>
<path d="M155.697 203.689L155.06 202.968C155.018 203.027 154.933 203.129 154.882 203.18C154.653 203.409 154.373 203.367 154.144 203.138L152.354 201.347C151.344 200.338 150.19 200.405 149.205 201.39C148.408 202.187 148.187 203.257 148.569 204.232L149.562 203.834C149.384 203.265 149.409 202.68 149.867 202.221C150.326 201.763 150.928 201.772 151.403 202.247L151.675 202.518L150.86 203.587C150.046 204.674 149.867 205.785 150.639 206.557C151.31 207.228 152.328 207.177 153.075 206.43C153.66 205.845 153.838 205.089 153.669 204.394C154.305 204.741 154.882 204.623 155.374 204.131C155.519 203.986 155.612 203.842 155.697 203.689ZM152.659 205.403C152.294 205.768 151.81 205.811 151.496 205.497C151.115 205.115 151.233 204.538 151.658 203.995L152.303 203.146L153.058 203.901C153.177 204.428 153.058 205.005 152.659 205.403Z" fill="#F9F9F9"/>
<path d="M160.089 199.179L157.322 196.413C156.406 195.496 155.125 195.471 154.31 196.285C153.725 196.871 153.563 197.694 153.682 198.373L153.063 197.753L152.163 198.653L156.389 202.878L157.322 201.945L154.293 198.916C154.225 198.39 154.386 197.753 154.802 197.337C155.26 196.879 155.931 196.888 156.457 197.414L159.155 200.112L160.089 199.179Z" fill="#F9F9F9"/>
<path d="M163.724 195.509L162.969 194.754C162.859 194.966 162.638 195.289 162.383 195.543C161.883 196.044 161.442 196.01 161.051 195.62L158.879 193.447L160.254 192.073L159.498 191.317L158.124 192.692L157.097 191.665L156.164 192.599L157.19 193.625L156.554 194.262L157.309 195.017L157.946 194.381L160.313 196.748C161.085 197.52 162.052 197.452 162.986 196.519C163.3 196.205 163.597 195.772 163.724 195.509Z" fill="#F9F9F9"/>
<path d="M168.201 191.185L167.564 190.464C167.522 190.523 167.437 190.625 167.386 190.676C167.157 190.905 166.877 190.863 166.648 190.634L164.858 188.843C163.848 187.833 162.694 187.901 161.71 188.886C160.912 189.683 160.691 190.752 161.073 191.728L162.066 191.329C161.888 190.761 161.913 190.175 162.372 189.717C162.83 189.259 163.432 189.267 163.907 189.743L164.179 190.014L163.364 191.083C162.55 192.169 162.372 193.281 163.144 194.053C163.814 194.723 164.832 194.673 165.579 193.926C166.164 193.34 166.343 192.585 166.173 191.889C166.809 192.237 167.386 192.118 167.878 191.626C168.023 191.482 168.116 191.338 168.201 191.185ZM165.163 192.899C164.798 193.264 164.315 193.306 164.001 192.992C163.619 192.611 163.738 192.034 164.162 191.491L164.807 190.642L165.562 191.397C165.681 191.923 165.562 192.5 165.163 192.899Z" fill="#F9F9F9"/>
<path d="M169.826 189.441L167.451 187.065C166.95 186.411 166.789 185.605 167.434 184.96C167.569 184.825 167.79 184.655 167.943 184.57L167.06 183.671C166.925 183.722 166.704 183.891 166.56 184.036C166.068 184.528 166.076 185.436 166.466 186.148L165.567 185.249L164.667 186.148L168.893 190.374L169.826 189.441Z" fill="#F9F9F9"/>
<path d="M174.504 182.811L173.512 183.244C173.707 183.846 173.571 184.457 173.164 184.865C172.536 185.492 171.577 185.433 170.737 184.712L173.58 181.869C173.495 181.733 173.266 181.47 173.062 181.267C171.959 180.164 170.44 180.155 169.371 181.224C168.2 182.395 168.302 184.211 169.617 185.526C170.89 186.799 172.655 186.85 173.834 185.671C174.623 184.882 174.886 183.787 174.504 182.811ZM170.084 181.937C170.61 181.411 171.382 181.47 172.061 182.081L170.118 184.025C169.591 183.244 169.583 182.438 170.084 181.937Z" fill="#F9F9F9"/>
<path d="M180.835 176.48L179.843 176.913C180.038 177.516 179.902 178.126 179.495 178.534C178.867 179.162 177.908 179.102 177.068 178.381L179.91 175.538C179.826 175.403 179.596 175.14 179.393 174.936C178.29 173.833 176.771 173.824 175.702 174.894C174.531 176.065 174.633 177.88 175.948 179.196C177.221 180.468 178.985 180.519 180.165 179.34C180.954 178.551 181.217 177.456 180.835 176.48ZM176.414 175.606C176.941 175.08 177.713 175.14 178.392 175.751L176.448 177.694C175.922 176.913 175.914 176.107 176.414 175.606Z" fill="#F9F9F9"/>
<path d="M186.481 172.786L183.715 170.02C182.798 169.104 181.517 169.078 180.702 169.893C180.117 170.479 179.956 171.302 180.074 171.98L179.455 171.361L178.555 172.26L182.781 176.486L183.715 175.553L180.685 172.523C180.617 171.997 180.779 171.361 181.194 170.945C181.653 170.487 182.323 170.495 182.849 171.022L185.547 173.72L186.481 172.786Z" fill="#F9F9F9"/>
<path d="M190.116 169.117L189.361 168.362C189.251 168.574 189.03 168.896 188.776 169.151C188.275 169.652 187.834 169.618 187.443 169.227L185.271 167.055L186.646 165.68L185.891 164.925L184.516 166.3L183.489 165.273L182.556 166.207L183.583 167.233L182.946 167.87L183.701 168.625L184.338 167.988L186.705 170.356C187.477 171.128 188.445 171.06 189.378 170.127C189.692 169.813 189.989 169.38 190.116 169.117Z" fill="#F9F9F9"/>
<path d="M191.827 167.44L189.451 165.064C188.95 164.411 188.789 163.605 189.434 162.96C189.57 162.824 189.79 162.655 189.943 162.57L189.061 161.67C188.925 161.721 188.704 161.891 188.56 162.035C188.068 162.527 188.076 163.435 188.467 164.148L187.567 163.249L186.668 164.148L190.894 168.374L191.827 167.44Z" fill="#F9F9F9"/>
<path d="M195.784 159.258C194.494 157.968 192.678 157.917 191.456 159.139C190.226 160.369 190.268 162.194 191.558 163.484C192.848 164.773 194.672 164.816 195.902 163.585C197.124 162.364 197.073 160.548 195.784 159.258ZM192.542 162.499C191.694 161.651 191.549 160.556 192.211 159.894C192.865 159.241 193.951 159.394 194.799 160.242C195.648 161.091 195.792 162.168 195.139 162.822C194.477 163.484 193.391 163.348 192.542 162.499Z" fill="#F9F9F9"/>
<path d="M197.346 153.47L196.413 154.403L200.638 158.629L201.572 157.695L197.346 153.47ZM195.7 151.824L194.767 152.757L195.691 153.682L196.625 152.749L195.7 151.824Z" fill="#F9F9F9"/>
<path d="M197.753 149.618L196.82 150.551L202.768 156.499L203.701 155.566L197.753 149.618Z" fill="#F9F9F9"/>
<path d="M205.922 151.868L206.661 152.607L210.818 148.449L209.919 147.549L207.144 150.324L207.305 148.059C207.39 146.972 207.458 145.547 206.55 144.639C205.634 143.723 204.174 143.892 203.122 144.944C202.053 146.014 202.011 147.38 202.486 148.5L203.563 148.084C203.266 147.38 203.275 146.489 203.869 145.895C204.361 145.403 205.082 145.292 205.591 145.801C206.092 146.302 206.084 147.074 206.041 148.339L205.922 151.868Z" fill="#F9F9F9"/>
<path d="M213.478 140.291C211.781 138.594 209.676 138.39 208.285 139.782C206.885 141.182 207.088 143.286 208.785 144.983C210.491 146.689 212.595 146.892 213.995 145.492C215.387 144.101 215.183 141.996 213.478 140.291ZM209.855 143.914C208.658 142.718 208.378 141.419 209.15 140.647C209.914 139.884 211.221 140.155 212.417 141.352C213.622 142.556 213.894 143.863 213.13 144.627C212.358 145.399 211.06 145.119 209.855 143.914Z" fill="#F9F9F9"/>
<path d="M216.231 141.56L216.969 142.298L221.127 138.141L220.227 137.241L217.453 140.016L217.614 137.75C217.699 136.664 217.766 135.239 216.859 134.331C215.942 133.414 214.483 133.584 213.43 134.636C212.361 135.705 212.319 137.071 212.794 138.191L213.872 137.776C213.575 137.071 213.583 136.18 214.177 135.587C214.669 135.094 215.391 134.984 215.9 135.493C216.4 135.994 216.392 136.766 216.349 138.03L216.231 141.56Z" fill="#F9F9F9"/>
<path d="M225.577 133.691L224.414 132.528L225.288 131.654L224.439 130.806L223.566 131.68L220.087 128.201L219.187 129.1L219.985 135.515L220.706 136.236L223.421 133.521L224.584 134.683L225.577 133.691ZM222.581 132.664L220.867 134.378L220.384 130.466L222.581 132.664Z" fill="#F9F9F9"/>
<path fill-rule="evenodd" clip-rule="evenodd" d="M168.573 225.383C163.497 223.28 158.885 220.198 155 216.313L214.167 157.147C218.052 161.032 221.133 165.644 223.236 170.72C225.338 175.796 226.42 181.236 226.42 186.73C226.42 192.224 225.338 197.665 223.236 202.741C221.133 207.816 218.052 212.429 214.167 216.313C211.399 219.081 208.263 221.441 204.853 223.329C201.363 219.846 198.68 216.291 196.728 213.303C195.317 211.144 194.289 209.284 193.615 207.965C193.278 207.306 193.03 206.782 192.866 206.425C192.784 206.246 192.723 206.109 192.683 206.017C192.663 205.971 192.649 205.937 192.639 205.914L192.628 205.889L192.626 205.883L192.626 205.882C192.52 205.627 192.228 205.505 191.972 205.611C191.717 205.716 191.596 206.008 191.701 206.264L192.163 206.073C191.701 206.264 191.701 206.264 191.702 206.265L191.703 206.267L191.706 206.275L191.718 206.304C191.729 206.33 191.745 206.367 191.766 206.416C191.809 206.514 191.872 206.657 191.957 206.841C192.126 207.211 192.381 207.747 192.725 208.42C193.413 209.766 194.458 211.657 195.891 213.85C197.832 216.821 200.488 220.349 203.934 223.823C202.846 224.391 201.731 224.911 200.594 225.383C195.518 227.485 190.077 228.567 184.583 228.567C179.089 228.567 173.649 227.485 168.573 225.383ZM203.934 223.823C205.574 225.477 207.393 227.118 209.399 228.681C215.625 233.529 223.654 237.625 233.724 238.991C243.533 240.322 255.25 239.058 269.085 233.419L267.839 236.478C267.735 236.734 267.858 237.025 268.114 237.13C268.369 237.234 268.661 237.111 268.765 236.855L270.463 232.688C270.567 232.432 270.444 232.14 270.189 232.036L266.021 230.338C265.765 230.234 265.474 230.357 265.37 230.613C265.265 230.868 265.388 231.16 265.644 231.264L268.684 232.503C254.997 238.078 243.465 239.303 233.858 238C223.99 236.661 216.123 232.65 210.014 227.892C208.128 226.423 206.41 224.883 204.853 223.329C204.549 223.498 204.242 223.662 203.934 223.823Z" fill="#1E2528"/>
<path d="M338.279 7V2.45L340.039 4.73H340.529L342.249 2.39V7H343.399V0.53H342.299L340.299 3.31L338.189 0.53H337.169V7H338.279Z" fill="#C5C5C5"/>
<path d="M346.011 2.02H344.911V7H346.011V2.02ZM346.011 0.0799997H344.911V1.17H346.011V0.0799997Z" fill="#C5C5C5"/>
<path d="M352.072 1.54V0.53H346.822V1.54H348.852V7H350.032V1.54H352.072Z" fill="#C5C5C5"/>
<path d="M357.599 7V6.01H354.219V4.25H356.909V3.29H354.219V1.52H357.529V0.53H353.039V7H357.599Z" fill="#C5C5C5"/>
<path d="M336.359 8H357.999V8.5H336.359V8Z" fill="#C5C5C5"/>
<path d="M310.54 4.4V3.43H307.99V1.52H311.23V0.53H306.81V7H307.99V4.4H310.54Z" fill="#1E2528"/>
<path d="M316.525 4.51C316.525 2.99 315.485 1.89 314.045 1.89C312.595 1.89 311.545 2.99 311.545 4.51C311.545 6.03 312.595 7.13 314.045 7.13C315.485 7.13 316.525 6.03 316.525 4.51ZM312.705 4.51C312.705 3.51 313.265 2.78 314.045 2.78C314.815 2.78 315.365 3.51 315.365 4.51C315.365 5.51 314.815 6.23 314.045 6.23C313.265 6.23 312.705 5.51 312.705 4.51Z" fill="#1E2528"/>
<path d="M321.939 7V3.74C321.939 2.66 321.199 1.89 320.239 1.89C319.549 1.89 318.969 2.28 318.639 2.75V2.02H317.579V7H318.679V3.43C318.949 3.08 319.419 2.8 319.909 2.8C320.449 2.8 320.839 3.2 320.839 3.82V7H321.939Z" fill="#1E2528"/>
<path d="M326.243 6.98V6.09C326.053 6.15 325.733 6.21 325.433 6.21C324.843 6.21 324.603 5.93 324.603 5.47V2.91H326.223V2.02H324.603V0.81H323.503V2.02H322.753V2.91H323.503V5.7C323.503 6.61 324.113 7.14 325.213 7.14C325.583 7.14 326.013 7.06 326.243 6.98Z" fill="#1E2528"/>
<path d="M331.231 5.85L330.391 5.52C330.151 5.99 329.711 6.27 329.231 6.27C328.491 6.27 327.961 5.67 327.891 4.75H331.241C331.271 4.62 331.291 4.33 331.291 4.09C331.291 2.79 330.401 1.89 329.141 1.89C327.761 1.89 326.751 3.02 326.751 4.57C326.751 6.07 327.761 7.14 329.151 7.14C330.081 7.14 330.881 6.65 331.231 5.85ZM329.141 2.73C329.761 2.73 330.181 3.22 330.221 3.98H327.931C328.081 3.21 328.551 2.73 329.141 2.73Z" fill="#1E2528"/>
<path d="M302 4C302 6.20914 300.209 8 298 8C295.791 8 294 6.20914 294 4C294 1.79086 295.791 0 298 0C300.209 0 302 1.79086 302 4Z" fill="url(#paint1_linear_451_41)"/>
<defs>
<linearGradient id="paint0_linear_451_41" x1="-71.6215" y1="-76.9129" x2="451.107" y2="-74.1906" gradientUnits="userSpaceOnUse">
<stop stop-color="#07A76F"/>
<stop offset="1" stop-color="#8ECA45"/>
</linearGradient>
<linearGradient id="paint1_linear_451_41" x1="-71.6215" y1="-76.9129" x2="451.107" y2="-74.1906" gradientUnits="userSpaceOnUse">
<stop stop-color="#07A76F"/>
<stop offset="1" stop-color="#8ECA45"/>
</linearGradient>
</defs>
</svg>
