<svg width="339" height="39" viewBox="0 0 339 39" fill="none" xmlns="http://www.w3.org/2000/svg">
<path d="M19.1878 4.64434L25 1.28868L30.8122 4.64434V11.3557L25 14.7113L19.1878 11.3557V4.64434Z" fill="#056B47" stroke="#3D3D3D" stroke-width="0.5"/>
<path d="M39.912 6.972L44.424 8.844L39.912 10.704V11.64L45.528 9.324V8.364L39.912 6.048V6.972ZM51.8895 12L55.2015 5.028V4.236H49.8375V5.292H53.9655L50.7255 12H51.8895ZM62.7334 9.456C62.7334 7.968 61.4734 6.852 59.8894 6.852C59.0734 6.852 58.4254 7.152 58.0174 7.452L58.1734 5.292H62.3854V4.236H57.2854L56.9854 8.58L57.7294 8.736C58.1134 8.184 58.8814 7.812 59.6854 7.812C60.7894 7.812 61.5694 8.532 61.5694 9.528C61.5694 10.536 60.7774 11.184 59.6134 11.184C58.6174 11.184 57.8974 10.704 57.4534 9.852L56.5894 10.296C57.1774 11.448 58.2694 12.156 59.6494 12.156C61.4254 12.156 62.7334 10.98 62.7334 9.456ZM75.3229 12V8.064C75.3229 6.792 74.4589 5.892 73.3429 5.892C72.5509 5.892 71.8549 6.372 71.4349 7.008C71.1109 6.324 70.4869 5.892 69.7549 5.892C68.9629 5.892 68.3029 6.396 67.9549 6.96V6.048H66.9709V12H67.9909V7.656C68.3269 7.152 68.9029 6.756 69.4909 6.756C70.1509 6.756 70.6309 7.308 70.6309 8.136V12H71.6509V8.064C71.6509 7.884 71.6389 7.716 71.6029 7.548C71.9629 7.092 72.5389 6.756 73.1149 6.756C73.7989 6.756 74.3029 7.308 74.3029 8.136V12H75.3229ZM80.5882 8.976V8.136H77.9362L79.0762 7.236C79.9882 6.528 80.3362 6.108 80.3362 5.472C80.3362 4.68 79.5802 4.116 78.5842 4.116C77.6002 4.116 76.9402 4.692 76.6282 5.4L77.3482 5.724C77.5402 5.256 77.9722 4.92 78.4762 4.92C78.9562 4.92 79.3162 5.196 79.3162 5.58C79.3162 5.952 79.0522 6.228 78.3202 6.864L76.6522 8.304V8.976H80.5882Z" fill="#3D3D3D"/>
<path d="M97.1878 4.64434L103 1.28868L108.812 4.64434V11.3557L103 14.7113L97.1878 11.3557V4.64434Z" fill="#64BC00" stroke="#3D3D3D" stroke-width="0.5"/>
<path d="M117.912 6.972L122.424 8.844L117.912 10.704V11.64L123.528 9.324V8.364L117.912 6.048V6.972ZM133.562 9.456C133.562 7.968 132.302 6.852 130.718 6.852C129.902 6.852 129.254 7.152 128.846 7.452L129.002 5.292H133.214V4.236H128.114L127.814 8.58L128.558 8.736C128.942 8.184 129.71 7.812 130.514 7.812C131.618 7.812 132.398 8.532 132.398 9.528C132.398 10.536 131.606 11.184 130.442 11.184C129.446 11.184 128.726 10.704 128.282 9.852L127.418 10.296C128.006 11.448 129.098 12.156 130.478 12.156C132.254 12.156 133.562 10.98 133.562 9.456ZM140.901 8.112C140.901 5.712 139.629 4.08 137.709 4.08C135.789 4.08 134.493 5.712 134.493 8.112C134.493 10.524 135.789 12.156 137.709 12.156C139.629 12.156 140.901 10.524 140.901 8.112ZM135.669 8.112C135.669 6.276 136.485 5.052 137.709 5.052C138.921 5.052 139.737 6.276 139.737 8.112C139.737 9.96 138.921 11.184 137.709 11.184C136.485 11.184 135.669 9.96 135.669 8.112ZM144.839 9.288H150.455V8.532H144.839V9.288ZM156.948 12L160.26 5.028V4.236H154.896V5.292H159.024L155.784 12H156.948ZM167.792 9.456C167.792 7.968 166.532 6.852 164.948 6.852C164.132 6.852 163.484 7.152 163.076 7.452L163.232 5.292H167.444V4.236H162.344L162.044 8.58L162.788 8.736C163.172 8.184 163.94 7.812 164.744 7.812C165.848 7.812 166.628 8.532 166.628 9.528C166.628 10.536 165.836 11.184 164.672 11.184C163.676 11.184 162.956 10.704 162.512 9.852L161.648 10.296C162.236 11.448 163.328 12.156 164.708 12.156C166.484 12.156 167.792 10.98 167.792 9.456Z" fill="#3D3D3D"/>
<path d="M182.188 4.64434L188 1.28868L193.812 4.64434V11.3557L188 14.7113L182.188 11.3557V4.64434Z" fill="#D1FF54" stroke="#3D3D3D" stroke-width="0.5"/>
<path d="M202.912 6.972L207.424 8.844L202.912 10.704V11.64L208.528 9.324V8.364L202.912 6.048V6.972ZM212.658 11.124V12H218.442V10.992H214.23L216.198 9.252C216.93 8.592 218.082 7.572 218.082 6.252C218.082 4.98 216.966 4.08 215.526 4.08C214.074 4.08 213.114 5.004 212.658 6.108L213.51 6.504C213.834 5.736 214.518 5.052 215.465 5.052C216.246 5.052 216.918 5.532 216.918 6.36C216.918 7.164 216.258 7.788 215.334 8.652L212.658 11.124ZM225.901 8.112C225.901 5.712 224.629 4.08 222.709 4.08C220.789 4.08 219.493 5.712 219.493 8.112C219.493 10.524 220.789 12.156 222.709 12.156C224.629 12.156 225.901 10.524 225.901 8.112ZM220.669 8.112C220.669 6.276 221.485 5.052 222.709 5.052C223.921 5.052 224.737 6.276 224.737 8.112C224.737 9.96 223.921 11.184 222.709 11.184C221.485 11.184 220.669 9.96 220.669 8.112ZM229.839 9.288H235.455V8.532H229.839V9.288ZM245.62 9.456C245.62 7.968 244.36 6.852 242.776 6.852C241.96 6.852 241.312 7.152 240.904 7.452L241.06 5.292H245.272V4.236H240.172L239.872 8.58L240.616 8.736C241 8.184 241.768 7.812 242.572 7.812C243.676 7.812 244.456 8.532 244.456 9.528C244.456 10.536 243.664 11.184 242.5 11.184C241.504 11.184 240.784 10.704 240.34 9.852L239.476 10.296C240.064 11.448 241.156 12.156 242.536 12.156C244.312 12.156 245.62 10.98 245.62 9.456ZM252.96 8.112C252.96 5.712 251.688 4.08 249.768 4.08C247.848 4.08 246.552 5.712 246.552 8.112C246.552 10.524 247.848 12.156 249.768 12.156C251.688 12.156 252.96 10.524 252.96 8.112ZM247.728 8.112C247.728 6.276 248.544 5.052 249.768 5.052C250.98 5.052 251.796 6.276 251.796 8.112C251.796 9.96 250.98 11.184 249.768 11.184C248.544 11.184 247.728 9.96 247.728 8.112Z" fill="#3D3D3D"/>
<path d="M267.188 4.64434L273 1.28868L278.812 4.64434V11.3557L273 14.7113L267.188 11.3557V4.64434Z" fill="#FFFF00" stroke="#3D3D3D" stroke-width="0.5"/>
<path d="M287.912 6.972L292.424 8.844L287.912 10.704V11.64L293.528 9.324V8.364L287.912 6.048V6.972ZM300.478 4.236L298.21 5.148L298.558 6.048L300.238 5.46V11.052H298.378V12H303.046V11.052H301.342V4.236H300.478ZM310.733 9.456C310.733 7.968 309.473 6.852 307.889 6.852C307.073 6.852 306.425 7.152 306.017 7.452L306.173 5.292H310.385V4.236H305.285L304.985 8.58L305.729 8.736C306.113 8.184 306.881 7.812 307.685 7.812C308.789 7.812 309.569 8.532 309.569 9.528C309.569 10.536 308.777 11.184 307.613 11.184C306.617 11.184 305.897 10.704 305.453 9.852L304.589 10.296C305.177 11.448 306.269 12.156 307.649 12.156C309.425 12.156 310.733 10.98 310.733 9.456ZM314.839 9.288H320.455V8.532H314.839V9.288ZM324.716 11.124V12H330.5V10.992H326.288L328.256 9.252C328.988 8.592 330.14 7.572 330.14 6.252C330.14 4.98 329.024 4.08 327.584 4.08C326.132 4.08 325.172 5.004 324.716 6.108L325.568 6.504C325.892 5.736 326.576 5.052 327.524 5.052C328.304 5.052 328.976 5.532 328.976 6.36C328.976 7.164 328.316 7.788 327.392 8.652L324.716 11.124ZM337.96 8.112C337.96 5.712 336.688 4.08 334.768 4.08C332.848 4.08 331.552 5.712 331.552 8.112C331.552 10.524 332.848 12.156 334.768 12.156C336.688 12.156 337.96 10.524 337.96 8.112ZM332.728 8.112C332.728 6.276 333.544 5.052 334.768 5.052C335.98 5.052 336.796 6.276 336.796 8.112C336.796 9.96 335.98 11.184 334.768 11.184C333.544 11.184 332.728 9.96 332.728 8.112Z" fill="#3D3D3D"/>
<path d="M19.1878 27.6443L25 24.2887L30.8122 27.6443V34.3557L25 37.7113L19.1878 34.3557V27.6443Z" fill="#FFC754" stroke="#3D3D3D" stroke-width="0.5"/>
<path d="M39.912 29.972L44.424 31.844L39.912 33.704V34.64L45.528 32.324V31.364L39.912 29.048V29.972ZM50.5815 29.732C50.5815 28.76 51.3135 28.052 52.3335 28.052C53.3775 28.052 54.1575 28.76 54.4095 30.044C54.0615 30.8 53.2935 31.328 52.4175 31.352C51.3855 31.376 50.5815 30.728 50.5815 29.732ZM55.6455 31.028C55.6455 28.688 54.2775 27.08 52.3095 27.08C50.6655 27.08 49.4175 28.232 49.4175 29.768C49.4175 31.304 50.7135 32.324 52.2495 32.288C53.1975 32.252 54.0495 31.796 54.5055 31.124C54.4815 33.056 53.6295 34.232 52.2735 34.232C51.4335 34.232 50.6655 33.788 50.1855 33.056L49.4055 33.596C50.0655 34.616 51.0975 35.156 52.2615 35.156C54.3255 35.156 55.6455 33.428 55.6455 31.028ZM59.667 32.288H65.283V31.532H59.667V32.288ZM72.3642 27.236L70.0962 28.148L70.4442 29.048L72.1242 28.46V34.052H70.2642V35H74.9322V34.052H73.2282V27.236H72.3642ZM82.6201 32.456C82.6201 30.968 81.3601 29.852 79.7761 29.852C78.9601 29.852 78.3121 30.152 77.9041 30.452L78.0601 28.292H82.2721V27.236H77.1721L76.8721 31.58L77.6161 31.736C78.0001 31.184 78.7681 30.812 79.5721 30.812C80.6761 30.812 81.4561 31.532 81.4561 32.528C81.4561 33.536 80.6641 34.184 79.5001 34.184C78.5041 34.184 77.7841 33.704 77.3401 32.852L76.4761 33.296C77.0641 34.448 78.1561 35.156 79.5361 35.156C81.3121 35.156 82.6201 33.98 82.6201 32.456Z" fill="#3D3D3D"/>
<path d="M97.1878 27.6443L103 24.2887L108.812 27.6443V34.3557L103 37.7113L97.1878 34.3557V27.6443Z" fill="#FFA8A8" stroke="#3D3D3D" stroke-width="0.5"/>
<path d="M117.912 29.972L122.424 31.844L117.912 33.704V34.64L123.528 32.324V31.364L117.912 29.048V29.972ZM132.362 35V33.212H133.694V32.264H132.362V27.236H131.366L127.31 32.444V33.212H131.27V35H132.362ZM131.27 32.264H128.558L131.27 28.784V32.264ZM136.041 35V33.404H134.841V35H136.041ZM143.394 32.456C143.394 30.968 142.134 29.852 140.55 29.852C139.734 29.852 139.086 30.152 138.678 30.452L138.834 28.292H143.046V27.236H137.946L137.646 31.58L138.39 31.736C138.774 31.184 139.542 30.812 140.346 30.812C141.45 30.812 142.23 31.532 142.23 32.528C142.23 33.536 141.438 34.184 140.274 34.184C139.278 34.184 138.558 33.704 138.114 32.852L137.25 33.296C137.838 34.448 138.93 35.156 140.31 35.156C142.086 35.156 143.394 33.98 143.394 32.456ZM147.499 32.288H153.115V31.532H147.499V32.288ZM158.3 29.732C158.3 28.76 159.032 28.052 160.052 28.052C161.096 28.052 161.876 28.76 162.128 30.044C161.78 30.8 161.012 31.328 160.136 31.352C159.104 31.376 158.3 30.728 158.3 29.732ZM163.364 31.028C163.364 28.688 161.996 27.08 160.028 27.08C158.384 27.08 157.136 28.232 157.136 29.768C157.136 31.304 158.432 32.324 159.968 32.288C160.916 32.252 161.768 31.796 162.224 31.124C162.2 33.056 161.348 34.232 159.992 34.232C159.152 34.232 158.384 33.788 157.904 33.056L157.124 33.596C157.784 34.616 158.816 35.156 159.98 35.156C162.044 35.156 163.364 33.428 163.364 31.028Z" fill="#3D3D3D"/>
<path d="M177.188 27.6443L183 24.2887L188.812 27.6443V34.3557L183 37.7113L177.188 34.3557V27.6443Z" fill="#FF0000" stroke="#3D3D3D" stroke-width="0.5"/>
<path d="M197.648 31.364V32.324L203.264 34.64V33.704L198.752 31.844L203.264 29.972V29.048L197.648 31.364ZM212.362 35V33.212H213.694V32.264H212.362V27.236H211.366L207.31 32.444V33.212H211.27V35H212.362ZM211.27 32.264H208.558L211.27 28.784V32.264ZM216.041 35V33.404H214.841V35H216.041ZM223.394 32.456C223.394 30.968 222.134 29.852 220.55 29.852C219.734 29.852 219.086 30.152 218.678 30.452L218.834 28.292H223.046V27.236H217.946L217.646 31.58L218.39 31.736C218.774 31.184 219.542 30.812 220.346 30.812C221.45 30.812 222.23 31.532 222.23 32.528C222.23 33.536 221.438 34.184 220.274 34.184C219.278 34.184 218.558 33.704 218.114 32.852L217.25 33.296C217.838 34.448 218.93 35.156 220.31 35.156C222.086 35.156 223.394 33.98 223.394 32.456ZM235.983 35V31.064C235.983 29.792 235.119 28.892 234.003 28.892C233.211 28.892 232.515 29.372 232.095 30.008C231.771 29.324 231.147 28.892 230.415 28.892C229.623 28.892 228.963 29.396 228.615 29.96V29.048H227.631V35H228.651V30.656C228.987 30.152 229.563 29.756 230.151 29.756C230.811 29.756 231.291 30.308 231.291 31.136V35H232.311V31.064C232.311 30.884 232.299 30.716 232.263 30.548C232.623 30.092 233.199 29.756 233.775 29.756C234.459 29.756 234.963 30.308 234.963 31.136V35H235.983Z" fill="#3D3D3D"/>
<path d="M3.64645 38.3536C3.84171 38.5488 4.15829 38.5488 4.35355 38.3536L7.53553 35.1716C7.7308 34.9763 7.7308 34.6597 7.53553 34.4645C7.34027 34.2692 7.02369 34.2692 6.82843 34.4645L4 37.2929L1.17157 34.4645C0.976311 34.2692 0.659728 34.2692 0.464466 34.4645C0.269204 34.6597 0.269204 34.9763 0.464466 35.1716L3.64645 38.3536ZM3.5 0L3.5 38H4.5L4.5 0L3.5 0Z" fill="black"/>
</svg>
