<svg width="49" height="49" viewBox="0 0 49 49" fill="none" xmlns="http://www.w3.org/2000/svg">
<circle cx="24.4947" cy="24.4949" r="20" transform="rotate(15 24.4947 24.4949)" fill="url(#paint0_linear_153_573)"/>
<path d="M15.6162 18.2947C17.0465 18.0956 18.4668 17.9909 19.8769 17.9805L20.4569 18.2269C20.1364 19.1965 19.8177 20.2728 19.5008 21.4557L18.7637 24.2063C18.5408 25.0383 18.4126 25.562 18.3791 25.7775C18.3457 25.993 18.3694 26.1419 18.4505 26.2243L19.8165 26.7632L19.6118 27.5272L13.7285 25.9508L13.9287 25.2037L15.5696 25.4978C15.6867 25.4685 15.7874 25.353 15.8718 25.1511C15.9619 24.9508 16.1237 24.4149 16.3572 23.5433L16.9919 21.1747C17.2315 20.2805 17.4289 19.657 17.5841 19.3043C16.9629 19.2228 16.2889 19.1119 15.5622 18.9718L15.6162 18.2947ZM19.7368 29.9811C19.8233 29.6585 20.0016 29.3211 20.2719 28.9689C20.5463 28.6239 20.797 28.4241 21.0239 28.3697C21.4132 28.5468 21.8801 29.0571 22.4245 29.9005C22.9688 30.744 23.2844 31.2077 23.3711 31.2916C24.0145 31.4033 24.5794 31.3211 25.0659 31.0451C25.5565 30.7762 25.8875 30.3219 26.0589 29.6824C26.2666 28.907 26.1212 28.2159 25.6226 27.6092C25.1296 27.0039 24.4841 26.5944 23.6861 26.3806C23.1541 26.238 22.609 26.1556 22.0508 26.1335L21.5558 25.7734C21.899 25.0585 22.2113 24.2778 22.4928 23.4312L23.9126 19.253L24.065 19.1937C25.0081 19.5677 26.393 20.0025 28.2195 20.498C29.0402 20.7179 29.5402 20.776 29.7196 20.6725L30.47 19.536L31.174 19.761C30.5012 21.5704 30.0195 22.7455 29.729 23.2864C27.4707 22.6813 25.6008 22.1439 24.1192 21.6741L23.4467 23.5048L23.2015 24.0123C23.7631 23.999 24.4478 24.1037 25.2557 24.3262C26.4385 24.6431 27.3711 25.2266 28.0532 26.0767C28.7425 26.9226 28.9332 27.92 28.6254 29.0689C28.2993 30.2858 27.5783 31.1541 26.4624 31.674C25.3521 32.1954 24.2055 32.2977 23.0226 31.9807C22.0605 31.7229 21.2515 31.403 20.5956 31.021C19.9381 30.6447 19.6519 30.298 19.7368 29.9811ZM32.7733 19.8711C32.8764 19.4862 33.0978 19.1694 33.4374 18.9207C33.777 18.672 34.1251 18.5954 34.4817 18.691C34.9458 18.8153 35.3206 19.0917 35.6062 19.52C35.8989 19.9442 35.9831 20.3884 35.8588 20.8525C35.5236 22.1033 34.3708 22.9985 32.4003 23.5381L32.1663 22.7475C33.1639 22.4203 33.7188 22.0473 33.831 21.6285C33.8614 21.5153 33.8398 21.4034 33.7663 21.2927C33.7 21.1779 33.5313 21.0265 33.2602 20.8386C32.8461 20.5275 32.6838 20.205 32.7733 19.8711Z" fill="#F9F9F9"/>
<defs>
<linearGradient id="paint0_linear_153_573" x1="-3.51362" y1="-5.19291" x2="54.8995" y2="-4.92302" gradientUnits="userSpaceOnUse">
<stop stop-color="#07A76F"/>
<stop offset="1" stop-color="#8ECA45"/>
</linearGradient>
</defs>
</svg>
