<svg width="49" height="49" viewBox="0 0 49 49" fill="none" xmlns="http://www.w3.org/2000/svg">
  <circle cx="24.4947" cy="24.4949" r="20" transform="rotate(15 24.4947 24.4949)" fill="url(#paint0_linear_360_123)"/>
  <path
    d="M16.1724 19.1759C17.6027 18.9768 19.0229 18.8721 20.433 18.8617L21.0131 19.1081C20.6926 20.0777 20.3739 21.154 20.0569 22.3369L19.3199 25.0875C19.097 25.9195 18.9688 26.4432 18.9353 26.6587C18.9018 26.8742 18.9256 27.0231 19.0067 27.1055L20.3727 27.6444L20.168 28.4085L14.2847 26.832L14.4849 26.0849L16.1258 26.379C16.2428 26.3497 16.3436 26.2342 16.428 26.0324C16.518 25.832 16.6799 25.2961 16.9134 24.4245L17.5481 22.0559C17.7877 21.1617 17.9851 20.5382 18.1402 20.1855C17.5191 20.104 16.8451 19.9931 16.1183 19.853L16.1724 19.1759ZM22.5852 24.3792C22.9582 22.9869 23.7219 21.9935 24.876 21.3989C26.0317 20.7986 27.1953 20.6555 28.3669 20.9694C29.5724 21.2924 30.5157 21.994 31.1968 23.0743C31.8851 24.1505 32.0397 25.396 31.6605 26.8109C31.2875 28.2032 30.5373 29.2033 29.4099 29.8111C28.2897 30.4148 27.1042 30.5491 25.8534 30.2139C24.6252 29.8848 23.6791 29.1824 23.015 28.1067C22.3523 27.0253 22.2091 25.7828 22.5852 24.3792ZM25.1575 25.0685C24.8618 26.1721 24.7769 27.1229 24.9027 27.921C25.0358 28.7149 25.4447 29.2036 26.1295 29.3871C26.803 29.5676 27.3895 29.3486 27.8888 28.7302C28.3896 28.1062 28.7894 27.2366 29.0882 26.1217C29.393 24.9841 29.481 24.0219 29.3521 23.2352C29.2232 22.4484 28.8107 21.9618 28.1145 21.7753C27.4523 21.5978 26.8657 21.8289 26.3547 22.4684C25.8493 23.1094 25.4502 23.9761 25.1575 25.0685ZM34.7387 21.1299C34.8418 20.745 35.0632 20.4282 35.4028 20.1795C35.7424 19.9308 36.0905 19.8542 36.4471 19.9498C36.9112 20.0741 37.286 20.3505 37.5716 20.7788C37.8644 21.2031 37.9486 21.6472 37.8242 22.1113C37.4891 23.3621 36.3363 24.2573 34.3658 24.797L34.1318 24.0063C35.1293 23.6792 35.6842 23.3062 35.7965 22.8873C35.8268 22.7741 35.8052 22.6622 35.7318 22.5515C35.6655 22.4367 35.4967 22.2854 35.2256 22.0974C34.8115 21.7863 34.6493 21.4638 34.7387 21.1299Z"
    fill="#F9F9F9"/>
  <defs>
    <linearGradient id="paint0_linear_360_123" x1="-3.51362" y1="-5.19291" x2="54.8995" y2="-4.92302" gradientUnits="userSpaceOnUse">
      <stop stop-color="#07A76F"/>
      <stop offset="1" stop-color="#8ECA45"/>
    </linearGradient>
  </defs>
</svg>
